<svg width="167" height="37" viewBox="0 0 167 37" fill="none" xmlns="http://www.w3.org/2000/svg">
<path d="M0.666504 2C0.666504 0.895432 1.56193 0 2.6665 0H166.667L157.167 18.5L166.667 37H2.6665C1.56193 37 0.666504 36.1046 0.666504 35V2Z" fill="#EEBE42"/>
<path d="M21.1785 12.2H23.1665V22H21.2485V15.644L18.4905 20.194H18.2665L15.5085 15.658V22H13.5765V12.2H15.5645L18.3785 16.834L21.1785 12.2ZM33.2385 20.726C32.2492 21.706 31.0452 22.196 29.6265 22.196C28.2079 22.196 27.0039 21.706 26.0145 20.726C25.0345 19.7273 24.5445 18.5187 24.5445 17.1C24.5445 15.672 25.0345 14.468 26.0145 13.488C27.0039 12.4987 28.2079 12.004 29.6265 12.004C31.0452 12.004 32.2492 12.4987 33.2385 13.488C34.2279 14.468 34.7225 15.672 34.7225 17.1C34.7225 18.528 34.2279 19.7367 33.2385 20.726ZM27.3725 19.41C27.9699 20.0073 28.7212 20.306 29.6265 20.306C30.5319 20.306 31.2832 20.0073 31.8805 19.41C32.4872 18.8033 32.7905 18.0333 32.7905 17.1C32.7905 16.1667 32.4872 15.3967 31.8805 14.79C31.2739 14.1833 30.5225 13.88 29.6265 13.88C28.7305 13.88 27.9792 14.1833 27.3725 14.79C26.7659 15.3967 26.4625 16.1667 26.4625 17.1C26.4625 18.0333 26.7659 18.8033 27.3725 19.41ZM39.0709 22.196C38.1096 22.196 37.2976 21.9813 36.6349 21.552C35.9723 21.1227 35.5009 20.53 35.2209 19.774L36.8729 18.808C37.2556 19.8067 38.0069 20.306 39.1269 20.306C39.6496 20.306 40.0416 20.2127 40.3029 20.026C40.5643 19.8393 40.6949 19.5873 40.6949 19.27C40.6949 18.9247 40.5409 18.6587 40.2329 18.472C39.9249 18.276 39.3743 18.066 38.5809 17.842C37.7223 17.5807 37.0456 17.2773 36.5509 16.932C35.9349 16.4747 35.6269 15.8027 35.6269 14.916C35.6269 14.02 35.9396 13.3153 36.5649 12.802C37.1903 12.27 37.9509 12.004 38.8469 12.004C39.6309 12.004 40.3263 12.1953 40.9329 12.578C41.5396 12.9607 42.0109 13.502 42.3469 14.202L40.7229 15.14C40.3309 14.3 39.7056 13.88 38.8469 13.88C38.4549 13.88 38.1423 13.9733 37.9089 14.16C37.6756 14.3373 37.5589 14.5707 37.5589 14.86C37.5589 15.168 37.6849 15.42 37.9369 15.616C38.2169 15.812 38.7116 16.0173 39.4209 16.232L40.0929 16.456C40.2143 16.4933 40.4243 16.5727 40.7229 16.694C41.0029 16.7967 41.2083 16.8947 41.3389 16.988C41.7963 17.268 42.1043 17.5573 42.2629 17.856C42.5056 18.248 42.6269 18.71 42.6269 19.242C42.6269 20.1473 42.2956 20.866 41.6329 21.398C40.9703 21.93 40.1163 22.196 39.0709 22.196ZM42.8036 12.2H50.0136V14.048H47.3676V22H45.4356V14.048H42.8036V12.2ZM54.5921 12.2H58.2461C59.1795 12.2 59.9728 12.5173 60.6261 13.152C61.2701 13.7867 61.5921 14.566 61.5921 15.49C61.5921 16.414 61.2701 17.1933 60.6261 17.828C59.9728 18.4627 59.1795 18.78 58.2461 18.78H56.5241V22H54.5921V12.2ZM56.5241 16.974H58.2461C58.6568 16.974 58.9975 16.834 59.2681 16.554C59.5388 16.2647 59.6741 15.91 59.6741 15.49C59.6741 15.0607 59.5388 14.706 59.2681 14.426C58.9975 14.146 58.6568 14.006 58.2461 14.006H56.5241V16.974ZM71.0276 20.726C70.0382 21.706 68.8342 22.196 67.4156 22.196C65.9969 22.196 64.7929 21.706 63.8036 20.726C62.8236 19.7273 62.3336 18.5187 62.3336 17.1C62.3336 15.672 62.8236 14.468 63.8036 13.488C64.7929 12.4987 65.9969 12.004 67.4156 12.004C68.8342 12.004 70.0382 12.4987 71.0276 13.488C72.0169 14.468 72.5116 15.672 72.5116 17.1C72.5116 18.528 72.0169 19.7367 71.0276 20.726ZM65.1616 19.41C65.7589 20.0073 66.5102 20.306 67.4156 20.306C68.3209 20.306 69.0722 20.0073 69.6696 19.41C70.2762 18.8033 70.5796 18.0333 70.5796 17.1C70.5796 16.1667 70.2762 15.3967 69.6696 14.79C69.0629 14.1833 68.3116 13.88 67.4156 13.88C66.5196 13.88 65.7682 14.1833 65.1616 14.79C64.5549 15.3967 64.2516 16.1667 64.2516 17.1C64.2516 18.0333 64.5549 18.8033 65.1616 19.41ZM73.8695 12.2H77.5235C78.4568 12.2 79.2501 12.5173 79.9035 13.152C80.5475 13.7867 80.8695 14.566 80.8695 15.49C80.8695 16.414 80.5475 17.1933 79.9035 17.828C79.2501 18.4627 78.4568 18.78 77.5235 18.78H75.8015V22H73.8695V12.2ZM75.8015 16.974H77.5235C77.9341 16.974 78.2748 16.834 78.5455 16.554C78.8161 16.2647 78.9515 15.91 78.9515 15.49C78.9515 15.0607 78.8161 14.706 78.5455 14.426C78.2748 14.146 77.9341 14.006 77.5235 14.006H75.8015V16.974ZM85.7813 22.196C84.6893 22.196 83.7933 21.888 83.0933 21.272C82.3933 20.656 82.0433 19.83 82.0433 18.794V12.2H83.9613V18.64C83.9613 19.1627 84.1106 19.5733 84.4093 19.872C84.7173 20.1613 85.1746 20.306 85.7813 20.306C86.388 20.306 86.8406 20.1613 87.1393 19.872C87.4473 19.5733 87.6013 19.1627 87.6013 18.64V12.2H89.5333V18.794C89.5333 19.83 89.1833 20.656 88.4833 21.272C87.7833 21.888 86.8826 22.196 85.7813 22.196ZM93.2058 12.2V20.152H96.9438V22H91.2738V12.2H93.2058ZM106.715 22H104.615L104.027 20.236H100.121L99.5328 22H97.4468L100.877 12.2H103.271L106.715 22ZM102.081 14.426L100.737 18.43H103.425L102.081 14.426ZM115.128 22H113.042L111.068 18.598H109.598V22H107.666V12.2H111.586C112.492 12.2 113.262 12.5173 113.896 13.152C114.531 13.7867 114.848 14.552 114.848 15.448C114.848 16.0547 114.676 16.6193 114.33 17.142C113.985 17.6553 113.528 18.0427 112.958 18.304L115.128 22ZM111.586 14.006H109.598V16.904H111.586C111.95 16.904 112.263 16.764 112.524 16.484C112.786 16.1947 112.916 15.8493 112.916 15.448C112.916 15.0467 112.786 14.706 112.524 14.426C112.263 14.146 111.95 14.006 111.586 14.006Z" fill="white"/>
</svg>
