<svg width="59" height="59" viewBox="0 0 59 59" fill="none" xmlns="http://www.w3.org/2000/svg">
<rect width="59" height="59" rx="4" fill="#1C3451"/>
<path d="M23.5 27L18 29V38.5L21 40.5H26.5L29.5 38.5L30 36.5L36 37.5L39.5 34.5V20.5L36.25 19.75L33 19L28.5 21.5L29 28L23.5 27Z" fill="#F8EED0"/>
<path d="M34 18C32.207 18 30.582 18.336 29.312 18.969C28.043 19.602 27 20.633 27 22V26C27 26.129 27.043 26.254 27.063 26.375C26.062 26.1206 25.0328 25.9946 24 26C22.207 26 20.582 26.336 19.312 26.969C18.043 27.602 17 28.633 17 30V38C17 39.367 18.043 40.398 19.313 41.031C20.582 41.664 22.207 42 24 42C25.793 42 27.418 41.664 28.688 41.031C29.956 40.398 31 39.367 31 38V37.594C31.9782 37.8585 32.9867 37.9949 34 38C35.793 38 37.418 37.664 38.688 37.031C39.956 36.398 41 35.367 41 34V22C41 20.633 39.957 19.602 38.687 18.969C37.419 18.336 35.794 18 34 18ZM34 20C35.523 20 36.879 20.328 37.781 20.781C38.684 21.234 39 21.711 39 22C39 22.29 38.684 22.766 37.781 23.219C36.88 23.672 35.523 24 34 24C32.477 24 31.121 23.672 30.219 23.219C29.316 22.766 29 22.289 29 22C29 21.71 29.316 21.234 30.219 20.781C31.12 20.328 32.477 20 34 20ZM29 24.844C29.105 24.902 29.203 24.977 29.313 25.031C30.582 25.664 32.207 26 34 26C35.793 26 37.418 25.664 38.688 25.031C38.797 24.977 38.895 24.902 39 24.844V26C39 26.29 38.684 26.766 37.781 27.219C36.879 27.672 35.523 28 34 28C32.477 28 31.121 27.672 30.219 27.219C29.316 26.766 29 26.289 29 26V24.844ZM24 28C25.523 28 26.879 28.328 27.781 28.781C28.684 29.234 29 29.711 29 30C29 30.29 28.684 30.766 27.781 31.219C26.879 31.672 25.523 32 24 32C22.477 32 21.121 31.672 20.219 31.219C19.316 30.766 19 30.289 19 30C19 29.71 19.316 29.234 20.219 28.781C21.12 28.328 22.477 28 24 28ZM39 28.844V30C39 30.29 38.684 30.766 37.781 31.219C36.879 31.672 35.523 32 34 32C32.9813 32.0055 31.9684 31.8472 31 31.531V30C31 29.871 30.957 29.746 30.937 29.625C31.867 29.867 32.898 30 34 30C35.793 30 37.418 29.664 38.688 29.031C38.797 28.977 38.895 28.902 39 28.844ZM19 32.844C19.105 32.902 19.203 32.977 19.313 33.031C20.582 33.664 22.207 34 24 34C25.793 34 27.418 33.664 28.688 33.031C28.797 32.977 28.895 32.902 29 32.844V34C29 34.29 28.684 34.766 27.781 35.219C26.879 35.672 25.523 36 24 36C22.477 36 21.121 35.672 20.219 35.219C19.316 34.766 19 34.289 19 34V32.844ZM39 32.844V34C39 34.29 38.684 34.766 37.781 35.219C36.879 35.672 35.523 36 34 36C32.863 36 31.836 35.84 31 35.562V33.625C31.918 33.867 32.918 34 34 34C35.793 34 37.418 33.664 38.688 33.031C38.797 32.977 38.895 32.902 39 32.844ZM19 36.844C19.105 36.902 19.203 36.977 19.313 37.031C20.582 37.664 22.207 38 24 38C25.793 38 27.418 37.664 28.688 37.031C28.797 36.977 28.895 36.902 29 36.844V38C29 38.29 28.684 38.766 27.781 39.219C26.879 39.672 25.523 40 24 40C22.477 40 21.121 39.672 20.219 39.219C19.316 38.766 19 38.289 19 38V36.844Z" fill="#EEBE42"/>
</svg>
