<svg width="34" height="34" viewBox="0 0 34 34" fill="none" xmlns="http://www.w3.org/2000/svg">
<rect width="34" height="34" rx="6" fill="#63BA3B"/>
<path d="M12.5393 13.4022C12.5371 13.4547 12.5457 13.5071 12.5644 13.5562C12.5832 13.6052 12.6118 13.6499 12.6485 13.6875C12.6852 13.7251 12.7291 13.7548 12.7777 13.7748C12.8263 13.7947 12.8785 13.8046 12.931 13.8036H14.2716C14.4958 13.8036 14.6746 13.62 14.7038 13.3974C14.8501 12.3314 15.5813 11.5546 16.8846 11.5546C17.9993 11.5546 19.0198 12.112 19.0198 13.4526C19.0198 14.4845 18.4121 14.959 17.4517 15.6805C16.3581 16.4751 15.492 17.403 15.5537 18.9094L15.5586 19.262C15.5603 19.3686 15.6039 19.4703 15.6799 19.5451C15.7559 19.6199 15.8582 19.6618 15.9648 19.6617H17.2827C17.3905 19.6617 17.4938 19.6189 17.57 19.5428C17.6462 19.4666 17.689 19.3632 17.689 19.2555V19.0849C17.689 17.9181 18.1326 17.5785 19.3302 16.6701C20.3198 15.9178 21.3517 15.0825 21.3517 13.3291C21.3517 10.8738 19.2782 9.6875 17.0081 9.6875C14.9492 9.6875 12.6937 10.6462 12.5393 13.4022ZM15.0695 22.7671C15.0695 23.6333 15.7601 24.2735 16.7107 24.2735C17.7003 24.2735 18.3812 23.6333 18.3812 22.7671C18.3812 21.8701 17.6987 21.2396 16.7091 21.2396C15.7601 21.2396 15.0695 21.8701 15.0695 22.7671Z" fill="white"/>
</svg>
