<svg width="50" height="50" viewBox="0 0 50 50" fill="none" xmlns="http://www.w3.org/2000/svg">
<path d="M6.6 33.1901C7.0363 33.1901 7.39 29.5233 7.39 25.0001C7.39 20.4769 7.0363 16.8101 6.6 16.8101C6.16369 16.8101 5.81 20.4769 5.81 25.0001C5.81 29.5233 6.16369 33.1901 6.6 33.1901Z" fill="white"/>
<path d="M8.70001 34.0999C9.18602 34.0999 9.58001 30.0257 9.58001 24.9999C9.58001 19.9741 9.18602 15.8999 8.70001 15.8999C8.214 15.8999 7.82001 19.9741 7.82001 24.9999C7.82001 30.0257 8.214 34.0999 8.70001 34.0999Z" fill="white"/>
<path d="M11.04 35.1199C11.5757 35.1199 12.01 30.589 12.01 24.9999C12.01 19.4108 11.5757 14.8799 11.04 14.8799C10.5043 14.8799 10.07 19.4108 10.07 24.9999C10.07 30.589 10.5043 35.1199 11.04 35.1199Z" fill="white"/>
<path d="M13.63 36.24C14.2265 36.24 14.71 31.2077 14.71 25C14.71 18.7923 14.2265 13.76 13.63 13.76C13.0335 13.76 12.55 18.7923 12.55 25C12.55 31.2077 13.0335 36.24 13.63 36.24Z" fill="white"/>
<path d="M16.51 37.49C17.1727 37.49 17.71 31.898 17.71 25C17.71 18.102 17.1727 12.51 16.51 12.51C15.8473 12.51 15.31 18.102 15.31 25C15.31 31.898 15.8473 37.49 16.51 37.49Z" fill="white"/>
<path d="M19.72 38.8801C20.4545 38.8801 21.05 32.6658 21.05 25.0001C21.05 17.3344 20.4545 11.1201 19.72 11.1201C18.9855 11.1201 18.39 17.3344 18.39 25.0001C18.39 32.6658 18.9855 38.8801 19.72 38.8801Z" fill="white"/>
<path d="M23.28 40.4201C24.0974 40.4201 24.76 33.5163 24.76 25.0001C24.76 16.4839 24.0974 9.58008 23.28 9.58008C22.4626 9.58008 21.8 16.4839 21.8 25.0001C21.8 33.5163 22.4626 40.4201 23.28 40.4201Z" fill="white"/>
<path d="M27.23 42.1301C28.1413 42.1301 28.88 34.4607 28.88 25.0001C28.88 15.5395 28.1413 7.87012 27.23 7.87012C26.3187 7.87012 25.58 15.5395 25.58 25.0001C25.58 34.4607 26.3187 42.1301 27.23 42.1301Z" fill="white"/>
<path d="M31.62 44.04C32.6307 44.04 33.45 35.5155 33.45 25C33.45 14.4845 32.6307 5.95996 31.62 5.95996C30.6093 5.95996 29.79 14.4845 29.79 25C29.79 35.5155 30.6093 44.04 31.62 44.04Z" fill="white"/>
<path d="M36.5 46.1501C37.6211 46.1501 38.53 36.6809 38.53 25.0001C38.53 13.3193 37.6211 3.8501 36.5 3.8501C35.3789 3.8501 34.47 13.3193 34.47 25.0001C34.47 36.6809 35.3789 46.1501 36.5 46.1501Z" fill="white"/>
<path d="M41.92 48.5C43.1682 48.5 44.18 37.9787 44.18 25C44.18 12.0213 43.1682 1.5 41.92 1.5C40.6718 1.5 39.66 12.0213 39.66 25C39.66 37.9787 40.6718 48.5 41.92 48.5Z" fill="white"/>
</svg>
