<svg width="58" height="58" viewBox="0 0 58 58" fill="none" xmlns="http://www.w3.org/2000/svg">
<rect width="58" height="58" rx="4" fill="#F7FBFF" fill-opacity="0.1"/>
<path d="M20 38L17 41C34.2 43.4 40.1667 35.6667 41 31.5C41.5 26.5 40 16.6 30 17C20 17.4 17.5 24.8333 17.5 28.5L18.5 34L20 38Z" fill="#E4CEFF" fill-opacity="0.9"/>
<path d="M23.6665 27.6665C23.4028 27.6665 23.145 27.7447 22.9257 27.8912C22.7065 28.0377 22.5356 28.246 22.4346 28.4896C22.3337 28.7332 22.3073 29.0013 22.3588 29.26C22.4102 29.5186 22.5372 29.7562 22.7237 29.9426C22.9101 30.1291 23.1477 30.2561 23.4064 30.3076C23.665 30.359 23.9331 30.3326 24.1767 30.2317C24.4204 30.1308 24.6286 29.9599 24.7751 29.7406C24.9216 29.5213 24.9998 29.2635 24.9998 28.9998C24.9998 28.6462 24.8593 28.3071 24.6093 28.057C24.3592 27.807 24.0201 27.6665 23.6665 27.6665ZM28.9998 27.6665C28.7361 27.6665 28.4783 27.7447 28.2591 27.8912C28.0398 28.0377 27.8689 28.246 27.768 28.4896C27.6671 28.7332 27.6407 29.0013 27.6921 29.26C27.7436 29.5186 27.8705 29.7562 28.057 29.9426C28.2435 30.1291 28.4811 30.2561 28.7397 30.3076C28.9983 30.359 29.2664 30.3326 29.5101 30.2317C29.7537 30.1308 29.9619 29.9599 30.1084 29.7406C30.255 29.5213 30.3332 29.2635 30.3332 28.9998C30.3332 28.6462 30.1927 28.3071 29.9426 28.057C29.6926 27.807 29.3534 27.6665 28.9998 27.6665ZM34.3332 27.6665C34.0694 27.6665 33.8117 27.7447 33.5924 27.8912C33.3731 28.0377 33.2022 28.246 33.1013 28.4896C33.0004 28.7332 32.974 29.0013 33.0254 29.26C33.0769 29.5186 33.2039 29.7562 33.3903 29.9426C33.5768 30.1291 33.8144 30.2561 34.073 30.3076C34.3317 30.359 34.5998 30.3326 34.8434 30.2317C35.087 30.1308 35.2953 29.9599 35.4418 29.7406C35.5883 29.5213 35.6665 29.2635 35.6665 28.9998C35.6665 28.6462 35.526 28.3071 35.276 28.057C35.0259 27.807 34.6868 27.6665 34.3332 27.6665ZM28.9998 15.6665C27.2489 15.6665 25.515 16.0114 23.8974 16.6814C22.2797 17.3515 20.8098 18.3336 19.5717 19.5717C17.0712 22.0722 15.6665 25.4636 15.6665 28.9998C15.6548 32.0787 16.7209 35.0646 18.6798 37.4398L16.0132 40.1065C15.8281 40.294 15.7028 40.5321 15.653 40.7908C15.6032 41.0494 15.631 41.317 15.7332 41.5598C15.8439 41.7997 16.0234 42.0013 16.249 42.139C16.4745 42.2767 16.7358 42.3443 16.9998 42.3332H28.9998C32.536 42.3332 35.9274 40.9284 38.4279 38.4279C40.9284 35.9274 42.3332 32.5361 42.3332 28.9998C42.3332 25.4636 40.9284 22.0722 38.4279 19.5717C35.9274 17.0713 32.536 15.6665 28.9998 15.6665ZM28.9998 39.6665H20.2132L21.4532 38.4265C21.5791 38.303 21.6794 38.1558 21.748 37.9933C21.8167 37.8308 21.8524 37.6562 21.8532 37.4798C21.8481 37.1281 21.7044 36.7927 21.4532 36.5465C19.7073 34.8026 18.6201 32.5072 18.3767 30.0516C18.1334 27.5959 18.7491 25.1318 20.1188 23.0792C21.4885 21.0266 23.5275 19.5123 25.8885 18.7945C28.2495 18.0766 30.7863 18.1996 33.0668 19.1424C35.3473 20.0852 37.2303 21.7895 38.3951 23.965C39.5599 26.1405 39.9343 28.6526 39.4547 31.0732C38.975 33.4938 37.6709 35.6732 35.7645 37.2402C33.8582 38.8071 31.4675 39.6646 28.9998 39.6665Z" fill="#904EE2"/>
</svg>
