<svg width="105" height="16" viewBox="0 0 105 16" fill="none" xmlns="http://www.w3.org/2000/svg">
<path d="M14.1085 5.51641L10.1638 4.93985L8.40048 1.34454C8.35232 1.2461 8.27308 1.16641 8.17521 1.11797C7.92973 0.9961 7.63144 1.09766 7.5087 1.34454L5.74534 4.93985L1.80069 5.51641C1.69194 5.53204 1.59251 5.5836 1.51638 5.66172C1.42435 5.75686 1.37363 5.88485 1.37538 6.01757C1.37713 6.15029 1.4312 6.27689 1.5257 6.36954L4.37971 9.16797L3.70543 13.1195C3.68962 13.2115 3.69974 13.306 3.73463 13.3924C3.76952 13.4789 3.8278 13.5537 3.90285 13.6086C3.9779 13.6634 4.06672 13.696 4.15925 13.7026C4.25177 13.7092 4.34429 13.6897 4.42631 13.6461L7.95459 11.7805L11.4829 13.6461C11.5792 13.6977 11.6911 13.7148 11.7983 13.6961C12.0686 13.6492 12.2504 13.3914 12.2037 13.1195L11.5295 9.16797L14.3835 6.36954C14.4612 6.29297 14.5124 6.19297 14.528 6.0836C14.5699 5.81016 14.3804 5.55704 14.1085 5.51641Z" fill="#FADB14"/>
<path d="M36.3814 5.51641L32.4368 4.93985L30.6734 1.34454C30.6253 1.2461 30.546 1.16641 30.4482 1.11797C30.2027 0.9961 29.9044 1.09766 29.7817 1.34454L28.0183 4.93985L24.0736 5.51641C23.9649 5.53204 23.8655 5.5836 23.7893 5.66172C23.6973 5.75686 23.6466 5.88485 23.6483 6.01757C23.6501 6.15029 23.7041 6.27689 23.7987 6.36954L26.6527 9.16797L25.9784 13.1195C25.9626 13.2115 25.9727 13.306 26.0076 13.3924C26.0425 13.4789 26.1007 13.5537 26.1758 13.6086C26.2509 13.6634 26.3397 13.696 26.4322 13.7026C26.5247 13.7092 26.6172 13.6897 26.6993 13.6461L30.2275 11.7805L33.7558 13.6461C33.8521 13.6977 33.964 13.7148 34.0712 13.6961C34.3415 13.6492 34.5233 13.3914 34.4767 13.1195L33.8024 9.16797L36.6564 6.36954C36.7341 6.29297 36.7854 6.19297 36.8009 6.0836C36.8429 5.81016 36.6533 5.55704 36.3814 5.51641Z" fill="#FADB14"/>
<path d="M58.654 5.51641L54.7093 4.93985L52.946 1.34454C52.8978 1.2461 52.8186 1.16641 52.7207 1.11797C52.4752 0.9961 52.1769 1.09766 52.0542 1.34454L50.2908 4.93985L46.3462 5.51641C46.2374 5.53204 46.138 5.5836 46.0619 5.66172C45.9698 5.75686 45.9191 5.88485 45.9209 6.01757C45.9226 6.15029 45.9767 6.27689 46.0712 6.36954L48.9252 9.16797L48.2509 13.1195C48.2351 13.2115 48.2452 13.306 48.2801 13.3924C48.315 13.4789 48.3733 13.5537 48.4483 13.6086C48.5234 13.6634 48.6122 13.696 48.7047 13.7026C48.7972 13.7092 48.8898 13.6897 48.9718 13.6461L52.5001 11.7805L56.0283 13.6461C56.1247 13.6977 56.2365 13.7148 56.3437 13.6961C56.6141 13.6492 56.7958 13.3914 56.7492 13.1195L56.0749 9.16797L58.9289 6.36954C59.0066 6.29297 59.0579 6.19297 59.0734 6.0836C59.1154 5.81016 58.9258 5.55704 58.654 5.51641Z" fill="#FADB14"/>
<path d="M80.9269 5.51641L76.9822 4.93985L75.2188 1.34454C75.1707 1.2461 75.0914 1.16641 74.9936 1.11797C74.7481 0.9961 74.4498 1.09766 74.3271 1.34454L72.5637 4.93985L68.6191 5.51641C68.5103 5.53204 68.4109 5.5836 68.3347 5.66172C68.2427 5.75686 68.192 5.88485 68.1937 6.01757C68.1955 6.15029 68.2496 6.27689 68.3441 6.36954L71.1981 9.16797L70.5238 13.1195C70.508 13.2115 70.5181 13.306 70.553 13.3924C70.5879 13.4789 70.6462 13.5537 70.7212 13.6086C70.7963 13.6634 70.8851 13.696 70.9776 13.7026C71.0701 13.7092 71.1626 13.6897 71.2447 13.6461L74.773 11.7805L78.3012 13.6461C78.3976 13.6977 78.5094 13.7148 78.6166 13.6961C78.8869 13.6492 79.0687 13.3914 79.0221 13.1195L78.3478 9.16797L81.2018 6.36954C81.2795 6.29297 81.3308 6.19297 81.3463 6.0836C81.3883 5.81016 81.1987 5.55704 80.9269 5.51641Z" fill="#FADB14"/>
<path d="M103.199 5.51641L99.2548 4.93985L97.4914 1.34454C97.4432 1.2461 97.364 1.16641 97.2661 1.11797C97.0206 0.9961 96.7223 1.09766 96.5996 1.34454L94.8363 4.93985L90.8916 5.51641C90.7829 5.53204 90.6834 5.5836 90.6073 5.66172C90.5153 5.75686 90.4645 5.88485 90.4663 6.01757C90.468 6.15029 90.5221 6.27689 90.6166 6.36954L93.4706 9.16797L92.7963 13.1195C92.7805 13.2115 92.7906 13.306 92.8255 13.3924C92.8604 13.4789 92.9187 13.5537 92.9938 13.6086C93.0688 13.6634 93.1576 13.696 93.2502 13.7026C93.3427 13.7092 93.4352 13.6897 93.5172 13.6461L97.0455 11.7805L100.574 13.6461C100.67 13.6977 100.782 13.7148 100.889 13.6961C101.159 13.6492 101.341 13.3914 101.295 13.1195L100.62 9.16797L103.474 6.36954C103.552 6.29297 103.603 6.19297 103.619 6.0836C103.661 5.81016 103.471 5.55704 103.199 5.51641Z" fill="#FADB14"/>
</svg>
