<svg width="25" height="24" viewBox="0 0 25 24" fill="none" xmlns="http://www.w3.org/2000/svg">
<path d="M14.7929 19.7071C15.1834 20.0976 15.8166 20.0976 16.2071 19.7071C16.5976 19.3166 16.5976 18.6834 16.2071 18.2929L14.7929 19.7071ZM8.5 12L7.79289 11.2929C7.40237 11.6834 7.40237 12.3166 7.79289 12.7071L8.5 12ZM16.2071 5.70711C16.5976 5.31658 16.5976 4.68342 16.2071 4.29289C15.8166 3.90237 15.1834 3.90237 14.7929 4.29289L16.2071 5.70711ZM16.2071 18.2929L9.20711 11.2929L7.79289 12.7071L14.7929 19.7071L16.2071 18.2929ZM9.20711 12.7071L16.2071 5.70711L14.7929 4.29289L7.79289 11.2929L9.20711 12.7071Z" fill="#010D14"/>
</svg>
