<svg width="44" height="44" viewBox="0 0 44 44" fill="none" xmlns="http://www.w3.org/2000/svg">
<path d="M2.60938 31.6349V39.7556H13.9697V31.6349L8.28954 28.5201L2.60938 31.6349Z" stroke="#1A2578" stroke-width="1.5" stroke-linecap="round" stroke-linejoin="round"/>
<path d="M10.3812 33.4267H6.4209V39.7538H10.3812V33.4267Z" stroke="#1A2578" stroke-width="1.5" stroke-linecap="round" stroke-linejoin="round"/>
<path d="M21.4865 31.8749C26.7816 31.8749 31.0741 27.5824 31.0741 22.2874C31.0741 16.9923 26.7816 12.6998 21.4865 12.6998C16.1914 12.6998 11.8989 16.9923 11.8989 22.2874C11.8989 27.5824 16.1914 31.8749 21.4865 31.8749Z" stroke="#BF0830" stroke-width="1.5" stroke-linecap="round" stroke-linejoin="round"/>
<path d="M15.3164 24.1627L19.0925 27.9372L27.8474 19.1823L25.8792 17.2142L19.0477 24.0442L17.2557 22.2522L15.3164 24.1627Z" stroke="#BF0830" stroke-width="1.5" stroke-linecap="round" stroke-linejoin="round"/>
<path d="M40.4204 3.487H29.2202V14.4662H40.4204V3.487Z" stroke="#1A2578" stroke-width="1.5" stroke-linecap="round" stroke-linejoin="round"/>
<path d="M36.9131 9.8125H32.7271V14.4662H36.9131V9.8125Z" stroke="#1A2578" stroke-width="1.5" stroke-linecap="round" stroke-linejoin="round"/>
<path d="M4.74756 21.9992C4.74746 17.7904 6.33277 13.7361 9.18771 10.6438C12.0427 7.55141 15.9577 5.64795 20.153 5.31256" stroke="#1A2578" stroke-width="1.5" stroke-linecap="round" stroke-linejoin="round"/>
<path d="M16.7999 10.9751L15.8471 10.1936L19.6968 5.50314L14.7373 2.00567L15.4483 1L21.4888 5.26133L16.7999 10.9751Z" fill="#1A2578"/>
<path d="M38.2282 21.9993C38.2284 26.2082 36.6431 30.2627 33.7882 33.3553C30.9333 36.4479 27.0182 38.3517 22.8228 38.6875" stroke="#1A2578" stroke-width="1.5" stroke-linecap="round" stroke-linejoin="round"/>
<path d="M26.1757 33.0249L27.1285 33.8048L23.2788 38.4969L28.2383 41.9944L27.5273 43L21.4868 38.7387L26.1757 33.0249Z" fill="#1A2578"/>
</svg>
