<svg width="196" height="37" viewBox="0 0 196 37" fill="none" xmlns="http://www.w3.org/2000/svg">
<g clip-path="url(#clip0_494_157)">
<path d="M103.459 21.088C103.459 22.9521 103.174 24.6109 102.603 26.0672C102.032 27.525 101.228 28.7484 100.193 29.7387C99.1574 30.729 97.9166 31.4805 96.4748 31.9916C95.033 32.5014 93.4252 32.7577 91.6528 32.7577C89.8804 32.7577 88.2726 32.4883 86.8323 31.9465C85.3905 31.4062 84.1512 30.6329 83.1142 29.6265C82.0788 28.6202 81.2734 27.3954 80.704 25.9551C80.1331 24.5133 79.8477 22.8909 79.8477 21.088C79.8477 19.3156 80.1331 17.7078 80.704 16.2674C81.2749 14.8257 82.0788 13.6023 83.1142 12.5945C84.1512 11.5882 85.3905 10.8149 86.8323 10.2746C88.2741 9.73426 89.8804 9.46338 91.6528 9.46338C93.4252 9.46338 95.033 9.74154 96.4748 10.2964C97.9166 10.8527 99.1559 11.6333 100.193 12.6397C101.23 13.646 102.032 14.8708 102.603 16.3126C103.174 17.7529 103.459 19.3462 103.459 21.088ZM87.6886 21.088C87.6886 22.92 88.0411 24.3254 88.7474 25.3012C89.4537 26.2784 90.4368 26.7648 91.6994 26.7648C92.9606 26.7648 93.9305 26.2696 94.6063 25.2779C95.282 24.2876 95.6199 22.8895 95.6199 21.088C95.6199 19.2865 95.2747 17.8971 94.583 16.9199C93.8912 15.9441 92.9155 15.4563 91.6543 15.4563C90.3931 15.4563 89.4159 15.9441 88.7255 16.9199C88.0323 17.8956 87.6886 19.2865 87.6886 21.088Z" fill="white"/>
<path d="M107.784 32.0366C107.304 31.6157 106.919 31.1205 106.635 30.5497C106.35 29.9788 106.207 29.3336 106.207 28.6127C106.207 28.0127 106.35 27.4185 106.635 26.8331C106.921 26.2461 107.273 25.6986 107.694 25.1874L115.445 16.0852H107.154C106.973 15.7546 106.8 15.3352 106.635 14.824C106.471 14.3143 106.388 13.758 106.388 13.1565C106.388 12.105 106.621 11.3462 107.087 10.8817C107.551 10.4156 108.175 10.1826 108.957 10.1826H123.15C123.631 10.6035 124.014 11.1001 124.299 11.6695C124.585 12.2404 124.727 12.8871 124.727 13.608C124.727 14.2094 124.585 14.8022 124.299 15.3876C124.014 15.9731 123.66 16.5221 123.241 17.0333L115.67 26.1355H124.502C124.682 26.4661 124.854 26.8869 125.02 27.3967C125.185 27.9078 125.268 28.4642 125.268 29.0642C125.268 30.1157 125.035 30.8744 124.569 31.339C124.103 31.805 123.479 32.038 122.699 32.038H107.784V32.0366Z" fill="white"/>
<path d="M128.512 4.05593C128.512 2.91415 128.895 1.95442 129.661 1.17236C130.427 0.391758 131.44 0 132.702 0C133.963 0 134.978 0.391758 135.744 1.17236C136.51 1.95442 136.893 2.91415 136.893 4.05593C136.893 5.19771 136.51 6.1589 135.744 6.9395C134.978 7.72156 133.964 8.11041 132.702 8.11041C131.44 8.11041 130.427 7.72156 129.661 6.9395C128.895 6.1589 128.512 5.19771 128.512 4.05593ZM136.533 31.9916C136.203 32.0513 135.715 32.1343 135.068 32.2392C134.423 32.3441 133.769 32.3965 133.108 32.3965C132.447 32.3965 131.854 32.3513 131.328 32.261C130.803 32.1707 130.36 31.9902 129.999 31.7207C129.639 31.4499 129.361 31.0829 129.166 30.6168C128.969 30.1508 128.873 29.5435 128.873 28.792V10.4537C129.203 10.394 129.69 10.311 130.337 10.2061C130.982 10.1012 131.636 10.0488 132.297 10.0488C132.957 10.0488 133.551 10.094 134.076 10.1842C134.602 10.2745 135.045 10.4551 135.406 10.726C135.767 10.9954 136.044 11.3639 136.239 11.8299C136.434 12.296 136.532 12.9047 136.532 13.6547V31.9916H136.533Z" fill="white"/>
<path d="M53.1731 9.46191C54.4038 9.46191 55.6125 9.63522 56.7995 9.98037C57.9864 10.3255 59.0146 10.844 59.8855 11.5343C60.7869 10.9343 61.8006 10.4377 62.9263 10.0474C64.0535 9.65706 65.4123 9.46191 67.0055 9.46191C68.1473 9.46191 69.2658 9.61192 70.3624 9.91338C71.4591 10.2134 72.4348 10.6867 73.2911 11.3319C74.1475 11.9785 74.8305 12.8348 75.3417 13.9009C75.8514 14.9669 76.1077 16.266 76.1077 17.7981V31.9916C75.8077 32.0819 75.3344 32.1722 74.6892 32.2611C74.0426 32.3514 73.3742 32.3965 72.6838 32.3965C72.0227 32.3965 71.4299 32.3514 70.9042 32.2611C70.3784 32.1708 69.9357 31.9916 69.5745 31.7208C69.2148 31.4499 68.9367 31.0829 68.7415 30.6168C68.5449 30.1523 68.4488 29.5435 68.4488 28.792V18.0238C68.4488 17.1223 68.1925 16.4699 67.6827 16.0635C67.1716 15.6572 66.4798 15.4562 65.6104 15.4562C65.1895 15.4562 64.738 15.5538 64.2589 15.749C63.7783 15.9441 63.4171 16.148 63.1768 16.3577C63.2059 16.4786 63.2219 16.5907 63.2219 16.6956V16.9883V31.9931C62.8914 32.0834 62.4035 32.1737 61.7583 32.2625C61.1117 32.3528 60.4578 32.398 59.7981 32.398C59.1369 32.398 58.5442 32.3528 58.0184 32.2625C57.4927 32.1722 57.0499 31.9931 56.6888 31.7222C56.3276 31.4513 56.0494 31.0843 55.8557 30.6183C55.6591 30.1537 55.563 29.545 55.563 28.7935V18.0252C55.563 17.1238 55.2848 16.4713 54.73 16.065C54.1737 15.6587 53.5052 15.4577 52.7246 15.4577C52.1843 15.4577 51.7183 15.5407 51.3279 15.7053C50.9376 15.8713 50.6071 16.0286 50.3362 16.1786V31.9946C50.0362 32.0848 49.5629 32.1751 48.9177 32.264C48.2711 32.3543 47.6026 32.3994 46.9123 32.3994C46.2511 32.3994 45.6569 32.3543 45.1312 32.264C44.6054 32.1737 44.1627 31.9946 43.8015 31.7237C43.4418 31.4528 43.1622 31.0858 42.9685 30.6198C42.7734 30.1552 42.6758 29.5464 42.6758 28.795V15.1883C42.6758 14.3771 42.8491 13.7319 43.1942 13.2513C43.5394 12.7707 44.0127 12.3207 44.6127 11.8998C45.6336 11.1789 46.9036 10.5935 48.4196 10.142C49.9357 9.68765 51.5202 9.46191 53.1731 9.46191Z" fill="white"/>
<path d="M7.93618 34.1978C6.42594 33.2133 5.07882 32.0016 3.94287 30.6079C4.1555 30.2365 4.2458 29.8069 4.2458 29.3321C4.2458 24.4752 4.2458 19.6183 4.2458 14.7628V14.4599C4.35066 14.5356 4.40891 14.5866 4.47445 14.6245C5.56234 15.2492 6.64877 15.8769 7.74249 16.49C7.89831 16.5774 7.92745 16.6765 7.92745 16.8352C7.92454 22.5004 7.92598 28.1671 7.92161 33.8323C7.92161 33.956 7.92598 34.0769 7.93618 34.1978ZM16.0204 36.9459C14.3995 36.8192 12.8426 36.4697 11.3775 35.9279C11.9703 35.5085 12.2892 34.9522 12.2907 34.2182C12.2936 29.2884 12.2921 24.3572 12.2921 19.4275V19.078C12.6781 19.311 13.0174 19.5265 13.3669 19.7231C14.1067 20.1411 14.848 20.5576 15.5966 20.9567C15.9141 21.1256 16.032 21.3353 16.0306 21.7169C16.016 26.7937 16.0189 31.8706 16.0204 36.9459ZM17.3952 36.9998C17.3908 36.9998 17.3879 36.9998 17.3835 36.9998C18.4073 36.9998 19.4108 36.9095 20.3851 36.7391C20.3894 31.5035 20.388 26.2665 20.3851 21.0309C20.3851 20.5431 20.3909 20.0508 20.3239 19.5717C20.2846 19.2877 20.1287 19.0095 19.986 18.7503C19.753 18.3294 19.3394 18.1022 18.9389 17.8721C18.3738 17.5488 17.8073 17.2299 17.2423 16.9066C16.6233 16.5512 16.0102 16.1886 15.3898 15.8361C14.583 15.3789 13.7689 14.9376 12.9664 14.4745C12.0795 13.9633 11.2057 13.4317 10.3217 12.9147C9.89061 12.6628 9.44788 12.4268 9.01243 12.1793C8.15464 11.6943 7.29831 11.2093 6.44342 10.7215C5.9104 10.4171 5.38174 10.1069 4.84727 9.80541C4.45696 9.5855 4.04044 9.40636 3.67199 9.15732C3.6516 9.14276 3.63122 9.12966 3.60938 9.11655C4.8298 7.52185 6.31818 6.14706 8.01046 5.05771C7.86483 5.51792 7.89687 6.00579 8.08765 6.50532C8.29154 7.0398 8.70805 7.40389 9.19592 7.68205C10.0042 8.1408 10.8212 8.5879 11.6295 9.04811C12.3839 9.47773 13.1324 9.91899 13.8854 10.353C14.5407 10.7316 15.1946 11.1088 15.8529 11.4831C16.4092 11.7991 16.9685 12.1094 17.5262 12.4225C17.969 12.6715 18.4132 12.9176 18.8501 13.1739C19.3321 13.4565 19.8025 13.7579 20.2875 14.0346C20.9239 14.3987 21.5691 14.7468 22.2084 15.1051C22.7094 15.3861 23.2075 15.6716 23.707 15.9541C23.9385 16.0852 24.0784 16.225 24.0769 16.5512C24.0609 22.1582 24.0667 27.7666 24.0609 33.3735C24.0609 33.8235 24.1264 34.2371 24.3492 34.6391C24.4992 34.9085 24.6827 35.1226 24.8939 35.2901C26.1653 34.6784 27.3493 33.9167 28.427 33.0269C28.4387 30.1025 28.4314 27.1782 28.4314 24.2538C28.4314 21.197 28.4299 18.1401 28.4328 15.0818C28.4328 14.6885 28.3644 14.3201 28.1911 13.9589C27.9945 13.5482 27.7003 13.238 27.3173 13.0137C26.7012 12.6526 26.0721 12.3162 25.4531 11.9608C24.5502 11.4423 23.6546 10.9108 22.7516 10.3938C21.9448 9.93211 21.1278 9.48647 20.3195 9.02772C19.2841 8.44081 18.2515 7.84807 17.219 7.25534C16.466 6.8228 15.716 6.3859 14.9645 5.94899C14.4067 5.62423 13.8519 5.29508 13.2926 4.97178C12.9329 4.76353 12.5688 4.55964 12.2047 4.35721C11.8931 4.18536 11.561 4.04409 11.2698 3.84311C11.1154 3.7368 10.9523 3.65816 10.7848 3.60282C12.6446 2.83678 14.666 2.38385 16.7835 2.31104C16.8927 2.39987 17.0122 2.48288 17.1447 2.55861C18.1481 3.13678 19.1442 3.72661 20.1491 4.30332C20.8453 4.70236 21.5531 5.08392 22.2521 5.48005C22.9162 5.85579 23.573 6.24318 24.2356 6.62037C24.7993 6.94077 25.3672 7.24951 25.9308 7.567C26.375 7.81749 26.8163 8.07089 27.2561 8.32866C27.6479 8.55876 28.0309 8.80489 28.427 9.02917C28.9091 9.30151 29.4071 9.54618 29.8892 9.81997C30.5533 10.1972 31.2057 10.5918 31.8669 10.9734C32.0358 11.0724 32.1174 11.1802 32.1174 11.403C32.1072 17.0595 32.1058 22.7159 32.1189 28.3724C32.1189 28.502 32.1276 28.636 32.1451 28.7685C33.7893 26.1165 34.7403 22.9883 34.7417 19.6387C34.7417 19.643 34.7417 19.646 34.7417 19.6503C34.7432 29.2331 26.975 36.9998 17.3952 36.9998Z" fill="#D60936"/>
<path d="M3.92923 30.6326C1.47382 27.6369 0 23.8038 0 19.6284C0 15.6643 1.32819 12.0103 3.56369 9.08594C3.57971 9.09613 3.59573 9.10633 3.61175 9.11652C1.37625 12.0365 0.0466032 15.689 0.0466032 19.6518C0.0466032 23.8067 1.50732 27.6209 3.94379 30.6079C3.93942 30.6166 3.93505 30.6239 3.92923 30.6326ZM11.3683 35.9337C10.1551 35.4866 9.00752 34.9099 7.93856 34.2182C7.93856 34.2109 7.9371 34.2036 7.9371 34.1978C9.00752 34.8954 10.1609 35.4779 11.377 35.9279C11.3755 35.9294 11.3712 35.9323 11.3683 35.9337ZM17.3713 36.9998C16.9169 36.9998 16.4655 36.9823 16.0198 36.9488V36.9474C16.4699 36.9823 16.9242 37.0012 17.383 37.0012C17.3801 36.9998 17.3757 36.9998 17.3713 36.9998Z" fill="#E3E3E3"/>
<path d="M17.3837 36.9999C16.925 36.9999 16.4706 36.981 16.0206 36.9461C16.0191 31.8707 16.0162 26.7939 16.0323 21.717C16.0337 21.3355 15.9157 21.1272 15.5983 20.9568C14.8482 20.5563 14.1084 20.1398 13.3686 19.7233C13.0191 19.5252 12.6797 19.3097 12.2938 19.0781V19.4276C12.2938 24.3574 12.2953 29.2871 12.2924 34.2183C12.2924 34.9523 11.9734 35.5086 11.3807 35.9266C10.1632 35.4766 9.0112 34.8941 7.93933 34.1965C7.92913 34.0756 7.92476 33.9547 7.92476 33.8309C7.92913 28.1657 7.92767 22.4991 7.93059 16.8339C7.93059 16.6751 7.90146 16.5761 7.74563 16.4887C6.65191 15.8756 5.56548 15.2479 4.47758 14.6231C4.41205 14.5853 4.3538 14.5343 4.24894 14.4586V14.7615C4.24894 19.6184 4.24894 24.4739 4.24894 29.3308C4.24894 29.8056 4.15864 30.2352 3.94602 30.6066C1.50955 27.6196 0.0488281 23.8054 0.0488281 19.6505C0.0488281 15.6877 1.37702 12.0367 3.61251 9.11523C3.6329 9.12834 3.65329 9.1429 3.67514 9.15601C4.04505 9.40505 4.46011 9.58563 4.85041 9.80409C5.38489 10.1056 5.91354 10.4158 6.44657 10.7201C7.29999 11.2095 8.15632 11.6944 9.01265 12.1794C9.4481 12.4255 9.88938 12.6614 10.3205 12.9148C11.2045 13.4319 12.0783 13.9634 12.9652 14.4746C13.7676 14.9377 14.5832 15.379 15.3885 15.8363C16.009 16.1887 16.6221 16.5514 17.241 16.9067C17.8061 17.2315 18.3726 17.549 18.9377 17.8723C19.3396 18.1024 19.7518 18.3296 19.9848 18.7504C20.1275 19.0097 20.2833 19.2864 20.3227 19.5718C20.3897 20.0524 20.3838 20.5447 20.3838 21.0311C20.3867 26.2667 20.3882 31.5037 20.3838 36.7393C19.411 36.9097 18.4076 36.9985 17.3837 36.9999Z" fill="#BF0830"/>
<path d="M8.01367 5.05633C8.02241 5.0272 8.0326 4.99953 8.0428 4.9704C8.88457 4.43301 9.77585 3.96698 10.7079 3.57959C10.7356 3.58687 10.7618 3.59561 10.7895 3.60435C9.81663 4.0063 8.88748 4.49418 8.01367 5.05633Z" fill="#E3E3E3"/>
<path d="M24.8962 35.2903C24.6836 35.1243 24.5001 34.9102 24.3515 34.6393C24.1287 34.2373 24.0632 33.8223 24.0632 33.3737C24.069 27.7653 24.0617 22.1584 24.0792 16.5514C24.0807 16.2252 23.9408 16.0854 23.7093 15.9543C23.2098 15.6704 22.7117 15.3849 22.2107 15.1038C21.5714 14.7456 20.9247 14.3975 20.2898 14.0334C19.8048 13.7553 19.3344 13.4538 18.8524 13.1727C18.414 12.9164 17.9698 12.6703 17.5285 12.4212C16.9708 12.1081 16.4115 11.7979 15.8552 11.4819C15.1984 11.1076 14.543 10.7304 13.8877 10.3518C13.1362 9.91777 12.3876 9.4765 11.6318 9.04688C10.8235 8.58667 10.0065 8.14103 9.19822 7.68082C8.71034 7.40411 8.29383 7.03857 8.08994 6.50409C7.89916 6.00456 7.86712 5.51523 8.01275 5.05648C8.88656 4.49287 9.81571 4.00645 10.7886 3.60596C10.956 3.66275 11.1177 3.7414 11.2735 3.84771C11.5648 4.04869 11.8968 4.1885 12.2085 4.3618C12.5726 4.56423 12.9352 4.76812 13.2964 4.97638C13.8542 5.29969 14.4105 5.62883 14.9683 5.95359C15.7198 6.3905 16.4698 6.8274 17.2227 7.25994C18.2553 7.85267 19.2878 8.44395 20.3233 9.03231C21.1315 9.49106 21.9486 9.93671 22.7554 10.3984C23.6583 10.9154 24.554 11.4469 25.4569 11.9654C26.0759 12.3207 26.705 12.6572 27.321 13.0183C27.704 13.2426 27.9982 13.5528 28.1948 13.9635C28.3667 14.3232 28.4366 14.6917 28.4366 15.0849C28.4337 18.1418 28.4351 21.1987 28.4351 24.257C28.4351 27.1813 28.4439 30.1057 28.4308 33.03C27.3516 33.9169 26.1676 34.6786 24.8962 35.2903Z" fill="#BF0830"/>
<path d="M34.7431 19.6403C34.7358 10.0648 26.972 2.30392 17.3951 2.30392C17.1912 2.30392 16.9887 2.30683 16.7863 2.31411C16.7674 2.29955 16.7499 2.28353 16.7324 2.26751C16.945 2.26023 17.1577 2.25586 17.3718 2.25586C26.9662 2.25586 34.7431 10.0328 34.7431 19.6272C34.7431 19.6316 34.7431 19.6359 34.7431 19.6403Z" fill="#E3E3E3"/>
<path d="M32.1448 28.7699C32.1273 28.6374 32.1186 28.5034 32.1186 28.3738C32.1069 22.7174 32.1084 17.0609 32.1171 11.4044C32.1171 11.1816 32.037 11.0739 31.8666 10.9763C31.2054 10.5947 30.553 10.1986 29.8889 9.82285C29.4068 9.54905 28.9102 9.30439 28.4267 9.03205C28.0306 8.80923 27.6476 8.56165 27.2558 8.333C26.816 8.07523 26.3747 7.82183 25.9305 7.57133C25.3669 7.25385 24.7975 6.94365 24.2353 6.62471C23.5727 6.24751 22.9144 5.86012 22.2518 5.48439C21.5527 5.08826 20.8464 4.70669 20.1488 4.30766C19.1439 3.73094 18.1478 3.14112 17.1444 2.56295C17.0133 2.48722 16.8924 2.40421 16.7832 2.31537C16.9856 2.30809 17.1881 2.30518 17.392 2.30518C26.9689 2.30518 34.7342 10.0661 34.74 19.6416C34.74 22.9897 33.7904 26.1179 32.1448 28.7699Z" fill="#BF0830"/>
<path d="M14.3231 13.3022C15.0018 13.3022 15.6688 13.3984 16.3242 13.5877C16.9781 13.7785 17.546 14.0639 18.0266 14.4455C18.5233 14.1149 19.084 13.8411 19.7044 13.6256C20.3262 13.41 21.0748 13.3022 21.9544 13.3022C22.5836 13.3022 23.2011 13.3853 23.8054 13.5513C24.4098 13.7173 24.9487 13.978 25.4205 14.3348C25.8924 14.6916 26.2696 15.1635 26.5507 15.7518C26.8317 16.3402 26.973 17.0567 26.973 17.9014V25.7307C26.807 25.7802 26.5463 25.8298 26.1895 25.8793C25.8327 25.9288 25.4642 25.9535 25.0841 25.9535C24.7186 25.9535 24.3923 25.9288 24.1025 25.8793C23.8127 25.8298 23.5681 25.7307 23.3685 25.5807C23.1705 25.4307 23.0161 25.2283 22.9083 24.972C22.8006 24.7157 22.7467 24.3792 22.7467 23.9656V18.0252C22.7467 17.5286 22.6054 17.1674 22.3243 16.9431C22.0418 16.7203 21.6617 16.6082 21.1811 16.6082C20.9481 16.6082 20.7005 16.662 20.4354 16.7698C20.1704 16.8776 19.9709 16.9897 19.8383 17.1048C19.8544 17.1718 19.8631 17.2329 19.8631 17.2912V17.4528V25.7293C19.6811 25.7788 19.4116 25.8283 19.0548 25.8778C18.698 25.9273 18.3383 25.9521 17.9742 25.9521C17.6101 25.9521 17.2824 25.9273 16.9926 25.8778C16.7028 25.8283 16.4582 25.7293 16.2601 25.5793C16.0606 25.4293 15.9077 25.2268 15.7999 24.9705C15.6921 24.7142 15.6382 24.3778 15.6382 23.9642V18.0237C15.6382 17.5271 15.4853 17.1659 15.178 16.9417C14.8707 16.7188 14.5023 16.6067 14.0727 16.6067C13.7741 16.6067 13.5178 16.6518 13.3022 16.7436C13.0867 16.8353 12.9047 16.9213 12.7547 17.0043V25.7278C12.5886 25.7773 12.328 25.8268 11.9726 25.8764C11.6158 25.9259 11.2473 25.9506 10.8672 25.9506C10.5017 25.9506 10.1755 25.9259 9.88565 25.8764C9.59584 25.8268 9.35117 25.7278 9.15311 25.5778C8.95505 25.4278 8.80067 25.2254 8.6929 24.9691C8.58513 24.7127 8.53125 24.3763 8.53125 23.9627V16.4567C8.53125 16.0096 8.62591 15.6528 8.81669 15.3877C9.00602 15.1227 9.26816 14.8736 9.59875 14.6421C10.1624 14.2445 10.8629 13.9212 11.6988 13.6722C12.5377 13.4275 13.4115 13.3022 14.3231 13.3022Z" fill="white"/>
</g>
<defs>
<clipPath id="clip0_494_157">
<rect width="196" height="37" fill="white"/>
</clipPath>
</defs>
</svg>
