<svg width="44" height="44" viewBox="0 0 44 44" fill="none" xmlns="http://www.w3.org/2000/svg">
<path d="M15.3741 31.4625H2V41.1559H15.3741V31.4625Z" stroke="#1A2578" stroke-width="1.5" stroke-linecap="round" stroke-linejoin="round"/>
<path d="M28.8706 25.9412H15.374V41.1557H28.8706V25.9412Z" stroke="#1A2578" stroke-width="1.5" stroke-linecap="round" stroke-linejoin="round"/>
<path d="M41.9998 19.7847H28.8706V41.1558H41.9998V19.7847Z" stroke="#1A2578" stroke-width="1.5" stroke-linecap="round" stroke-linejoin="round"/>
<path d="M24.7662 6.23511H7.75439V19.7863H24.7662V6.23511Z" stroke="#BF0830" stroke-width="1.5" stroke-linecap="round" stroke-linejoin="round"/>
<path d="M7.75439 6.23511V10.131C7.75439 10.6468 7.95928 11.1414 8.32397 11.5061C8.68866 11.8708 9.18328 12.0756 9.69903 12.0756H22.8233C23.3387 12.0752 23.8329 11.8701 24.1973 11.5055C24.5616 11.1408 24.7662 10.6465 24.7662 10.131V6.23511H7.75439Z" stroke="#BF0830" stroke-width="1.5" stroke-linecap="round" stroke-linejoin="round"/>
<path d="M13.5967 14.1774V12.0756" stroke="#BF0830" stroke-width="1.5" stroke-linecap="round" stroke-linejoin="round"/>
<path d="M19.0796 14.1774V12.0756" stroke="#BF0830" stroke-width="1.5" stroke-linecap="round" stroke-linejoin="round"/>
<path d="M12.7759 6.23512V2.9549H19.7964V6.23512" stroke="#BF0830" stroke-width="1.5" stroke-linecap="round" stroke-linejoin="round"/>
</svg>
