<svg width="848" height="642" viewBox="0 0 848 642" fill="none" xmlns="http://www.w3.org/2000/svg">
<path opacity="0.5" d="M437 550.964C566.787 550.964 672 442.401 672 308.482C672 174.563 566.787 66 437 66C307.213 66 202 174.563 202 308.482C202 442.401 307.213 550.964 437 550.964Z" stroke="white" stroke-width="88"/>
<path d="M456.898 323.617L470.502 323.804L470.717 309.555L457.168 307.698L456.898 323.617Z" fill="#BF0830"/>
<path d="M502.701 319.893L516.319 317.185L513.478 303.22L499.559 304.276L502.701 319.893Z" fill="#BF0830"/>
<path d="M480.656 200.304C480.148 215.01 477.943 272.577 473.305 310.2C473.15 311.408 472.558 312.516 471.641 313.317C470.724 314.117 469.546 314.555 468.328 314.546C464.59 314.532 460.872 313.981 457.291 312.908C456.277 312.611 455.385 311.999 454.742 311.161C454.099 310.323 453.739 309.303 453.714 308.247L451.825 193.699C451.821 193.42 451.841 193.142 451.884 192.866L451.971 192.299C452.094 191.564 452.38 190.866 452.806 190.255C453.232 189.644 453.789 189.135 454.436 188.765C455.083 188.395 455.803 188.174 456.546 188.116C457.289 188.059 458.036 188.168 458.732 188.434L477.44 195.52C478.409 195.881 479.241 196.536 479.818 197.395C480.394 198.253 480.688 199.271 480.656 200.304Z" fill="#1A2578"/>
<path d="M500.344 193.672C500.727 214.221 502.208 234.735 504.781 255.127C507.105 273.021 513.742 291.606 514.817 307.195C514.881 308.201 514.581 309.195 513.971 309.997C513.361 310.798 512.482 311.353 511.496 311.559C507.355 312.459 503.095 312.673 498.885 312.19C498.019 312.1 497.202 311.743 496.547 311.17C495.892 310.597 495.43 309.835 495.225 308.988L480.638 259.664L471.796 209.805L462.318 182.685L500.344 193.672Z" fill="#2836A5"/>
<path d="M470.813 325.505H458.883L454.044 320.309L445.197 325.505H443.294C442.977 325.497 442.667 325.6 442.417 325.795C442.167 325.99 441.992 326.266 441.922 326.575C441.883 326.771 441.889 326.973 441.938 327.167C441.987 327.36 442.079 327.541 442.206 327.694C442.333 327.848 442.494 327.972 442.675 328.056C442.856 328.14 443.053 328.183 443.253 328.181H470.991C471.089 328.181 471.182 328.142 471.252 328.074C471.321 328.005 471.361 327.912 471.362 327.815V326.036C471.361 325.964 471.346 325.894 471.318 325.829C471.29 325.764 471.25 325.705 471.199 325.655C471.147 325.606 471.087 325.567 471.021 325.541C470.955 325.515 470.884 325.503 470.813 325.505Z" fill="#AE253D"/>
<path d="M470.708 325.52V320.694C470.708 320.694 468.696 318.027 465.64 319.386C465.64 319.386 461.011 322.625 456.949 318.709L446.822 323.137C446.822 323.137 444.045 324.052 443.295 325.52H470.708Z" fill="#1F1587"/>
<path d="M516.967 318.041L505.499 321.293L499.397 317.634L492.353 325.039L490.523 325.556C490.216 325.636 489.945 325.82 489.759 326.077C489.572 326.334 489.48 326.648 489.498 326.965C489.519 327.163 489.583 327.355 489.685 327.526C489.787 327.697 489.925 327.843 490.09 327.956C490.254 328.068 490.441 328.143 490.638 328.176C490.834 328.209 491.035 328.198 491.228 328.145L517.886 320.58C517.933 320.566 517.977 320.544 518.015 320.514C518.053 320.484 518.084 320.446 518.108 320.404C518.131 320.361 518.146 320.314 518.151 320.266C518.156 320.218 518.152 320.169 518.138 320.122L517.639 318.407C517.598 318.27 517.504 318.154 517.378 318.086C517.252 318.017 517.104 318.001 516.967 318.041Z" fill="#AE253D"/>
<path d="M516.867 318.08L515.494 313.442C515.494 313.442 512.818 311.429 510.261 313.57C510.261 313.57 506.721 317.943 501.703 315.29L493.213 322.307C493.213 322.307 490.798 323.944 490.469 325.563L516.867 318.08Z" fill="#1F1587"/>
<path d="M452.777 130.912C452.777 130.912 446.121 119.829 445.527 118.105C444.186 114.235 440.596 78.6883 440.596 78.6883L451.295 77.9336L457.241 105.933L465.219 123.392L452.777 130.912Z" fill="#BF0830"/>
<path d="M439.343 66.5119C439.594 66.4242 439.869 66.4349 440.112 66.5418C440.356 66.6488 440.55 66.844 440.655 67.0882L442.055 70.1942C442.075 70.243 442.11 70.2838 442.156 70.3103C442.201 70.3368 442.254 70.3474 442.307 70.3405C442.344 70.3374 442.379 70.3261 442.411 70.3073C442.443 70.2885 442.47 70.2628 442.491 70.2321C442.512 70.2013 442.525 70.1663 442.53 70.1297C442.536 70.093 442.533 70.0557 442.522 70.0203L441.081 65.1945C441.038 65.0725 441.024 64.942 441.04 64.8137C441.057 64.6853 441.103 64.5627 441.176 64.4555C441.248 64.3483 441.345 64.2596 441.458 64.1965C441.571 64.1334 441.697 64.0976 441.826 64.0921C442.12 64.0761 442.41 64.1569 442.653 64.3222C442.896 64.4875 443.078 64.7281 443.171 65.007L444.64 69.9243C444.655 69.9798 444.69 70.028 444.738 70.0606C444.785 70.0932 444.843 70.1081 444.9 70.1027H444.983C445.015 70.1004 445.048 70.0915 445.077 70.0766C445.106 70.0617 445.133 70.0411 445.154 70.016C445.175 69.9908 445.191 69.9616 445.201 69.9302C445.211 69.8987 445.214 69.8656 445.211 69.8328L444.676 64.1607C444.649 63.8963 444.722 63.6312 444.881 63.4184C445.041 63.2056 445.275 63.0607 445.536 63.0126C445.675 62.9907 445.816 62.9974 445.952 63.0321C446.088 63.0668 446.215 63.1289 446.326 63.2146C446.437 63.3003 446.529 63.4077 446.597 63.5302C446.665 63.6528 446.707 63.788 446.721 63.9274L447.261 69.6361C447.263 69.6688 447.272 69.7007 447.287 69.7299C447.302 69.7591 447.322 69.785 447.348 69.8059C447.373 69.8269 447.402 69.8425 447.433 69.8518C447.465 69.8612 447.498 69.864 447.53 69.8602L447.796 69.8374C447.857 69.8318 447.914 69.8041 447.956 69.7594C447.998 69.7148 448.022 69.6563 448.024 69.5949L448.221 64.2751C448.227 64.0097 448.333 63.7564 448.518 63.5662C448.703 63.376 448.953 63.2632 449.218 63.2505C449.359 63.2459 449.499 63.2705 449.63 63.3226C449.761 63.3747 449.88 63.4532 449.979 63.5532C450.078 63.6532 450.155 63.7726 450.206 63.9039C450.257 64.0352 450.281 64.1755 450.275 64.3163C450.275 64.3163 450.412 72.4447 450.54 73.7117L452.827 71.818C452.913 71.7139 453.019 71.6277 453.138 71.5644C453.257 71.5011 453.387 71.4619 453.522 71.4492C453.656 71.4364 453.791 71.4503 453.92 71.4901C454.049 71.5298 454.169 71.5946 454.273 71.6808C454.377 71.7669 454.463 71.8728 454.527 71.9923C454.59 72.1118 454.629 72.2427 454.642 72.3774C454.655 72.512 454.641 72.6479 454.601 72.7772C454.561 72.9065 454.496 73.0266 454.41 73.1308L450.806 78.6885C450.572 78.9721 449.831 79.0453 449.223 78.9584C443.24 79.9876 442.311 80.0974 440.674 80.2255L440.285 73.7483C440.172 71.8789 439.721 70.0454 438.954 68.337L438.757 67.907C438.698 67.7777 438.666 67.6376 438.664 67.4955C438.662 67.3533 438.689 67.2123 438.744 67.0812C438.799 66.9502 438.881 66.8319 438.984 66.7339C439.087 66.6359 439.209 66.5603 439.343 66.5119Z" fill="#BF0830"/>
<path d="M513.444 137.742C513.444 137.742 522.062 128.104 522.968 126.535C525.008 122.986 535.209 88.7475 535.209 88.7475L524.843 86.0029L513.737 112.387L502.617 128.058L513.444 137.742Z" fill="#BF0830"/>
<path d="M538.708 77.0107C538.479 76.8766 538.207 76.8347 537.948 76.8933C537.689 76.9519 537.462 77.1066 537.313 77.3263L535.355 80.1166C535.326 80.1607 535.284 80.194 535.234 80.2114C535.185 80.2288 535.131 80.2292 535.081 80.2126C535.045 80.2025 535.013 80.1847 534.985 80.1605C534.958 80.1362 534.936 80.1061 534.921 80.0724C534.907 80.0387 534.9 80.0021 534.902 79.9655C534.903 79.9288 534.913 79.8929 534.93 79.8604L537.249 75.3914C537.314 75.2795 537.352 75.1541 537.359 75.0251C537.367 74.8961 537.345 74.767 537.295 74.648C537.244 74.5291 537.166 74.4235 537.068 74.3398C536.969 74.256 536.853 74.1963 536.727 74.1655C536.443 74.0937 536.143 74.1175 535.873 74.2332C535.604 74.349 535.38 74.5502 535.236 74.8059L532.871 79.3801C532.844 79.4315 532.8 79.4721 532.747 79.4954C532.694 79.5187 532.635 79.5232 532.579 79.5082L532.496 79.4807C532.464 79.4724 532.435 79.4577 532.409 79.4375C532.383 79.4174 532.362 79.3923 532.346 79.3636C532.33 79.335 532.321 79.3035 532.317 79.2709C532.314 79.2384 532.317 79.2055 532.327 79.1743L533.914 73.6852C533.992 73.4314 533.971 73.1575 533.854 72.9189C533.738 72.6803 533.535 72.4948 533.287 72.3998C533.155 72.3516 533.015 72.331 532.874 72.3393C532.734 72.3476 532.596 72.3846 532.471 72.448C532.345 72.5115 532.234 72.6 532.144 72.7082C532.054 72.8163 531.987 72.9418 531.947 73.0768L530.351 78.5659C530.332 78.6296 530.288 78.6833 530.23 78.7158C530.172 78.7482 530.104 78.7568 530.04 78.7397L529.784 78.662C529.726 78.6459 529.675 78.6091 529.642 78.5585C529.61 78.508 529.596 78.4471 529.605 78.3875L530.415 73.1226C530.457 72.8605 530.399 72.5923 530.252 72.3711C530.106 72.1499 529.881 71.9919 529.624 71.9287C529.486 71.8982 529.344 71.8963 529.206 71.9229C529.068 71.9495 528.937 72.0042 528.821 72.0835C528.704 72.1628 528.606 72.265 528.531 72.384C528.456 72.5029 528.406 72.6359 528.384 72.7749C528.384 72.7749 526.723 80.7341 526.362 81.96L524.468 79.6729C524.335 79.4346 524.114 79.2587 523.851 79.1833C523.589 79.1079 523.308 79.1392 523.069 79.2703C522.831 79.4024 522.655 79.6234 522.579 79.8848C522.504 80.1463 522.535 80.4269 522.666 80.6655L525.164 86.8041C525.342 87.1289 526.051 87.3347 526.664 87.3667C532.35 89.4983 533.242 89.7819 534.829 90.2119L536.425 83.9223C536.888 82.1079 537.675 80.3922 538.749 78.8587L539.019 78.4744C539.099 78.3594 539.155 78.2291 539.183 78.0916C539.211 77.9541 539.21 77.8123 539.181 77.6751C539.152 77.5378 539.095 77.4081 539.013 77.2938C538.932 77.1795 538.828 77.0831 538.708 77.0107Z" fill="#BF0830"/>
<path d="M482.742 111.72L479.701 119.496C479.701 119.496 478.562 122.09 480.739 123.32L478.132 128.251C477.459 129.495 478.557 129.468 479.659 130.355C480.275 130.854 480.965 131.253 481.704 131.54C484.339 132.569 486.539 131.151 487.143 130.25C487.747 129.349 488.931 124.367 488.931 124.367L489.919 122.08L493.121 112.973L482.742 111.72Z" fill="#BF0830"/>
<path d="M487.582 118.1C487.597 118.107 487.612 118.111 487.628 118.111C487.644 118.111 487.659 118.107 487.674 118.1C487.703 118.088 487.726 118.065 487.738 118.036C487.75 118.007 487.75 117.974 487.738 117.945C487.738 117.945 486.823 115.79 484.993 116.362C484.963 116.371 484.938 116.392 484.922 116.42C484.907 116.448 484.904 116.481 484.913 116.511C484.922 116.541 484.943 116.567 484.971 116.582C484.999 116.597 485.032 116.6 485.062 116.591C486.672 116.083 487.473 117.963 487.505 118.036C487.511 118.052 487.522 118.067 487.536 118.078C487.549 118.089 487.565 118.097 487.582 118.1Z" fill="#090028"/>
<path d="M483.314 115.677C483.33 115.684 483.347 115.688 483.364 115.688C483.381 115.688 483.399 115.684 483.414 115.677C483.441 115.662 483.461 115.637 483.47 115.607C483.478 115.577 483.475 115.545 483.46 115.517C483.433 115.462 482.733 114.145 481.85 114.465C481.821 114.476 481.797 114.498 481.784 114.526C481.77 114.554 481.768 114.586 481.777 114.616C481.787 114.646 481.809 114.67 481.837 114.684C481.865 114.698 481.898 114.699 481.928 114.689C482.623 114.447 483.245 115.604 483.254 115.627C483.268 115.65 483.289 115.668 483.314 115.677Z" fill="#090028"/>
<path d="M492.654 113.307L489.799 115.192C489.799 115.192 483.395 115.192 481.529 111.5C479.663 107.809 481.035 106.926 482.371 105.984C483.029 105.526 485.504 104.991 487.498 107.008C488.592 108.111 490.243 106.743 491.441 108.221C492.64 109.698 493.857 111.93 493.417 112.452C492.978 112.973 492.654 113.307 492.654 113.307Z" fill="#090028"/>
<path d="M492.971 112.163C492.971 112.163 495.556 113.032 495.309 115.749C495.062 118.466 493.612 119.372 493.305 120.086C492.999 120.799 491.576 125.904 488.273 124.202L490.506 115.736L492.967 112.991L492.971 112.163Z" fill="#090028"/>
<path d="M487.957 118.626C487.804 119.017 487.77 119.445 487.86 119.855C487.949 120.265 488.159 120.64 488.462 120.931C488.765 121.222 489.147 121.417 489.561 121.491C489.974 121.564 490.4 121.514 490.785 121.345C491.17 121.176 491.496 120.897 491.722 120.543C491.948 120.189 492.064 119.776 492.055 119.356C492.046 118.936 491.913 118.528 491.672 118.184C491.431 117.84 491.093 117.575 490.702 117.423C490.443 117.321 490.166 117.272 489.888 117.278C489.609 117.283 489.335 117.344 489.08 117.456C488.825 117.567 488.595 117.728 488.402 117.929C488.21 118.13 488.058 118.367 487.957 118.626Z" fill="#BF0830"/>
<path d="M489.605 120.667C489.785 120.732 489.982 120.736 490.165 120.68C490.348 120.623 490.508 120.507 490.62 120.352C490.741 120.21 490.811 120.032 490.818 119.846C490.826 119.661 490.771 119.478 490.661 119.327C490.542 119.168 490.379 119.049 490.191 118.983C490.004 118.918 489.801 118.91 489.609 118.961C489.76 118.783 489.969 118.664 490.199 118.627C490.529 118.61 490.854 118.712 491.114 118.915C491.126 118.922 491.141 118.924 491.154 118.922C491.168 118.919 491.18 118.911 491.189 118.9C491.198 118.889 491.203 118.876 491.202 118.862C491.202 118.848 491.197 118.834 491.187 118.824C490.908 118.6 490.556 118.49 490.199 118.513C490.039 118.539 489.885 118.599 489.75 118.689C489.614 118.778 489.499 118.896 489.413 119.034L489.289 119.208L489.486 119.121C489.674 119.038 489.884 119.02 490.083 119.07C490.282 119.121 490.459 119.237 490.584 119.4C490.675 119.531 490.721 119.689 490.714 119.849C490.706 120.008 490.646 120.161 490.542 120.283C490.446 120.419 490.308 120.519 490.15 120.568C489.991 120.618 489.82 120.614 489.664 120.557C489.657 120.555 489.65 120.553 489.642 120.553C489.635 120.553 489.627 120.555 489.621 120.558C489.614 120.561 489.608 120.565 489.603 120.571C489.597 120.576 489.594 120.582 489.591 120.59C489.587 120.597 489.585 120.604 489.585 120.612C489.584 120.62 489.586 120.628 489.589 120.636C489.592 120.643 489.597 120.65 489.602 120.655C489.608 120.661 489.615 120.665 489.623 120.667H489.605Z" fill="#AE253D"/>
<path d="M486.956 123.188C486.956 123.188 485.08 127.538 479.408 125.809L480.739 123.338C480.739 123.338 484.033 125.452 486.956 123.188Z" fill="#AE253D"/>
<path d="M479.801 118.128C479.801 118.128 477.02 123.123 480.455 124.683C485.363 126.911 486.969 124.225 488.181 122.012L490.121 117.195L490.505 115.727C489.995 115.991 489.581 116.411 489.325 116.925C488.771 118.041 487.294 121.042 486.951 121.092C486.457 121.129 480.78 117.922 479.801 118.128Z" fill="#090028"/>
<path d="M483.159 119.446C483.17 119.452 483.182 119.456 483.194 119.456C483.206 119.456 483.218 119.452 483.228 119.446C483.234 119.44 483.239 119.434 483.242 119.426C483.245 119.419 483.247 119.411 483.247 119.403C483.247 119.394 483.245 119.386 483.242 119.379C483.239 119.371 483.234 119.365 483.228 119.359L482.272 118.568L483.644 116.111C483.651 116.098 483.652 116.082 483.648 116.068C483.644 116.054 483.634 116.041 483.621 116.034C483.615 116.03 483.607 116.027 483.599 116.026C483.591 116.025 483.583 116.025 483.575 116.028C483.568 116.03 483.561 116.033 483.554 116.038C483.548 116.043 483.543 116.049 483.539 116.056L482.135 118.595L483.169 119.451L483.159 119.446Z" fill="#AE253D"/>
<path d="M483.593 120.85C483.566 120.85 481.444 119.936 481.444 119.936C481.444 119.936 481.366 120.924 482.153 121.258C482.939 121.591 483.593 120.85 483.593 120.85Z" fill="#FBFDFC"/>
<path d="M451.834 78.3919C451.834 78.3919 457.899 106.148 457.684 105.865C457.469 105.581 468.699 125.722 470.46 126.559C472.221 127.396 496.163 128.846 496.163 128.846L513.115 112.836L524.121 86.5386C526.975 86.6118 535.199 90.5365 535.199 90.5365L524.185 125.314C523.733 126.737 522.958 128.035 521.92 129.106C517.406 133.754 504.717 146.923 503.692 149.023C502.448 151.58 500.71 205.743 500.71 205.743C460.113 205.569 451.23 195.808 451.23 195.808C451.23 195.808 456.083 142.628 456.184 139.879C456.184 139.879 449.638 128.118 447.493 123.567C446.534 121.686 445.67 119.758 444.904 117.79C443.902 115.105 440.051 79.2976 440.051 79.2976C443.413 78.1037 451.834 78.3919 451.834 78.3919Z" fill="#FCE6CF"/>
<g style="mix-blend-mode:multiply">
<g style="mix-blend-mode:multiply" opacity="0.5">
<g style="mix-blend-mode:multiply" opacity="0.5">
<path d="M468.338 201.705C470.959 168.839 482.01 128.645 482.12 128.243L481.425 128.06C481.315 128.462 470.245 168.72 467.615 201.659L468.338 201.705Z" fill="#F7546C"/>
</g>
</g>
</g>
<path d="M482.34 128.091C481.653 128.952 480.888 129.747 480.053 130.465C467.186 142.623 443.546 128.695 448.875 150.793C450.554 147.664 450.737 142.87 454.245 140.761C454.739 140.467 455.283 140.269 455.851 140.176C465.054 138.662 478.04 140.89 482.34 128.091Z" fill="#090028"/>
<path d="M482.518 130.002L481.128 130.775L480.117 130.414L479.719 128.447L481.228 127.445L482.701 127.889L482.518 130.002Z" fill="#090028"/>
<path d="M482.02 127.057L479.458 125.717L478.219 127.542L479.737 129.77L481.773 128.141L482.519 130.465L488.703 128.352L488.374 126.581L482.02 127.057Z" fill="#F7546C"/>
<path d="M500.716 203.556C500.716 203.556 465.247 204.187 451.406 193.703L451.209 195.99C451.209 195.99 456.36 201.328 472.543 203.972C488.727 206.616 500.716 205.729 500.716 205.729V203.556Z" fill="#090028"/>
<path d="M472.024 201.209L471.366 203.785C471.337 203.9 471.263 204 471.162 204.062C471.06 204.125 470.938 204.145 470.821 204.119L464.276 202.66C464.214 202.646 464.156 202.621 464.105 202.584C464.054 202.547 464.011 202.5 463.978 202.446C463.946 202.392 463.926 202.332 463.918 202.269C463.91 202.207 463.915 202.144 463.933 202.083L464.687 199.54C464.721 199.429 464.795 199.334 464.895 199.275C464.995 199.217 465.114 199.199 465.227 199.224L471.677 200.647C471.737 200.66 471.795 200.685 471.845 200.72C471.896 200.756 471.938 200.801 471.971 200.854C472.003 200.906 472.025 200.965 472.034 201.026C472.043 201.087 472.04 201.15 472.024 201.209Z" fill="#BF0830"/>
<path d="M590.324 328.094H423.689C418.548 328.094 414.381 332.261 414.381 337.402V700.395C414.381 705.536 418.548 709.704 423.689 709.704H590.324C595.465 709.704 599.633 705.536 599.633 700.395V337.402C599.633 332.261 595.465 328.094 590.324 328.094Z" fill="#A22641"/>
<path d="M545.305 328.094H378.67C373.529 328.094 369.361 332.261 369.361 337.402V700.395C369.361 705.536 373.529 709.704 378.67 709.704H545.305C550.446 709.704 554.613 705.536 554.613 700.395V337.402C554.613 332.261 550.446 328.094 545.305 328.094Z" fill="#C43F5C"/>
<path d="M387.479 443.378V699.837C387.479 705.28 384.47 709.695 380.764 709.695H260.563C256.853 709.695 253.848 705.28 253.848 699.837V443.378C253.848 437.935 256.853 433.521 260.563 433.521H380.764C384.451 433.521 387.479 437.935 387.479 443.378Z" fill="#0B1249"/>
<path d="M355.003 443.378V699.837C355.003 705.28 351.998 709.695 348.288 709.695H228.086C224.381 709.695 221.371 705.28 221.371 699.837V443.378C221.371 437.935 224.381 433.521 228.086 433.521H348.288C351.998 433.521 355.003 437.935 355.003 443.378Z" fill="#1A2578"/>
<path d="M183.173 433.953C185.525 433.697 187.82 433.06 189.968 432.066L194.291 435.901L197.407 433.47L200.522 431.039L197.841 425.913C199.325 424.072 200.499 422.001 201.316 419.782L207.087 419.439L207.569 415.516L208.052 411.594L202.538 409.86C202.285 407.507 201.65 405.211 200.658 403.063L204.493 398.741L202.062 395.626L199.641 392.511L194.517 395.192C192.674 393.707 190.602 392.534 188.381 391.718L188.036 385.948L184.115 385.465L180.187 384.982L178.453 390.495C176.102 390.746 173.807 391.379 171.659 392.368L167.336 388.533L164.219 390.964L161.103 393.395L163.783 398.521C162.299 400.363 161.125 402.436 160.31 404.657L154.539 405L154.057 408.923L153.562 412.845L159.077 414.58C159.33 416.932 159.965 419.228 160.958 421.376L157.126 425.699L159.558 428.814L161.989 431.928L167.114 429.256C168.956 430.743 171.029 431.918 173.25 432.736L173.586 438.507L177.508 438.989L181.431 439.472L183.173 433.953ZM166.952 417.488C165.91 414.747 165.704 411.759 166.36 408.9C167.017 406.042 168.506 403.443 170.64 401.431C172.774 399.42 175.457 398.086 178.349 397.6C181.241 397.113 184.212 397.495 186.887 398.697C189.562 399.899 191.82 401.868 193.376 404.354C194.932 406.84 195.716 409.731 195.628 412.663C195.541 415.594 194.586 418.433 192.884 420.822C191.182 423.21 188.81 425.04 186.069 426.081C182.394 427.474 178.316 427.352 174.732 425.741C171.147 424.13 168.349 421.162 166.952 417.488Z" fill="#D95F76"/>
<path d="M722.487 428.727C724.586 429.202 726.749 429.332 728.891 429.111L731.48 433.685L734.878 432.51L738.277 431.339L737.49 426.138C739.311 424.991 740.932 423.554 742.289 421.884L747.357 423.288L748.93 420.059L750.504 416.825L746.273 413.705C746.748 411.606 746.878 409.443 746.657 407.301L751.231 404.712L750.056 401.314L748.885 397.915L743.684 398.702C742.536 396.88 741.099 395.258 739.43 393.899L740.834 388.83L737.605 387.257L734.371 385.683L731.251 389.919C729.152 389.442 726.989 389.311 724.847 389.53L722.258 384.956L718.859 386.132L715.461 387.307L716.248 392.504C714.425 393.652 712.803 395.09 711.445 396.762L706.376 395.353L704.803 398.587L703.229 401.821L707.465 404.941C706.988 407.04 706.857 409.203 707.076 411.345L702.502 413.934L703.677 417.333L704.853 420.731L710.049 419.944C711.198 421.766 712.636 423.386 714.308 424.743L712.881 429.811L716.115 431.385L719.349 432.958L722.487 428.727ZM713.389 409.762C713.302 407.096 714.009 404.463 715.418 402.198C716.828 399.933 718.878 398.137 721.308 397.037C723.739 395.936 726.441 395.582 729.073 396.017C731.705 396.453 734.149 397.659 736.096 399.483C738.042 401.308 739.404 403.668 740.009 406.267C740.614 408.865 740.435 411.585 739.494 414.081C738.554 416.578 736.894 418.74 734.725 420.293C732.556 421.846 729.975 422.721 727.308 422.808C725.536 422.868 723.769 422.579 722.109 421.955C720.449 421.332 718.928 420.388 717.633 419.176C716.339 417.964 715.296 416.509 714.564 414.894C713.833 413.278 713.427 411.534 713.37 409.762H713.389Z" fill="#D95F76"/>
<path d="M257.531 324.463C260.595 326.288 263.938 327.6 267.425 328.346L269.168 336.882L275.115 336.772L281.061 336.658L282.479 328.058C285.935 327.18 289.225 325.743 292.218 323.804L299.486 328.612L303.603 324.321L307.72 320.03L302.642 312.949C304.465 309.882 305.777 306.539 306.526 303.051L315.061 301.312L314.947 295.366L314.837 289.419L306.238 288.006C305.361 284.548 303.924 281.257 301.984 278.263L306.791 270.994L302.5 266.878L298.205 262.761L291.124 267.843C288.06 266.017 284.718 264.706 281.23 263.959L279.538 255.364L273.591 255.479L267.645 255.593L266.227 264.188C262.771 265.068 259.482 266.504 256.488 268.442L249.22 263.639L245.103 267.93L240.986 272.22L246.064 279.301C244.241 282.368 242.93 285.711 242.185 289.2L233.645 290.938L233.759 296.885L233.873 302.831L242.468 304.249C243.347 307.707 244.784 310.998 246.722 313.992L241.915 321.261L246.21 325.378L250.501 329.494L257.531 324.463ZM252.879 289.923C254.106 285.676 256.564 281.888 259.943 279.039C263.322 276.189 267.47 274.405 271.863 273.913C276.256 273.421 280.696 274.242 284.622 276.274C288.548 278.305 291.783 281.455 293.919 285.325C296.055 289.195 296.995 293.611 296.621 298.015C296.247 302.42 294.575 306.614 291.817 310.069C289.059 313.523 285.339 316.082 281.127 317.422C276.914 318.762 272.399 318.823 268.153 317.597C262.458 315.952 257.65 312.112 254.786 306.922C251.921 301.733 251.236 295.618 252.879 289.923Z" fill="#D95F76"/>
<path d="M557.816 215.948C568.625 215.824 593.952 215.948 615.748 218.971C624.773 220.234 633.098 212.924 633.501 203.25C633.67 199.293 632.623 194.623 629.489 189.239C617.436 168.508 593.074 186.54 592.653 196.74C592.653 196.74 588.939 181.188 574.553 183.15C560.167 185.113 563.762 207.7 563.762 207.7C563.762 207.7 559.238 206.442 555.913 208.592C552.587 210.742 554.005 215.993 557.816 215.948Z" fill="white"/>
<path d="M242.358 184.894C253.158 184.473 278.462 183.878 300.35 186.321C309.407 187.332 317.526 179.798 317.668 170.119C317.723 166.158 316.547 161.519 313.272 156.222C300.652 135.83 276.793 154.525 276.651 164.735C276.651 164.735 272.534 149.265 258.185 151.648C243.835 154.031 248.121 176.482 248.121 176.482C248.121 176.482 243.547 175.352 240.299 177.589C237.052 179.825 238.566 185.04 242.358 184.894Z" fill="white"/>
<path d="M345.598 272.027C357.889 271.053 387.873 269.109 405.978 271.615C406.556 271.697 407.145 271.6 407.666 271.339C408.188 271.078 408.617 270.664 408.898 270.152C409.179 269.641 409.297 269.056 409.237 268.476C409.177 267.895 408.942 267.347 408.563 266.904C407.314 265.467 405.105 264.269 401.244 264.159C401.244 264.159 404.652 247.349 388.409 245.926C371.713 244.444 371.644 262.083 371.644 262.083C371.644 262.083 361.805 252.934 357.189 264.425C357.189 264.425 346.847 260.024 342.236 265.664C341.751 266.259 341.451 266.984 341.375 267.748C341.299 268.512 341.449 269.281 341.808 269.96C342.167 270.639 342.718 271.197 343.392 271.565C344.066 271.932 344.833 272.093 345.598 272.027Z" fill="white"/>
<path d="M710.831 500.068V699.45C710.831 705.113 707.885 709.705 704.254 709.705H586.49C582.858 709.705 579.912 705.131 579.912 699.45V500.068C579.912 494.405 582.858 489.812 586.49 489.812H704.254C707.885 489.812 710.831 494.405 710.831 500.068Z" fill="#1A2578"/>
<path d="M679.031 500.068V699.45C679.031 705.113 676.09 709.705 672.454 709.705H554.671C551.04 709.705 548.094 705.131 548.094 699.45V500.068C548.094 494.405 551.04 489.812 554.671 489.812H672.435C676.072 489.812 679.031 494.405 679.031 500.068Z" fill="#2836A5"/>
<path d="M294.397 571.158V642.15C294.397 647.594 291.278 652.008 287.426 652.008H162.627C158.776 652.008 155.656 647.594 155.656 642.15V571.158C155.656 565.715 158.776 561.301 162.627 561.301H287.426C291.278 561.301 294.397 565.715 294.397 571.158Z" fill="#A22641"/>
<path d="M260.683 570.858V641.85C260.683 647.293 257.563 651.707 253.711 651.707H128.913C125.061 651.707 121.941 647.293 121.941 641.85V570.858C121.941 565.414 125.061 561 128.913 561H253.711C257.563 561 260.683 565.414 260.683 570.858Z" fill="#C43F5C"/>
<path d="M311.069 358.237C311.069 358.237 312.409 369.137 310.845 369.622C309.281 370.107 314.925 381.927 317.67 374.814C318.635 372.33 315.255 358.347 311.028 356.215C306.801 354.083 311.069 358.237 311.069 358.237Z" fill="#090028"/>
<path d="M311.013 355.432C311.013 355.432 314.856 365.12 313.964 367.219C313.771 367.606 313.494 367.943 313.152 368.207C312.811 368.471 312.414 368.654 311.992 368.743L313.515 374.611L306.228 375.48L302.016 358.766C302.016 358.766 303.049 354.137 303.095 354.306C303.141 354.476 311.013 355.432 311.013 355.432Z" fill="#FF6160"/>
<path d="M310.839 364.315C310.827 364.316 310.815 364.313 310.804 364.307C310.794 364.3 310.787 364.29 310.784 364.278C310.784 364.241 310.784 364.205 310.784 364.191C311.054 364.031 311.109 363.477 311.122 363.276C310.649 363.089 310.269 362.722 310.066 362.256C309.858 361.748 309.804 361.19 309.91 360.651C309.91 360.619 309.947 360.605 309.97 360.619C309.984 360.628 309.994 360.641 310 360.657C310.006 360.672 310.006 360.689 310.002 360.705C309.909 361.209 309.96 361.729 310.148 362.206C310.247 362.427 310.389 362.626 310.566 362.792C310.742 362.957 310.95 363.086 311.177 363.171H311.223V363.23C311.223 363.262 311.223 364.058 310.834 364.273L310.839 364.315Z" fill="#AE253D"/>
<path d="M312.496 370.742L311.993 368.743C311.993 368.743 308.562 369.397 306.156 368.61C306.156 368.61 309.656 370.609 312.496 370.742Z" fill="#AE253D"/>
<path d="M305.359 362.101C305.344 362.108 305.328 362.111 305.311 362.111C305.295 362.111 305.279 362.108 305.263 362.101C305.248 362.093 305.235 362.082 305.224 362.068C305.213 362.055 305.205 362.039 305.2 362.023C305.195 362.006 305.194 361.988 305.196 361.971C305.199 361.954 305.204 361.938 305.213 361.923C305.213 361.923 306.444 359.814 308.246 360.642C308.276 360.658 308.3 360.684 308.312 360.716C308.323 360.749 308.323 360.784 308.31 360.816C308.303 360.832 308.292 360.846 308.279 360.858C308.266 360.87 308.251 360.879 308.234 360.885C308.218 360.891 308.2 360.894 308.182 360.893C308.165 360.892 308.147 360.887 308.132 360.88C306.553 360.152 305.488 361.978 305.442 362.055C305.422 362.081 305.392 362.097 305.359 362.101Z" fill="#090028"/>
<path d="M310.556 360.51C310.538 360.517 310.52 360.521 310.501 360.521C310.482 360.521 310.463 360.517 310.446 360.51C310.418 360.489 310.399 360.459 310.393 360.425C310.387 360.39 310.394 360.355 310.414 360.327C310.451 360.276 311.329 359.014 312.221 359.453C312.236 359.46 312.25 359.471 312.261 359.484C312.272 359.497 312.281 359.511 312.287 359.528C312.292 359.544 312.294 359.561 312.293 359.578C312.292 359.595 312.288 359.611 312.28 359.627C312.273 359.642 312.262 359.656 312.249 359.667C312.237 359.678 312.222 359.687 312.206 359.692C312.19 359.698 312.172 359.7 312.155 359.699C312.138 359.698 312.122 359.694 312.106 359.686C311.429 359.352 310.638 360.468 310.629 360.478C310.608 360.495 310.583 360.506 310.556 360.51Z" fill="#090028"/>
<path d="M309.219 365.33C309.26 365.33 311.812 365.005 311.812 365.005C311.812 365.005 311.593 366.094 310.646 366.212C309.699 366.331 309.219 365.33 309.219 365.33Z" fill="#FBFDFC"/>
<path d="M307.984 356.356L305.697 354.375C305.697 354.375 308.872 355.45 308.661 355.573C308.406 355.807 308.179 356.069 307.984 356.356Z" fill="#FF6160"/>
<path d="M302.573 356.448C302.573 356.448 303.945 360.075 313.094 358.703C313.094 358.703 313.862 352.669 306.914 352.363C299.966 352.056 300.556 357.189 300.679 357.111C300.803 357.033 302.573 356.448 302.573 356.448Z" fill="#090028"/>
<path d="M304.403 358.227C303.816 359.795 303.342 361.403 302.985 363.039C302.985 363.039 309.696 378.002 303.443 378.555L302.363 378.798C297.007 379.992 297.963 367.563 296.595 361.416C295.744 357.564 299.481 352.56 303.068 354.179C306.654 355.798 304.403 358.227 304.403 358.227Z" fill="#090028"/>
<path d="M304.97 364.59C305.07 364.984 305.05 365.4 304.914 365.783C304.778 366.167 304.531 366.501 304.204 366.744C303.878 366.987 303.487 367.128 303.08 367.149C302.674 367.17 302.27 367.07 301.921 366.862C301.571 366.653 301.291 366.346 301.116 365.979C300.941 365.611 300.879 365.2 300.937 364.797C300.996 364.394 301.173 364.018 301.445 363.716C301.718 363.413 302.074 363.199 302.468 363.098C302.73 363.032 303.003 363.018 303.271 363.057C303.538 363.096 303.796 363.187 304.028 363.325C304.261 363.464 304.463 363.647 304.625 363.864C304.787 364.081 304.904 364.327 304.97 364.59Z" fill="#FF6160"/>
<path d="M303.136 366.375C302.953 366.416 302.761 366.397 302.59 366.319C302.419 366.241 302.278 366.11 302.189 365.945C302.089 365.793 302.042 365.611 302.057 365.43C302.072 365.248 302.147 365.077 302.271 364.943C302.403 364.805 302.572 364.71 302.757 364.667C302.942 364.625 303.136 364.638 303.314 364.705C303.193 364.527 303.013 364.398 302.806 364.339C302.492 364.278 302.165 364.336 301.892 364.504C301.877 364.514 301.859 364.517 301.842 364.514C301.825 364.51 301.81 364.5 301.8 364.486C301.79 364.471 301.787 364.453 301.79 364.436C301.794 364.419 301.804 364.404 301.818 364.394C302.115 364.208 302.472 364.143 302.816 364.211C302.969 364.255 303.111 364.332 303.232 364.436C303.352 364.541 303.449 364.67 303.516 364.815L303.625 365.021L303.424 364.902C303.254 364.805 303.057 364.766 302.862 364.79C302.668 364.814 302.487 364.9 302.344 365.034C302.242 365.148 302.18 365.292 302.168 365.444C302.155 365.596 302.193 365.748 302.276 365.876C302.352 366.018 302.473 366.131 302.621 366.198C302.768 366.264 302.933 366.279 303.09 366.242C303.105 366.242 303.12 366.246 303.133 366.255C303.145 366.264 303.154 366.277 303.158 366.292C303.163 366.307 303.162 366.322 303.156 366.336C303.15 366.351 303.14 366.362 303.127 366.37L303.136 366.375Z" fill="#AE253D"/>
<path d="M311.014 353.639C311.014 353.639 314.897 356.182 316.425 365.783L312.075 356.987L311.014 353.639Z" fill="#090028"/>
<path d="M324.228 496.667L312.473 492.99L316.777 479.212L329.009 481.261L324.228 496.667Z" fill="#FF6160"/>
<path d="M320.536 458.082L325.984 447.009L314.258 441.239L308.81 452.312L320.536 458.082Z" fill="#FF6160"/>
<path d="M305.953 437.983C306.223 437.983 316.195 442.397 316.195 442.397L319.397 444.474C319.397 444.474 314.539 477.55 313.638 486.383C313.638 486.383 320.669 491.341 327.786 491.52C327.786 491.52 342.479 440.311 342.479 433.807C342.479 427.302 311.232 411.892 311.232 411.892L297.015 420.098C297.015 420.098 275.649 421.854 270.736 425.184C265.824 428.514 308.876 448.019 308.876 448.019L305.953 437.983Z" fill="#FCE6CF"/>
<path d="M316.936 441.162C316.936 441.162 292.816 426.781 284.528 424.539C276.239 422.298 270.283 424.192 269.382 426.826C268.481 429.461 267.58 436.83 269.382 439.264C271.185 441.697 302.642 453.325 309.851 455.306C309.851 455.287 316.268 447.831 316.936 441.162Z" fill="#FCE6CF"/>
<path d="M269.566 426.635C269.532 426.641 269.498 426.641 269.465 426.635C269.411 426.607 269.37 426.56 269.351 426.503C269.331 426.446 269.334 426.383 269.36 426.328C269.986 425.061 272.26 423.904 276.121 422.888C279.672 422.013 283.274 421.361 286.907 420.935C286.961 420.935 292.533 420.254 292.853 420.478C292.903 420.511 292.938 420.563 292.95 420.622C292.962 420.682 292.95 420.743 292.917 420.793C292.887 420.835 292.845 420.866 292.797 420.882C292.748 420.897 292.696 420.897 292.647 420.88C291.504 420.707 271.656 422.669 269.749 426.516C269.73 426.549 269.704 426.578 269.672 426.599C269.64 426.619 269.604 426.632 269.566 426.635Z" fill="#090028"/>
<path d="M314.531 448.317C314.487 448.316 314.445 448.304 314.408 448.28C314.357 448.248 314.321 448.196 314.308 448.137C314.295 448.078 314.306 448.016 314.339 447.965C315.658 445.841 316.475 443.444 316.727 440.957C306.104 434.085 294.909 428.141 283.266 423.191C283.219 423.162 283.184 423.118 283.167 423.065C283.15 423.013 283.153 422.956 283.175 422.905C283.196 422.855 283.236 422.813 283.285 422.789C283.335 422.765 283.391 422.76 283.445 422.775C303.219 431.232 316.955 440.559 317.093 440.655L317.198 440.724V440.852C316.969 443.465 316.123 445.986 314.728 448.207C314.707 448.241 314.678 448.269 314.644 448.288C314.609 448.307 314.571 448.317 314.531 448.317Z" fill="#090028"/>
<path d="M287.561 424.984C287.526 424.983 287.491 424.975 287.46 424.96C287.428 424.945 287.4 424.924 287.378 424.897C286.657 424.08 285.813 423.381 284.875 422.825C284.83 422.792 284.798 422.742 284.786 422.687C284.774 422.632 284.784 422.574 284.812 422.525C284.841 422.476 284.886 422.439 284.94 422.422C284.994 422.405 285.053 422.408 285.104 422.431C286.092 423.015 286.982 423.751 287.739 424.613C287.776 424.661 287.792 424.722 287.784 424.782C287.777 424.842 287.746 424.896 287.698 424.934C287.659 424.965 287.611 424.983 287.561 424.984Z" fill="#090028"/>
<path d="M337.178 457.667H337.123C337.064 457.653 337.014 457.617 336.982 457.565C336.95 457.514 336.94 457.452 336.954 457.393C337.004 457.196 341.675 437.861 342.255 434.522C342.814 431.32 335.943 426.64 335.852 426.595C335.823 426.58 335.798 426.559 335.778 426.533C335.758 426.508 335.743 426.479 335.735 426.447C335.728 426.416 335.726 426.383 335.732 426.352C335.738 426.32 335.75 426.29 335.768 426.263C335.787 426.236 335.81 426.214 335.838 426.197C335.865 426.18 335.896 426.169 335.928 426.165C335.96 426.161 335.993 426.164 336.024 426.173C336.055 426.182 336.083 426.198 336.108 426.22C336.4 426.416 343.289 431.114 342.681 434.6C342.1 437.943 337.425 457.297 337.375 457.471C337.368 457.521 337.345 457.567 337.31 457.602C337.274 457.638 337.228 457.661 337.178 457.667Z" fill="#090028"/>
<path d="M322.242 446.424C322.198 446.424 322.154 446.411 322.118 446.387L316.569 442.842C316.544 442.826 316.522 442.805 316.504 442.781C316.487 442.756 316.474 442.728 316.468 442.699C316.462 442.669 316.461 442.639 316.467 442.609C316.473 442.58 316.484 442.551 316.501 442.526C316.517 442.501 316.537 442.48 316.562 442.463C316.586 442.446 316.613 442.434 316.642 442.427C316.671 442.421 316.701 442.42 316.73 442.425C316.759 442.431 316.787 442.442 316.812 442.458L322.365 446.003C322.416 446.036 322.452 446.087 322.465 446.146C322.477 446.206 322.466 446.267 322.434 446.318C322.414 446.351 322.385 446.378 322.352 446.397C322.318 446.415 322.28 446.424 322.242 446.424Z" fill="#090028"/>
<path d="M327.785 491.75H327.758C327.346 491.695 317.635 490.345 313.481 486.558L313.395 486.476V486.357L317.589 455.252L318.833 444.196C318.835 444.166 318.844 444.136 318.858 444.11C318.872 444.083 318.891 444.059 318.915 444.04C318.939 444.021 318.966 444.008 318.995 444C319.024 443.992 319.055 443.99 319.085 443.995C319.145 444.002 319.2 444.032 319.237 444.079C319.275 444.126 319.293 444.186 319.286 444.246L318.042 455.311L313.866 486.288C317.982 489.925 327.707 491.278 327.803 491.292C327.833 491.296 327.862 491.305 327.889 491.32C327.915 491.335 327.938 491.355 327.956 491.378C327.975 491.402 327.988 491.43 327.995 491.459C328.003 491.488 328.005 491.519 328 491.548C327.993 491.602 327.968 491.651 327.928 491.687C327.889 491.724 327.839 491.746 327.785 491.75Z" fill="#090028"/>
<path d="M272.841 439.689C272.793 439.689 272.746 439.673 272.709 439.643C270.11 437.731 270.129 436.08 270.133 436.011C270.133 435.981 270.139 435.951 270.151 435.924C270.163 435.896 270.181 435.871 270.202 435.851C270.224 435.83 270.25 435.814 270.278 435.804C270.307 435.794 270.337 435.79 270.367 435.791C270.396 435.792 270.426 435.799 270.453 435.811C270.48 435.823 270.505 435.84 270.525 435.862C270.546 435.884 270.562 435.909 270.572 435.937C270.583 435.965 270.587 435.995 270.586 436.025C270.586 436.048 270.586 437.525 272.978 439.277C273.017 439.306 273.045 439.346 273.06 439.392C273.074 439.438 273.073 439.487 273.058 439.532C273.043 439.578 273.014 439.617 272.975 439.646C272.936 439.674 272.889 439.689 272.841 439.689Z" fill="#090028"/>
<path d="M275.16 439.259C275.123 439.258 275.087 439.248 275.055 439.231C272.205 437.722 271.986 436.084 271.976 436.029C271.973 436 271.975 435.97 271.983 435.941C271.99 435.913 272.004 435.886 272.022 435.862C272.04 435.839 272.063 435.819 272.089 435.805C272.115 435.79 272.144 435.781 272.173 435.778C272.233 435.771 272.293 435.788 272.341 435.825C272.389 435.861 272.42 435.915 272.429 435.974C272.429 436.002 272.663 437.461 275.27 438.843C275.323 438.872 275.362 438.921 275.38 438.979C275.397 439.037 275.393 439.099 275.366 439.154C275.344 439.188 275.314 439.216 275.277 439.234C275.241 439.253 275.201 439.261 275.16 439.259Z" fill="#090028"/>
<path d="M313.812 392.714L309.37 374.069H297.276C295.991 374.069 294.22 374.916 294.147 374.952C289.289 377.537 275.932 392.256 276.6 401.533C277.204 409.954 289.326 408.28 301.406 410.224L304.091 399.058L299.723 397.887L313.812 392.714Z" fill="#D95F76"/>
<path d="M309.805 395.468V374.069H321.904C323.189 374.069 324.959 374.916 325.032 374.952C329.89 377.537 344.916 392.723 344.244 402C343.636 410.421 329.465 410.082 322.823 412.132L319.132 398.779L319.456 398.102L309.805 395.468Z" fill="#D95F76"/>
<path d="M329.414 398.396L329.263 421.724C329.263 421.724 308.135 425.585 289.326 420.581C288.868 420.457 290.208 401.291 290.208 401.291C290.208 401.291 290.208 397.577 292.171 396.424C294.133 395.271 310.129 388.19 310.509 388.19C310.889 388.19 329.414 398.396 329.414 398.396Z" fill="#D95F76"/>
<path d="M309.159 380.556C309.22 380.556 309.278 380.532 309.321 380.489C309.364 380.446 309.388 380.388 309.388 380.328C309.388 380.267 309.364 380.209 309.321 380.166C309.278 380.123 309.22 380.099 309.159 380.099C302.216 379.641 299.951 374.907 299.928 374.857C299.916 374.829 299.898 374.805 299.877 374.784C299.855 374.764 299.829 374.748 299.801 374.738C299.773 374.728 299.743 374.723 299.713 374.725C299.683 374.726 299.654 374.734 299.627 374.747C299.571 374.772 299.528 374.818 299.507 374.874C299.486 374.931 299.487 374.994 299.512 375.049C299.535 375.099 301.905 380.081 309.118 380.538L309.159 380.556Z" fill="#090028"/>
<path d="M316.813 374.069H301.512C301.512 374.069 304.256 378.859 309.562 378.84C311.991 378.831 314.585 377.939 316.813 374.069Z" fill="#FF6160"/>
<path d="M307.384 404.931C306.415 403.948 307.311 402.699 307.311 402.699C306.95 401.208 307.348 400.558 307.348 400.558C307.348 400.558 311.433 401.77 313.752 402.626C315.06 402.429 315.522 401.789 315.522 401.789L315.554 401.844C315.581 400.714 315.613 399.291 315.613 399.136C315.613 398.861 316.043 398.431 316.72 399.287C317.433 400.305 318.094 401.358 318.701 402.443L322.081 400.458L324.826 409.967C324.826 409.967 316.629 411.129 315.366 411.216C314.104 411.303 309.713 410.274 308.404 409.19C307.096 408.106 307.38 407.141 307.38 407.141C307.109 406.836 306.959 406.443 306.96 406.035C306.961 405.627 307.112 405.234 307.384 404.931Z" fill="#F78C63"/>
<path d="M316.295 398.637V401.596C316.006 401.982 315.618 402.283 315.172 402.467C314.726 402.65 314.238 402.71 313.761 402.639L312.494 402.182L313.491 397.9L316.295 398.637Z" fill="#AE253D"/>
<path d="M310.088 404.158C310.121 404.158 310.152 404.148 310.178 404.129C310.205 404.11 310.224 404.084 310.235 404.053C310.241 404.034 310.244 404.014 310.242 403.993C310.24 403.973 310.235 403.954 310.225 403.936C310.216 403.918 310.203 403.902 310.187 403.889C310.172 403.876 310.154 403.867 310.134 403.861C309.186 403.505 308.268 403.072 307.39 402.566C307.354 402.546 307.313 402.541 307.273 402.551C307.234 402.561 307.2 402.586 307.179 402.621C307.169 402.639 307.163 402.658 307.161 402.678C307.159 402.697 307.161 402.717 307.166 402.737C307.172 402.756 307.181 402.774 307.193 402.789C307.206 402.805 307.221 402.818 307.239 402.827C308.133 403.348 309.071 403.79 310.043 404.149L310.088 404.158Z" fill="#AE253D"/>
<path d="M310.089 406.083C310.124 406.084 310.159 406.072 310.187 406.049C310.214 406.026 310.233 405.995 310.24 405.96C310.246 405.92 310.237 405.879 310.214 405.845C310.191 405.812 310.156 405.789 310.116 405.781C309.187 405.589 308.293 405.258 307.463 404.798C307.428 404.778 307.386 404.772 307.347 404.782C307.307 404.793 307.274 404.818 307.253 404.853C307.233 404.887 307.227 404.928 307.238 404.967C307.248 405.006 307.273 405.038 307.307 405.059C308.163 405.54 309.09 405.884 310.052 406.079L310.089 406.083Z" fill="#AE253D"/>
<path d="M309.75 408.279C309.786 408.278 309.821 408.264 309.848 408.239C309.875 408.214 309.892 408.181 309.896 408.145C309.899 408.108 309.89 408.072 309.869 408.042C309.848 408.012 309.817 407.991 309.782 407.982C308.965 407.781 308.184 407.454 307.467 407.012C307.433 406.991 307.392 406.984 307.353 406.993C307.314 407.001 307.279 407.025 307.257 407.058C307.246 407.075 307.239 407.094 307.235 407.113C307.231 407.133 307.232 407.153 307.236 407.173C307.24 407.192 307.248 407.211 307.26 407.227C307.271 407.244 307.286 407.258 307.303 407.268C308.049 407.732 308.864 408.073 309.718 408.279H309.75Z" fill="#AE253D"/>
<path d="M319.652 400.632L324.304 399.475C324.304 399.475 326.93 405.984 326.93 406.199C326.93 406.414 325.617 412.145 325.453 412.145C324.87 411.656 324.317 411.132 323.797 410.576L319.652 400.632Z" fill="#4CB7D8"/>
<path d="M328.189 396.392L330.476 396.027C330.548 396.013 330.612 395.972 330.655 395.913C330.697 395.853 330.715 395.779 330.705 395.706C330.692 395.634 330.652 395.569 330.592 395.526C330.532 395.483 330.457 395.466 330.384 395.478L328.45 395.789L324.127 389.138C324.108 389.107 324.083 389.08 324.053 389.059C324.024 389.038 323.99 389.024 323.955 389.016C323.919 389.008 323.882 389.008 323.847 389.015C323.811 389.021 323.777 389.035 323.747 389.055C323.717 389.075 323.691 389.1 323.67 389.13C323.65 389.159 323.635 389.193 323.627 389.228C323.62 389.263 323.619 389.3 323.626 389.335C323.632 389.371 323.645 389.405 323.665 389.435L328.189 396.392Z" fill="#090028"/>
<path d="M327.347 380.153C327.31 380.152 327.274 380.143 327.242 380.127C327.209 380.11 327.181 380.086 327.159 380.057C325.439 377.582 323.957 377.578 323.957 377.578C323.897 377.578 323.838 377.553 323.796 377.511C323.753 377.468 323.729 377.409 323.729 377.349C323.729 377.288 323.753 377.23 323.796 377.187C323.838 377.144 323.897 377.12 323.957 377.12C324.04 377.12 325.686 377.152 327.521 379.791C327.538 379.816 327.55 379.844 327.556 379.873C327.563 379.902 327.563 379.932 327.557 379.962C327.552 379.991 327.541 380.019 327.524 380.044C327.507 380.069 327.486 380.091 327.461 380.107C327.428 380.133 327.389 380.149 327.347 380.153Z" fill="#090028"/>
<path d="M326.857 382.472C326.815 382.472 326.773 382.461 326.737 382.439C326.701 382.417 326.671 382.386 326.651 382.349C325.334 379.696 323.875 379.435 323.861 379.43C323.8 379.422 323.746 379.39 323.709 379.341C323.672 379.292 323.656 379.23 323.664 379.17C323.673 379.109 323.705 379.054 323.754 379.017C323.803 378.98 323.864 378.964 323.925 378.973C323.994 378.973 325.627 379.252 327.063 382.138C327.076 382.165 327.084 382.195 327.086 382.225C327.088 382.255 327.084 382.285 327.074 382.313C327.064 382.342 327.049 382.368 327.029 382.391C327.009 382.413 326.985 382.432 326.958 382.445C326.927 382.463 326.893 382.472 326.857 382.472Z" fill="#090028"/>
<path d="M314.008 401.035C313.972 401.045 313.934 401.041 313.901 401.024C313.868 401.007 313.842 400.979 313.829 400.945C313.815 400.91 313.815 400.872 313.828 400.837C313.84 400.803 313.865 400.774 313.898 400.756C314.754 400.213 315.565 399.601 316.322 398.927C316.337 398.913 316.355 398.903 316.374 398.897C316.393 398.89 316.413 398.888 316.433 398.889C316.453 398.89 316.472 398.895 316.49 398.904C316.508 398.913 316.524 398.925 316.537 398.94C316.551 398.955 316.561 398.973 316.567 398.992C316.574 399.011 316.576 399.031 316.575 399.051C316.574 399.071 316.569 399.09 316.56 399.108C316.551 399.126 316.539 399.142 316.524 399.155C315.755 399.847 314.928 400.473 314.054 401.026L314.008 401.035Z" fill="#AE253D"/>
<path d="M314.392 402.919C314.357 402.927 314.321 402.921 314.289 402.905C314.257 402.888 314.232 402.861 314.218 402.828C314.203 402.791 314.203 402.75 314.219 402.713C314.234 402.676 314.264 402.647 314.301 402.631C315.171 402.251 315.98 401.74 316.697 401.117C316.712 401.104 316.729 401.093 316.748 401.086C316.767 401.08 316.787 401.076 316.807 401.077C316.827 401.078 316.846 401.083 316.865 401.091C316.883 401.1 316.899 401.112 316.912 401.126C316.926 401.141 316.936 401.158 316.943 401.177C316.95 401.196 316.953 401.216 316.952 401.236C316.952 401.256 316.947 401.275 316.938 401.293C316.93 401.312 316.918 401.328 316.903 401.341C316.161 401.989 315.323 402.518 314.42 402.91L314.392 402.919Z" fill="#AE253D"/>
<path d="M315.175 405.002C315.141 405.008 315.106 405.003 315.076 404.987C315.045 404.971 315.02 404.946 315.006 404.915C314.997 404.896 314.993 404.877 314.992 404.857C314.992 404.836 314.995 404.816 315.002 404.798C315.01 404.779 315.021 404.762 315.034 404.747C315.048 404.733 315.065 404.721 315.084 404.713C315.842 404.347 316.54 403.866 317.151 403.286C317.165 403.271 317.181 403.26 317.2 403.252C317.218 403.243 317.238 403.239 317.259 403.239C317.279 403.239 317.299 403.243 317.317 403.252C317.336 403.26 317.352 403.271 317.366 403.286C317.38 403.3 317.392 403.317 317.399 403.335C317.407 403.354 317.411 403.374 317.411 403.394C317.411 403.414 317.407 403.434 317.399 403.452C317.392 403.47 317.38 403.487 317.366 403.501C316.728 404.105 316 404.605 315.207 404.983L315.175 405.002Z" fill="#AE253D"/>
<path d="M294.393 396.239L292.074 396.358C292.001 396.361 291.929 396.335 291.874 396.285C291.82 396.236 291.786 396.167 291.782 396.093C291.78 396.057 291.785 396.02 291.798 395.986C291.81 395.952 291.829 395.92 291.854 395.893C291.878 395.867 291.908 395.845 291.941 395.83C291.975 395.815 292.01 395.806 292.047 395.805L294.009 395.704L296.859 388.303C296.891 388.242 296.944 388.195 297.008 388.171C297.073 388.147 297.144 388.147 297.208 388.172C297.272 388.197 297.324 388.245 297.355 388.306C297.386 388.368 297.394 388.438 297.376 388.504L294.393 396.239Z" fill="#090028"/>
<path d="M304.092 399.067L301.699 410.503C301.699 410.503 296.777 406.501 296.777 406.061C296.777 405.622 298.337 400.293 298.502 400.193C298.667 400.092 304.092 399.067 304.092 399.067Z" fill="#4CB7D8"/>
<path d="M301.858 410.82H301.616C297.337 410.402 293.147 409.338 289.188 407.663C289.154 407.649 289.124 407.629 289.099 407.603C289.073 407.577 289.053 407.547 289.04 407.513C289.026 407.479 289.019 407.443 289.02 407.407C289.02 407.371 289.027 407.335 289.041 407.302C289.055 407.269 289.076 407.238 289.102 407.213C289.128 407.188 289.158 407.168 289.192 407.154C289.225 407.14 289.261 407.133 289.297 407.134C289.334 407.134 289.369 407.141 289.403 407.156C293.232 408.765 297.275 409.807 301.405 410.248L303.455 399.448L294.11 396.246C294.04 396.222 293.984 396.171 293.952 396.105C293.92 396.039 293.916 395.963 293.94 395.894C293.965 395.825 294.015 395.768 294.081 395.736C294.147 395.705 294.223 395.7 294.293 395.725L304.091 399.077L301.858 410.82Z" fill="#090028"/>
<path d="M320.871 410.82H321.113C325.392 410.402 329.582 409.338 333.542 407.663C333.575 407.649 333.605 407.629 333.631 407.603C333.656 407.577 333.676 407.547 333.69 407.513C333.703 407.479 333.71 407.443 333.71 407.407C333.709 407.371 333.702 407.335 333.688 407.302C333.674 407.269 333.653 407.238 333.627 407.213C333.602 407.188 333.571 407.168 333.538 407.154C333.504 407.14 333.468 407.133 333.432 407.134C333.396 407.134 333.36 407.141 333.327 407.156C329.498 408.765 325.454 409.807 321.324 410.248L319.274 399.448L328.62 396.246C328.689 396.222 328.745 396.171 328.777 396.105C328.809 396.039 328.813 395.963 328.789 395.894C328.765 395.825 328.714 395.768 328.648 395.736C328.582 395.705 328.506 395.7 328.437 395.725L318.639 399.077L320.871 410.82Z" fill="#090028"/>
<path d="M333.627 507.76L310.299 496.553L312.54 491.892C312.54 491.892 315.312 490.469 317.343 492.853C317.343 492.853 319.946 497.427 324.968 495.812L331.729 503.639C331.729 503.639 334.391 506.173 333.627 507.76Z" fill="#E2F2F1"/>
<path d="M333.001 509.409L309.406 498.069C309.358 498.045 309.315 498.013 309.279 497.973C309.244 497.933 309.216 497.887 309.199 497.836C309.181 497.786 309.173 497.733 309.176 497.679C309.179 497.626 309.193 497.574 309.216 497.525L309.937 496.025C309.984 495.927 310.067 495.853 310.169 495.817C310.271 495.781 310.383 495.787 310.48 495.834L334.075 507.174C334.317 507.29 334.502 507.498 334.591 507.751C334.68 508.004 334.664 508.282 334.548 508.523L334.35 508.936C334.234 509.177 334.026 509.363 333.773 509.452C333.521 509.54 333.243 509.525 333.001 509.409Z" fill="#090028"/>
<path d="M289.656 423.182H331.793C333.18 423.182 334.305 422.057 334.305 420.67V397.982C334.305 396.595 333.18 395.471 331.793 395.471H289.656C288.269 395.471 287.144 396.595 287.144 397.982V420.67C287.144 422.057 288.269 423.182 289.656 423.182Z" fill="#2A1968"/>
<path d="M308.359 406.99C308.359 406.617 308.47 406.253 308.677 405.943C308.884 405.633 309.178 405.392 309.523 405.249C309.867 405.106 310.246 405.069 310.612 405.142C310.977 405.214 311.313 405.394 311.577 405.657C311.84 405.921 312.02 406.257 312.092 406.622C312.165 406.988 312.128 407.367 311.985 407.711C311.842 408.056 311.601 408.35 311.291 408.557C310.981 408.764 310.617 408.875 310.244 408.875C309.996 408.875 309.751 408.827 309.522 408.732C309.293 408.638 309.085 408.499 308.91 408.324C308.735 408.149 308.596 407.941 308.502 407.712C308.407 407.483 308.359 407.238 308.359 406.99Z" fill="white"/>
<g filter="url(#filter0_d_404_14238)">
<path d="M666.375 449.103L662.592 450.736L658.383 452.73C658.383 452.73 651.851 453.864 651.755 453.846L652.3 454.816C644.194 455.818 618.642 456.865 614.448 457.336C611.918 457.615 609.489 460.762 607.957 463.214L610.034 464.618C610.034 464.618 632.347 463.635 632.301 464.106C632.301 464.252 631.661 466.466 630.682 469.366C644.464 470.281 663.763 470.199 667.344 464.518C670.286 459.861 667.418 453.174 666.375 449.103Z" fill="white"/>
<path d="M580.297 548.656L597.254 548.884L597.496 533.035L580.608 530.944L580.297 548.656Z" fill="white"/>
<path d="M632.424 492.731C632.424 492.731 647.02 492.974 657.248 492.622C660.533 492.512 663.456 492.741 665.185 492.356C672.307 490.774 674.059 468.547 665.976 454.93C657.893 441.312 629.602 483.126 629.602 483.126L632.424 492.731Z" fill="#BF0830"/>
<path d="M606.012 549.255L622.964 549.489L623.211 533.634L606.323 531.544L606.012 549.255Z" fill="white"/>
<path d="M616.707 462.985C616.707 462.985 580.854 465.272 579.82 469.417C578.786 473.561 575.822 517.579 578.036 536.356C578.036 536.356 591.64 537.294 598.163 535.716L599.75 489.928L610.486 488.693L635.086 459.12L616.707 462.985Z" fill="#890421"/>
<path d="M633.254 462C633.254 462 605.602 469.804 604.569 473.943C603.535 478.083 600.589 517.367 602.808 536.153C602.808 536.153 617.445 536.99 623.94 535.412L625.692 492.217L632 492.437L647.301 465.518L633.254 462Z" fill="#BF0830"/>
<path d="M615.843 536.964C622.307 536.964 624.612 535.994 624.722 535.944L624.864 535.88L626.561 492.425L623.889 493.683L624.1 494.14L626.03 493.225L624.379 535.532C623.679 535.775 620.326 536.74 612.408 536.374V536.873C613.652 536.941 614.801 536.964 615.843 536.964Z" fill="#090028"/>
<path d="M621.903 527.597C622.594 524.935 622.791 498.98 622.818 497.864H622.311C622.311 498.134 622.105 524.852 621.428 527.464L621.903 527.597Z" fill="#090028"/>
<path d="M596.21 490.903C599.485 489.841 603.986 489.681 604.045 489.681V489.183C603.999 489.183 599.421 489.347 596.072 490.427L596.21 490.903Z" fill="#090028"/>
<path d="M588.833 536.871C591.98 536.9 595.122 536.593 598.205 535.956L598.393 535.911L599.994 489.61L597.949 491.257L598.26 491.646L599.454 490.685L597.903 535.513C594.757 536.136 591.554 536.425 588.348 536.373V536.871H588.833Z" fill="#090028"/>
<path d="M595.78 528.562C596.466 524.541 595.812 497.338 595.78 496.181H595.281C595.281 496.464 595.963 524.495 595.281 528.47L595.78 528.562Z" fill="#090028"/>
<path d="M643.407 493.197C649.774 493.197 657.409 492.982 665.995 492.333L665.958 491.839C640.383 493.765 623.23 491.839 623.061 491.839L623.006 492.333C623.116 492.347 630.764 493.197 643.407 493.197Z" fill="#090028"/>
<path d="M634.66 448.365C634.166 448.365 614.305 456.901 614.305 456.901L618.307 464.558L629.455 462.111L634.66 448.365Z" fill="#2A1968"/>
<path d="M663.428 412.769C663.428 412.769 671.872 412.471 675.906 414.758C681.921 418.166 679.776 437.689 679.776 437.689C679.776 437.689 674.667 434.899 674.356 433.97C674.045 433.042 663.428 412.769 663.428 412.769Z" fill="#2A1968"/>
<path d="M665.478 455.145H665.446L659.235 456.567C659.174 456.581 659.11 456.571 659.057 456.538C659.005 456.505 658.967 456.452 658.953 456.391C658.939 456.331 658.95 456.267 658.983 456.214C659.016 456.161 659.069 456.124 659.129 456.11L665.346 454.687C665.375 454.681 665.406 454.68 665.435 454.685C665.465 454.69 665.494 454.701 665.519 454.717C665.545 454.733 665.567 454.754 665.584 454.779C665.601 454.804 665.614 454.832 665.62 454.861C665.637 454.918 665.631 454.978 665.605 455.031C665.579 455.083 665.533 455.124 665.478 455.145Z" fill="#090028"/>
<path d="M668.726 451.457L664.943 453.095L660.735 455.089C660.735 455.089 654.203 456.223 654.107 456.201L654.651 457.175C646.546 458.177 620.994 459.224 616.799 459.691C614.27 459.974 611.841 463.117 610.309 465.573L612.385 466.977C612.385 466.977 634.698 465.994 634.653 466.461C634.653 466.611 634.008 468.825 633.033 471.726C646.811 472.64 666.11 472.558 669.696 466.877C672.628 462.206 669.769 455.519 668.726 451.457Z" fill="#F9B59D"/>
<path d="M671.602 414.293C666.804 413.629 654.138 413.172 654.138 413.172C654.138 413.172 652.459 413.629 652.994 413.364C639.011 415.834 637.465 426.204 637.465 426.204L630.635 456.174L623.038 456.586C620.581 461.247 622.383 473.813 622.383 473.813L659.183 477.961C659.183 477.961 667.138 479.27 673.867 470.643C678.313 464.934 679.813 447.41 679.813 434.607C679.827 434.607 679.063 415.322 671.602 414.293Z" fill="#2A1968"/>
<path d="M568.531 437.501H603.57L615.788 468.62H580.754L568.531 437.501Z" fill="#FCE6CF"/>
<path d="M615.788 468.62H613.963L601.74 437.501H603.57L615.788 468.62Z" fill="#F3CBC2"/>
<path d="M591.44 452.065C591.925 453.497 591.568 454.911 590.644 455.226C589.72 455.542 588.576 454.636 588.092 453.204C587.607 451.773 587.963 450.364 588.887 450.048C589.811 449.733 590.955 450.638 591.44 452.065Z" fill="#E2F2F1"/>
<path d="M627.37 466.096H614.283V468.612H627.37C627.704 468.612 628.024 468.479 628.26 468.243C628.496 468.007 628.628 467.687 628.628 467.354C628.628 467.02 628.496 466.7 628.26 466.464C628.024 466.228 627.704 466.096 627.37 466.096Z" fill="#F3CBC2"/>
<path d="M624.057 466.968H615.787V467.361H624.057V466.968Z" fill="#E23E3D"/>
<path d="M659.235 456.695C659.19 456.709 659.142 456.709 659.097 456.695C659.067 456.688 659.039 456.676 659.014 456.658C658.989 456.641 658.968 456.618 658.952 456.592C658.937 456.566 658.926 456.537 658.922 456.506C658.918 456.476 658.92 456.445 658.928 456.416C658.965 456.256 662.812 439.903 664.449 429.615C664.454 429.585 664.464 429.556 664.48 429.53C664.496 429.504 664.517 429.481 664.541 429.463C664.566 429.445 664.594 429.433 664.624 429.426C664.654 429.419 664.684 429.418 664.714 429.423C664.775 429.433 664.829 429.467 664.865 429.517C664.901 429.566 664.916 429.628 664.907 429.689C663.269 439.994 659.417 456.361 659.376 456.526C659.369 456.563 659.351 456.599 659.327 456.628C659.302 456.658 659.27 456.681 659.235 456.695Z" fill="#090028"/>
<path d="M635.433 456.427C635.383 456.443 635.329 456.443 635.278 456.427C635.22 456.407 635.172 456.365 635.144 456.311C635.116 456.256 635.11 456.193 635.127 456.134C635.186 455.951 640.891 437.837 642.084 431.589C642.096 431.528 642.13 431.474 642.181 431.439C642.231 431.404 642.294 431.39 642.354 431.401C642.415 431.413 642.469 431.449 642.504 431.5C642.539 431.551 642.553 431.614 642.542 431.675C641.343 437.96 635.63 456.093 635.571 456.276C635.561 456.31 635.544 456.341 635.52 456.367C635.496 456.393 635.466 456.414 635.433 456.427Z" fill="#090028"/>
<path d="M658.63 421.954L658.081 421.999C658.056 422.002 658.03 421.999 658.006 421.992C657.982 421.984 657.959 421.971 657.94 421.955C657.921 421.938 657.905 421.917 657.894 421.894C657.883 421.872 657.877 421.847 657.876 421.821C657.874 421.796 657.877 421.77 657.885 421.746C657.893 421.722 657.905 421.7 657.922 421.681C657.939 421.662 657.959 421.646 657.981 421.635C658.004 421.624 658.029 421.617 658.054 421.615C666.054 421.053 667.541 415.211 667.555 415.134C667.564 415.084 667.592 415.04 667.633 415.011C667.674 414.982 667.724 414.97 667.774 414.978C667.799 414.981 667.823 414.99 667.844 415.002C667.866 415.015 667.885 415.032 667.899 415.052C667.914 415.072 667.925 415.095 667.931 415.119C667.937 415.143 667.938 415.168 667.934 415.193C667.925 415.257 666.448 421.144 658.63 421.954Z" fill="#090028"/>
<path d="M633.8 452.104C633.749 452.124 633.692 452.125 633.64 452.107C633.588 452.088 633.544 452.052 633.517 452.003L631.957 449.332V449.241L637.217 426.164C637.659 424.02 638.599 422.011 639.962 420.299C642.098 417.518 646.311 413.982 654.252 412.926C654.313 412.918 654.375 412.935 654.424 412.972C654.473 413.01 654.505 413.066 654.513 413.127C654.517 413.157 654.516 413.188 654.508 413.217C654.501 413.247 654.487 413.274 654.469 413.299C654.451 413.323 654.428 413.343 654.401 413.359C654.375 413.374 654.346 413.384 654.316 413.388C646.54 414.421 642.423 417.861 640.346 420.56C639.022 422.221 638.1 424.165 637.652 426.241L632.414 449.236L633.883 451.752C633.898 451.779 633.908 451.808 633.912 451.839C633.916 451.869 633.914 451.9 633.906 451.93C633.898 451.96 633.884 451.988 633.865 452.012C633.846 452.036 633.823 452.057 633.796 452.072L633.8 452.104Z" fill="#090028"/>
<path d="M625.571 452.191C625.514 452.212 625.451 452.21 625.395 452.185C625.34 452.161 625.296 452.115 625.274 452.059C625.262 452.03 625.256 452 625.256 451.969C625.256 451.939 625.262 451.909 625.274 451.88C625.286 451.852 625.303 451.827 625.325 451.806C625.347 451.784 625.373 451.768 625.402 451.757L632.117 449.076C632.174 449.055 632.238 449.057 632.294 449.082C632.351 449.106 632.395 449.152 632.419 449.209C632.441 449.266 632.441 449.33 632.417 449.386C632.393 449.443 632.347 449.487 632.291 449.511L625.576 452.187L625.571 452.191Z" fill="#090028"/>
<path d="M623.037 456.587C623.037 456.587 620.608 462.318 622.383 473.813L631.266 469.047L628.627 460.461L623.037 456.587Z" fill="#2A1968"/>
<path d="M667.256 456.901C667.228 456.905 667.198 456.905 667.17 456.901C666.836 456.901 633.961 455.903 623.202 456.791C622.937 457.495 621.725 461.146 622.063 467.824C622.065 467.854 622.061 467.885 622.05 467.914C622.04 467.942 622.025 467.969 622.004 467.991C621.984 468.014 621.959 468.032 621.931 468.045C621.904 468.058 621.874 468.065 621.843 468.066C621.782 468.069 621.722 468.047 621.676 468.006C621.63 467.966 621.601 467.908 621.596 467.847C621.212 460.281 622.758 456.631 622.827 456.48L622.882 456.352H623.019C633.65 455.437 666.849 456.439 667.183 456.448C667.214 456.449 667.244 456.456 667.272 456.469C667.3 456.482 667.325 456.5 667.346 456.523C667.366 456.545 667.383 456.571 667.393 456.6C667.404 456.629 667.409 456.66 667.407 456.69C667.407 456.736 667.392 456.781 667.365 456.819C667.338 456.856 667.3 456.885 667.256 456.901Z" fill="#090028"/>
<path d="M652.226 395.74L651.965 405.853C651.965 405.853 651.745 409.101 654.577 409.581L653.936 413.904C653.815 414.684 653.971 415.482 654.377 416.159C654.784 416.836 655.414 417.349 656.159 417.609C657.021 417.909 657.924 418.073 658.835 418.094C662.088 418.181 663.913 415.807 664.215 414.576C664.517 413.346 663.853 407.518 663.853 407.518L664.027 404.655L663.945 393.558L652.226 395.74Z" fill="white"/>
<path d="M661.246 406.987C661.246 406.987 660.912 412.426 654.105 412.769L654.563 409.567C654.563 409.567 658.963 410.578 661.246 406.987Z" fill="#E8EBF8"/>
<path d="M659.938 401.249C659.955 401.249 659.973 401.247 659.989 401.24C660.006 401.234 660.021 401.224 660.034 401.212C660.059 401.186 660.073 401.152 660.073 401.116C660.073 401.08 660.059 401.045 660.034 401.02C660.034 401.02 658.204 399.048 656.461 400.375C656.436 400.401 656.422 400.435 656.422 400.471C656.422 400.507 656.436 400.541 656.461 400.567C656.486 400.592 656.52 400.606 656.555 400.606C656.59 400.606 656.624 400.592 656.649 400.567C658.19 399.391 659.787 401.107 659.851 401.18C659.858 401.198 659.87 401.213 659.886 401.225C659.901 401.237 659.919 401.245 659.938 401.249Z" fill="#090028"/>
<path d="M664.645 399.947L661.704 400.478L661.164 401.013C661.164 401.013 661.544 396.119 662.12 395.167C662.696 394.216 664.645 399.947 664.645 399.947Z" fill="#090028"/>
<path d="M654.376 400.291C654.396 400.291 654.416 400.288 654.434 400.28C654.452 400.272 654.468 400.26 654.482 400.245C654.507 400.22 654.521 400.185 654.521 400.149C654.521 400.113 654.507 400.079 654.482 400.053C654.427 400.007 653.164 398.868 652.327 399.545C652.311 399.556 652.297 399.57 652.287 399.586C652.277 399.602 652.27 399.621 652.267 399.64C652.264 399.659 652.266 399.678 652.271 399.697C652.276 399.715 652.285 399.732 652.297 399.747C652.309 399.762 652.325 399.774 652.342 399.783C652.359 399.791 652.378 399.796 652.397 399.797C652.416 399.798 652.435 399.794 652.453 399.787C652.471 399.78 652.487 399.77 652.501 399.756C653.155 399.225 654.285 400.245 654.299 400.254C654.32 400.274 654.348 400.287 654.376 400.291Z" fill="#090028"/>
<path d="M660.548 401.668C660.535 402.15 660.666 402.625 660.923 403.032C661.18 403.44 661.553 403.762 661.993 403.959C662.434 404.155 662.923 404.216 663.398 404.134C663.873 404.052 664.313 403.832 664.663 403.5C665.013 403.168 665.256 402.74 665.363 402.27C665.469 401.799 665.434 401.308 665.261 400.858C665.089 400.408 664.786 400.019 664.393 399.741C663.999 399.462 663.532 399.307 663.05 399.294C662.729 399.285 662.41 399.339 662.111 399.454C661.812 399.568 661.538 399.741 661.306 399.961C661.073 400.182 660.886 400.446 660.756 400.739C660.626 401.032 660.555 401.348 660.548 401.668Z" fill="white"/>
<path d="M663.373 403.099C663.594 403.097 663.808 403.025 663.984 402.892C664.16 402.76 664.289 402.574 664.352 402.362C664.427 402.162 664.433 401.942 664.368 401.738C664.303 401.534 664.172 401.358 663.995 401.237C663.806 401.11 663.583 401.042 663.355 401.042C663.127 401.042 662.904 401.11 662.715 401.237C662.806 400.986 662.986 400.777 663.222 400.652C663.566 400.505 663.952 400.49 664.306 400.61C664.323 400.616 664.342 400.615 664.358 400.608C664.374 400.6 664.387 400.586 664.393 400.569C664.397 400.561 664.399 400.552 664.399 400.543C664.398 400.534 664.396 400.525 664.392 400.517C664.388 400.508 664.383 400.501 664.376 400.495C664.369 400.489 664.361 400.485 664.352 400.482C663.962 400.35 663.537 400.366 663.158 400.528C662.996 400.621 662.855 400.747 662.744 400.897C662.633 401.047 662.554 401.219 662.513 401.402L662.449 401.635L662.628 401.47C662.799 401.308 663.019 401.208 663.253 401.185C663.487 401.162 663.723 401.217 663.922 401.342C664.071 401.448 664.182 401.599 664.236 401.774C664.291 401.948 664.287 402.136 664.224 402.307C664.173 402.493 664.063 402.656 663.91 402.773C663.757 402.889 663.57 402.952 663.378 402.952C663.363 402.956 663.35 402.965 663.341 402.977C663.332 402.989 663.327 403.004 663.327 403.019C663.327 403.034 663.332 403.049 663.341 403.061C663.35 403.073 663.363 403.081 663.378 403.085L663.373 403.099Z" fill="#AE253D"/>
<path d="M655.703 404.426C655.717 404.427 655.731 404.423 655.744 404.416C655.756 404.409 655.766 404.398 655.771 404.384C655.776 404.367 655.775 404.349 655.767 404.333C655.76 404.317 655.746 404.305 655.73 404.297L654.358 403.813L654.87 400.611C654.866 400.596 654.858 400.583 654.846 400.574C654.834 400.565 654.819 400.56 654.804 400.56C654.789 400.56 654.774 400.565 654.762 400.574C654.75 400.583 654.741 400.596 654.738 400.611L654.207 403.904L655.662 404.426H655.703Z" fill="#AE253D"/>
<path d="M656.7 405.775C656.659 405.775 654.02 405.633 654.02 405.633C654.02 405.633 654.321 406.735 655.3 406.786C656.279 406.836 656.7 405.775 656.7 405.775Z" fill="#FBFDFC"/>
<path d="M664.645 399.948C664.645 399.948 665.592 395.218 664.188 393.412C662.783 391.605 654.518 388.293 653.484 389.148C652.45 390.004 653.434 391.111 653.434 391.111C653.434 391.111 650.108 389.949 649.276 392.899C648.443 395.85 655.611 397.3 659.947 396.023C661.899 396.784 663.549 398.163 664.645 399.948Z" fill="#090028"/>
<path d="M665.592 477.271C665.09 477.461 664.579 477.625 664.059 477.76C662.465 478.222 660.797 478.368 659.147 478.19C659.116 478.185 659.087 478.174 659.061 478.158C659.035 478.142 659.012 478.12 658.994 478.095C658.976 478.07 658.964 478.042 658.957 478.012C658.95 477.982 658.949 477.951 658.955 477.92C658.966 477.86 658.999 477.807 659.049 477.771C659.098 477.736 659.159 477.72 659.22 477.728C660.815 477.892 662.427 477.749 663.968 477.307C666.507 476.63 670.253 474.897 673.679 470.501C677.983 464.98 679.557 447.991 679.594 435.119C679.587 435.085 679.588 435.05 679.596 435.017C679.604 434.983 679.62 434.952 679.642 434.925C679.664 434.899 679.691 434.877 679.722 434.862C679.754 434.848 679.788 434.84 679.822 434.84C679.857 434.84 679.891 434.848 679.922 434.862C679.953 434.877 679.981 434.899 680.003 434.925C680.025 434.952 680.04 434.983 680.049 435.017C680.057 435.05 680.058 435.085 680.051 435.119C680.01 448.064 678.413 465.176 674.04 470.798C671.168 474.476 668.053 476.338 665.592 477.271Z" fill="#090028"/>
<path d="M598.438 550.922L584.043 553.607L577.026 548.333L567.53 556.663L565.243 557.093C564.855 557.158 564.502 557.355 564.242 557.651C563.983 557.947 563.834 558.323 563.821 558.717C563.816 558.964 563.867 559.208 563.969 559.433C564.071 559.658 564.222 559.858 564.411 560.017C564.6 560.176 564.822 560.292 565.06 560.355C565.299 560.418 565.549 560.427 565.792 560.382L599.271 554.142C599.388 554.119 599.491 554.051 599.559 553.953C599.626 553.854 599.652 553.734 599.632 553.616L599.225 551.434C599.208 551.349 599.174 551.267 599.124 551.195C599.075 551.123 599.012 551.061 598.939 551.013C598.866 550.966 598.784 550.933 598.698 550.917C598.612 550.902 598.524 550.903 598.438 550.922Z" fill="#A22641"/>
<path d="M598.313 550.964L597.211 545.054C597.211 545.054 594.178 542.241 590.807 544.597C590.807 544.597 585.963 549.601 580.145 545.722L568.933 553.425C568.933 553.425 565.791 555.168 565.219 557.135L598.313 550.964Z" fill="#100E68"/>
<path d="M623.843 550.952L609.296 552.658L602.641 546.927L592.61 554.616L590.286 554.886C589.894 554.926 589.527 555.1 589.248 555.378C588.969 555.656 588.795 556.022 588.753 556.414C588.734 556.66 588.769 556.907 588.856 557.138C588.943 557.369 589.08 557.578 589.258 557.75C589.436 557.921 589.649 558.051 589.883 558.13C590.117 558.209 590.365 558.235 590.611 558.207L624.433 554.236C624.552 554.221 624.66 554.16 624.734 554.066C624.809 553.972 624.843 553.853 624.831 553.733L624.57 551.528C624.56 551.443 624.534 551.36 624.492 551.284C624.45 551.209 624.394 551.143 624.326 551.089C624.259 551.035 624.181 550.996 624.098 550.972C624.015 550.949 623.928 550.942 623.843 550.952Z" fill="#D95F76"/>
<path d="M623.714 550.984L623.015 545.01C623.015 545.01 620.179 542.001 616.647 544.123C616.647 544.123 611.474 548.789 605.934 544.53L594.224 551.456C594.224 551.456 590.972 552.983 590.268 554.909L623.714 550.984Z" fill="#1F1587"/>
</g>
<path d="M225.275 527.523L228.646 528.978L232.392 530.757C232.392 530.757 238.215 531.768 238.298 531.745L237.813 532.615C245.036 533.507 267.797 534.444 271.534 534.856C273.785 535.108 275.953 537.907 277.316 540.093L275.486 541.347C275.486 541.347 255.607 540.469 255.648 540.889C255.648 541.022 256.22 542.998 257.093 545.578C244.816 546.397 227.621 546.319 224.429 541.26C221.794 537.129 224.346 531.155 225.275 527.523Z" fill="white"/>
<path d="M302.493 616.748L287.389 616.954L287.174 602.833L302.218 600.972L302.493 616.748Z" fill="white"/>
<path d="M255.519 566.403C255.519 566.403 242.519 566.618 233.403 566.307C230.48 566.206 227.877 566.412 226.336 566.069C219.991 564.66 218.427 544.863 225.631 532.732C232.836 520.601 258.035 557.845 258.035 557.845L255.519 566.403Z" fill="#0B1249"/>
<path d="M279.05 616.748L263.946 616.954L263.73 602.833L278.775 600.972L279.05 616.748Z" fill="white"/>
<path d="M269.522 539.899C269.522 539.899 301.459 541.94 302.383 545.626C303.307 549.313 305.946 588.528 303.97 605.256C303.97 605.256 291.853 606.089 286.057 604.684L284.644 563.896L275.079 562.798L253.164 536.455L269.522 539.899Z" fill="#2836A5"/>
<path d="M254.175 539.297C254.175 539.297 278.807 546.245 279.726 549.937C280.646 553.628 283.276 588.616 281.3 605.344C281.3 605.344 268.268 606.09 262.472 604.686L260.912 566.207L255.291 566.404L241.664 542.426L254.175 539.297Z" fill="#0B1249"/>
<path d="M287.781 564.766C284.863 563.824 280.842 563.682 280.801 563.677V563.22C280.842 563.22 284.918 563.366 287.905 564.331L287.781 564.766Z" fill="#090028"/>
<path d="M294.356 605.715C291.551 605.74 288.751 605.467 286.003 604.901L285.839 604.864L284.416 563.618L286.246 565.086L285.967 565.43L284.901 564.574L286.273 604.507C289.076 605.06 291.929 605.316 294.786 605.271V605.729L294.356 605.715Z" fill="#090028"/>
<path d="M288.161 598.313C287.548 594.731 288.129 570.497 288.161 569.468H288.618C288.618 569.719 288.01 594.69 288.618 598.226L288.161 598.313Z" fill="#090028"/>
<path d="M253.535 526.877C253.993 526.877 271.667 534.479 271.667 534.479L268.104 541.3L258.173 539.122L253.535 526.877Z" fill="#C43F5C"/>
<path d="M227.896 495.17C227.896 495.17 220.371 494.904 216.78 496.94C211.419 499.977 213.331 517.364 213.331 517.364C213.331 517.364 217.883 514.88 218.162 514.052C218.441 513.224 227.896 495.17 227.896 495.17Z" fill="#C43F5C"/>
<path d="M226.066 532.916H226.093L231.628 534.178C231.655 534.185 231.682 534.186 231.709 534.182C231.736 534.178 231.762 534.168 231.785 534.153C231.808 534.139 231.828 534.12 231.843 534.097C231.859 534.075 231.87 534.049 231.875 534.023C231.881 533.996 231.882 533.969 231.877 533.942C231.873 533.915 231.863 533.89 231.849 533.867C231.834 533.844 231.815 533.824 231.793 533.808C231.771 533.793 231.746 533.782 231.72 533.776L226.185 532.509C226.135 532.502 226.085 532.514 226.043 532.541C226.001 532.568 225.97 532.609 225.956 532.657C225.942 532.705 225.945 532.756 225.965 532.802C225.985 532.848 226.021 532.885 226.066 532.907V532.916Z" fill="#090028"/>
<path d="M223.184 529.621L226.551 531.08L230.302 532.855C230.302 532.855 236.12 533.866 236.202 533.848L235.722 534.712C242.94 535.627 265.702 536.542 269.439 536.958C271.694 537.21 273.857 540.009 275.221 542.196L273.391 543.444C273.391 543.444 253.511 542.571 253.552 542.987C253.552 543.12 254.129 545.091 254.998 547.676C242.721 548.494 225.526 548.417 222.338 543.358C219.699 539.209 222.251 533.248 223.184 529.621Z" fill="#F9B59D"/>
<path d="M220.618 496.523C224.895 495.932 236.17 495.525 236.17 495.525C236.17 495.525 237.666 495.914 237.19 495.695C249.65 497.895 251.027 507.13 251.027 507.13L257.106 533.825L263.876 534.191C266.067 538.345 264.457 549.538 264.457 549.538L231.678 553.234C231.678 553.234 224.593 554.4 218.596 546.716C214.635 541.629 213.285 526.022 213.285 514.614C213.29 514.618 213.971 497.447 220.618 496.523Z" fill="#C43F5C"/>
<path d="M312.437 517.199H281.226L270.34 544.919H301.55L312.437 517.199Z" fill="#090028"/>
<path d="M270.34 544.919H271.968L282.855 517.199H281.226L270.34 544.919Z" fill="#030014"/>
<path d="M292.032 530.176C291.602 531.447 291.918 532.705 292.741 532.989C293.564 533.272 294.571 532.463 295.028 531.186C295.486 529.91 295.147 528.657 294.324 528.373C293.5 528.09 292.466 528.895 292.032 530.176Z" fill="#E2F2F1"/>
<path d="M260.02 542.678H271.68V544.919H260.02C259.724 544.918 259.44 544.799 259.231 544.589C259.022 544.379 258.904 544.095 258.904 543.798C258.904 543.502 259.022 543.218 259.231 543.008C259.44 542.798 259.724 542.679 260.02 542.678Z" fill="#030014"/>
<path d="M262.975 543.804H270.34V543.452H262.975V543.804Z" fill="#090028"/>
<path d="M231.637 534.293C231.676 534.305 231.718 534.305 231.756 534.293C231.783 534.287 231.808 534.276 231.83 534.26C231.852 534.245 231.871 534.225 231.886 534.202C231.9 534.179 231.91 534.153 231.914 534.127C231.919 534.1 231.918 534.073 231.912 534.046C231.875 533.9 228.449 519.335 226.995 510.169C226.985 510.115 226.954 510.068 226.91 510.036C226.865 510.005 226.811 509.991 226.757 509.999C226.73 510.003 226.703 510.013 226.68 510.027C226.656 510.041 226.636 510.06 226.62 510.082C226.604 510.104 226.592 510.129 226.586 510.156C226.579 510.182 226.578 510.21 226.583 510.237C228.047 519.413 231.473 533.991 231.509 534.138C231.514 534.173 231.529 534.206 231.551 534.234C231.574 534.261 231.604 534.282 231.637 534.293Z" fill="#916D47"/>
<path d="M252.839 534.055C252.883 534.069 252.931 534.069 252.976 534.055C253.002 534.047 253.026 534.033 253.046 534.016C253.067 533.998 253.084 533.976 253.097 533.952C253.109 533.928 253.116 533.902 253.118 533.874C253.12 533.847 253.117 533.82 253.108 533.794C253.058 533.634 247.976 517.505 246.915 511.929C246.91 511.903 246.9 511.877 246.885 511.854C246.87 511.831 246.851 511.812 246.828 511.796C246.806 511.781 246.78 511.77 246.754 511.765C246.727 511.759 246.699 511.759 246.673 511.765C246.646 511.77 246.62 511.78 246.597 511.795C246.574 511.81 246.555 511.829 246.539 511.851C246.524 511.874 246.513 511.899 246.508 511.926C246.503 511.953 246.503 511.98 246.508 512.007C247.574 517.606 252.665 533.758 252.715 533.918C252.724 533.948 252.74 533.977 252.761 534.001C252.782 534.024 252.809 534.043 252.839 534.055Z" fill="#090028"/>
<path d="M232.178 503.348C232.338 503.348 232.498 503.38 232.667 503.389C232.712 503.392 232.756 503.377 232.79 503.348C232.824 503.319 232.846 503.278 232.85 503.234C232.853 503.188 232.838 503.143 232.808 503.108C232.778 503.073 232.736 503.051 232.69 503.046C225.559 502.548 224.237 497.329 224.228 497.278C224.224 497.256 224.216 497.234 224.203 497.215C224.191 497.195 224.175 497.179 224.157 497.166C224.138 497.152 224.117 497.143 224.094 497.138C224.072 497.133 224.049 497.132 224.026 497.136C223.982 497.143 223.942 497.167 223.916 497.203C223.889 497.239 223.878 497.284 223.885 497.329C223.894 497.383 225.211 502.63 232.178 503.348Z" fill="#090028"/>
<path d="M254.293 530.207C254.339 530.224 254.39 530.223 254.435 530.207C254.481 530.19 254.52 530.158 254.545 530.116L255.917 527.733V527.655L251.224 507.098C250.824 505.187 249.98 503.398 248.758 501.874C246.856 499.395 243.1 496.248 236.028 495.306C236.001 495.302 235.974 495.303 235.947 495.31C235.921 495.317 235.896 495.329 235.874 495.346C235.853 495.363 235.834 495.383 235.821 495.407C235.807 495.431 235.798 495.457 235.795 495.484C235.791 495.511 235.793 495.539 235.8 495.565C235.807 495.592 235.819 495.617 235.835 495.638C235.852 495.66 235.873 495.678 235.896 495.692C235.92 495.705 235.946 495.714 235.973 495.717C242.894 496.632 246.558 499.702 248.415 502.121C249.595 503.6 250.417 505.332 250.817 507.181L255.483 527.668L254.174 529.905C254.147 529.953 254.14 530.009 254.153 530.062C254.167 530.115 254.201 530.16 254.247 530.189L254.293 530.207Z" fill="#090028"/>
<path d="M261.627 530.268C261.678 530.287 261.734 530.285 261.784 530.263C261.834 530.241 261.873 530.2 261.892 530.149C261.912 530.098 261.911 530.042 261.889 529.993C261.868 529.943 261.828 529.904 261.778 529.883L255.799 527.523C255.748 527.503 255.691 527.504 255.641 527.525C255.591 527.547 255.551 527.587 255.529 527.637C255.519 527.663 255.514 527.69 255.514 527.717C255.514 527.744 255.519 527.771 255.53 527.796C255.541 527.821 255.556 527.844 255.576 527.863C255.595 527.882 255.618 527.897 255.644 527.907L261.627 530.295V530.268Z" fill="#090028"/>
<path d="M263.881 534.196C263.881 534.196 266.044 539.306 264.462 549.543L256.553 545.298L258.904 537.65L263.881 534.196Z" fill="#C43F5C"/>
<path d="M224.489 534.481C224.514 534.488 224.541 534.488 224.566 534.481C224.864 534.481 254.153 533.593 263.736 534.385C263.973 535.016 265.053 538.263 264.751 544.21C264.749 544.265 264.768 544.319 264.805 544.36C264.841 544.401 264.893 544.426 264.948 544.43C264.975 544.431 265.002 544.427 265.027 544.417C265.053 544.408 265.076 544.394 265.096 544.376C265.116 544.358 265.132 544.336 265.144 544.311C265.155 544.286 265.162 544.26 265.163 544.233C265.506 537.495 264.129 534.243 264.074 534.106L264.024 533.996H263.9C254.427 533.186 224.855 534.073 224.562 534.083C224.515 534.087 224.472 534.107 224.438 534.139C224.404 534.171 224.381 534.213 224.374 534.259C224.366 534.305 224.375 534.352 224.397 534.393C224.42 534.434 224.455 534.467 224.498 534.485L224.489 534.481Z" fill="#916D47"/>
<path d="M237.875 479.996L238.108 489.008C238.108 489.008 238.305 491.899 235.78 492.329L236.357 496.18C236.461 496.874 236.321 497.583 235.96 498.185C235.598 498.787 235.038 499.244 234.376 499.478C233.61 499.754 232.806 499.908 231.993 499.935C229.097 500.009 227.473 497.877 227.203 496.798C226.934 495.718 227.524 490.513 227.524 490.513L227.368 487.965L227.441 478.075L237.875 479.996Z" fill="white"/>
<path d="M229.844 490.014C229.844 490.014 230.141 494.858 236.207 495.164L235.781 492.324C235.781 492.324 231.875 493.216 229.844 490.014Z" fill="#D9D9D9"/>
<path d="M231.01 484.904C230.987 484.904 230.964 484.898 230.944 484.885C230.925 484.873 230.909 484.855 230.899 484.834C230.889 484.813 230.885 484.789 230.888 484.766C230.89 484.743 230.9 484.721 230.914 484.703C230.914 484.703 232.547 482.942 234.116 484.127C234.137 484.15 234.148 484.18 234.148 484.211C234.148 484.242 234.137 484.272 234.116 484.296C234.093 484.317 234.063 484.329 234.032 484.329C234 484.329 233.97 484.317 233.947 484.296C232.575 483.248 231.148 484.753 231.088 484.84C231.081 484.856 231.071 484.87 231.057 484.882C231.043 484.893 231.027 484.9 231.01 484.904Z" fill="#090028"/>
<path d="M226.816 483.748L229.437 484.205L229.918 484.663C229.918 484.663 229.579 480.304 229.067 479.457C228.555 478.611 226.816 483.748 226.816 483.748Z" fill="#090028"/>
<path d="M235.963 484.068C235.946 484.068 235.929 484.065 235.914 484.059C235.898 484.053 235.884 484.043 235.872 484.031C235.85 484.007 235.838 483.976 235.838 483.944C235.838 483.912 235.85 483.881 235.872 483.857C235.922 483.816 237.047 482.8 237.793 483.4C237.816 483.423 237.829 483.454 237.829 483.487C237.829 483.519 237.816 483.55 237.793 483.574C237.782 483.585 237.769 483.594 237.754 483.6C237.74 483.606 237.724 483.609 237.708 483.609C237.693 483.609 237.677 483.606 237.663 483.6C237.648 483.594 237.635 483.585 237.624 483.574C237.043 483.116 236.032 484.008 236.023 484.031C236.008 484.05 235.987 484.062 235.963 484.068Z" fill="#090028"/>
<path d="M233.462 485.33C233.464 485.425 233.427 485.518 233.362 485.587C233.296 485.656 233.206 485.697 233.11 485.7C233.037 485.703 232.966 485.684 232.904 485.646C232.842 485.607 232.793 485.552 232.763 485.485C232.733 485.419 232.723 485.345 232.736 485.274C232.748 485.202 232.781 485.135 232.831 485.083C232.881 485.03 232.946 484.993 233.017 484.977C233.088 484.962 233.162 484.967 233.23 484.994C233.298 485.021 233.356 485.067 233.397 485.126C233.439 485.186 233.461 485.257 233.462 485.33Z" fill="#1A2578"/>
<path d="M237.301 484.867C237.303 484.938 237.283 485.009 237.245 485.069C237.207 485.13 237.151 485.177 237.086 485.206C237.021 485.235 236.948 485.244 236.878 485.232C236.808 485.22 236.742 485.187 236.69 485.138C236.639 485.089 236.603 485.025 236.587 484.955C236.571 484.886 236.577 484.813 236.602 484.746C236.628 484.68 236.673 484.622 236.731 484.581C236.789 484.54 236.859 484.517 236.93 484.515C236.978 484.514 237.025 484.522 237.069 484.539C237.113 484.556 237.154 484.581 237.188 484.614C237.223 484.647 237.25 484.686 237.27 484.729C237.289 484.773 237.3 484.82 237.301 484.867Z" fill="#1A2578"/>
<path d="M230.466 485.279C230.477 485.709 230.361 486.132 230.132 486.496C229.903 486.86 229.571 487.147 229.179 487.322C228.786 487.497 228.35 487.552 227.927 487.479C227.503 487.407 227.11 487.21 226.798 486.914C226.487 486.618 226.27 486.237 226.175 485.817C226.08 485.398 226.111 484.96 226.266 484.559C226.42 484.157 226.689 483.811 227.04 483.563C227.392 483.315 227.808 483.177 228.238 483.166C228.814 483.151 229.372 483.365 229.789 483.761C230.207 484.158 230.45 484.704 230.466 485.279Z" fill="white"/>
<path d="M227.945 486.552C227.749 486.55 227.559 486.486 227.403 486.368C227.246 486.25 227.132 486.086 227.076 485.898C227.009 485.719 227.004 485.523 227.062 485.341C227.12 485.159 227.238 485.003 227.396 484.896C227.564 484.782 227.763 484.721 227.966 484.721C228.169 484.721 228.367 484.782 228.535 484.896C228.452 484.672 228.289 484.486 228.078 484.375C227.772 484.244 227.429 484.23 227.113 484.333C227.105 484.338 227.097 484.34 227.088 484.341C227.08 484.342 227.071 484.341 227.063 484.338C227.055 484.335 227.047 484.331 227.041 484.324C227.035 484.318 227.03 484.311 227.027 484.303C227.024 484.295 227.023 484.286 227.023 484.278C227.024 484.269 227.027 484.261 227.031 484.253C227.035 484.245 227.041 484.239 227.048 484.234C227.055 484.229 227.063 484.225 227.071 484.224C227.418 484.104 227.797 484.119 228.133 484.265C228.278 484.346 228.405 484.458 228.504 484.592C228.604 484.726 228.673 484.88 228.709 485.042L228.764 485.253L228.608 485.102C228.456 484.958 228.26 484.869 228.052 484.848C227.843 484.827 227.633 484.876 227.456 484.988C227.322 485.082 227.222 485.217 227.173 485.374C227.125 485.53 227.129 485.698 227.186 485.852C227.233 486.016 227.331 486.161 227.468 486.264C227.604 486.367 227.77 486.423 227.941 486.424C227.948 486.423 227.956 486.424 227.964 486.427C227.971 486.429 227.978 486.433 227.984 486.438C227.99 486.443 227.995 486.449 227.998 486.456C228.002 486.463 228.004 486.471 228.005 486.479C228.005 486.487 228.004 486.495 228.002 486.503C227.999 486.511 227.995 486.518 227.989 486.524C227.983 486.53 227.977 486.535 227.969 486.538C227.962 486.541 227.953 486.543 227.945 486.543V486.552Z" fill="#AE253D"/>
<path d="M234.802 487.726C234.789 487.727 234.776 487.723 234.766 487.716C234.755 487.708 234.747 487.698 234.743 487.685C234.738 487.671 234.74 487.655 234.747 487.641C234.753 487.628 234.765 487.617 234.779 487.612L235.978 487.155L235.52 484.319C235.519 484.311 235.519 484.303 235.521 484.295C235.523 484.287 235.526 484.28 235.531 484.274C235.536 484.267 235.542 484.262 235.549 484.258C235.555 484.254 235.563 484.251 235.571 484.25C235.587 484.247 235.604 484.251 235.617 484.26C235.631 484.27 235.641 484.284 235.644 484.3L236.101 487.237L234.807 487.694L234.802 487.726Z" fill="#AE253D"/>
<path d="M233.896 488.935L236.284 488.812C236.284 488.812 236.014 489.795 235.141 489.841C234.267 489.886 233.896 488.935 233.896 488.935Z" fill="#A9A9A9"/>
<path d="M226.816 483.747C226.816 483.747 225.974 479.534 227.227 477.924C228.481 476.314 235.841 473.35 236.765 474.128C237.689 474.905 236.81 475.875 236.81 475.875C236.81 475.875 239.77 474.837 240.511 477.467C241.252 480.097 234.866 481.387 231.006 480.248C229.264 480.926 227.793 482.155 226.816 483.747Z" fill="#090028"/>
<path d="M317.715 620.546H287.273V614.339C287.273 614.339 289.487 611.356 292.859 612.879C292.859 612.879 297.959 616.498 302.464 612.12L313.626 617.069C313.626 617.069 317.715 618.437 317.715 620.546Z" fill="#C43F5C"/>
<path d="M317.825 622.723H287.05C286.92 622.723 286.795 622.671 286.703 622.579C286.612 622.487 286.56 622.363 286.56 622.233V620.239C286.56 620.109 286.612 619.985 286.703 619.893C286.795 619.801 286.92 619.749 287.05 619.749H317.825C317.984 619.749 318.142 619.781 318.289 619.842C318.436 619.903 318.57 619.992 318.682 620.104C318.795 620.217 318.884 620.351 318.945 620.498C319.006 620.645 319.037 620.802 319.037 620.962V621.533C319.031 621.851 318.901 622.153 318.674 622.376C318.447 622.598 318.142 622.723 317.825 622.723Z" fill="#0B1249"/>
<path d="M293.965 620.546H263.523V614.339C263.523 614.339 265.737 611.356 269.109 612.879C269.109 612.879 274.209 616.498 278.714 612.12L289.88 617.069C289.88 617.069 293.965 618.437 293.965 620.546Z" fill="#C43F5C"/>
<path d="M294.067 622.723H263.292C263.162 622.723 263.037 622.671 262.946 622.579C262.854 622.487 262.802 622.363 262.802 622.233V620.239C262.802 620.109 262.854 619.985 262.946 619.893C263.037 619.801 263.162 619.749 263.292 619.749H294.067C294.389 619.749 294.697 619.877 294.924 620.104C295.152 620.332 295.279 620.64 295.279 620.962V621.533C295.273 621.851 295.143 622.153 294.916 622.376C294.69 622.598 294.385 622.723 294.067 622.723Z" fill="#1A2578"/>
<path opacity="0.2" d="M631.64 121.213C639.726 121.213 646.281 114.45 646.281 106.107C646.281 97.7634 639.726 91 631.64 91C623.555 91 617 97.7634 617 106.107C617 114.45 623.555 121.213 631.64 121.213Z" stroke="#BF0830" stroke-width="10"/>
<path opacity="0.3" d="M235.5 228.478C239.642 228.478 243 225.013 243 220.739C243 216.465 239.642 213 235.5 213C231.358 213 228 216.465 228 220.739C228 225.013 231.358 228.478 235.5 228.478Z" stroke="#6258C4" stroke-width="5"/>
<path opacity="0.3" d="M700.5 327.478C704.642 327.478 708 324.013 708 319.739C708 315.465 704.642 312 700.5 312C696.358 312 693 315.465 693 319.739C693 324.013 696.358 327.478 700.5 327.478Z" stroke="#74BBFB" stroke-width="5"/>
<g opacity="0.84" filter="url(#filter1_b_404_14238)">
<path d="M336.967 529.213C336.487 530.299 335.411 531 334.223 531H299.607C297.438 531 295.986 528.77 296.863 526.787L307.035 503.787C307.515 502.701 308.591 502 309.778 502H344.393C346.562 502 348.014 504.23 347.137 506.213L336.967 529.213Z" fill="white" fill-opacity="0.46"/>
</g>
<g opacity="0.84" filter="url(#filter2_b_404_14238)">
<path d="M337.967 530.213C337.487 531.299 336.411 532 335.223 532H300.607C298.438 532 296.986 529.77 297.863 527.787L308.035 504.787C308.515 503.701 309.591 503 310.778 503H345.393C347.562 503 349.014 505.23 348.137 507.213L337.967 530.213Z" fill="white" fill-opacity="0.27"/>
</g>
<path d="M319.67 511.313L313.459 511.231L316.219 520.069L322.428 520.151L319.67 511.313Z" fill="#0056A7"/>
<path d="M316.18 519.814L316.275 520.063L322.484 520.143L320.454 513.936L316.18 519.814Z" fill="#2E3191"/>
<path d="M332.831 504.061L316.277 520.063L322.486 520.145L339.042 504.142L332.831 504.061Z" fill="#0056A7"/>
<path d="M315.473 522.475L321.505 522.553L319.818 527.625L313.785 527.545L315.473 522.475Z" fill="#0056A7"/>
<g filter="url(#filter3_bd_404_14238)">
<path d="M477.936 458.416C479.69 462.416 483.644 465 488.011 465H592.925C595.81 465 597.747 462.037 596.588 459.394L563.278 383.394C562.64 381.94 561.202 381 559.614 381H450.121C447.235 381 445.299 383.963 446.457 386.606L477.936 458.416Z" fill="#E2738B" fill-opacity="0.61" shape-rendering="crispEdges"/>
</g>
<g filter="url(#filter4_b_404_14238)">
<path d="M474.936 461.416C476.69 465.416 480.644 468 485.011 468H589.925C592.81 468 594.747 465.037 593.588 462.394L560.278 386.394C559.64 384.94 558.202 384 556.614 384H447.121C444.235 384 442.299 386.963 443.457 389.606L474.936 461.416Z" fill="#E2738B" fill-opacity="0.61"/>
</g>
<path d="M541.564 438.475C541.988 439.433 541.672 440.231 540.862 440.247L530.553 440.459C529.752 440.459 528.726 439.706 528.301 438.748L522.89 426.588C522.465 425.63 522.782 424.832 523.595 424.812L533.9 424.604C534.702 424.604 535.728 425.357 536.153 426.315L541.564 438.475Z" fill="#07BFDD"/>
<path d="M548.166 422.872C548.591 423.83 548.274 424.627 547.464 424.643L537.156 424.856C536.354 424.856 535.328 424.102 534.903 423.14L529.496 410.984C529.067 410.026 529.384 409.224 530.198 409.208L540.502 409C541.304 409 542.33 409.753 542.755 410.711L548.166 422.872Z" fill="#007FFF"/>
<path d="M515.083 439.016C515.512 439.974 515.195 440.776 514.382 440.792L504.077 441C503.275 441 502.249 440.247 501.824 439.289L496.413 427.129C495.989 426.171 496.305 425.373 497.115 425.357L507.424 425.145C508.225 425.145 509.247 425.898 509.676 426.856L515.083 439.016Z" fill="#1DA5F8"/>
<path d="M494.858 423.963C495.287 424.921 494.971 425.722 494.157 425.738L483.852 425.951C483.051 425.951 482.025 425.197 481.6 424.235L476.189 412.075C475.764 411.117 476.081 410.319 476.89 410.303L487.195 410.091C487.997 410.091 489.027 410.848 489.452 411.806L494.858 423.963Z" fill="#8CC936"/>
<path d="M468 49.3261C440.066 37.2304 432.5 13.5688 432.5 0C430.418 30.5 410.5 44.5 398 50.5C425 57.1739 430.366 85.7681 433.082 100.5C436 67.5 456 50.5 468 49.3261Z" fill="#F1C21C"/>
<defs>
<filter id="filter0_d_404_14238" x="552.82" y="384.01" width="134.327" height="189.4" filterUnits="userSpaceOnUse" color-interpolation-filters="sRGB">
<feFlood flood-opacity="0" result="BackgroundImageFix"/>
<feColorMatrix in="SourceAlpha" type="matrix" values="0 0 0 0 0 0 0 0 0 0 0 0 0 0 0 0 0 0 127 0" result="hardAlpha"/>
<feOffset dx="-2" dy="4"/>
<feGaussianBlur stdDeviation="4.5"/>
<feComposite in2="hardAlpha" operator="out"/>
<feColorMatrix type="matrix" values="0 0 0 0 0 0 0 0 0 0 0 0 0 0 0 0 0 0 0.25 0"/>
<feBlend mode="normal" in2="BackgroundImageFix" result="effect1_dropShadow_404_14238"/>
<feBlend mode="normal" in="SourceGraphic" in2="effect1_dropShadow_404_14238" result="shape"/>
</filter>
<filter id="filter1_b_404_14238" x="292.604" y="498" width="58.793" height="37" filterUnits="userSpaceOnUse" color-interpolation-filters="sRGB">
<feFlood flood-opacity="0" result="BackgroundImageFix"/>
<feGaussianBlur in="BackgroundImage" stdDeviation="2"/>
<feComposite in2="SourceAlpha" operator="in" result="effect1_backgroundBlur_404_14238"/>
<feBlend mode="normal" in="SourceGraphic" in2="effect1_backgroundBlur_404_14238" result="shape"/>
</filter>
<filter id="filter2_b_404_14238" x="293.604" y="499" width="58.793" height="37" filterUnits="userSpaceOnUse" color-interpolation-filters="sRGB">
<feFlood flood-opacity="0" result="BackgroundImageFix"/>
<feGaussianBlur in="BackgroundImage" stdDeviation="2"/>
<feComposite in2="SourceAlpha" operator="in" result="effect1_backgroundBlur_404_14238"/>
<feBlend mode="normal" in="SourceGraphic" in2="effect1_backgroundBlur_404_14238" result="shape"/>
</filter>
<filter id="filter3_bd_404_14238" x="442.116" y="379" width="158.812" height="94" filterUnits="userSpaceOnUse" color-interpolation-filters="sRGB">
<feFlood flood-opacity="0" result="BackgroundImageFix"/>
<feGaussianBlur in="BackgroundImage" stdDeviation="1"/>
<feComposite in2="SourceAlpha" operator="in" result="effect1_backgroundBlur_404_14238"/>
<feColorMatrix in="SourceAlpha" type="matrix" values="0 0 0 0 0 0 0 0 0 0 0 0 0 0 0 0 0 0 127 0" result="hardAlpha"/>
<feOffset dy="4"/>
<feGaussianBlur stdDeviation="2"/>
<feComposite in2="hardAlpha" operator="out"/>
<feColorMatrix type="matrix" values="0 0 0 0 0 0 0 0 0 0 0 0 0 0 0 0 0 0 0.25 0"/>
<feBlend mode="normal" in2="effect1_backgroundBlur_404_14238" result="effect2_dropShadow_404_14238"/>
<feBlend mode="normal" in="SourceGraphic" in2="effect2_dropShadow_404_14238" result="shape"/>
</filter>
<filter id="filter4_b_404_14238" x="441.116" y="382" width="154.812" height="88" filterUnits="userSpaceOnUse" color-interpolation-filters="sRGB">
<feFlood flood-opacity="0" result="BackgroundImageFix"/>
<feGaussianBlur in="BackgroundImage" stdDeviation="1"/>
<feComposite in2="SourceAlpha" operator="in" result="effect1_backgroundBlur_404_14238"/>
<feBlend mode="normal" in="SourceGraphic" in2="effect1_backgroundBlur_404_14238" result="shape"/>
</filter>
</defs>
</svg>
