<svg width="672" height="532" viewBox="0 0 672 532" fill="none" xmlns="http://www.w3.org/2000/svg">
<path opacity="0.5" d="M362.5 591C509.132 591 628 468.55 628 317.5C628 166.45 509.132 44 362.5 44C215.868 44 97 166.45 97 317.5C97 468.55 215.868 591 362.5 591Z" stroke="white" stroke-opacity="0.6" stroke-width="88"/>
<path d="M582.353 335.637C580.933 335.621 579.503 335.552 578.107 335.431L578.196 334.377C579.569 334.496 580.97 334.564 582.366 334.58L582.353 335.637ZM586.607 335.531L586.544 334.477C587.919 334.393 589.318 334.258 590.7 334.074L590.84 335.128C589.431 335.315 588.008 335.444 586.615 335.531H586.607ZM573.882 334.891C572.472 334.651 571.071 334.364 569.717 334.003L569.981 332.983C571.298 333.325 572.678 333.618 574.058 333.85L573.882 334.891ZM595.034 334.414L594.823 333.381C596.182 333.117 597.549 332.78 598.887 332.408L599.166 333.426C597.805 333.802 596.414 334.134 595.044 334.414H595.034ZM565.642 332.748C564.293 332.263 562.969 331.715 561.691 331.114L562.141 330.163C563.374 330.748 564.668 331.283 565.985 331.744L565.642 332.748ZM603.223 332.153L602.875 331.159C604.192 330.698 605.494 330.186 606.766 329.638L607.182 330.606C605.889 331.167 604.556 331.689 603.223 332.153ZM557.948 329.085L557.798 328.993L558.359 328.102L558.496 328.186L557.948 329.085ZM611.023 328.784L610.538 327.849C611.779 327.203 613.001 326.51 614.168 325.788L614.721 326.684C613.533 327.422 612.287 328.128 611.023 328.787V328.784ZM618.251 324.304L617.626 323.453C618.756 322.628 619.852 321.753 620.887 320.854L621.577 321.645C620.521 322.572 619.402 323.455 618.251 324.309V324.304ZM624.67 318.722L623.911 317.989C624.883 316.983 625.81 315.934 626.666 314.864L627.486 315.525C626.611 316.621 625.663 317.699 624.67 318.727V318.722ZM629.988 312.07L629.106 311.495C629.863 310.333 630.561 309.133 631.197 307.9L632.132 308.383C631.482 309.65 630.766 310.882 629.988 312.075V312.07ZM633.887 304.493L632.907 304.111C633.407 302.816 633.84 301.497 634.203 300.157L635.219 300.434C634.847 301.811 634.402 303.168 633.887 304.498V304.493ZM636.112 296.27L635.075 296.101C635.294 294.732 635.443 293.353 635.522 291.969L636.576 292.029C636.495 293.452 636.34 294.869 636.112 296.275V296.27Z" fill="#1A2578"/>
<path d="M650.422 283.409H618.102C612.076 283.409 607.191 288.296 607.191 294.324C607.191 300.352 612.076 305.239 618.102 305.239H650.422C656.448 305.239 661.333 300.352 661.333 294.324C661.333 288.296 656.448 283.409 650.422 283.409Z" fill="#E8D2D7"/>
<path d="M622.193 297.393C623.888 297.393 625.262 296.018 625.262 294.322C625.262 292.627 623.888 291.252 622.193 291.252C620.498 291.252 619.124 292.627 619.124 294.322C619.124 296.018 620.498 297.393 622.193 297.393Z" fill="white"/>
<path d="M634.262 297.393C635.957 297.393 637.331 296.018 637.331 294.322C637.331 292.627 635.957 291.252 634.262 291.252C632.567 291.252 631.193 292.627 631.193 294.322C631.193 296.018 632.567 297.393 634.262 297.393Z" fill="white"/>
<path d="M646.334 297.393C648.029 297.393 649.403 296.018 649.403 294.322C649.403 292.627 648.029 291.252 646.334 291.252C644.64 291.252 643.266 292.627 643.266 294.322C643.266 296.018 644.64 297.393 646.334 297.393Z" fill="white"/>
<path d="M348.229 366.445L347.22 366.142C347.425 365.454 347.654 364.769 347.902 364.107L348.89 364.476C348.653 365.125 348.432 365.781 348.229 366.445Z" fill="#1A2578"/>
<path d="M429.096 439.881H428.806V438.826H429.038C430.392 438.826 431.717 438.792 433.037 438.732L433.087 439.786C431.757 439.846 430.413 439.881 429.096 439.881ZM424.521 439.738C423.098 439.649 421.663 439.514 420.251 439.338L420.38 438.284C421.771 438.457 423.188 438.589 424.594 438.679L424.521 439.738ZM437.357 439.475L437.256 438.421C438.629 438.294 440.046 438.131 441.471 437.941L441.613 438.995C440.178 439.188 438.747 439.354 437.362 439.483L437.357 439.475ZM416.02 438.668C414.603 438.405 413.197 438.089 411.835 437.741L412.098 436.721C413.439 437.063 414.827 437.369 416.223 437.633L416.02 438.668ZM445.838 438.331L445.659 437.293C447.032 437.053 448.433 436.784 449.821 436.502L450.037 437.532C448.631 437.838 447.219 438.102 445.833 438.339L445.838 438.331ZM454.202 436.592L453.957 435.566C455.332 435.238 456.703 434.892 458.071 434.528L458.335 435.548C456.96 435.917 455.58 436.267 454.196 436.599L454.202 436.592ZM407.712 436.544C406.351 436.099 404.994 435.601 403.685 435.066L404.083 434.088C405.371 434.615 406.701 435.105 408.034 435.543L407.712 436.544ZM462.452 434.409L462.162 433.397C463.521 433.007 464.879 432.604 466.234 432.188L466.54 433.197C465.177 433.619 463.813 434.024 462.446 434.412L462.452 434.409ZM399.773 433.295C398.488 432.649 397.221 431.953 396.012 431.218L396.557 430.316C397.742 431.036 398.983 431.718 400.245 432.351L399.773 433.295ZM470.61 431.924L470.288 430.92C471.639 430.49 472.988 430.05 474.337 429.602L474.663 430.604C473.311 431.057 471.958 431.5 470.604 431.932L470.61 431.924ZM392.435 428.835C391.268 427.979 390.14 427.072 389.084 426.136L389.782 425.346C390.812 426.258 391.916 427.146 393.056 427.981L392.435 428.835ZM386.005 423.129C385.026 422.076 384.102 420.973 383.236 419.824L384.079 419.189C384.922 420.309 385.822 421.385 386.777 422.412L386.005 423.129ZM380.831 416.232C380.097 414.986 379.461 413.684 378.927 412.339L379.907 411.955C380.424 413.25 381.04 414.503 381.751 415.702L380.831 416.232ZM381.045 411.612C380.731 411.612 380.418 411.612 380.107 411.612L380.136 410.558C381.005 410.582 381.88 410.574 382.752 410.526C383.278 410.497 383.805 410.458 384.316 410.402L384.427 411.457C383.9 411.515 383.347 411.557 382.81 411.586C382.209 411.604 381.627 411.62 381.039 411.62L381.045 411.612ZM375.808 411.206C374.386 410.985 372.978 410.678 371.594 410.286L371.881 409.272C373.225 409.653 374.593 409.952 375.974 410.165L375.808 411.206ZM388.697 410.566L388.375 409.559C389.686 409.157 390.929 408.561 392.063 407.791L392.664 408.658C391.442 409.49 390.103 410.136 388.692 410.574L388.697 410.566ZM367.513 408.868C366.183 408.315 364.887 407.684 363.631 406.979L364.157 406.062C365.377 406.75 366.635 407.366 367.927 407.907L367.513 408.868ZM377.739 408.146C377.57 407.177 377.482 406.195 377.476 405.21V405.089C377.476 404.649 377.502 404.206 377.547 403.771L378.6 403.874C378.561 404.285 378.537 404.694 378.534 405.102L378.008 405.216H378.534C378.537 406.141 378.617 407.064 378.774 407.975L377.739 408.146ZM395.74 405.469L394.85 404.902C395.583 403.775 396.047 402.495 396.207 401.16L397.26 401.273C397.08 402.772 396.558 404.211 395.735 405.477L395.74 405.469ZM360.001 404.644C358.838 403.794 357.728 402.874 356.677 401.89L357.396 401.12C358.418 402.074 359.495 402.968 360.623 403.795L360.001 404.644ZM379.617 399.9L378.645 399.491C379.214 398.123 380.011 396.86 381 395.757L381.79 396.466C380.873 397.483 380.137 398.65 379.612 399.916L379.617 399.9ZM353.716 398.732C353.315 398.249 352.929 397.754 352.557 397.248C352.077 396.595 351.616 395.931 351.184 395.23L352.077 394.668C352.496 395.335 352.944 395.986 353.395 396.624C353.754 397.114 354.129 397.594 354.517 398.063L353.716 398.732ZM395.503 397.335C394.857 396.174 393.897 395.217 392.732 394.576L393.259 393.659C394.592 394.396 395.692 395.492 396.436 396.822L395.503 397.335ZM385.014 394.094L384.577 393.134L384.688 393.084C386.044 392.512 387.516 392.272 388.984 392.383L388.915 393.438C387.616 393.337 386.311 393.548 385.109 394.054L385.014 394.094ZM349.119 391.453C348.512 390.145 347.984 388.802 347.539 387.431L348.54 387.104C348.971 388.435 349.482 389.739 350.07 391.008L349.119 391.453ZM346.464 383.251C346.185 381.837 345.989 380.408 345.879 378.971L346.933 378.892C347.041 380.286 347.23 381.673 347.499 383.046L346.464 383.251ZM346.859 374.699L345.806 374.654C345.868 373.214 346.018 371.778 346.253 370.356L347.307 370.53C347.074 371.907 346.925 373.298 346.859 374.694V374.699Z" fill="#1A2578"/>
<path d="M480.443 427.636L478.441 428.304L478.775 429.304L480.776 428.636L480.443 427.636Z" fill="#1A2578"/>
<g filter="url(#filter0_d_1_89390)">
<path d="M133.988 183.772V367.927C133.989 371.119 135.257 374.18 137.513 376.436C139.769 378.693 142.828 379.961 146.018 379.961H404.919C406.499 379.961 408.063 379.65 409.522 379.046C410.982 378.441 412.308 377.555 413.425 376.437C414.542 375.32 415.429 373.993 416.033 372.533C416.638 371.073 416.949 369.508 416.949 367.927V183.772H133.988Z" fill="#C4C8E4"/>
<path d="M404.919 159H146.018C142.689 159.003 139.498 160.328 137.144 162.683C134.79 165.037 133.465 168.23 133.461 171.561V184.301H417.475V171.561C417.471 168.23 416.147 165.037 413.793 162.683C411.439 160.328 408.247 159.003 404.919 159Z" fill="#1A2578"/>
<path d="M151.547 176.395C154.166 176.395 156.288 174.271 156.288 171.651C156.288 169.031 154.166 166.907 151.547 166.907C148.928 166.907 146.806 169.031 146.806 171.651C146.806 174.271 148.928 176.395 151.547 176.395Z" fill="white"/>
<path d="M169.635 176.395C172.254 176.395 174.376 174.271 174.376 171.651C174.376 169.031 172.254 166.907 169.635 166.907C167.016 166.907 164.894 169.031 164.894 171.651C164.894 174.271 167.016 176.395 169.635 176.395Z" fill="white"/>
<path d="M383.788 177.185H342.696C341.229 177.185 339.822 176.602 338.784 175.564C337.747 174.526 337.164 173.119 337.164 171.651C337.164 170.183 337.747 168.775 338.784 167.737C339.822 166.699 341.229 166.116 342.696 166.116H383.788C385.255 166.116 386.662 166.699 387.699 167.737C388.737 168.775 389.319 170.183 389.319 171.651C389.319 173.119 388.737 174.526 387.699 175.564C386.662 176.602 385.255 177.185 383.788 177.185Z" fill="white"/>
<path d="M339.172 229.205H318.626V218.399H339.172V229.205ZM319.68 228.151H338.118V219.454H319.68V228.151Z" fill="#1A2578"/>
<path d="M373.579 223.407H345.144V224.198H373.579V223.407Z" fill="#0B1350"/>
<path d="M338.642 238.432H319.145V248.186H338.642V238.432Z" fill="#BF0830"/>
<path d="M373.579 242.915H345.144V243.706H373.579V242.915Z" fill="#0B1350"/>
<path d="M290.101 308.871H178.064V313.425H290.101V308.871Z" fill="#E8D2D7"/>
<path d="M290.101 322.226H178.064V326.78H290.101V322.226Z" fill="#E8D2D7"/>
<path d="M290.101 335.58H178.064V340.134H290.101V335.58Z" fill="#E8D2D7"/>
<path d="M189.036 252.846L188.151 252.277L199.125 235.201L207.367 241.239L219.031 229.601L236.321 231.975L254.173 216.824L272.806 232.023L288.358 209.305L289.23 209.9L273.03 233.565L254.186 218.194L236.643 233.085L219.405 230.718L207.473 242.623L199.404 236.714L189.036 252.846Z" fill="#1A2578"/>
<path d="M198.872 258.898H189.039V267.057H198.872V258.898Z" fill="#BF0830"/>
<path d="M217.484 252.017H207.651V267.058H217.484V252.017Z" fill="#BF0830"/>
<path d="M236.1 246.771H226.267V267.057H236.1V246.771Z" fill="#BF0830"/>
<path d="M254.716 233.159H244.883V267.055H254.716V233.159Z" fill="#BF0830"/>
<path d="M273.328 246.922H263.495V267.057H273.328V246.922Z" fill="#BF0830"/>
<path d="M293.964 267.584H177.536V206.439H178.59V266.529H293.964V267.584Z" fill="#BF0830"/>
<path d="M369.976 309.909C366.876 304.519 362.14 300.256 356.456 297.741C350.771 295.226 344.433 294.589 338.362 295.923C332.291 297.256 326.802 300.491 322.693 305.157C318.584 309.823 316.068 315.678 315.511 321.872C314.953 328.066 316.383 334.277 319.592 339.602C322.802 344.928 327.624 349.092 333.359 351.49C339.095 353.887 345.444 354.394 351.487 352.935C357.529 351.477 362.95 348.13 366.962 343.381C367.515 342.724 368.016 342.063 368.511 341.362L344.628 324.494L369.976 309.909Z" fill="#1A2578"/>
<path d="M381.945 339.04L361.302 324.461L383.202 311.86L383.399 312.203C385.737 316.284 386.862 320.948 386.643 325.646C386.424 330.345 384.87 334.884 382.164 338.73L381.945 339.04ZM362.769 324.529L381.753 337.936C384.235 334.281 385.658 330.011 385.864 325.597C386.07 321.183 385.051 316.798 382.92 312.928L362.769 324.529Z" fill="#0B1350"/>
</g>
<path d="M577.943 176.2H449.518C447.158 176.2 445.245 178.114 445.245 180.475V229.375C445.245 231.735 447.158 233.649 449.518 233.649H577.943C580.303 233.649 582.216 231.735 582.216 229.375V180.475C582.216 178.114 580.303 176.2 577.943 176.2Z" fill="#E8D2D7"/>
<path d="M471.41 185.029L473.33 188.919C473.357 188.974 473.398 189.022 473.448 189.059C473.498 189.095 473.556 189.118 473.617 189.127L477.908 189.752C477.978 189.762 478.044 189.791 478.099 189.837C478.153 189.882 478.194 189.942 478.216 190.01C478.238 190.078 478.24 190.15 478.223 190.219C478.206 190.288 478.17 190.351 478.119 190.4L475.013 193.428C474.969 193.471 474.936 193.525 474.917 193.583C474.899 193.642 474.894 193.705 474.905 193.766L475.637 198.043C475.649 198.113 475.641 198.185 475.614 198.25C475.587 198.316 475.542 198.373 475.484 198.414C475.427 198.456 475.359 198.48 475.289 198.486C475.218 198.491 475.147 198.476 475.084 198.444L471.241 196.425C471.187 196.396 471.126 196.381 471.065 196.381C471.003 196.381 470.943 196.396 470.888 196.425L467.05 198.444C466.987 198.476 466.917 198.491 466.846 198.486C466.775 198.48 466.708 198.456 466.65 198.414C466.593 198.373 466.548 198.316 466.521 198.25C466.494 198.185 466.486 198.113 466.497 198.043L467.229 193.766C467.24 193.705 467.236 193.642 467.217 193.583C467.198 193.525 467.165 193.471 467.121 193.428L464.016 190.4C463.965 190.351 463.929 190.288 463.912 190.219C463.894 190.15 463.897 190.078 463.919 190.01C463.941 189.942 463.981 189.882 464.036 189.837C464.09 189.791 464.156 189.762 464.227 189.752L468.517 189.127C468.579 189.118 468.637 189.095 468.687 189.059C468.737 189.022 468.777 188.974 468.805 188.919L470.725 185.029C470.756 184.964 470.804 184.909 470.865 184.871C470.925 184.833 470.996 184.812 471.067 184.812C471.139 184.812 471.209 184.833 471.27 184.871C471.33 184.909 471.379 184.964 471.41 185.029Z" fill="#BF0830"/>
<path d="M499.853 185.029L501.77 188.919C501.798 188.974 501.838 189.022 501.888 189.059C501.938 189.095 501.996 189.119 502.057 189.127L506.348 189.752C506.419 189.762 506.485 189.791 506.539 189.837C506.594 189.883 506.634 189.943 506.656 190.01C506.678 190.078 506.681 190.15 506.663 190.219C506.646 190.288 506.61 190.351 506.559 190.4L503.454 193.428C503.41 193.472 503.377 193.525 503.358 193.584C503.339 193.642 503.335 193.705 503.346 193.766L504.078 198.043C504.089 198.113 504.081 198.185 504.054 198.25C504.027 198.316 503.982 198.373 503.925 198.414C503.867 198.456 503.8 198.481 503.729 198.486C503.658 198.491 503.588 198.476 503.525 198.444L499.689 196.425C499.635 196.396 499.574 196.381 499.513 196.381C499.451 196.381 499.391 196.396 499.336 196.425L495.499 198.444C495.436 198.476 495.365 198.491 495.294 198.486C495.224 198.481 495.156 198.456 495.098 198.414C495.041 198.373 494.996 198.316 494.969 198.25C494.942 198.185 494.934 198.113 494.945 198.043L495.678 193.766C495.688 193.705 495.684 193.642 495.665 193.584C495.647 193.525 495.614 193.472 495.57 193.428L492.464 190.4C492.413 190.351 492.377 190.288 492.36 190.219C492.343 190.15 492.345 190.078 492.367 190.01C492.389 189.943 492.43 189.883 492.484 189.837C492.538 189.791 492.604 189.762 492.675 189.752L496.966 189.127C497.027 189.119 497.085 189.095 497.135 189.059C497.185 189.022 497.226 188.974 497.253 188.919L499.173 185.029C499.205 184.966 499.254 184.914 499.314 184.877C499.374 184.841 499.443 184.821 499.513 184.821C499.583 184.821 499.652 184.841 499.712 184.877C499.772 184.914 499.821 184.966 499.853 185.029Z" fill="#BF0830"/>
<path d="M528.293 185.029L530.211 188.919C530.238 188.975 530.278 189.023 530.328 189.059C530.378 189.095 530.436 189.119 530.498 189.127L534.789 189.752C534.859 189.762 534.925 189.792 534.979 189.837C535.034 189.883 535.074 189.943 535.096 190.011C535.118 190.078 535.121 190.15 535.104 190.219C535.086 190.288 535.05 190.351 534.999 190.4L531.894 193.429C531.85 193.472 531.817 193.525 531.798 193.584C531.779 193.643 531.775 193.705 531.786 193.766L532.518 198.043C532.529 198.113 532.521 198.185 532.494 198.251C532.467 198.316 532.422 198.373 532.365 198.415C532.308 198.456 532.24 198.481 532.169 198.486C532.098 198.491 532.028 198.477 531.965 198.444L528.138 196.425C528.083 196.397 528.023 196.382 527.961 196.382C527.9 196.382 527.839 196.397 527.785 196.425L523.947 198.444C523.884 198.477 523.813 198.491 523.742 198.486C523.672 198.481 523.604 198.456 523.547 198.415C523.489 198.373 523.444 198.316 523.417 198.251C523.39 198.185 523.382 198.113 523.394 198.043L524.126 193.766C524.137 193.705 524.133 193.643 524.114 193.584C524.095 193.525 524.062 193.472 524.018 193.429L520.912 190.4C520.861 190.351 520.825 190.288 520.808 190.219C520.791 190.15 520.794 190.078 520.815 190.011C520.837 189.943 520.878 189.883 520.932 189.837C520.987 189.792 521.053 189.762 521.123 189.752L525.414 189.127C525.475 189.119 525.533 189.095 525.583 189.059C525.633 189.023 525.674 188.975 525.701 188.919L527.621 185.029C527.654 184.969 527.703 184.918 527.762 184.883C527.821 184.848 527.888 184.829 527.957 184.829C528.026 184.829 528.093 184.848 528.153 184.883C528.212 184.918 528.26 184.969 528.293 185.029Z" fill="#BF0830"/>
<path d="M556.734 185.029L558.651 188.919C558.679 188.975 558.719 189.023 558.769 189.059C558.819 189.095 558.877 189.119 558.938 189.127L563.229 189.752C563.3 189.762 563.366 189.791 563.42 189.837C563.474 189.883 563.515 189.943 563.537 190.01C563.559 190.078 563.561 190.15 563.544 190.219C563.527 190.288 563.491 190.351 563.44 190.4L560.334 193.428C560.29 193.472 560.257 193.525 560.239 193.584C560.22 193.643 560.216 193.705 560.226 193.766L560.959 198.043C560.97 198.113 560.962 198.185 560.935 198.251C560.908 198.316 560.863 198.373 560.806 198.414C560.748 198.456 560.68 198.481 560.61 198.486C560.539 198.491 560.468 198.477 560.406 198.444L556.568 196.425C556.513 196.396 556.453 196.381 556.391 196.381C556.33 196.381 556.269 196.396 556.215 196.425L552.372 198.444C552.309 198.477 552.238 198.491 552.167 198.486C552.097 198.481 552.029 198.456 551.971 198.414C551.914 198.373 551.869 198.316 551.842 198.251C551.815 198.185 551.807 198.113 551.818 198.043L552.551 193.766C552.562 193.705 552.558 193.642 552.539 193.584C552.52 193.525 552.487 193.471 552.443 193.428L549.337 190.4C549.286 190.351 549.25 190.288 549.233 190.219C549.216 190.15 549.218 190.078 549.24 190.01C549.262 189.943 549.303 189.883 549.357 189.837C549.411 189.791 549.478 189.762 549.548 189.752L553.839 189.127C553.9 189.119 553.958 189.095 554.008 189.059C554.058 189.023 554.099 188.975 554.126 188.919L556.046 185.029C556.077 184.964 556.126 184.91 556.187 184.872C556.248 184.834 556.318 184.813 556.39 184.813C556.462 184.813 556.532 184.834 556.593 184.872C556.654 184.91 556.702 184.964 556.734 185.029Z" fill="white"/>
<path d="M567.829 210.057H459.633V210.847H567.829V210.057Z" fill="white"/>
<path d="M534.128 218.686H459.633V219.476H534.128V218.686Z" fill="white"/>
<path d="M576.166 253.521H451.297C447.955 253.521 445.246 256.231 445.246 259.574V362.689C445.246 366.033 447.955 368.743 451.297 368.743H576.166C579.508 368.743 582.217 366.033 582.217 362.689V259.574C582.217 256.231 579.508 253.521 576.166 253.521Z" fill="white"/>
<path d="M531.796 274.087H460.099V308.264H531.796V274.087Z" fill="#E8D2D7"/>
<path d="M567.519 274.087H542.037V291.334H567.519V274.087Z" fill="#BF0830"/>
<path d="M567.519 298.979H542.037V316.226H567.519V298.979Z" fill="#E8D2D7"/>
<path d="M567.519 323.869H542.037V341.116H567.519V323.869Z" fill="#E8D2D7"/>
<path d="M528.569 348.179H463.341C462.346 348.179 461.391 347.783 460.687 347.079C459.983 346.375 459.586 345.42 459.585 344.424V319.067C459.586 318.071 459.983 317.116 460.687 316.412C461.391 315.708 462.346 315.312 463.341 315.312H528.583C529.578 315.312 530.532 315.708 531.236 316.412C531.94 317.117 532.335 318.071 532.336 319.067V344.424C532.336 344.918 532.238 345.407 532.049 345.863C531.859 346.32 531.581 346.734 531.231 347.083C530.881 347.432 530.466 347.708 530.009 347.896C529.553 348.085 529.063 348.181 528.569 348.179ZM463.341 316.366C462.625 316.367 461.938 316.651 461.432 317.158C460.925 317.664 460.64 318.351 460.639 319.067V344.424C460.64 345.14 460.925 345.827 461.432 346.333C461.938 346.84 462.625 347.124 463.341 347.125H528.583C529.298 347.124 529.985 346.839 530.491 346.333C530.997 345.827 531.282 345.14 531.283 344.424V319.067C531.282 318.351 530.997 317.664 530.491 317.158C529.985 316.651 529.298 316.367 528.583 316.366H463.341Z" fill="#1A2578"/>
<path d="M523.518 325.157H468.378V325.684H523.518V325.157Z" fill="#1A2578"/>
<path d="M523.518 331.483H468.378V332.01H523.518V331.483Z" fill="#1A2578"/>
<path d="M508.385 337.809H468.378V338.336H508.385V337.809Z" fill="#1A2578"/>
<path d="M273.676 431.606L272.64 432.331L284.489 449.282L285.526 448.557L273.676 431.606Z" fill="#0B1350"/>
<path d="M290.601 419.139L289.359 419.363L294.423 447.407L295.664 447.183L290.601 419.139Z" fill="#0B1350"/>
<path d="M312.896 423.928L305.23 447.352L306.432 447.745L314.098 424.321L312.896 423.928Z" fill="#0B1350"/>
<path d="M393.451 524.804H348.523V533.316H393.451V524.804Z" fill="#0B1350"/>
<path d="M365.543 533.319H301.241L277.076 471.68H341.377L365.543 533.319Z" fill="#BF0830"/>
<path d="M593.748 533.32L596.361 440.737L592.086 424.981C590.504 419.128 587.157 413.905 582.502 410.023C577.846 406.14 572.108 403.788 566.069 403.286L514.274 398.961L476.538 411.482C470.549 413.468 465.216 417.052 461.115 421.849C457.013 426.646 454.299 432.472 453.266 438.699L437.596 533.009L593.748 533.32Z" fill="#1A2578"/>
<path d="M463.439 444.872L462.419 482.122L463.472 482.151L464.493 444.901L463.439 444.872Z" fill="#0B1350"/>
<path d="M509.565 454.227L418.193 474.77L423.119 487.558L509.565 454.227Z" fill="#1A2578"/>
<path d="M437.597 533.013C468.911 528.981 498.429 522.663 525.787 513.597L509.566 454.227C479.946 463.187 449.625 471.199 418.603 478.263L437.597 533.013Z" fill="#E8D2D7"/>
<g opacity="0.8">
<path opacity="0.8" d="M497.275 417.038C497.348 417.963 497.33 418.949 497.309 419.906C497.256 422.631 497.201 425.44 499.187 427.591C500.588 429.106 502.632 429.768 504.792 429.768C507.602 429.741 510.317 428.75 512.484 426.961C515.026 424.784 516.577 421.932 518.079 419.17C518.632 418.153 519.206 417.102 519.815 416.108C524.013 409.256 531.052 403.956 539.178 401.041L536.96 400.854C529.424 403.958 522.957 409.095 518.972 415.589C518.347 416.606 517.768 417.668 517.21 418.699C515.753 421.379 514.244 424.152 511.839 426.207C508.593 428.982 502.677 429.897 499.911 426.916C498.199 425.071 498.247 422.568 498.299 419.924C498.337 418.936 498.325 417.946 498.262 416.959C497.936 412.887 495.549 408.952 491.98 406.362L490.811 406.749C494.48 409.155 496.956 413.03 497.275 417.038Z" fill="white"/>
<path opacity="0.8" d="M483.99 418.335C484.781 420.201 485.065 422.249 485.347 424.225C485.629 426.202 485.926 428.279 486.711 430.221C488.898 435.614 494.961 439.646 501.805 440.252C502.442 440.31 503.085 440.336 503.728 440.336C509.603 440.293 515.263 438.12 519.659 434.219C522.138 432.003 524.068 429.352 525.936 426.787C526.7 425.733 527.464 424.679 528.264 423.672C536.051 413.747 547.831 406.399 560.898 402.851L558.13 402.622C545.866 406.441 534.9 413.599 527.485 423.047C526.676 424.078 525.904 425.135 525.138 426.192C523.294 428.714 521.4 431.32 518.998 433.466C514.346 437.627 507.955 439.791 501.892 439.264C495.409 438.689 489.68 434.905 487.631 429.844C486.891 428.018 486.603 426.018 486.327 424.083C486.034 422.043 485.734 419.932 484.904 417.95C483.674 415.017 481.296 412.526 478.298 410.908L476.96 411.354C480.168 412.819 482.731 415.325 483.99 418.335Z" fill="white"/>
</g>
<path d="M425.275 497.727C411.531 500.96 401.795 519.18 414.536 529.98C417.913 532.842 422.228 534.374 426.653 534.658C434.619 535.185 440.111 533.699 441.141 529.93C443.759 530.236 445.3 526.538 444.375 523.918C448.063 524.227 446.994 518.835 443.914 517.295C450.236 514.367 439.125 507.362 427.899 504.197L425.275 497.727Z" fill="white"/>
<path d="M443.908 517.82C443.854 517.819 443.8 517.812 443.748 517.796L427.09 512.485C426.957 512.443 426.846 512.349 426.782 512.225C426.718 512.1 426.706 511.956 426.749 511.822C426.791 511.689 426.885 511.579 427.009 511.515C427.134 511.451 427.278 511.439 427.411 511.481L444.066 516.792C444.185 516.831 444.286 516.91 444.351 517.017C444.416 517.123 444.442 517.249 444.423 517.373C444.404 517.496 444.342 517.609 444.248 517.691C444.153 517.772 444.033 517.818 443.908 517.82Z" fill="#0B1350"/>
<path d="M444.372 524.446C444.333 524.451 444.295 524.451 444.256 524.446L427.308 520.593C427.241 520.577 427.177 520.548 427.121 520.508C427.064 520.468 427.016 520.417 426.98 520.358C426.943 520.3 426.918 520.234 426.907 520.166C426.895 520.097 426.897 520.028 426.913 519.96C426.944 519.824 427.028 519.706 427.146 519.632C427.264 519.558 427.407 519.534 427.543 519.565L444.488 523.421C444.612 523.452 444.72 523.527 444.793 523.632C444.866 523.737 444.898 523.865 444.884 523.992C444.869 524.119 444.809 524.236 444.714 524.322C444.62 524.408 444.497 524.457 444.369 524.459L444.372 524.446Z" fill="#0B1350"/>
<path d="M441.135 530.456C441.094 530.456 441.053 530.451 441.014 530.44L425.546 526.727C425.479 526.711 425.415 526.682 425.359 526.641C425.303 526.6 425.255 526.548 425.219 526.489C425.183 526.43 425.159 526.364 425.148 526.295C425.137 526.227 425.14 526.157 425.157 526.089C425.173 526.022 425.202 525.958 425.243 525.902C425.284 525.846 425.336 525.799 425.395 525.763C425.454 525.727 425.52 525.703 425.588 525.693C425.657 525.682 425.727 525.685 425.794 525.702L441.259 529.415C441.399 529.432 441.526 529.503 441.613 529.613C441.7 529.724 441.74 529.864 441.724 530.004C441.707 530.144 441.636 530.272 441.526 530.359C441.415 530.446 441.275 530.486 441.135 530.469V530.456Z" fill="#0B1350"/>
<path d="M613.77 504.905L596.361 440.735L558.638 442.116L576.605 499.771L541.782 493.625L545.401 525.757C552.845 527.615 564.351 530.377 572.965 532.431C582.824 534.779 593.221 534.099 602.538 530.111C606.281 528.509 609.531 526.524 610.985 524.16C612.739 521.311 613.89 518.132 614.369 514.821C614.848 511.509 614.644 508.135 613.77 504.905Z" fill="#1A2578"/>
<path d="M577.364 500.441L541.69 494.145L541.875 493.107L575.849 499.103L557.224 438.694L558.23 438.383L577.364 500.441Z" fill="#0B1350"/>
<path d="M499.503 492.432C490.879 491.718 488.416 497.571 507.819 500.961C508.14 504.882 509.913 508.493 512.439 509.689C512.439 509.689 511.207 513.595 513.98 516.679C515.073 517.894 528.973 521.652 545.402 525.758L541.783 493.626C503.259 484.865 490.126 483.619 499.503 492.432Z" fill="white"/>
<path d="M523.397 497.401C523.364 497.405 523.332 497.405 523.299 497.401L499.405 492.96C499.336 492.949 499.27 492.923 499.211 492.886C499.151 492.849 499.1 492.8 499.06 492.742C499.02 492.685 498.991 492.62 498.977 492.551C498.962 492.482 498.961 492.412 498.974 492.343C498.987 492.274 499.014 492.208 499.052 492.149C499.091 492.091 499.141 492.041 499.199 492.002C499.258 491.963 499.323 491.936 499.392 491.923C499.461 491.909 499.532 491.91 499.6 491.924L523.494 496.368C523.563 496.374 523.631 496.394 523.692 496.427C523.754 496.459 523.808 496.503 523.852 496.557C523.897 496.61 523.93 496.672 523.951 496.738C523.971 496.805 523.979 496.875 523.972 496.944C523.966 497.013 523.946 497.08 523.914 497.142C523.881 497.203 523.837 497.258 523.784 497.302C523.73 497.347 523.668 497.38 523.602 497.401C523.536 497.421 523.466 497.429 523.397 497.422V497.401Z" fill="#0B1350"/>
<path d="M524.187 505.044C524.152 505.048 524.116 505.048 524.081 505.044L507.882 501.75C507.745 501.722 507.624 501.641 507.547 501.524C507.47 501.407 507.443 501.265 507.471 501.128C507.499 500.991 507.58 500.871 507.696 500.794C507.813 500.716 507.955 500.689 508.092 500.717L524.292 504.011C524.432 504.025 524.56 504.094 524.649 504.203C524.738 504.312 524.78 504.451 524.766 504.591C524.752 504.731 524.683 504.859 524.575 504.948C524.466 505.037 524.326 505.079 524.187 505.065V505.044Z" fill="#0B1350"/>
<path d="M524.187 513.872C524.135 513.872 524.082 513.864 524.032 513.849L511.728 510.067C511.598 510.022 511.491 509.929 511.429 509.807C511.367 509.685 511.355 509.543 511.396 509.413C511.436 509.282 511.526 509.172 511.646 509.106C511.766 509.04 511.907 509.024 512.039 509.06L524.343 512.842C524.463 512.879 524.566 512.959 524.633 513.065C524.7 513.172 524.726 513.299 524.707 513.424C524.689 513.549 524.626 513.662 524.53 513.745C524.435 513.827 524.313 513.872 524.187 513.872Z" fill="#0B1350"/>
<path d="M545.534 525.254L545.29 526.279L577.46 533.941L577.704 532.916L545.534 525.254Z" fill="#0B1350"/>
<path d="M533.221 360.82C532.228 382.503 523.146 384.158 510.721 384.158C502.776 384.158 499.394 376.251 494.671 368.93C492 364.794 486.732 361.977 486.242 354.529C485.473 342.967 496.813 336.652 509.24 336.652C521.668 336.652 533.809 347.943 533.221 360.82Z" fill="#0B1350"/>
<path d="M524.121 374.145L524.042 399.967L515.576 405.916L505.666 420.791L500.814 403.918L500.833 399.161L500.893 380.689L500.915 374.145H524.121Z" fill="white"/>
<path d="M519.654 380.351C515.297 387.809 508.785 394.69 500.833 399.16L500.894 380.688L519.654 380.351Z" fill="#0B1350"/>
<path d="M521.268 351.056L521.236 353.217L521.089 364.075V364.486L520.962 374.143L520.931 376.357L520.91 377.864L518.402 383.715L518.297 383.958C518.297 383.958 517.812 384.179 516.948 384.537C514.261 385.644 507.855 388.016 500.88 388.807C498.919 389.037 496.942 389.115 494.969 389.039C490.291 388.828 488.299 383.051 487.572 376.346C487.362 374.522 487.267 372.614 487.225 370.748C487.14 366.616 487.372 362.62 487.604 359.774C487.815 357.254 488.025 355.642 488.025 355.642L492.24 347.081L504.283 343.855L520.014 350.518L521.268 351.056Z" fill="white"/>
<path d="M526.786 373.531C529.264 370.576 529.349 366.566 526.977 364.574C524.604 362.582 520.672 363.363 518.194 366.318C515.716 369.273 515.63 373.283 518.003 375.275C520.376 377.267 524.308 376.486 526.786 373.531Z" fill="white"/>
<path d="M488.012 355.646C490.174 353.229 492.395 350.902 495.458 349.935C495.458 349.935 501.538 356.524 508.982 356.141C516.426 355.759 514.814 371.164 515.93 371.164C517.047 371.164 519.468 363.758 523.44 363.426L525.774 352.955L513.947 340.128L500.877 340.705C489.979 343.486 487.587 349.091 488.012 355.646Z" fill="#0B1350"/>
<path d="M535.067 360.123C542.205 358.754 546.749 351.157 545.216 343.155C543.683 335.152 536.654 329.775 529.516 331.144C522.377 332.512 517.834 340.109 519.367 348.112C520.9 356.115 527.929 361.492 535.067 360.123Z" fill="#0B1350"/>
<path d="M521.728 371.774C521.588 371.774 521.454 371.718 521.356 371.619C521.257 371.521 521.201 371.386 521.201 371.247C521.201 369.665 521.918 368.158 523.024 367.433C523.433 367.167 523.903 367.011 524.39 366.979C524.876 366.947 525.363 367.041 525.803 367.251C525.927 367.31 526.023 367.415 526.071 367.543C526.119 367.672 526.115 367.814 526.06 367.94C526.005 368.066 525.902 368.165 525.775 368.216C525.648 368.268 525.506 368.268 525.379 368.216C525.1 368.073 524.789 368.008 524.476 368.025C524.164 368.043 523.862 368.143 523.601 368.316C522.795 368.843 522.255 370.021 522.255 371.247C522.255 371.386 522.199 371.521 522.101 371.619C522.002 371.718 521.868 371.774 521.728 371.774Z" fill="#0B1350"/>
<path d="M492.399 367.526C492.374 367.759 492.282 367.98 492.134 368.161C491.987 368.343 491.789 368.478 491.567 368.55C491.344 368.622 491.105 368.628 490.879 368.567C490.653 368.506 490.449 368.381 490.292 368.207C490.136 368.032 490.033 367.816 489.997 367.585C489.961 367.353 489.992 367.116 490.088 366.902C490.183 366.688 490.339 366.507 490.535 366.379C490.732 366.252 490.961 366.184 491.195 366.184C491.532 366.204 491.847 366.356 492.073 366.607C492.298 366.859 492.416 367.189 492.399 367.526Z" fill="#0B1350"/>
<path d="M502.128 367.298C502.102 367.53 502.01 367.75 501.862 367.931C501.714 368.111 501.517 368.245 501.295 368.316C501.072 368.387 500.834 368.392 500.609 368.331C500.384 368.27 500.181 368.144 500.025 367.97C499.87 367.796 499.768 367.581 499.732 367.35C499.696 367.119 499.728 366.883 499.823 366.67C499.919 366.456 500.074 366.275 500.269 366.149C500.465 366.022 500.694 365.954 500.927 365.954C501.264 365.975 501.579 366.127 501.804 366.379C502.029 366.631 502.146 366.961 502.128 367.298Z" fill="#0B1350"/>
<path d="M493.037 362.586C493.119 363.039 491.841 363.511 490.319 363.851C488.796 364.191 487.658 364.26 487.524 363.819C487.276 362.989 488.464 362.409 489.984 362.069C491.504 361.729 492.842 361.571 493.037 362.586Z" fill="#0B1350"/>
<path d="M498.587 361.906C498.5 362.36 499.975 362.895 501.724 363.314C503.473 363.733 504.782 363.841 504.924 363.416C505.188 362.594 503.823 361.951 502.074 361.535C500.325 361.118 498.779 360.881 498.587 361.906Z" fill="#0B1350"/>
<path d="M495.242 374.533H495.226C495.152 374.533 493.364 374.464 492.45 373.044C491.76 371.969 492.602 371.181 493.277 370.545C493.838 370.018 494.417 369.475 494.528 368.701C494.548 368.561 494.623 368.435 494.735 368.35C494.848 368.265 494.99 368.229 495.13 368.248C495.27 368.268 495.396 368.343 495.48 368.456C495.565 368.569 495.602 368.711 495.582 368.851C495.421 369.987 494.636 370.722 494.001 371.31C493.211 372.05 493.166 372.2 493.34 372.469C493.946 373.41 495.247 373.473 495.258 373.473C495.397 373.473 495.531 373.529 495.63 373.628C495.729 373.727 495.784 373.861 495.784 374.001C495.784 374.14 495.729 374.274 495.63 374.373C495.531 374.472 495.397 374.528 495.258 374.528L495.242 374.533Z" fill="#0B1350"/>
<path d="M497.522 378.739C496.823 378.731 496.128 378.632 495.455 378.447C495.385 378.432 495.32 378.403 495.262 378.362C495.204 378.321 495.155 378.268 495.118 378.208C495.081 378.148 495.056 378.08 495.046 378.01C495.035 377.94 495.039 377.869 495.057 377.8C495.075 377.731 495.106 377.667 495.149 377.611C495.192 377.554 495.246 377.508 495.308 377.473C495.37 377.438 495.438 377.416 495.508 377.408C495.579 377.4 495.65 377.407 495.718 377.427C498.442 378.136 500.077 377.448 501.194 375.118C501.255 374.992 501.363 374.895 501.496 374.849C501.628 374.803 501.773 374.811 501.899 374.872C502.025 374.933 502.122 375.041 502.168 375.173C502.214 375.305 502.206 375.451 502.145 375.577C501.131 377.693 499.609 378.739 497.522 378.739Z" fill="#0B1350"/>
<path opacity="0.4" d="M509.492 373.234C510.59 372.135 510.59 370.355 509.492 369.257C508.395 368.158 506.615 368.158 505.518 369.257C504.42 370.355 504.42 372.135 505.518 373.234C506.615 374.332 508.395 374.332 509.492 373.234Z" fill="#BF0830"/>
<path opacity="0.4" d="M490.471 373.532C490.471 374.278 490.174 374.994 489.647 375.522C489.119 376.05 488.404 376.346 487.658 376.346H487.573C487.363 374.523 487.268 372.614 487.226 370.748C487.372 370.727 487.52 370.716 487.668 370.717C488.412 370.72 489.125 371.017 489.651 371.545C490.176 372.073 490.471 372.787 490.471 373.532Z" fill="#BF0830"/>
<g filter="url(#filter1_d_1_89390)">
<path d="M176.586 533.312H52.5615L57.2186 480.309L59.9528 449.086L84.6291 447.94L175.353 443.749L176.586 533.312Z" fill="#1A2578"/>
<path d="M113.607 533.968L112.05 533.697L117.977 499.678L136.244 492.116L136.847 493.576L119.386 500.806L113.607 533.968Z" fill="#0B1350"/>
<path d="M167.962 451.55L57.2188 480.309L59.9529 449.086L84.6292 447.94L167.962 451.55Z" fill="#0B1350"/>
<path d="M177.51 381.597L181.034 448.539C181.089 449.594 180.93 450.649 180.565 451.64C180.2 452.63 179.637 453.536 178.911 454.303C178.185 455.069 177.31 455.679 176.341 456.097C175.371 456.514 174.327 456.73 173.271 456.731L62.4704 456.765C61.4453 456.765 60.4302 456.563 59.4835 456.169C58.5369 455.775 57.6774 455.198 56.9545 454.471C56.2315 453.744 55.6595 452.881 55.2712 451.932C54.8829 450.982 54.686 449.966 54.6919 448.94L54.9105 411.679L46.9424 338.332L49.616 327.448C51.7019 318.949 56.2704 311.264 62.7388 305.374C69.2073 299.484 77.2826 295.654 85.935 294.374L131.826 287.614C131.826 288.097 150.133 294.026 165.14 298.797C171.204 300.727 176.792 303.916 181.539 308.155C186.286 312.395 190.085 317.59 192.687 323.399L200.59 341.057L177.51 381.597Z" fill="#BF0830"/>
<path d="M87.0566 339.8L46.9418 338.345L39.0264 370.58L78.9936 371.848L87.0566 339.8Z" fill="#BF0830"/>
<path opacity="0.8" d="M174.559 358.123L143.935 362.026C141.565 362.327 139.218 362.68 136.855 362.925C133.844 363.236 127.73 362.685 129.132 357.949C129.961 355.153 132.951 353.435 132.293 350.193C130.649 341.978 119.069 345.552 113.854 346.609L83.6038 352.728C83.077 352.834 83.3035 353.627 83.8224 353.519L113.061 347.605C117.852 346.635 125.373 343.725 129.629 347.37C134.223 351.302 129.169 354.149 128.265 358.039C127.725 360.361 129.253 362.377 131.315 363.289C135.148 364.981 140.508 363.289 144.444 362.783L174.559 358.946C175.078 358.88 175.084 358.057 174.559 358.123Z" fill="white"/>
<path d="M186.032 404.709H119.094V413.338H186.032V404.709Z" fill="#0B1350"/>
<path d="M160.276 413.067C158.833 418.738 144.145 420.731 144.145 420.731C142.09 425.475 139.699 427.847 135.105 427.92C125.517 438.262 87.2484 437.313 54.9964 435.996C48.6705 435.723 42.6613 433.15 38.0967 428.76C33.5321 424.369 30.7257 418.463 30.2042 412.149C30.141 411.443 30.1094 410.737 30.1094 410.02C30.1115 407.927 30.3663 405.842 30.868 403.811L39.0337 370.582C50.1707 370.93 66.7234 371.457 78.9983 371.847L72.2761 398.55C122.219 400.595 189.515 401.839 126.897 408.407C130.606 414.311 143.882 413.014 160.276 413.067Z" fill="white"/>
<path d="M136.276 421.687C132.093 421.687 126.991 421.318 122.842 419.89C122.715 419.841 122.612 419.744 122.554 419.621C122.497 419.497 122.489 419.356 122.534 419.227C122.578 419.098 122.67 418.991 122.792 418.929C122.913 418.867 123.054 418.854 123.185 418.894C131.398 421.716 143.96 420.225 144.086 420.212C144.226 420.195 144.367 420.234 144.477 420.321C144.588 420.408 144.66 420.536 144.676 420.675C144.693 420.815 144.654 420.956 144.567 421.067C144.48 421.177 144.352 421.249 144.213 421.266C141.577 421.555 138.927 421.696 136.276 421.687Z" fill="#0B1350"/>
<path d="M127.159 429.419C124.493 429.403 121.836 429.131 119.222 428.605C119.092 428.572 118.98 428.49 118.908 428.376C118.836 428.263 118.81 428.126 118.836 427.994C118.861 427.862 118.936 427.745 119.045 427.666C119.154 427.588 119.289 427.554 119.422 427.572C125.141 428.676 130.083 428.626 134.964 427.408C135.031 427.391 135.101 427.387 135.169 427.397C135.238 427.407 135.304 427.43 135.364 427.465C135.423 427.5 135.475 427.547 135.517 427.602C135.559 427.658 135.589 427.721 135.606 427.788C135.624 427.855 135.628 427.925 135.618 427.994C135.608 428.062 135.585 428.128 135.55 428.188C135.515 428.248 135.468 428.3 135.413 428.342C135.357 428.383 135.294 428.414 135.227 428.431C132.589 429.091 129.879 429.423 127.159 429.419Z" fill="#0B1350"/>
<path d="M234.643 391.424C233.402 394.716 231.465 397.7 228.964 400.174C228.835 400.322 228.698 400.463 228.553 400.595L227.689 401.428C224.433 404.542 220.396 406.716 216.005 407.721C211.614 408.725 207.034 408.521 202.749 407.131C201.208 406.639 199.719 405.996 198.303 405.213C195.31 403.556 192.689 401.303 190.601 398.592L177.504 381.598L200.579 341.043L207.385 356.234C217.237 328.698 233.463 280.827 236.129 305.073C242.029 292.212 250.911 276.304 252.355 287.415C255.231 284.822 256.906 287.152 257.844 292.423C257.844 292.528 257.876 292.644 257.897 292.75C261.627 290.494 261.679 293.846 261.184 300.962C269.613 299.792 249.12 353.567 234.643 391.424Z" fill="white"/>
<path d="M202.999 370.545C202.941 370.545 202.884 370.536 202.828 370.519C202.763 370.496 202.702 370.461 202.65 370.416C202.598 370.37 202.555 370.314 202.525 370.252C202.494 370.19 202.476 370.122 202.472 370.053C202.467 369.984 202.477 369.915 202.499 369.849L211.631 342.967C211.654 342.901 211.689 342.841 211.734 342.789C211.78 342.737 211.836 342.694 211.898 342.664C211.96 342.633 212.027 342.615 212.097 342.61C212.166 342.606 212.235 342.615 212.3 342.638C212.366 342.66 212.427 342.695 212.479 342.741C212.531 342.786 212.573 342.842 212.604 342.904C212.634 342.966 212.652 343.034 212.657 343.103C212.661 343.172 212.652 343.241 212.63 343.307L203.497 370.189C203.462 370.293 203.395 370.383 203.305 370.447C203.216 370.511 203.109 370.545 202.999 370.545Z" fill="#0B1350"/>
<path d="M242.16 310.808C242.072 310.808 241.985 310.786 241.908 310.744C241.831 310.702 241.766 310.641 241.718 310.567C241.67 310.493 241.642 310.409 241.635 310.321C241.629 310.233 241.644 310.145 241.68 310.065L251.871 287.186C251.897 287.119 251.935 287.058 251.985 287.006C252.035 286.954 252.095 286.913 252.161 286.886C252.227 286.858 252.298 286.844 252.37 286.845C252.442 286.846 252.513 286.861 252.578 286.89C252.644 286.919 252.703 286.961 252.751 287.014C252.8 287.067 252.838 287.129 252.861 287.197C252.885 287.264 252.895 287.336 252.89 287.408C252.885 287.479 252.866 287.549 252.833 287.613L242.642 310.495C242.6 310.588 242.533 310.667 242.447 310.723C242.361 310.779 242.262 310.808 242.16 310.808Z" fill="#0B1350"/>
<path d="M248.304 313.444C248.228 313.444 248.152 313.427 248.083 313.394C248.019 313.366 247.962 313.325 247.914 313.274C247.867 313.224 247.83 313.164 247.805 313.099C247.781 313.034 247.769 312.964 247.772 312.895C247.774 312.825 247.79 312.757 247.82 312.693L257.487 291.923C257.551 291.806 257.657 291.717 257.784 291.676C257.911 291.634 258.049 291.642 258.17 291.698C258.291 291.755 258.387 291.855 258.437 291.979C258.487 292.103 258.488 292.241 258.44 292.366L248.776 313.139C248.734 313.229 248.668 313.306 248.584 313.36C248.501 313.414 248.404 313.443 248.304 313.444Z" fill="#0B1350"/>
<path d="M253.749 317.134C253.672 317.134 253.595 317.117 253.525 317.084C253.462 317.056 253.405 317.015 253.357 316.964C253.309 316.914 253.272 316.854 253.248 316.789C253.223 316.724 253.212 316.654 253.214 316.585C253.217 316.515 253.233 316.447 253.262 316.383L260.637 300.705C260.666 300.641 260.707 300.583 260.758 300.535C260.809 300.487 260.869 300.45 260.935 300.426C261.001 300.401 261.07 300.39 261.14 300.393C261.21 300.396 261.279 300.413 261.342 300.443C261.406 300.472 261.463 300.514 261.509 300.566C261.556 300.618 261.592 300.679 261.616 300.745C261.639 300.812 261.649 300.882 261.644 300.951C261.64 301.021 261.622 301.09 261.591 301.153L254.215 316.831C254.174 316.92 254.108 316.996 254.026 317.049C253.943 317.103 253.847 317.132 253.749 317.134Z" fill="#0B1350"/>
<path d="M233.73 323.458C233.602 323.458 233.479 323.412 233.383 323.327C233.287 323.243 233.225 323.127 233.209 323C233.192 322.874 233.222 322.746 233.292 322.639C233.363 322.533 233.47 322.456 233.593 322.423C236.187 321.719 237.71 318.177 237.452 315.433C237.341 314.25 236.767 313.167 236.161 312.02C235.371 310.55 234.581 309.029 234.789 307.231C234.797 307.162 234.818 307.095 234.852 307.034C234.886 306.974 234.932 306.92 234.987 306.877C235.041 306.834 235.104 306.802 235.171 306.783C235.238 306.764 235.308 306.758 235.377 306.766C235.447 306.774 235.513 306.796 235.574 306.83C235.635 306.864 235.689 306.91 235.732 306.965C235.775 307.019 235.807 307.082 235.826 307.149C235.845 307.216 235.85 307.286 235.842 307.355C235.668 308.826 236.369 310.138 237.099 311.527C237.728 312.713 238.376 313.942 238.508 315.336C238.811 318.562 237.022 322.589 233.877 323.44C233.829 323.453 233.78 323.46 233.73 323.458Z" fill="#0B1350"/>
<path d="M78.9939 372.361C78.9504 372.361 78.9071 372.355 78.8648 372.345C78.7977 372.328 78.7346 372.298 78.6791 372.257C78.6235 372.215 78.5767 372.163 78.5412 372.104C78.5057 372.045 78.4823 371.979 78.4723 371.91C78.4623 371.842 78.4659 371.772 78.4829 371.705L86.5459 339.657C86.5625 339.589 86.5923 339.526 86.6335 339.47C86.6747 339.414 86.7266 339.367 86.786 339.331C86.8455 339.295 86.9115 339.272 86.9801 339.262C87.0487 339.251 87.1187 339.255 87.186 339.272C87.2534 339.288 87.3168 339.318 87.3726 339.359C87.4284 339.401 87.4756 339.453 87.5113 339.512C87.547 339.572 87.5706 339.638 87.5808 339.706C87.591 339.775 87.5875 339.845 87.5706 339.912L79.5049 371.952C79.4782 372.068 79.4132 372.171 79.3205 372.246C79.2277 372.32 79.1126 372.36 78.9939 372.361Z" fill="#0B1350"/>
<path d="M178.852 405.423C178.719 405.423 178.591 405.373 178.493 405.283C178.395 405.192 178.336 405.068 178.326 404.935L173.321 337.729C173.316 337.66 173.324 337.59 173.346 337.525C173.367 337.459 173.402 337.398 173.447 337.345C173.539 337.239 173.668 337.173 173.808 337.163C173.948 337.152 174.086 337.198 174.192 337.289C174.298 337.38 174.364 337.51 174.374 337.65L179.379 404.856C179.385 404.925 179.376 404.995 179.355 405.06C179.334 405.126 179.299 405.187 179.254 405.24C179.209 405.292 179.154 405.336 179.093 405.367C179.031 405.398 178.964 405.417 178.895 405.423H178.852Z" fill="#0B1350"/>
<path d="M123.969 322.468C123.003 322.467 122.039 322.395 121.084 322.252C115.263 321.387 110.335 318.035 108.817 313.889C108.794 313.824 108.783 313.755 108.786 313.686C108.788 313.617 108.805 313.549 108.834 313.486C108.863 313.423 108.904 313.366 108.955 313.319C109.006 313.272 109.066 313.236 109.131 313.212C109.196 313.188 109.265 313.177 109.334 313.18C109.403 313.183 109.471 313.199 109.534 313.229C109.597 313.258 109.654 313.299 109.701 313.35C109.748 313.401 109.784 313.461 109.808 313.526C111.172 317.252 115.866 320.412 121.24 321.211C127.894 322.204 134.147 319.543 138.393 313.916C138.477 313.804 138.602 313.73 138.741 313.711C138.88 313.691 139.02 313.727 139.132 313.812C139.244 313.896 139.318 314.021 139.337 314.16C139.357 314.298 139.32 314.439 139.236 314.551C135.367 319.677 129.917 322.468 123.969 322.468Z" fill="#0B1350"/>
<path opacity="0.4" d="M49.866 424.482C49.8782 428.023 48.5055 431.429 46.0413 433.97C41.6577 432.129 37.863 429.12 35.0706 425.27C32.2783 421.421 30.5953 416.878 30.2051 412.138C32.2938 411.127 34.6048 410.664 36.9214 410.791C39.238 410.919 41.4843 411.633 43.4495 412.867C45.4147 414.101 47.0344 415.814 48.1568 417.846C49.2791 419.877 49.8672 422.161 49.866 424.482Z" fill="#DBDBDB"/>
<path opacity="0.4" d="M228.964 400.173C228.835 400.322 228.698 400.463 228.553 400.595L227.689 401.428C224.433 404.542 220.396 406.716 216.005 407.72C211.614 408.724 207.034 408.521 202.749 407.131C202.677 406.593 202.641 406.051 202.644 405.508C202.641 402.343 203.732 399.275 205.733 396.824C207.735 394.373 210.522 392.691 213.622 392.063C216.722 391.435 219.943 391.899 222.74 393.377C225.537 394.856 227.736 397.257 228.964 400.173Z" fill="#DBDBDB"/>
<path d="M145.642 277.864L141.844 291.042L139.444 299.346C138.868 301.356 137.833 303.204 136.42 304.744C135.008 306.285 133.257 307.476 131.305 308.223C129.354 308.97 127.256 309.254 125.176 309.051C123.096 308.847 121.092 308.163 119.322 307.053C116.622 305.369 114.573 302.818 113.511 299.818C112.449 296.817 112.437 293.544 113.477 290.536L118.93 274.723L135.654 276.686L145.642 277.864Z" fill="white"/>
<path d="M145.665 277.957L140.944 294.205C130.408 291.833 124.463 280.31 124.463 280.31L135.668 276.773L145.665 277.957Z" fill="#0B1350"/>
<path d="M150.196 243.455C150.196 243.455 159.942 274.52 152.645 281.686C145.006 289.197 124.439 280.236 124.439 280.236L114.074 250.684L129.149 241.257L150.196 243.455Z" fill="white"/>
<path d="M121.957 266.795C122.729 258.069 122.821 253.51 130.255 251.114C165.12 259.943 160.874 217.018 139.319 233.754C124.652 227.882 113.051 231.382 107.633 245.774C97.5049 252.255 99.6596 265.14 115.535 272.878L121.957 266.795Z" fill="#0B1350"/>
<path d="M122.327 276.552C125.234 274.514 125.39 269.719 122.675 265.84C119.96 261.962 115.402 260.47 112.495 262.508C109.587 264.545 109.431 269.341 112.147 273.219C114.862 277.097 119.419 278.59 122.327 276.552Z" fill="white"/>
<path d="M118.56 271.12H118.497C118.358 271.103 118.232 271.032 118.145 270.923C118.059 270.813 118.019 270.673 118.036 270.535C118.09 270.226 118.061 269.909 117.953 269.616C117.845 269.322 117.66 269.063 117.419 268.864C116.682 268.247 115.396 268.073 114.224 268.431C114.157 268.456 114.086 268.466 114.015 268.462C113.943 268.458 113.874 268.439 113.81 268.407C113.746 268.375 113.689 268.331 113.643 268.276C113.597 268.222 113.563 268.158 113.542 268.09C113.521 268.022 113.514 267.95 113.522 267.879C113.529 267.808 113.551 267.739 113.586 267.677C113.621 267.615 113.669 267.56 113.725 267.517C113.782 267.474 113.847 267.442 113.916 267.425C115.441 266.958 117.077 267.203 118.096 268.055C118.47 268.367 118.757 268.771 118.93 269.227C119.103 269.683 119.155 270.176 119.082 270.658C119.066 270.786 119.004 270.903 118.908 270.987C118.812 271.072 118.688 271.119 118.56 271.12Z" fill="#0B1350"/>
<path d="M149.616 260.431C149.879 261.198 150.575 261.62 151.196 261.375C151.818 261.13 152.126 260.321 151.879 259.53C151.631 258.739 150.92 258.341 150.298 258.587C149.676 258.832 149.368 259.664 149.616 260.431Z" fill="#0B1350"/>
<path d="M140.397 263.796C140.647 264.563 141.355 264.985 141.977 264.74C142.599 264.495 142.907 263.673 142.657 262.895C142.406 262.118 141.701 261.706 141.076 261.952C140.452 262.197 140.133 263.029 140.397 263.796Z" fill="#0B1350"/>
<path d="M147.357 255.561C147.431 256.059 148.793 256.072 150.339 255.861C151.885 255.65 152.973 255.3 152.957 254.807C152.913 253.858 151.601 253.697 150.06 253.908C148.519 254.119 147.189 254.44 147.357 255.561Z" fill="#0B1350"/>
<path d="M141.906 256.91C142.14 257.345 140.934 258.447 139.427 259.525C137.92 260.602 136.732 261.217 136.451 260.816C135.924 260.065 136.993 258.895 138.5 257.814C140.007 256.734 141.384 255.932 141.906 256.91Z" fill="#0B1350"/>
<path d="M149.122 268.736C148.998 268.732 148.879 268.686 148.784 268.606C148.69 268.526 148.624 268.416 148.599 268.294C148.575 268.173 148.591 268.046 148.647 267.935C148.703 267.824 148.794 267.735 148.906 267.682C148.906 267.682 150.115 267.139 150.374 265.919C150.458 265.518 150.305 265.368 149.359 264.915C148.569 264.538 147.581 264.069 147.049 262.957C147.018 262.891 147 262.821 146.996 262.748C146.992 262.676 147.002 262.604 147.026 262.535C147.075 262.398 147.176 262.285 147.308 262.221C147.439 262.158 147.591 262.15 147.728 262.198C147.866 262.247 147.979 262.348 148.042 262.48C148.409 263.239 149.133 263.584 149.836 263.919C150.679 264.322 151.733 264.823 151.454 266.148C151.074 267.938 149.41 268.668 149.346 268.699C149.275 268.726 149.199 268.739 149.122 268.736Z" fill="#0B1350"/>
<path d="M147.564 273.572C146.169 273.554 144.829 273.023 143.8 272.08C143.709 271.977 143.66 271.842 143.663 271.704C143.666 271.566 143.721 271.434 143.817 271.335C143.913 271.235 144.043 271.175 144.18 271.167C144.318 271.159 144.454 271.203 144.561 271.29C145.76 272.431 148.115 272.961 149.247 271.904C149.3 271.854 149.362 271.816 149.43 271.79C149.498 271.765 149.57 271.753 149.643 271.755C149.715 271.758 149.786 271.775 149.852 271.805C149.918 271.835 149.978 271.877 150.027 271.93C150.077 271.983 150.115 272.045 150.141 272.113C150.166 272.181 150.178 272.253 150.175 272.326C150.173 272.398 150.156 272.469 150.126 272.535C150.096 272.601 150.054 272.661 150.001 272.71C149.327 273.297 148.456 273.605 147.564 273.572Z" fill="#0B1350"/>
<path opacity="0.4" d="M140.019 269.848C140.247 268.44 139.291 267.113 137.884 266.884C136.477 266.656 135.151 267.612 134.922 269.02C134.694 270.428 135.65 271.755 137.057 271.983C138.464 272.212 139.79 271.256 140.019 269.848Z" fill="#CECECE"/>
</g>
<path opacity="0.3" d="M519.5 120.478C523.642 120.478 527 117.013 527 112.739C527 108.465 523.642 105 519.5 105C515.358 105 512 108.465 512 112.739C512 117.013 515.358 120.478 519.5 120.478Z" stroke="#FFDA32" stroke-width="5"/>
<path opacity="0.3" d="M31.5 472.478C35.6421 472.478 39 469.013 39 464.739C39 460.465 35.6421 457 31.5 457C27.3579 457 24 460.465 24 464.739C24 469.013 27.3579 472.478 31.5 472.478Z" stroke="#74BBFB" stroke-width="5"/>
<path opacity="0.2" d="M170.64 74.213C178.726 74.213 185.281 67.4496 185.281 59.1065C185.281 50.7634 178.726 44 170.64 44C162.555 44 156 50.7634 156 59.1065C156 67.4496 162.555 74.213 170.64 74.213Z" stroke="#BF0830" stroke-width="10"/>
<defs>
<filter id="filter0_d_1_89390" x="105.461" y="135" width="340.014" height="276.961" filterUnits="userSpaceOnUse" color-interpolation-filters="sRGB">
<feFlood flood-opacity="0" result="BackgroundImageFix"/>
<feColorMatrix in="SourceAlpha" type="matrix" values="0 0 0 0 0 0 0 0 0 0 0 0 0 0 0 0 0 0 127 0" result="hardAlpha"/>
<feOffset dy="4"/>
<feGaussianBlur stdDeviation="14"/>
<feComposite in2="hardAlpha" operator="out"/>
<feColorMatrix type="matrix" values="0 0 0 0 0 0 0 0 0 0 0 0 0 0 0 0 0 0 0.06 0"/>
<feBlend mode="normal" in2="BackgroundImageFix" result="effect1_dropShadow_1_89390"/>
<feBlend mode="normal" in="SourceGraphic" in2="effect1_dropShadow_1_89390" result="shape"/>
</filter>
<filter id="filter1_d_1_89390" x="7.10938" y="208.842" width="279.043" height="350.127" filterUnits="userSpaceOnUse" color-interpolation-filters="sRGB">
<feFlood flood-opacity="0" result="BackgroundImageFix"/>
<feColorMatrix in="SourceAlpha" type="matrix" values="0 0 0 0 0 0 0 0 0 0 0 0 0 0 0 0 0 0 127 0" result="hardAlpha"/>
<feOffset dy="2"/>
<feGaussianBlur stdDeviation="11.5"/>
<feComposite in2="hardAlpha" operator="out"/>
<feColorMatrix type="matrix" values="0 0 0 0 0 0 0 0 0 0 0 0 0 0 0 0 0 0 0.09 0"/>
<feBlend mode="normal" in2="BackgroundImageFix" result="effect1_dropShadow_1_89390"/>
<feBlend mode="normal" in="SourceGraphic" in2="effect1_dropShadow_1_89390" result="shape"/>
</filter>
</defs>
</svg>
