<svg width="662" height="390" viewBox="0 0 662 390" fill="none" xmlns="http://www.w3.org/2000/svg">
<path opacity="0.5" d="M408.834 529.128C522.912 529.128 615.389 433.738 615.389 316.068C615.389 198.397 522.912 103.007 408.834 103.007C294.757 103.007 202.279 198.397 202.279 316.068C202.279 433.738 294.757 529.128 408.834 529.128Z" stroke="white" stroke-opacity="0.6" stroke-width="88"/>
<path d="M477.473 239.106L473.935 242.743C460.093 257.084 445.584 271.835 427.025 279.109C408.466 286.382 384.473 283.872 372.374 267.994C368.587 262.871 366.026 256.948 364.889 250.682C359.403 223.382 376.117 196.082 397.188 177.796C425.539 153.262 458.298 136.513 487.931 112.491C505.875 97.996 526.587 85.0887 549.452 83.6033C572.317 82.118 597.797 95.2302 603.386 117.613C607.487 134.055 600.258 151.674 588.877 164.274C577.496 176.874 562.32 185.274 547.453 193.521C522.537 207.401 497.928 219.079 477.473 239.106Z" fill="#D7DEF5"/>
<path d="M114.24 367.051L110.703 370.688C96.8605 385.029 82.3517 399.781 63.7929 407.054C45.234 414.327 21.2409 411.817 9.14173 395.939C5.3544 390.816 2.79369 384.894 1.65663 378.627C-3.82899 351.327 12.8842 324.027 33.9552 305.742C62.3061 281.207 95.0661 264.458 124.699 240.437C142.642 225.941 163.354 213.034 186.22 211.549C209.085 210.063 234.565 223.175 240.153 245.558C244.255 262 237.026 279.62 225.644 292.22C214.263 304.82 199.088 313.22 184.22 321.466C159.304 335.346 134.696 347.024 114.24 367.051Z" fill="#D7DEF5"/>
<path opacity="0.4" d="M346.677 276.149C349.434 271.896 348.221 266.213 343.967 263.456C339.714 260.699 334.031 261.912 331.274 266.165C328.517 270.419 329.73 276.102 333.983 278.859C338.237 281.615 343.92 280.402 346.677 276.149Z" stroke="#74BBFB" stroke-width="4.5" stroke-miterlimit="10"/>
<path d="M249.564 234.931L249.461 235.122L249.564 234.931Z" fill="black"/>
<path d="M194.807 19.292C232.046 19.292 262.215 33.2842 262.215 50.5531C262.215 60.7816 252.281 67.7925 244.104 71.8661C237.807 74.9153 231.167 77.1996 224.326 78.6704C215.019 80.7599 205.525 81.9071 195.988 82.0946C195.153 92.2114 191.121 101.8 184.475 109.474C181.966 112.337 178.867 115.009 175.088 115.555C181.283 105.389 184.252 93.5837 183.604 81.6961C171.49 80.87 159.603 78.0006 148.447 73.2093C139.355 69.2094 127.414 61.859 127.414 50.5236C127.385 33.2842 157.553 19.292 194.807 19.292Z" fill="#1A2578" stroke="black" stroke-width="0.5" stroke-miterlimit="10"/>
<path d="M241.477 48.1034C241.269 50.882 240.011 53.4769 237.957 55.3599C235.903 57.2428 233.209 58.2722 230.423 58.2383C227.637 58.2044 224.968 57.1099 222.961 55.1776C220.953 53.2453 219.758 50.6205 219.618 47.8377C219.426 45.7271 220.031 43.2622 221.891 42.4209C222.868 42.1199 223.923 42.2102 224.835 42.6729C225.747 43.1355 226.443 43.9343 226.776 44.9005C227.431 46.9245 227.283 49.1226 226.363 51.0406C225.161 53.9261 223.074 56.3555 220.403 57.9789C217.732 59.6022 214.615 60.3357 211.5 60.0735C208.391 59.6046 205.505 58.1808 203.242 55.9991C200.978 53.8175 199.449 50.986 198.866 47.8968C198.467 45.7418 198.703 43.1441 200.43 41.9043C202.585 40.4283 205.803 42.1847 206.555 44.8563C206.816 46.1864 206.778 47.5575 206.447 48.8716C206.115 50.1857 205.497 51.4102 204.637 52.4575C202.995 54.6273 200.846 56.3609 198.378 57.5061C195.91 58.6513 193.199 59.173 190.482 59.0256C187.828 59.007 185.227 58.2727 182.955 56.9002C180.003 54.7748 177.051 48.0444 179.412 44.5463C179.617 44.2046 179.904 43.9191 180.247 43.7156C180.589 43.5121 180.977 43.3968 181.375 43.3803C181.927 43.4326 182.446 43.6661 182.851 44.0445C183.357 44.5546 183.754 45.1612 184.02 45.828C184.287 46.4949 184.416 47.2084 184.401 47.9263C184.249 51.0493 183.018 54.0228 180.918 56.3393C179.153 58.3086 176.815 59.6732 174.232 60.2401C171.649 60.8069 168.954 60.5473 166.527 59.4979C164.107 58.3158 162.037 56.5209 160.525 54.2915C159.013 52.0621 158.111 49.4759 157.907 46.7898C157.73 44.7529 158.557 42.0371 160.52 42.1405C161.996 42.2143 162.822 43.8526 163.132 45.3286C163.575 47.4556 163.504 49.6573 162.927 51.7517C162.349 53.8461 161.281 55.7728 159.811 57.3725C158.353 58.8932 156.528 60.0135 154.512 60.6261C152.496 61.2386 150.357 61.3228 148.299 60.8706" stroke="#FFF8F8" stroke-width="0.5" stroke-miterlimit="10"/>
<path d="M266.228 170.504C266.49 170.352 266.782 170.256 267.084 170.224L267.91 170.076L312.588 156.97L276.471 177.766C275.954 178.12 275.438 178.519 274.995 178.903C274.985 178.936 274.985 178.972 274.995 179.006C274.985 179.06 274.985 179.115 274.995 179.168C275.019 179.216 275.049 179.26 275.083 179.301C275.157 179.39 275.187 179.463 275.29 179.581C276.154 180.408 276.963 181.29 277.711 182.223L277.784 182.401L294.404 200.983L295.688 198.666L322.743 149.737L255.217 162.431L265.549 170.755L266.08 170.593C266.08 170.593 266.183 170.519 266.228 170.504Z" fill="#BF0830"/>
<path d="M266.211 173.678L266.049 173.058L266.477 175.227C266.418 174.696 266.315 174.194 266.211 173.678Z" fill="#9DD1C9"/>
<path d="M265.652 170.756L265.844 171.715C265.844 171.715 265.844 171.715 265.844 171.627L265.652 170.756Z" fill="#9DD1C9"/>
<path d="M296.973 317.792C295.887 319.153 294.518 320.262 292.961 321.042C291.403 321.822 289.695 322.254 287.955 322.308C279.202 322.205 276.043 312.67 277.888 305.216C265.092 302.678 253.225 308.936 243.572 317.231C239.675 320.581 235.823 324.05 232.074 327.636H301.076C300.25 324.154 298.864 320.83 296.973 317.792Z" fill="#1A2578"/>
<path d="M202.7 378.807C202.7 380.962 202.567 383.131 202.449 385.286C204.176 386.054 205.888 386.836 207.571 387.692H215.556L223.29 336.55C215.288 344.958 208.348 354.317 202.626 364.416C202.626 367.722 202.626 371.029 202.626 374.335C202.715 375.825 202.73 377.316 202.7 378.807Z" fill="#1A2578"/>
<path d="M287.954 322.308C289.694 322.253 291.403 321.821 292.96 321.041C294.517 320.262 295.886 319.153 296.972 317.791C293.493 312.373 288.247 308.327 282.124 306.338C280.742 305.857 279.326 305.482 277.888 305.216C275.984 312.669 279.201 322.204 287.954 322.308Z" fill="#222221"/>
<path d="M151.735 259.226C151.766 259.171 151.806 259.121 151.853 259.078C152.133 258.783 152.384 258.458 152.65 258.148H151.174C151.366 258.503 151.558 258.857 151.779 259.196L151.735 259.226Z" fill="#1A2578"/>
<path d="M143.839 383.678C139.323 383.102 134.792 382.512 130.29 381.759C124.822 380.91 119.425 379.657 114.143 378.01C111.762 377.272 109.447 376.339 107.22 375.22C103.678 368.18 100.313 361.022 96.8887 353.878V354.527C99.2355 359.664 101.686 364.859 104.121 369.892C106.291 374.438 108.549 378.955 110.851 383.368C112.49 386.423 114.217 389.449 116.076 392.401H175.735C174.668 391.938 173.633 391.405 172.636 390.807C163.898 385.552 153.758 384.932 143.839 383.678Z" fill="#1A2578"/>
<path d="M98.4245 345.806C97.8445 348.123 97.3814 350.468 97.0371 352.831C97.7126 351.429 98.6209 350.152 99.7234 349.053C106.218 342.603 119.619 345.924 127.295 348.64C130.136 349.658 132.915 350.841 135.619 352.182L135.914 352.33C141.021 354.883 145.936 357.865 150.822 360.861L169.315 372.196C172.389 374.201 175.628 375.939 178.998 377.392C182.025 378.496 185.109 379.437 188.237 380.211C190.51 380.86 192.665 381.598 194.968 382.38C197.492 383.281 200.001 384.255 202.451 385.332C202.569 383.177 202.658 381.008 202.702 378.853C202.702 377.377 202.702 375.901 202.702 374.425C202.702 371.119 202.702 367.813 202.702 364.506C202.702 363.458 202.702 362.425 202.702 361.377C202.51 349.968 202.185 338.559 202.85 327.164C203.661 319.076 203.912 310.825 204.001 302.707C215.897 302.191 228.015 299.844 239.941 298.383C250.273 297.128 260.427 296.302 267.645 287.874C268.472 286.952 269.181 285.931 269.755 284.833C270.039 284.274 270.285 283.698 270.493 283.106C270.169 283.697 269.829 284.287 269.46 284.863C268.476 286.546 267.248 288.073 265.815 289.394C257.387 296.7 248.103 285.114 246.465 277.335C245.903 274.499 245.734 271.598 245.963 268.716C246.143 266.237 246.478 263.772 246.966 261.336C231.026 261.247 215.144 260.701 199.219 260.067C193.212 259.83 188.385 259.845 183.322 259.417L184.238 259.653L185.153 259.83C185.178 262.49 184.396 265.094 182.909 267.299C182.219 268.334 181.355 269.243 180.356 269.985C176.746 272.277 172.482 273.314 168.223 272.937C164.131 272.743 160.118 271.74 156.415 269.985C154.631 269.145 152.94 268.121 151.368 266.93C149.658 265.59 148.207 263.95 147.087 262.089C146.497 261.188 145.966 260.244 145.419 259.27C142.48 259.951 139.621 260.941 136.888 262.221C130.764 265.224 125.311 269.437 120.859 274.605C118.337 277.55 116.231 280.828 114.601 284.346C111.696 290.912 109.504 297.77 108.063 304.803L98.4245 345.806Z" fill="#1A2578"/>
<path d="M278.197 176.422L278.699 176.112H278.552C278.442 176.225 278.324 176.329 278.197 176.422Z" fill="white"/>
<g filter="url(#filter0_d_187_5651)">
<path d="M246.46 277.248C248.128 285.026 257.382 296.612 265.81 289.306C267.243 287.985 268.472 286.458 269.456 284.775C269.825 284.199 270.164 283.609 270.489 283.019C276.481 272.274 276.393 259.831 276.024 247.713C276.024 246.415 275.935 245.116 275.876 243.802C275.522 236.142 274.754 228.496 273.692 220.895C272.616 213.794 272.123 206.616 272.216 199.434C272.211 198.894 272.265 198.354 272.378 197.825C272.677 196.95 273.121 196.132 273.692 195.405C275.106 193.381 276.234 191.17 277.042 188.837C277.588 187.213 278.607 184.114 277.795 182.402L277.721 182.224C276.973 181.291 276.165 180.409 275.3 179.582C275.197 179.464 275.168 179.391 275.094 179.302C275.059 179.261 275.03 179.217 275.005 179.169V179.258L275.153 179.494C275.335 179.755 275.503 180.026 275.655 180.306C275.655 180.778 274.917 181.56 274.356 182.106L273.884 182.593L272.762 183.833C272.174 184.511 271.516 185.124 270.799 185.663L270.548 185.811C270.212 186.037 269.851 186.22 269.47 186.357L268.895 186.49C268.447 184.896 268.106 183.274 267.876 181.634C267.596 180.35 267.33 179.066 267.065 177.782V177.56C266.902 176.749 266.725 175.937 266.563 175.125C265.928 175.543 265.347 176.039 264.836 176.601C260.623 181.694 258.511 188.203 258.932 194.8C259.107 203.28 258.314 211.753 256.57 220.054C254.725 229.544 252.142 238.858 249.958 248.274C249.013 252.304 247.818 256.673 247.006 261.115C246.518 263.552 246.183 266.017 246.002 268.495C245.747 271.42 245.901 274.366 246.46 277.248Z" fill="white"/>
</g>
<path d="M116.09 392.4C114.23 389.448 112.503 386.423 110.865 383.367C108.503 378.94 106.304 374.438 104.135 369.892C101.699 364.785 99.249 359.663 96.9023 354.527V353.877L96.6956 353.464C96.7842 353.243 96.9023 353.036 96.9908 352.83C97.3351 350.466 97.7982 348.121 98.3782 345.804L108.031 304.846C109.473 297.812 111.665 290.954 114.57 284.389C112.061 284.654 109.587 285.183 107.19 285.968C95.5444 289.894 87.3379 299.96 82.6591 311.576C81.8046 313.694 81.0656 315.857 80.4452 318.056C80.4452 318.056 80.4452 318.174 80.4452 318.248C80.1795 319.222 79.9286 320.211 79.7072 321.199C79.6765 321.354 79.6371 321.507 79.5891 321.657C79.3529 322.764 79.1315 323.871 78.9397 324.978C75.4564 345.863 76.7109 370.526 81.6112 392.415H116.046L116.09 392.4Z" fill="#BF0830"/>
<path d="M197.859 391.059V389.465C197.922 388.938 198.19 388.458 198.604 388.126C199.018 387.795 199.546 387.64 200.073 387.694H207.571C205.888 386.838 204.176 386.055 202.449 385.288C199.999 384.211 197.49 383.236 194.966 382.336C192.738 381.554 190.538 380.86 188.236 380.166C185.108 379.392 182.023 378.451 178.996 377.347C175.626 375.895 172.387 374.157 169.314 372.152L150.82 360.861C145.934 357.909 141.019 354.883 135.913 352.33L135.617 352.182C132.914 350.841 130.134 349.658 127.293 348.64C119.618 345.924 106.216 342.603 99.7217 349.053C98.6192 350.151 97.7109 351.429 97.0354 352.831C96.9469 353.038 96.8288 353.245 96.7402 353.466L96.9469 353.879C100.312 361.023 103.677 368.181 107.279 375.222C109.505 376.341 111.821 377.274 114.201 378.011C119.483 379.659 124.88 380.912 130.348 381.76C134.776 382.513 139.381 383.104 143.898 383.679C153.816 384.934 163.956 385.554 172.709 390.808C173.706 391.406 174.741 391.939 175.808 392.402H198.641C198.411 392.26 198.219 392.062 198.083 391.828C197.946 391.594 197.869 391.33 197.859 391.059Z" fill="white"/>
<path d="M293.502 391.546H214.966L215.482 388.107L215.556 387.694H200.073C199.546 387.64 199.018 387.795 198.604 388.127C198.19 388.458 197.922 388.939 197.859 389.465V391.059C197.87 391.33 197.946 391.594 198.083 391.829C198.219 392.063 198.411 392.26 198.642 392.402L198.76 392.476C199.157 392.712 199.611 392.835 200.073 392.831H319.967V390.631L319.834 391.546H293.502Z" fill="black"/>
<g filter="url(#filter1_d_187_5651)">
<path d="M215.466 388.107L214.949 391.546H319.817L319.95 390.631L328.806 332.419C328.906 331.836 328.879 331.237 328.725 330.666C328.572 330.094 328.296 329.562 327.917 329.108C327.539 328.653 327.065 328.286 326.531 328.032C325.996 327.778 325.413 327.643 324.821 327.637H228.248C227.232 327.651 226.254 328.028 225.491 328.699C224.728 329.37 224.23 330.291 224.085 331.297L223.288 336.552L215.554 387.694L215.466 388.107Z" fill="white"/>
</g>
<path d="M151.736 259.225C154.836 263.918 161.596 266.796 166.85 267.372C170.126 267.899 173.484 267.41 176.474 265.97C177.685 265.274 178.693 264.273 179.398 263.066C180.102 261.859 180.478 260.489 180.488 259.092C180.488 258.929 180.488 258.767 180.488 258.605C180.629 256.795 180.911 254.999 181.33 253.232L172.474 247.151H172.739L173.345 247.284C176.427 247.946 179.607 248.021 182.717 247.505C182.348 248.79 182.009 250.088 181.713 251.402C181.861 250.856 182.407 249.277 182.924 247.668C184.985 246.559 186.72 244.931 187.957 242.945C189.727 239.918 190.941 236.599 191.543 233.144C192.517 228.598 192.827 217.499 191.366 211.551C191.015 211.758 190.644 211.931 190.259 212.067C184.96 214.045 178.658 210.68 173.522 213.027C168.385 215.374 168.666 220.082 166.304 224.097C166.031 224.534 165.698 224.932 165.315 225.277C164.488 224.115 163.324 223.235 161.98 222.757C160.636 222.28 159.178 222.227 157.803 222.606C157.587 222.666 157.375 222.74 157.168 222.827C152.858 224.628 151.382 231.594 154.408 235.093C155.138 235.909 156.061 236.529 157.094 236.893L157.404 237.011C158.244 237.269 159.127 237.359 160.002 237.277C160.002 237.395 160.002 237.469 160.002 237.513C160.002 238.369 160.002 239.402 159.352 239.875C158.987 240.087 158.561 240.17 158.142 240.111C157.898 240.082 157.657 240.038 157.419 239.978C157.419 241.454 157.419 242.93 157.419 244.406C157.419 245.026 157.419 245.661 157.286 246.28C157.286 246.472 157.286 246.664 157.286 246.856C157.286 247.328 157.168 247.815 157.094 248.332L156.961 249.011C156.873 249.483 156.755 249.956 156.637 250.487L156.459 251.122C156.258 251.814 156.016 252.494 155.736 253.158C155.273 254.271 154.726 255.347 154.098 256.376C153.684 257.015 153.235 257.631 152.755 258.221C152.489 258.531 152.238 258.856 151.958 259.151C151.88 259.16 151.804 259.185 151.736 259.225Z" fill="white"/>
<path d="M159.38 239.918C160.088 239.446 160.059 238.442 160.029 237.557C160.029 237.557 160.029 237.439 160.029 237.321C159.154 237.403 158.272 237.312 157.432 237.055L157.122 236.937C156.089 236.572 155.165 235.953 154.435 235.136C151.41 231.638 152.886 224.672 157.196 222.871C157.402 222.784 157.614 222.71 157.83 222.649C159.205 222.27 160.664 222.323 162.008 222.801C163.352 223.279 164.516 224.159 165.343 225.321C165.726 224.975 166.059 224.578 166.332 224.14C168.693 220.126 168.575 215.358 173.549 213.07C178.523 210.783 184.988 214.089 190.287 212.111C190.672 211.975 191.042 211.802 191.394 211.594C192.779 210.819 193.935 209.691 194.743 208.325C195.552 206.959 195.985 205.403 195.999 203.816C195.889 201.935 195.423 200.092 194.626 198.384C193.897 196.237 192.59 194.332 190.848 192.879C188.353 191.049 184.944 191.019 181.992 191.551C179 192.337 175.95 192.88 172.87 193.174C168.944 193.174 165.018 191.698 161.166 192.436C159.346 192.787 157.651 193.612 156.251 194.828C154.852 196.043 153.798 197.606 153.196 199.359C152.118 202.621 152.015 205.794 149.993 208.716C147.971 211.639 145.831 214.266 145.771 218.222C145.771 221.439 148.118 224.435 149.314 227.299C150.377 229.852 150.79 232.642 152.059 235.136C152.54 236.301 153.274 237.344 154.208 238.189C155.143 239.034 156.254 239.66 157.461 240.022C157.699 240.081 157.941 240.126 158.184 240.155C158.598 240.21 159.018 240.127 159.38 239.918Z" fill="black"/>
<path d="M173.371 247.329L172.766 247.196H172.5L181.356 253.277C181.444 252.805 181.533 252.333 181.636 251.801C181.668 251.695 181.693 251.586 181.71 251.477C182.005 250.163 182.345 248.864 182.714 247.58C179.611 248.082 176.442 247.997 173.371 247.329Z" fill="#222221"/>
<path d="M266.536 175.198C266.698 176.01 266.875 176.822 267.037 177.634V177.855C267.303 179.139 267.569 180.423 267.849 181.707C268.079 183.347 268.42 184.969 268.868 186.563L269.443 186.431C269.823 186.293 270.185 186.11 270.521 185.884L270.772 185.737C271.488 185.197 272.146 184.584 272.735 183.907L273.856 182.667L274.329 182.18C274.89 181.634 275.628 180.851 275.628 180.379C275.476 180.099 275.308 179.828 275.126 179.567L274.978 179.331V179.243C274.968 179.189 274.968 179.134 274.978 179.08C274.968 179.047 274.968 179.011 274.978 178.977C275.465 178.593 275.982 178.195 276.454 177.84L312.571 157.044L267.893 170.151L267.067 170.298C266.765 170.331 266.473 170.426 266.211 170.579C266.211 170.579 266.211 170.579 266.108 170.667L265.576 170.83L265.753 171.7C265.753 171.7 265.753 171.7 265.753 171.789C265.798 172.244 265.887 172.694 266.019 173.132L266.181 173.752C266.314 174.195 266.417 174.697 266.536 175.198ZM278.196 176.423C278.325 176.312 278.444 176.188 278.55 176.054H278.698L278.196 176.423Z" fill="black"/>
<path d="M151.38 266.958C152.952 268.149 154.644 269.173 156.428 270.013C160.13 271.768 164.143 272.771 168.236 272.965C172.494 273.342 176.759 272.305 180.368 270.013C181.367 269.272 182.231 268.363 182.922 267.327C184.408 265.122 185.19 262.518 185.165 259.859L184.25 259.682L183.335 259.446C182.508 259.254 181.682 259.017 180.87 258.752L180.575 258.663C180.575 258.826 180.575 258.988 180.575 259.15C180.565 260.548 180.188 261.918 179.484 263.124C178.78 264.331 177.772 265.332 176.56 266.028C173.571 267.468 170.212 267.957 166.937 267.431C161.682 266.855 154.922 263.977 151.823 259.283C151.601 258.944 151.41 258.589 151.218 258.235C151.218 258.117 151.085 257.999 151.026 257.866C149.235 258.496 147.4 258.989 145.535 259.342C146.081 260.316 146.613 261.261 147.203 262.161C148.297 263.998 149.711 265.623 151.38 266.958ZM150.125 260.789C150.316 260.658 150.499 260.515 150.672 260.361C150.499 260.515 150.316 260.658 150.125 260.789ZM151.291 259.77L150.922 260.124L151.291 259.77Z" fill="black"/>
<path d="M160.369 226.614C159.825 226.676 159.299 226.846 158.821 227.115C158.344 227.384 157.926 227.746 157.592 228.18C157.257 228.613 157.013 229.11 156.874 229.639C156.735 230.169 156.704 230.722 156.783 231.264" fill="white"/>
<path d="M160.369 226.614C159.825 226.676 159.299 226.846 158.821 227.115C158.344 227.384 157.926 227.746 157.592 228.18C157.257 228.613 157.013 229.11 156.874 229.639C156.735 230.169 156.704 230.722 156.783 231.264" stroke="#222221" stroke-width="0.5" stroke-miterlimit="10"/>
<path opacity="0.4" d="M641.506 366.427C643.886 362.755 642.839 357.85 639.167 355.47C635.495 353.09 630.589 354.137 628.21 357.809C625.83 361.481 626.877 366.386 630.549 368.766C634.22 371.146 639.126 370.099 641.506 366.427Z" stroke="#FFDA32" stroke-width="4.5" stroke-miterlimit="10"/>
<g filter="url(#filter2_d_187_5651)">
<path d="M390.848 96.001C390.875 94.907 390.967 93.8155 391.122 92.7322C391.122 92.6043 391.122 92.4765 391.122 92.3487C391.268 91.326 391.469 90.3034 391.688 89.299L391.797 88.7511C392.016 87.765 392.272 86.7789 392.546 85.811L392.71 85.2449C392.984 84.2588 393.277 83.2726 393.587 82.3048C393.587 82.0856 393.715 81.8847 393.788 81.6656C394.135 80.5516 394.5 79.4377 394.847 78.3055C395.048 77.7028 395.231 77.0819 395.431 76.4793C395.632 75.8767 395.851 75.0549 396.052 74.3427C396.162 73.9774 396.29 73.6122 396.381 73.2287C396.472 72.8452 396.783 71.9321 396.965 71.293C397.076 70.9143 397.167 70.5304 397.239 70.1425C397.309 68.9948 397.62 67.8748 398.152 66.8554C398.372 66.5518 398.561 66.2277 398.719 65.8875C398.808 65.7221 398.855 65.5369 398.855 65.3488C398.855 65.1607 398.808 64.9756 398.719 64.8101C398.502 64.5956 398.228 64.4486 397.93 64.387C397.632 64.3253 397.322 64.3518 397.038 64.4631C396.788 64.5353 396.544 64.6269 396.308 64.737C395.704 65.0538 395.17 65.4885 394.737 66.0154C394.486 66.3102 394.254 66.6213 394.044 66.9467C393.282 68.51 392.291 69.9504 391.103 71.2199C390.501 71.6999 389.794 72.0314 389.04 72.1878C388.955 71.869 388.888 71.546 388.839 71.2199H371.29C370.723 78.835 369.701 86.7241 368.349 94.7409C368.258 95.2705 368.185 95.7818 368.094 96.2932C375.719 97.0811 383.383 97.4408 391.049 97.3706C390.848 96.9506 390.848 96.4758 390.848 96.001Z" fill="white"/>
</g>
<path d="M390.958 71.2567C390.958 71.2567 391.049 71.2567 391.068 71.2567C392.256 69.9872 393.247 68.5468 394.008 66.9835C394.337 66.2713 394.647 65.5774 394.957 64.9565C395.142 64.8138 395.36 64.7219 395.591 64.6898C395.821 64.6578 396.056 64.6868 396.272 64.7738C396.508 64.6637 396.752 64.5721 397.003 64.4999C397.286 64.3886 397.596 64.3621 397.894 64.4237C398.193 64.4853 398.467 64.6324 398.683 64.8469C398.772 65.0123 398.819 65.1975 398.819 65.3856C398.819 65.5737 398.772 65.7589 398.683 65.9243C398.526 66.2645 398.336 66.5886 398.117 66.8922C397.585 67.9116 397.274 69.0316 397.204 70.1793C397.132 70.5672 397.04 70.9511 396.93 71.3298H436.941V0.109375C436.941 0.109375 384.457 32.3594 380.33 35.7378L323.719 0.109375V71.3298H390.867L390.958 71.2567Z" fill="#3442AC"/>
<path d="M437.033 0H323.811L380.422 35.6285C384.549 32.25 437.033 0 437.033 0Z" fill="#010209"/>
<path d="M394.955 64.8838C394.645 65.5047 394.335 66.1986 394.006 66.9108C394.216 66.5854 394.448 66.2743 394.7 65.9795C395.132 65.4526 395.667 65.0179 396.27 64.7012C396.054 64.6141 395.819 64.5851 395.589 64.6172C395.358 64.6492 395.14 64.7411 394.955 64.8838Z" fill="#1A2578"/>
<path d="M523.902 153.106C523.835 154.28 523.835 155.457 523.902 156.631C523.893 154.717 524.039 152.805 524.34 150.915C524.432 150.257 524.541 149.582 524.632 148.924C524.724 148.267 524.833 147.354 524.943 146.568C524.833 147.134 524.705 147.901 524.578 148.705C524.158 150.604 523.92 152.777 523.902 153.106Z" fill="white"/>
<path d="M498.026 183.804C503.084 189.009 511.868 191.876 518.205 187.219C522.109 184.041 524.592 179.443 525.108 174.436C524.998 170.565 524.505 166.711 524.176 162.876C524.176 162.876 515.356 161.507 509.567 160.192C510.764 159.884 511.936 159.488 513.073 159.005C515.929 157.814 518.475 155.988 520.52 153.665C522.564 151.342 524.052 148.585 524.87 145.601H525.035C525.035 145.199 525.144 144.797 525.181 144.396C525.217 143.994 525.345 143.921 525.4 143.665C525.583 142.807 525.729 141.948 525.893 141.09C526.94 140.949 527.941 140.569 528.819 139.98C529.697 139.392 530.428 138.61 530.957 137.695C531.486 136.78 531.798 135.756 531.87 134.702C531.942 133.647 531.772 132.591 531.372 131.612C531.192 131.071 530.92 130.564 530.568 130.115C529.811 129.17 528.796 128.466 527.646 128.088C526.83 127.785 525.958 127.66 525.09 127.723C524.204 127.81 523.346 128.076 522.567 128.507C521.788 128.937 521.106 129.521 520.561 130.225C520.533 129.707 520.533 129.189 520.561 128.672C520.67 126.846 520.798 125.02 520.908 123.194C521.052 122.053 520.984 120.895 520.707 119.779C520.376 118.888 519.847 118.083 519.161 117.425C518.475 116.768 517.648 116.274 516.744 115.98C514.932 115.398 513.041 115.102 511.138 115.104C505.146 115.065 499.172 114.453 493.296 113.278C492.449 113.067 491.614 112.811 490.794 112.511C489.013 115.104 487.851 118.072 487.398 121.185C486.886 124.034 487.051 128.928 485.571 131.649C485.417 133.074 485.344 134.507 485.352 135.94C485.352 137.474 485.444 142.478 485.663 144.012C486.649 150.86 489.443 156.101 494.282 158.822C494.282 159.041 494.282 159.242 494.282 159.461C493.88 164.191 493.46 168.939 493.059 173.669C493.059 174.016 493.059 174.381 492.967 174.746C493.375 176.312 493.989 177.817 494.794 179.221C495.631 180.904 496.721 182.45 498.026 183.804Z" fill="white"/>
<path d="M513.039 158.949C511.902 159.431 510.73 159.828 509.533 160.136C515.359 161.451 524.143 162.82 524.143 162.82C524.143 161.25 523.887 158.839 523.814 156.648C523.747 155.474 523.747 154.297 523.814 153.123C523.814 152.795 524.143 150.621 524.435 148.722C524.563 147.919 524.69 147.152 524.8 146.586C524.826 146.264 524.907 145.949 525.037 145.654H524.91H524.745C523.921 148.609 522.441 151.339 520.414 153.641C518.387 155.943 515.866 157.758 513.039 158.949Z" fill="#161111"/>
<path d="M490.832 112.473C491.652 112.772 492.487 113.028 493.334 113.24C499.209 114.415 505.184 115.027 511.175 115.066C513.078 115.064 514.97 115.36 516.782 115.942C517.686 116.236 518.512 116.73 519.198 117.387C519.885 118.045 520.413 118.85 520.744 119.741C521.022 120.857 521.09 122.015 520.945 123.156C520.836 124.982 520.708 126.808 520.598 128.634C520.571 129.151 520.571 129.669 520.598 130.186C521.143 129.483 521.826 128.899 522.605 128.468C523.383 128.038 524.242 127.772 525.127 127.685C525.996 127.622 526.868 127.746 527.684 128.05C528.834 128.428 529.849 129.132 530.606 130.077C530.958 130.526 531.229 131.033 531.409 131.574C531.654 130.894 531.856 130.199 532.012 129.493C532.743 126.165 533.292 122.8 533.655 119.412C534.203 115.834 534.023 112.181 533.126 108.674C532.327 106.321 531.061 104.154 529.404 102.303C527.748 100.451 525.734 98.9538 523.484 97.8999C519.889 96.4706 516.047 95.7692 512.18 95.8363L498.374 94.9963C495.776 94.6899 493.143 94.9388 490.649 95.7268C489.69 96.1032 488.825 96.6825 488.111 97.4251C486.922 98.982 486.134 100.807 485.815 102.74C485.497 104.673 485.658 106.654 486.285 108.51C483.874 112.363 484.239 118.335 484.459 122.626C484.438 125.518 484.59 128.409 484.915 131.282C484.948 131.619 485.041 131.946 485.189 132.25C485.35 132.039 485.491 131.812 485.609 131.574C487.125 128.853 486.96 123.959 487.435 121.11C487.894 118.01 489.055 115.055 490.832 112.473Z" fill="#161111"/>
<path d="M552.772 404.312C554.032 426.847 554.598 449.418 555.255 471.88C555.937 495.146 556.46 518.417 556.826 541.694C557.191 564.972 557.398 588.243 557.447 611.509C557.447 623.147 557.447 634.786 557.447 646.425C557.447 652.086 557.446 657.765 557.355 663.427V666.915C561.008 666.421 567.107 665.362 567.198 664.34C570.467 628.145 570.339 599.054 571.088 561.034C571.654 532.454 568.805 497.337 569.591 469.305C570.431 439.155 571.051 410.028 566.285 380.061C565.133 373.37 563.609 366.749 561.72 360.229C558.451 360.502 553.265 360.795 547.238 361.105C550.799 375.258 551.968 390.123 552.772 404.312Z" fill="#1A2578"/>
<path d="M552.28 667.499C552.28 665.581 552.372 663.645 552.372 661.728C552.372 655.409 552.372 649.073 552.481 642.754V642.042C552.481 629.198 552.481 616.366 552.481 603.546C552.323 557.6 551.58 511.654 550.253 465.708C549.614 443.337 549.103 420.948 547.752 398.614C546.996 386.109 545.361 373.672 542.857 361.397C524.906 362.237 502.317 362.968 499.03 362.876C487.625 362.625 476.245 361.686 464.953 360.064C459.475 359.242 454.088 358.238 448.719 357.051C446.783 356.612 444.829 355.864 442.875 355.225C439.917 369.122 438.62 383.329 436.703 398.432C432.843 428.795 428.832 459.133 424.668 489.448C416.755 547.057 408.3 604.593 399.303 662.057C402.024 662.714 404.781 663.298 407.484 663.883C410.795 664.504 414.119 665.009 417.455 665.399C424.732 666.19 432.063 666.361 439.369 665.91C442.711 665.727 446.053 665.453 449.376 665.052C459.724 612.823 470.797 560.735 482.594 508.787C486.484 491.639 489.899 474.765 493.551 458.184C493.35 458.531 493.131 458.75 492.894 458.732C492.894 457.088 492.894 455.463 492.894 453.837C493.113 451.555 493.387 449.272 493.661 446.989C494.336 441.511 494.574 435.832 495.268 430.28C495.962 424.728 496.71 419.67 497.623 414.411C498.025 412.164 498.409 409.918 498.719 407.672C498.719 407.416 498.81 407.142 498.847 406.887C498.975 409.991 499.011 413.315 499.048 416.639C499.048 422.336 499.048 428.034 499.431 432.709C503.577 472.994 507.156 513.352 509.658 553.783C510.875 574.407 511.849 595.03 512.58 615.654C513.128 632.765 516.323 651.355 515.629 668.12C518.456 668.601 521.311 668.894 524.176 668.996C533.565 669.053 542.95 668.553 552.28 667.499Z" fill="#1A2578"/>
<path d="M557.434 646.517C557.434 634.878 557.434 623.239 557.434 611.6C557.434 588.335 557.227 565.064 556.813 541.786C556.399 518.509 555.864 495.237 555.206 471.972C554.549 449.419 553.983 426.847 552.723 404.404C551.919 390.215 550.75 375.35 547.244 361.288L542.861 361.489C545.365 373.764 547 386.201 547.755 398.706C549.107 421.04 549.582 443.429 550.257 465.799C551.572 511.721 552.315 557.668 552.485 603.638C552.485 616.482 552.485 629.314 552.485 642.134V642.846C552.485 649.165 552.485 655.501 552.376 661.82C552.376 663.737 552.376 665.673 552.284 667.591L554.22 667.445H554.951C555.297 667.445 556.192 667.317 557.343 667.152V663.664C557.398 657.857 557.416 652.251 557.434 646.517Z" fill="black"/>
<g filter="url(#filter3_d_187_5651)">
<path d="M568.608 298.652H566.964C565.367 298.57 563.782 298.325 562.234 297.922C561.887 297.812 561.577 297.666 561.266 297.538L561.431 302.414C560.591 302.706 559.714 302.962 558.838 303.199C552.738 304.752 546.182 304.77 539.9 305.409C539.423 305.472 538.962 305.628 538.545 305.869C538.129 306.111 537.764 306.432 537.472 306.815C537.231 307.113 537.076 307.471 537.021 307.85C536.967 308.229 537.015 308.616 537.161 308.97C537.161 309.189 537.837 310.559 538.202 310.267C537.724 310.616 537.338 311.075 537.077 311.607C536.816 312.138 536.688 312.725 536.704 313.316C536.744 313.905 536.998 314.459 537.419 314.873C537.84 315.287 538.398 315.532 538.987 315.562C538.804 315.759 538.69 316.01 538.664 316.277C538.637 316.545 538.7 316.813 538.841 317.042C539.126 317.498 539.539 317.86 540.028 318.083C541.218 318.75 542.539 319.149 543.9 319.251C541.836 319.251 543.662 321.991 544.447 322.465C546.432 323.293 548.561 323.715 550.711 323.707C554.553 324.064 558.426 323.879 562.216 323.159C562.983 323.013 563.75 322.885 564.499 322.703C571.493 320.986 577.921 317.48 584.842 315.526C585.682 315.289 586.504 315.069 587.344 314.887C586.696 308.861 585.473 302.911 583.692 297.118C578.729 298.143 573.675 298.657 568.608 298.652Z" fill="white"/>
</g>
<path d="M656.539 273.925C654.484 273.306 652.663 272.084 651.311 270.417C649.96 268.749 649.141 266.714 648.961 264.575C648.176 255.572 654.439 251.226 660.794 250.715C654.147 216.017 619.797 192.277 587.182 181.905C568.281 175.878 548.321 173.833 528.47 173.212C527.316 173.146 526.198 172.788 525.22 172.171C525.228 172.903 525.191 173.635 525.11 174.363C524.594 179.37 522.112 183.968 518.207 187.146C511.871 191.803 503.087 188.972 498.028 183.731C496.689 182.372 495.567 180.813 494.705 179.111C493.9 177.707 493.286 176.202 492.879 174.637C492.812 174.354 492.763 174.067 492.732 173.778C473.941 178.91 451.333 179.257 431.994 178.271C422.717 177.778 409.715 176.664 403.707 169.578C391.161 154.768 395.361 114.903 397.096 97.2255C394.941 97.2255 392.896 97.2255 390.887 97.3351C383.221 97.4053 375.558 97.0456 367.932 96.2576C366.106 96.075 364.28 95.8741 362.289 95.6367H361.596C357.286 121.714 352.72 157.032 355.533 183.293C355.679 184.699 355.916 186.05 356.19 187.383C357.492 186.368 358.982 185.621 360.574 185.185C362.167 184.75 363.83 184.634 365.467 184.845C367.904 185.213 370.175 186.301 371.988 187.971C373.801 189.641 375.072 191.815 375.639 194.213C376.117 196.629 375.799 199.134 374.733 201.354C373.666 203.573 371.907 205.387 369.722 206.521C368.928 206.903 368.096 207.196 367.238 207.398C387.107 227.486 427.137 232.398 451.078 229.166C451.297 235.561 450.911 241.963 449.927 248.286C449.178 254.55 447.973 260.759 447.188 267.022C445.666 279.197 444.108 291.371 442.513 303.546C440.322 320.212 438.021 336.879 435.61 353.546C438.114 353.624 440.586 354.137 442.915 355.062C444.869 355.719 446.823 356.468 448.758 356.888C454.127 358.093 459.551 359.079 464.993 359.901C476.278 361.54 487.651 362.498 499.051 362.768C502.338 362.859 524.928 362.129 542.879 361.289L547.262 361.088C553.288 360.778 558.474 360.485 561.743 360.211C563.024 360.226 564.299 360.041 565.523 359.664C564.207 352.549 563.286 345.368 562.766 338.151L562.218 323.085C558.428 323.806 554.555 323.99 550.713 323.633C548.563 323.642 546.434 323.219 544.449 322.392C543.664 321.917 541.838 319.214 543.902 319.178C542.541 319.075 541.22 318.676 540.03 318.009C539.541 317.786 539.128 317.424 538.843 316.968C538.702 316.739 538.639 316.471 538.666 316.204C538.692 315.936 538.806 315.685 538.989 315.489C538.4 315.459 537.842 315.213 537.421 314.799C537 314.385 536.746 313.831 536.706 313.242C536.69 312.651 536.818 312.064 537.079 311.533C537.34 311.002 537.726 310.542 538.204 310.193C537.839 310.485 537.236 309.115 537.163 308.896C537.017 308.542 536.969 308.155 537.023 307.776C537.078 307.397 537.233 307.04 537.473 306.741C537.766 306.358 538.131 306.037 538.547 305.796C538.964 305.554 539.425 305.398 539.902 305.335C546.184 304.696 552.685 304.678 558.84 303.126C559.716 302.888 560.666 302.632 561.433 302.34L561.268 297.464C561.159 294.798 561.068 292.132 560.958 289.466C560.154 267.552 564.409 246.186 565.962 224.527L566.309 224.619C577.704 227.431 590.797 231.649 599.18 236.799C600.279 237.47 601.34 238.201 602.357 238.991C610.703 245.565 616.692 256.394 614.026 266.675C612.2 273.487 607.05 279.002 600.987 282.581C594.784 285.933 588.138 288.393 581.247 289.886C582.178 292.242 583.073 294.634 583.73 297.063C585.512 302.855 586.735 308.805 587.383 314.831C587.675 317.662 587.839 320.529 587.876 323.396C587.876 324.492 616.747 316.566 619.267 315.58C628.067 311.967 636.207 306.92 643.354 300.642C651.548 293.797 657.403 284.566 660.1 274.236C658.904 274.352 657.697 274.247 656.539 273.925ZM541.601 250.185C541.197 252.971 540.281 255.658 538.898 258.111C538.196 259.326 537.25 260.383 536.118 261.213C534.986 262.043 533.694 262.628 532.324 262.932C522.152 264.648 517.185 254.531 516.911 246.295C516.911 243.282 516.655 239.338 516.911 236.306C516.911 236.014 540.651 236.416 543.043 236.306C542.422 240.945 542.422 245.601 541.601 250.222V250.185Z" fill="#BF0830"/>
<path d="M661.12 252.138L660.846 250.714C654.418 251.225 648.228 255.571 649.013 264.574C649.193 266.713 650.012 268.748 651.363 270.416C652.715 272.083 654.536 273.306 656.591 273.924C657.754 274.222 658.961 274.302 660.152 274.162C662.031 266.972 662.36 259.465 661.12 252.138Z" fill="#161111"/>
<path d="M375.656 194.249C375.089 191.85 373.817 189.676 372.005 188.007C370.192 186.337 367.921 185.249 365.484 184.881C363.847 184.67 362.184 184.785 360.591 185.221C358.999 185.657 357.509 186.404 356.207 187.419C357.838 195.054 361.681 202.04 367.255 207.507C368.112 207.305 368.945 207.011 369.739 206.63C371.938 205.492 373.706 203.667 374.774 201.432C375.842 199.197 376.152 196.675 375.656 194.249Z" fill="#161111"/>
<path d="M516.852 236.343C516.688 239.374 516.852 243.319 516.852 246.332C517.126 254.568 522.093 264.685 532.265 262.968C533.635 262.665 534.928 262.079 536.059 261.249C537.191 260.419 538.138 259.363 538.839 258.147C540.222 255.695 541.138 253.008 541.542 250.222C542.4 245.602 542.364 240.945 542.893 236.306C540.592 236.452 516.852 236.051 516.852 236.343Z" fill="#161111"/>
<path opacity="0.2" d="M535.712 50.9787C542.009 50.9787 547.115 45.5731 547.115 38.9049C547.115 32.2367 542.009 26.8311 535.712 26.8311C529.414 26.8311 524.309 32.2367 524.309 38.9049C524.309 45.5731 529.414 50.9787 535.712 50.9787Z" stroke="#BF0830" stroke-width="5"/>
<defs>
<filter id="filter0_d_187_5651" x="219.883" y="153.125" width="84.2146" height="168.502" filterUnits="userSpaceOnUse" color-interpolation-filters="sRGB">
<feFlood flood-opacity="0" result="BackgroundImageFix"/>
<feColorMatrix in="SourceAlpha" type="matrix" values="0 0 0 0 0 0 0 0 0 0 0 0 0 0 0 0 0 0 127 0" result="hardAlpha"/>
<feOffset dy="4"/>
<feGaussianBlur stdDeviation="13"/>
<feComposite in2="hardAlpha" operator="out"/>
<feColorMatrix type="matrix" values="0 0 0 0 0 0 0 0 0 0 0 0 0 0 0 0 0 0 0.19 0"/>
<feBlend mode="normal" in2="BackgroundImageFix" result="effect1_dropShadow_187_5651"/>
<feBlend mode="normal" in="SourceGraphic" in2="effect1_dropShadow_187_5651" result="shape"/>
</filter>
<filter id="filter1_d_187_5651" x="188.949" y="305.637" width="165.916" height="115.91" filterUnits="userSpaceOnUse" color-interpolation-filters="sRGB">
<feFlood flood-opacity="0" result="BackgroundImageFix"/>
<feColorMatrix in="SourceAlpha" type="matrix" values="0 0 0 0 0 0 0 0 0 0 0 0 0 0 0 0 0 0 127 0" result="hardAlpha"/>
<feOffset dy="4"/>
<feGaussianBlur stdDeviation="13"/>
<feComposite in2="hardAlpha" operator="out"/>
<feColorMatrix type="matrix" values="0 0 0 0 0 0 0 0 0 0 0 0 0 0 0 0 0 0 0.19 0"/>
<feBlend mode="normal" in2="BackgroundImageFix" result="effect1_dropShadow_187_5651"/>
<feBlend mode="normal" in="SourceGraphic" in2="effect1_dropShadow_187_5651" result="shape"/>
</filter>
<filter id="filter2_d_187_5651" x="356.094" y="56.3545" width="54.7612" height="57.0247" filterUnits="userSpaceOnUse" color-interpolation-filters="sRGB">
<feFlood flood-opacity="0" result="BackgroundImageFix"/>
<feColorMatrix in="SourceAlpha" type="matrix" values="0 0 0 0 0 0 0 0 0 0 0 0 0 0 0 0 0 0 127 0" result="hardAlpha"/>
<feOffset dy="4"/>
<feGaussianBlur stdDeviation="6"/>
<feComposite in2="hardAlpha" operator="out"/>
<feColorMatrix type="matrix" values="0 0 0 0 0 0 0 0 0 0 0 0 0 0 0 0 0 0 0.25 0"/>
<feBlend mode="normal" in2="BackgroundImageFix" result="effect1_dropShadow_187_5651"/>
<feBlend mode="normal" in="SourceGraphic" in2="effect1_dropShadow_187_5651" result="shape"/>
</filter>
<filter id="filter3_d_187_5651" x="510.703" y="275.118" width="102.641" height="78.7655" filterUnits="userSpaceOnUse" color-interpolation-filters="sRGB">
<feFlood flood-opacity="0" result="BackgroundImageFix"/>
<feColorMatrix in="SourceAlpha" type="matrix" values="0 0 0 0 0 0 0 0 0 0 0 0 0 0 0 0 0 0 127 0" result="hardAlpha"/>
<feOffset dy="4"/>
<feGaussianBlur stdDeviation="13"/>
<feComposite in2="hardAlpha" operator="out"/>
<feColorMatrix type="matrix" values="0 0 0 0 0 0 0 0 0 0 0 0 0 0 0 0 0 0 0.19 0"/>
<feBlend mode="normal" in2="BackgroundImageFix" result="effect1_dropShadow_187_5651"/>
<feBlend mode="normal" in="SourceGraphic" in2="effect1_dropShadow_187_5651" result="shape"/>
</filter>
</defs>
</svg>
