<svg width="591" height="383" viewBox="0 0 591 383" fill="none" xmlns="http://www.w3.org/2000/svg">
<path d="M381.317 79.1396C380.924 73.4162 375.743 68.0734 370.038 67.5221C368.539 67.3748 367.026 67.4948 365.57 67.8765C365.37 67.9431 365.157 67.959 364.95 67.923C364.742 67.8869 364.547 67.7999 364.382 67.6699C364.216 67.5398 364.086 67.3707 364.002 67.1776C363.917 66.9846 363.882 66.7737 363.9 66.5638V19.2139C363.9 14.118 361.877 9.2309 358.277 5.6276C354.677 2.0243 349.794 0 344.703 0H215.689C210.598 -1.32098e-07 205.715 2.02415 202.114 5.62733C198.513 9.2305 196.489 14.1176 196.488 19.2139V64.5772C196.489 65.075 196.602 65.5663 196.819 66.0143C197.036 66.4623 197.351 66.8555 197.741 67.1643C198.132 67.4732 198.586 67.6898 199.072 67.798C199.557 67.9061 200.061 67.9031 200.545 67.789C202.407 67.3536 204.343 67.3493 206.206 67.7761C208.069 68.203 209.811 69.0499 211.297 70.2523C212.784 71.4546 213.977 72.9808 214.785 74.7144C215.594 76.4481 215.996 78.3435 215.962 80.2564C215.927 82.1692 215.457 84.049 214.587 85.7525C213.717 87.456 212.47 88.9383 210.942 90.0864C209.413 91.2346 207.642 92.0184 205.765 92.3781C203.887 92.7377 201.953 92.6638 200.108 92.1618C199.685 92.0432 199.239 92.0241 198.807 92.1061C198.375 92.1881 197.967 92.3689 197.617 92.6345C197.266 92.9001 196.981 93.2433 196.785 93.6372C196.588 94.0311 196.485 94.4652 196.484 94.9054V148.338C196.484 150.861 196.981 153.36 197.946 155.692C198.91 158.024 200.325 160.142 202.108 161.927C203.891 163.712 206.008 165.127 208.337 166.093C210.667 167.059 213.164 167.556 215.685 167.556H266.399C266.634 167.557 266.866 167.608 267.08 167.706C267.294 167.804 267.485 167.946 267.64 168.123C267.795 168.3 267.91 168.508 267.979 168.733C268.048 168.958 268.068 169.195 268.038 169.429C267.836 171.198 268.013 172.99 268.555 174.687C269.098 176.383 269.995 177.944 271.186 179.267C272.377 180.59 273.836 181.644 275.465 182.361C277.094 183.077 278.857 183.438 280.636 183.42C282.416 183.403 284.171 183.007 285.786 182.259C287.401 181.511 288.838 180.428 290.003 179.082C291.169 177.736 292.034 176.157 292.544 174.451C293.053 172.744 293.194 170.949 292.958 169.184C292.933 168.979 292.952 168.771 293.014 168.574C293.075 168.377 293.178 168.195 293.316 168.041C293.453 167.887 293.622 167.764 293.81 167.681C293.999 167.597 294.203 167.554 294.409 167.556H344.685C349.778 167.556 354.662 165.531 358.263 161.927C361.864 158.323 363.887 153.435 363.887 148.338V94.0128C363.885 93.7511 363.942 93.4924 364.053 93.2556C364.164 93.0188 364.327 92.8101 364.53 92.6447C364.732 92.4793 364.97 92.3614 365.224 92.2998C365.478 92.2382 365.742 92.2344 365.998 92.2887C367.908 92.7211 369.892 92.7006 371.793 92.2289C373.693 91.7572 375.457 90.8473 376.943 89.572C378.43 88.2966 379.598 86.6911 380.354 84.8836C381.111 83.076 381.435 81.1165 381.3 79.1615L381.317 79.1396Z" fill="#1A2578"/>
<path d="M345.582 167.202H320.614C318.939 161.01 317.392 155.51 316.111 151.173C314.484 145.638 313.304 141.984 312.893 141.223C311.249 138.16 317.562 128.765 322.787 125.908C323.693 125.389 324.673 125.013 325.694 124.792C328.92 124.158 331.137 125.995 333.227 128.595C334.779 130.52 337.974 132.095 340.698 136.348C341.564 137.711 342.286 139.16 342.853 140.672C345.501 147.683 347.738 154.842 349.555 162.113C349.704 162.717 349.713 163.346 349.583 163.955C349.452 164.563 349.186 165.133 348.803 165.623C348.421 166.113 347.932 166.51 347.374 166.783C346.816 167.057 346.203 167.2 345.582 167.202Z" fill="#E0E0E0"/>
<path d="M305.833 59.7905C305.833 59.7905 308.416 47.1008 297.15 44.913C285.884 42.7251 287.703 51.5772 285.451 53.5857C283.2 55.5942 287.851 62.5385 293.242 63.8862C298.632 65.2339 305.833 59.7905 305.833 59.7905Z" fill="#30262A"/>
<path d="M334.967 167.201H245.693C245.693 167.201 242.1 154.451 242.799 148.491C243.114 145.795 243.486 143.179 243.927 140.671C244.219 138.968 244.545 137.322 244.907 135.735C244.99 135.354 245.097 134.979 245.226 134.611C245.455 133.925 245.808 133.288 246.266 132.729C249.895 128.454 258.166 134.418 260.82 128.765C260.82 128.765 265.419 118.377 277.652 113.45C279.676 112.637 281.774 112.02 283.917 111.608C288.086 110.828 292.349 110.691 296.56 111.201L297.771 111.341H297.802L299.034 111.498C308.84 112.78 320.08 115.581 325.703 124.792C327.142 127.186 328.144 129.817 328.662 132.563C329.362 136.064 330.105 139.652 330.848 143.406C332.291 150.582 333.729 158.362 334.967 167.201Z" fill="#BF0830"/>
<path d="M231.345 131.959L256.807 149.589C256.807 149.589 302.519 156.249 314.865 151.659C328.977 146.408 342.255 135.066 342.255 135.066C342.255 135.066 333.1 114.872 298.995 111.407C295.03 111.004 280.358 111.599 276.48 112.185C241.304 117.528 231.345 131.959 231.345 131.959Z" fill="#BF0830"/>
<path d="M231.345 131.959C229.74 134.436 231.314 141.621 239.852 146.815C248.391 152.009 254.914 153.173 256.807 149.589C258.232 146.889 254.542 137.6 246.406 132.808C238.021 127.868 232.495 130.196 231.345 131.959Z" fill="#30262A"/>
<path d="M253.239 151.637C252.522 152.591 249.628 158.542 245.693 167.202H220.839C220.053 167.202 219.279 167.005 218.589 166.627C217.899 166.25 217.315 165.706 216.89 165.043C216.465 164.381 216.213 163.623 216.158 162.838C216.102 162.052 216.245 161.266 216.572 160.551C218.834 155.632 221.209 150.965 223.699 146.548C227.126 140.492 228.997 137.609 230.908 135.561C231.258 135.189 231.607 134.847 231.966 134.515C232.435 134.089 232.958 133.727 233.522 133.438C236.722 131.776 241.496 132.034 245.226 134.589C245.405 134.707 245.584 134.834 245.759 134.97C248.999 137.451 252.277 143.017 253.366 147.183C253.864 149.13 253.895 150.753 253.239 151.637Z" fill="#E0E0E0"/>
<path d="M276.427 112.221C280.799 117.323 291.344 120.569 297.089 117.703C301.985 115.266 298.995 111.429 298.995 111.429C296.608 111.372 293.661 107.679 293.46 105.302L293.224 102.375L293.106 100.927L292.721 96.2885L292.38 92.1228L290.977 75.0574L286.513 92.4028L285.752 95.3608L283.129 105.552C282.713 107.147 281.88 108.602 280.716 109.768C279.552 110.934 278.099 111.768 276.506 112.186L276.427 112.221Z" fill="#E0E0E0"/>
<path d="M285.73 95.3606C285.73 95.3606 288.598 100.406 293.106 100.896L292.721 96.2576C289.91 95.6975 285.73 95.3606 285.73 95.3606Z" fill="#30262A"/>
<path d="M271.47 75.1973C271.47 75.1973 272.55 77.8664 271.841 83.7956C270.801 92.4727 280.83 94.468 282.893 91.7157C283.147 91.3787 280.554 77.2976 280.554 77.2976L277.241 75.9849L271.47 75.1973Z" fill="#30262A"/>
<path d="M295.184 97.2426C303.943 95.8823 309.684 86.0118 308.007 75.1962C306.33 64.3806 297.871 56.7155 289.112 58.0758C280.353 59.4361 274.612 69.3066 276.288 80.1222C277.965 90.9378 286.425 98.6028 295.184 97.2426Z" fill="#E0E0E0"/>
<path d="M296.131 61.5888C295.786 62.2583 299.843 71.9418 281.573 77.2452C263.303 82.5486 270.989 58.167 284.668 55.5153C304.416 51.6909 309.382 64.6125 308.219 69.719C307.056 74.8255 296.131 61.5888 296.131 61.5888Z" fill="#30262A"/>
<path d="M283.108 73.7141C283.108 73.7141 276.734 82.9382 280.651 90.7489C280.651 90.7489 275.483 86.6007 275.107 84.8154C274.731 83.0301 274.893 76.3264 274.893 76.3264L283.108 73.7141Z" fill="#30262A"/>
<path d="M278.88 82.6842C280.944 84.1195 283.484 83.9051 284.563 82.2029C285.643 80.5008 284.826 77.9584 282.762 76.5145C280.699 75.0705 278.163 75.2936 277.079 76.9958C275.995 78.6979 276.821 81.2446 278.88 82.6842Z" fill="#E0E0E0"/>
<path d="M293.723 77.5471C293.792 77.5157 293.85 77.4635 293.889 77.3976C293.927 77.3318 293.944 77.2556 293.937 77.1797C293.931 77.1037 293.901 77.0317 293.851 76.9737C293.802 76.9156 293.735 76.8744 293.662 76.8557C292.822 76.6028 291.922 76.6376 291.105 76.9547C290.288 77.2717 289.6 77.8529 289.15 78.606C289.095 78.6858 289.075 78.7837 289.092 78.8787C289.109 78.9736 289.163 79.058 289.242 79.1136C289.324 79.1613 289.421 79.1783 289.514 79.1615C289.608 79.1446 289.693 79.0951 289.753 79.0217C290.805 78.1326 292.12 77.6158 293.495 77.5515C293.57 77.5744 293.649 77.5729 293.723 77.5471Z" fill="#080435"/>
<path d="M291.484 81.958C291.594 82.8331 292.188 83.4632 292.796 83.3845C293.404 83.3057 293.845 82.5443 293.74 81.6779C293.635 80.8115 293.041 80.1727 292.429 80.2514C291.817 80.3302 291.379 81.0916 291.484 81.958Z" fill="#080435"/>
<path d="M306.891 77.429C306.968 77.4269 307.042 77.4008 307.103 77.3544C307.164 77.308 307.209 77.2435 307.232 77.1701C307.254 77.0967 307.253 77.0181 307.229 76.9452C307.205 76.8724 307.158 76.8089 307.096 76.7639C306.412 76.2154 305.565 75.9097 304.688 75.8946C303.812 75.8796 302.955 76.1561 302.252 76.6808C302.172 76.7336 302.115 76.8159 302.095 76.91C302.074 77.0041 302.092 77.1025 302.143 77.1839C302.201 77.2592 302.284 77.3114 302.377 77.3314C302.469 77.3514 302.566 77.3379 302.65 77.2933C303.962 76.8731 305.375 76.8962 306.672 77.359C306.736 77.4048 306.812 77.4293 306.891 77.429Z" fill="#080435"/>
<path d="M303.127 80.6541C302.895 81.4942 303.201 82.3125 303.813 82.4788C304.425 82.6451 305.103 82.1025 305.334 81.2623C305.566 80.4222 305.256 79.6039 304.648 79.4333C304.04 79.2626 303.376 79.8096 303.127 80.6541Z" fill="#080435"/>
<g opacity="0.3">
<path opacity="0.3" d="M291.335 89.546C294.754 89.3342 297.274 85.0778 296.963 80.0391C296.651 75.0003 293.627 71.0872 290.207 71.299C286.787 71.5107 284.268 75.7671 284.579 80.8059C284.89 85.8446 287.915 89.7577 291.335 89.546Z" fill="white"/>
</g>
<g opacity="0.3">
<path opacity="0.3" d="M300.94 78.5273C300.766 83.3406 303.074 88.1277 306.095 89.1866C309.116 90.2455 311.713 87.1781 311.888 82.3473C312.063 77.5165 309.754 72.7207 306.733 71.688C303.712 70.6553 301.128 73.714 300.94 78.5273Z" fill="white"/>
</g>
<path d="M285.202 76.0245C285.154 76.1645 285.11 76.3001 285.071 76.462C285.055 76.502 285.042 76.5429 285.031 76.5845C285.005 76.6633 284.988 76.7464 284.966 76.834C284.944 76.9215 284.926 76.974 284.909 77.0484L284.856 77.2803C284.846 77.3192 284.837 77.3586 284.83 77.3984C284.832 77.4378 284.832 77.4772 284.83 77.5166C284.83 77.556 284.83 77.5953 284.804 77.6303C284.778 77.7835 284.751 77.9454 284.725 78.1073C284.699 78.2692 284.682 78.4223 284.664 78.5799C284.664 78.5799 284.664 78.6455 284.664 78.6762V78.7111L284.69 78.768C284.69 78.768 284.69 78.768 284.69 78.7943V78.8293C284.694 78.8422 284.694 78.8558 284.69 78.8687C284.694 78.8816 284.694 78.8951 284.69 78.9081C284.69 78.9562 284.725 79.0043 284.743 79.0481C284.745 79.0567 284.745 79.0657 284.743 79.0743C284.756 78.5247 284.805 77.9765 284.891 77.4334C284.965 76.9379 285.073 76.4481 285.215 75.9676L285.202 76.0245ZM285.202 76.0245C285.154 76.1645 285.11 76.3001 285.071 76.462C285.055 76.502 285.042 76.5429 285.031 76.5845C285.005 76.6633 284.988 76.7464 284.966 76.834C284.944 76.9215 284.926 76.974 284.909 77.0484L284.856 77.2803C284.846 77.3192 284.837 77.3586 284.83 77.3984C284.832 77.4378 284.832 77.4772 284.83 77.5166C284.83 77.556 284.83 77.5953 284.804 77.6303C284.778 77.7835 284.751 77.9454 284.725 78.1073C284.699 78.2692 284.682 78.4223 284.664 78.5799C284.664 78.5799 284.664 78.6455 284.664 78.6762V78.7111L284.69 78.768C284.69 78.768 284.69 78.768 284.69 78.7943V78.8293C284.694 78.8422 284.694 78.8558 284.69 78.8687C284.694 78.8816 284.694 78.8951 284.69 78.9081C284.69 78.9562 284.725 79.0043 284.743 79.0481C284.745 79.0567 284.745 79.0657 284.743 79.0743C284.756 78.5247 284.805 77.9765 284.891 77.4334C284.965 76.9379 285.073 76.4481 285.215 75.9676L285.202 76.0245ZM285.202 76.0245C285.154 76.1645 285.11 76.3001 285.071 76.462C285.055 76.502 285.042 76.5429 285.031 76.5845C285.005 76.6633 284.988 76.7464 284.966 76.834C284.944 76.9215 284.926 76.974 284.909 77.0484L284.856 77.2803C284.846 77.3192 284.837 77.3586 284.83 77.3984C284.832 77.4378 284.832 77.4772 284.83 77.5166C284.83 77.556 284.83 77.5953 284.804 77.6303C284.778 77.7835 284.751 77.9454 284.725 78.1073C284.699 78.2692 284.682 78.4223 284.664 78.5799C284.664 78.5799 284.664 78.6455 284.664 78.6762C284.665 78.6892 284.665 78.7024 284.664 78.7155L284.69 78.7724C284.69 78.7724 284.69 78.7724 284.69 78.7987V78.8337C284.694 78.8465 284.694 78.8602 284.69 78.873C284.694 78.886 284.694 78.8995 284.69 78.9124C284.69 78.9606 284.725 79.0087 284.743 79.0525C284.745 79.0611 284.745 79.0701 284.743 79.0787C284.756 78.529 284.805 77.9809 284.891 77.4378C284.965 76.9423 285.073 76.4525 285.215 75.9719L285.202 76.0245ZM285.202 76.0245C285.154 76.1645 285.11 76.3001 285.071 76.462C285.055 76.502 285.042 76.5429 285.031 76.5845C285.005 76.6633 284.988 76.7464 284.966 76.834C284.944 76.9215 284.926 76.974 284.909 77.0484L284.856 77.2803C284.846 77.3192 284.837 77.3586 284.83 77.3984C284.832 77.4378 284.832 77.4772 284.83 77.5166C284.83 77.556 284.83 77.5953 284.804 77.6303C284.778 77.7835 284.751 77.9454 284.725 78.1073C284.699 78.2692 284.682 78.4223 284.664 78.5799C284.664 78.5799 284.664 78.6455 284.664 78.6762V78.7243L284.69 78.7812C284.69 78.7812 284.69 78.7812 284.69 78.8074V78.8424C284.694 78.8553 284.694 78.8689 284.69 78.8818C284.694 78.8947 284.694 78.9083 284.69 78.9212C284.69 78.9693 284.725 79.0174 284.743 79.0612C284.745 79.0698 284.745 79.0788 284.743 79.0875C284.756 78.5378 284.805 77.9896 284.891 77.4466C284.965 76.9511 285.073 76.4613 285.215 75.9807L285.202 76.0245ZM298.016 79.6519C298.016 79.2669 297.963 78.8949 297.915 78.5142C297.478 75.1624 295.821 72.1913 293.521 70.8392C293.242 70.6711 292.949 70.5248 292.647 70.4016C291.935 70.1184 291.166 70.0045 290.402 70.0691C289.638 70.1336 288.9 70.3748 288.245 70.7736C286.496 71.7975 285.184 73.7622 284.568 76.2695C284.476 76.6327 284.41 76.9959 284.349 77.3722C284.314 77.5953 284.284 77.8098 284.266 78.0417C284.196 78.6882 284.174 79.3391 284.201 79.9889C284.22 80.5165 284.272 81.0425 284.354 81.5641C284.393 81.8135 284.441 82.0673 284.498 82.308C284.905 84.5272 285.995 86.5635 287.615 88.1321C288.191 88.6589 288.86 89.0743 289.587 89.3573C290.243 89.6164 290.946 89.7328 291.65 89.6986C291.835 89.6905 292.019 89.6715 292.201 89.6418C292.831 89.533 293.437 89.3122 293.989 88.9897C295.51 88.0261 296.655 86.5697 297.233 84.8634C297.534 84.0608 297.753 83.2295 297.885 82.3824C298.015 81.4785 298.053 80.5636 297.998 79.6519H298.016ZM297.281 82.3036C297.157 83.108 296.949 83.897 296.66 84.6578C296.329 85.558 295.847 86.3954 295.235 87.1344C295.235 87.1344 295.235 87.1344 295.235 87.1651C294.804 87.6872 294.286 88.1313 293.705 88.4778C293.127 88.8285 292.476 89.0402 291.802 89.0964C291.128 89.1526 290.451 89.0517 289.823 88.8016C289.065 88.5107 288.377 88.0634 287.803 87.4889C286.325 86.0624 285.307 83.857 284.948 81.3979C284.9 81.0215 284.861 80.6409 284.835 80.2514C284.808 79.862 284.804 79.5207 284.835 79.1487C284.848 78.599 284.897 78.0509 284.983 77.5078C285.057 77.0123 285.165 76.5225 285.307 76.0419C285.378 75.7777 285.464 75.5177 285.565 75.2631C285.562 75.2486 285.562 75.2338 285.565 75.2193C285.566 75.2062 285.566 75.193 285.565 75.1799C285.564 75.1653 285.564 75.1507 285.565 75.1362C285.739 74.6611 285.955 74.2027 286.212 73.7666C286.759 72.7664 287.558 71.9264 288.529 71.3293C289.156 70.9522 289.866 70.7372 290.597 70.7035C291.216 70.6778 291.833 70.7806 292.411 71.0055C292.64 71.0935 292.862 71.1988 293.075 71.3205C295.31 72.5457 296.905 75.425 297.312 78.6893C297.366 79.0707 297.398 79.455 297.408 79.8401C297.437 80.664 297.389 81.4888 297.264 82.3036H297.281ZM285.202 76.0245C285.154 76.1645 285.11 76.3001 285.071 76.462C285.055 76.502 285.042 76.5429 285.031 76.5845C285.005 76.6633 284.988 76.7464 284.966 76.834C284.944 76.9215 284.926 76.974 284.909 77.0484L284.856 77.2803C284.846 77.3192 284.837 77.3586 284.83 77.3984C284.832 77.4378 284.832 77.4772 284.83 77.5166C284.83 77.556 284.83 77.5953 284.804 77.6303C284.778 77.7835 284.751 77.9454 284.725 78.1073C284.699 78.2692 284.682 78.4223 284.664 78.5799C284.664 78.5799 284.664 78.6455 284.664 78.6762V78.7199L284.69 78.7768C284.69 78.7768 284.69 78.7768 284.69 78.803V78.8381C284.694 78.8509 284.694 78.8646 284.69 78.8774C284.694 78.8903 284.694 78.9039 284.69 78.9168C284.69 78.9649 284.725 79.0131 284.743 79.0568C284.745 79.0655 284.745 79.0744 284.743 79.0831C284.756 78.5334 284.805 77.9852 284.891 77.4422C284.965 76.9467 285.073 76.4569 285.215 75.9763L285.202 76.0245ZM285.202 76.0245C285.154 76.1645 285.11 76.3001 285.071 76.462C285.055 76.502 285.042 76.5429 285.031 76.5845C285.005 76.6633 284.988 76.7464 284.966 76.834C284.944 76.9215 284.926 76.974 284.909 77.0484L284.856 77.2803C284.846 77.3192 284.837 77.3586 284.83 77.3984C284.832 77.4378 284.832 77.4772 284.83 77.5166C284.83 77.556 284.83 77.5953 284.804 77.6303C284.778 77.7835 284.751 77.9454 284.725 78.1073C284.699 78.2692 284.682 78.4223 284.664 78.5799C284.664 78.5799 284.664 78.6455 284.664 78.6762V78.7111L284.69 78.768C284.69 78.768 284.69 78.768 284.69 78.7943V78.8293C284.694 78.8422 284.694 78.8558 284.69 78.8687C284.694 78.8816 284.694 78.8951 284.69 78.9081C284.69 78.9562 284.725 79.0043 284.743 79.0481C284.745 79.0567 284.745 79.0657 284.743 79.0743C284.756 78.5247 284.805 77.9765 284.891 77.4334C284.965 76.9379 285.073 76.4481 285.215 75.9676L285.202 76.0245ZM285.202 76.0245C285.154 76.1645 285.11 76.3001 285.071 76.462C285.055 76.502 285.042 76.5429 285.031 76.5845C285.005 76.6633 284.988 76.7464 284.966 76.834C284.944 76.9215 284.926 76.974 284.909 77.0484L284.856 77.2803C284.846 77.3192 284.837 77.3586 284.83 77.3984C284.832 77.4378 284.832 77.4772 284.83 77.5166C284.83 77.556 284.83 77.5953 284.804 77.6303C284.778 77.7835 284.751 77.9454 284.725 78.1073C284.699 78.2692 284.682 78.4223 284.664 78.5799C284.664 78.5799 284.664 78.6455 284.664 78.6762V78.7111L284.69 78.768C284.69 78.768 284.69 78.768 284.69 78.7943V78.8293C284.694 78.8422 284.694 78.8558 284.69 78.8687C284.694 78.8816 284.694 78.8951 284.69 78.9081C284.69 78.9562 284.725 79.0043 284.743 79.0481C284.745 79.0567 284.745 79.0657 284.743 79.0743C284.756 78.5247 284.805 77.9765 284.891 77.4334C284.965 76.9379 285.073 76.4481 285.215 75.9676L285.202 76.0245Z" fill="#30262A"/>
<path d="M301.047 76.0245C300.999 76.1645 300.955 76.3001 300.916 76.462C300.9 76.502 300.887 76.5429 300.876 76.5845C300.85 76.6633 300.833 76.7464 300.811 76.834C300.789 76.9215 300.772 76.974 300.754 77.0484L300.702 77.2803C300.691 77.3192 300.682 77.3586 300.675 77.3984C300.677 77.4378 300.677 77.4772 300.675 77.5166C300.675 77.556 300.675 77.5953 300.649 77.6303C300.623 77.7835 300.597 77.9454 300.57 78.1073C300.544 78.2692 300.527 78.4223 300.509 78.5799C300.509 78.5799 300.509 78.6455 300.509 78.6762V78.7111L300.535 78.768C300.535 78.768 300.535 78.768 300.535 78.7943V78.8293C300.539 78.8422 300.539 78.8558 300.535 78.8687C300.539 78.8816 300.539 78.8951 300.535 78.9081C300.535 78.9562 300.57 79.0043 300.588 79.0481C300.59 79.0567 300.59 79.0657 300.588 79.0743C300.601 78.5247 300.651 77.9765 300.737 77.4334C300.811 76.9379 300.919 76.4481 301.06 75.9676L301.047 76.0245ZM301.047 76.0245C300.999 76.1645 300.955 76.3001 300.916 76.462C300.9 76.502 300.887 76.5429 300.876 76.5845C300.85 76.6633 300.833 76.7464 300.811 76.834C300.789 76.9215 300.772 76.974 300.754 77.0484L300.702 77.2803C300.691 77.3192 300.682 77.3586 300.675 77.3984C300.677 77.4378 300.677 77.4772 300.675 77.5166C300.675 77.556 300.675 77.5953 300.649 77.6303C300.623 77.7835 300.597 77.9454 300.57 78.1073C300.544 78.2692 300.527 78.4223 300.509 78.5799C300.509 78.5799 300.509 78.6455 300.509 78.6762V78.7111L300.535 78.768C300.535 78.768 300.535 78.768 300.535 78.7943V78.8293C300.539 78.8422 300.539 78.8558 300.535 78.8687C300.539 78.8816 300.539 78.8951 300.535 78.9081C300.535 78.9562 300.57 79.0043 300.588 79.0481C300.59 79.0567 300.59 79.0657 300.588 79.0743C300.601 78.5247 300.651 77.9765 300.737 77.4334C300.811 76.9379 300.919 76.4481 301.06 75.9676L301.047 76.0245ZM301.047 76.0245C300.999 76.1645 300.955 76.3001 300.916 76.462C300.9 76.502 300.887 76.5429 300.876 76.5845C300.85 76.6633 300.833 76.7464 300.811 76.834C300.789 76.9215 300.772 76.974 300.754 77.0484L300.702 77.2803C300.691 77.3192 300.682 77.3586 300.675 77.3984C300.677 77.4378 300.677 77.4772 300.675 77.5166C300.675 77.556 300.675 77.5953 300.649 77.6303C300.623 77.7835 300.597 77.9454 300.57 78.1073C300.544 78.2692 300.527 78.4223 300.509 78.5799C300.509 78.5799 300.509 78.6455 300.509 78.6762C300.511 78.6892 300.511 78.7024 300.509 78.7155L300.535 78.7724C300.535 78.7724 300.535 78.7724 300.535 78.7987V78.8337C300.539 78.8465 300.539 78.8602 300.535 78.873C300.539 78.886 300.539 78.8995 300.535 78.9124C300.535 78.9606 300.57 79.0087 300.588 79.0525C300.59 79.0611 300.59 79.0701 300.588 79.0787C300.601 78.529 300.651 77.9809 300.737 77.4378C300.811 76.9423 300.919 76.4525 301.06 75.9719L301.047 76.0245ZM301.047 76.0245C300.999 76.1645 300.955 76.3001 300.916 76.462C300.9 76.502 300.887 76.5429 300.876 76.5845C300.85 76.6633 300.833 76.7464 300.811 76.834C300.789 76.9215 300.772 76.974 300.754 77.0484L300.702 77.2803C300.691 77.3192 300.682 77.3586 300.675 77.3984C300.677 77.4378 300.677 77.4772 300.675 77.5166C300.675 77.556 300.675 77.5953 300.649 77.6303C300.623 77.7835 300.597 77.9454 300.57 78.1073C300.544 78.2692 300.527 78.4223 300.509 78.5799C300.509 78.5799 300.509 78.6455 300.509 78.6762V78.7243L300.535 78.7812C300.535 78.7812 300.535 78.7812 300.535 78.8074V78.8424C300.539 78.8553 300.539 78.8689 300.535 78.8818C300.539 78.8947 300.539 78.9083 300.535 78.9212C300.535 78.9693 300.57 79.0174 300.588 79.0612C300.59 79.0698 300.59 79.0788 300.588 79.0875C300.601 78.5378 300.651 77.9896 300.737 77.4466C300.811 76.9511 300.919 76.4613 301.06 75.9807L301.047 76.0245ZM313.861 79.6519C313.861 79.2669 313.808 78.8949 313.76 78.5142C313.323 75.1624 311.666 72.1913 309.367 70.8392C309.087 70.6711 308.795 70.5248 308.492 70.4016C307.78 70.1184 307.011 70.0045 306.247 70.0691C305.483 70.1336 304.745 70.3748 304.09 70.7736C302.341 71.7975 301.03 73.7622 300.413 76.2695C300.321 76.6327 300.256 76.9959 300.195 77.3722C300.16 77.5953 300.129 77.8098 300.111 78.0417C300.042 78.6882 300.02 79.3391 300.046 79.9889C300.066 80.5165 300.117 81.0425 300.199 81.5641C300.238 81.8135 300.286 82.0673 300.343 82.308C300.75 84.5272 301.84 86.5635 303.46 88.1321C304.036 88.6589 304.705 89.0743 305.432 89.3573C306.088 89.6164 306.791 89.7328 307.495 89.6986C307.68 89.6905 307.864 89.6715 308.046 89.6418C308.676 89.533 309.282 89.3122 309.834 88.9897C311.355 88.0261 312.5 86.5697 313.078 84.8634C313.38 84.0608 313.598 83.2295 313.73 82.3824C313.86 81.4785 313.898 80.5636 313.843 79.6519H313.861ZM313.126 82.3036C313.002 83.108 312.794 83.897 312.506 84.6578C312.174 85.558 311.692 86.3954 311.08 87.1344C311.08 87.1344 311.08 87.1344 311.08 87.1651C310.649 87.6872 310.132 88.1313 309.55 88.4778C308.972 88.8285 308.321 89.0402 307.647 89.0964C306.974 89.1526 306.296 89.0517 305.668 88.8016C304.91 88.5107 304.222 88.0634 303.648 87.4889C302.171 86.0624 301.152 83.857 300.793 81.3979C300.745 81.0215 300.706 80.6409 300.68 80.2514C300.654 79.862 300.649 79.5207 300.68 79.1487C300.693 78.599 300.742 78.0509 300.828 77.5078C300.902 77.0123 301.01 76.5225 301.152 76.0419C301.223 75.7777 301.309 75.5177 301.41 75.2631C301.407 75.2486 301.407 75.2338 301.41 75.2193C301.411 75.2062 301.411 75.193 301.41 75.1799C301.409 75.1653 301.409 75.1507 301.41 75.1362C301.584 74.6611 301.801 74.2027 302.057 73.7666C302.605 72.7664 303.403 71.9264 304.374 71.3293C305.001 70.9522 305.711 70.7372 306.442 70.7035C307.061 70.6778 307.679 70.7806 308.256 71.0055C308.485 71.0935 308.707 71.1988 308.921 71.3205C311.155 72.5457 312.75 75.425 313.157 78.6893C313.211 79.0707 313.243 79.455 313.253 79.8401C313.282 80.664 313.234 81.4888 313.109 82.3036H313.126ZM301.047 76.0245C300.999 76.1645 300.955 76.3001 300.916 76.462C300.9 76.502 300.887 76.5429 300.876 76.5845C300.85 76.6633 300.833 76.7464 300.811 76.834C300.789 76.9215 300.772 76.974 300.754 77.0484L300.702 77.2803C300.691 77.3192 300.682 77.3586 300.675 77.3984C300.677 77.4378 300.677 77.4772 300.675 77.5166C300.675 77.556 300.675 77.5953 300.649 77.6303C300.623 77.7835 300.597 77.9454 300.57 78.1073C300.544 78.2692 300.527 78.4223 300.509 78.5799C300.509 78.5799 300.509 78.6455 300.509 78.6762V78.7199L300.535 78.7768C300.535 78.7768 300.535 78.7768 300.535 78.803V78.8381C300.539 78.8509 300.539 78.8646 300.535 78.8774C300.539 78.8903 300.539 78.9039 300.535 78.9168C300.535 78.9649 300.57 79.0131 300.588 79.0568C300.59 79.0655 300.59 79.0744 300.588 79.0831C300.601 78.5334 300.651 77.9852 300.737 77.4422C300.811 76.9467 300.919 76.4569 301.06 75.9763L301.047 76.0245ZM301.047 76.0245C300.999 76.1645 300.955 76.3001 300.916 76.462C300.9 76.502 300.887 76.5429 300.876 76.5845C300.85 76.6633 300.833 76.7464 300.811 76.834C300.789 76.9215 300.772 76.974 300.754 77.0484L300.702 77.2803C300.691 77.3192 300.682 77.3586 300.675 77.3984C300.677 77.4378 300.677 77.4772 300.675 77.5166C300.675 77.556 300.675 77.5953 300.649 77.6303C300.623 77.7835 300.597 77.9454 300.57 78.1073C300.544 78.2692 300.527 78.4223 300.509 78.5799C300.509 78.5799 300.509 78.6455 300.509 78.6762V78.7111L300.535 78.768C300.535 78.768 300.535 78.768 300.535 78.7943V78.8293C300.539 78.8422 300.539 78.8558 300.535 78.8687C300.539 78.8816 300.539 78.8951 300.535 78.9081C300.535 78.9562 300.57 79.0043 300.588 79.0481C300.59 79.0567 300.59 79.0657 300.588 79.0743C300.601 78.5247 300.651 77.9765 300.737 77.4334C300.811 76.9379 300.919 76.4481 301.06 75.9676L301.047 76.0245ZM301.047 76.0245C300.999 76.1645 300.955 76.3001 300.916 76.462C300.9 76.502 300.887 76.5429 300.876 76.5845C300.85 76.6633 300.833 76.7464 300.811 76.834C300.789 76.9215 300.772 76.974 300.754 77.0484L300.702 77.2803C300.691 77.3192 300.682 77.3586 300.675 77.3984C300.677 77.4378 300.677 77.4772 300.675 77.5166C300.675 77.556 300.675 77.5953 300.649 77.6303C300.623 77.7835 300.597 77.9454 300.57 78.1073C300.544 78.2692 300.527 78.4223 300.509 78.5799C300.509 78.5799 300.509 78.6455 300.509 78.6762V78.7111L300.535 78.768C300.535 78.768 300.535 78.768 300.535 78.7943V78.8293C300.539 78.8422 300.539 78.8558 300.535 78.8687C300.539 78.8816 300.539 78.8951 300.535 78.9081C300.535 78.9562 300.57 79.0043 300.588 79.0481C300.59 79.0567 300.59 79.0657 300.588 79.0743C300.601 78.5247 300.651 77.9765 300.737 77.4334C300.811 76.9379 300.919 76.4481 301.06 75.9676L301.047 76.0245Z" fill="#30262A"/>
<path d="M298.886 91.4884C297.513 91.4917 296.185 90.9974 295.148 90.0969C295.11 90.0647 295.087 90.0192 295.083 89.9701C295.079 89.921 295.094 89.8723 295.126 89.8344C295.141 89.8154 295.161 89.7997 295.182 89.7883C295.204 89.7769 295.228 89.77 295.252 89.768C295.277 89.7659 295.301 89.7688 295.325 89.7765C295.348 89.7841 295.37 89.7963 295.388 89.8125C298.715 92.6086 302.457 90.1057 302.615 89.9963C302.635 89.9815 302.658 89.971 302.682 89.9654C302.706 89.9599 302.732 89.9593 302.756 89.9638C302.781 89.9683 302.804 89.9778 302.825 89.9916C302.846 90.0055 302.863 90.0234 302.877 90.0444C302.904 90.0859 302.915 90.1364 302.906 90.1854C302.897 90.2343 302.869 90.2779 302.829 90.3069C301.644 91.0471 300.282 91.4551 298.886 91.4884Z" fill="#020202"/>
<path d="M294.951 90.8629C294.902 90.8619 294.856 90.8423 294.821 90.8082C294.786 90.7741 294.765 90.7279 294.763 90.6791C294.796 90.0663 295.052 89.4869 295.484 89.0514L295.511 89.0207C295.542 88.9824 295.586 88.9574 295.635 88.9509C295.684 88.9444 295.733 88.9569 295.773 88.9857C295.793 89 295.809 89.0181 295.822 89.0388C295.834 89.0595 295.843 89.0826 295.847 89.1066C295.85 89.1306 295.849 89.1551 295.843 89.1787C295.837 89.2022 295.827 89.2244 295.812 89.2439L295.773 89.2964C295.399 89.6585 295.174 90.1466 295.139 90.666C295.14 90.6907 295.135 90.7153 295.127 90.7384C295.118 90.7614 295.104 90.7825 295.087 90.8003C295.07 90.8182 295.05 90.8326 295.027 90.8426C295.005 90.8526 294.98 90.858 294.956 90.8585L294.951 90.8629Z" fill="#020202"/>
<path d="M301.579 79.9538C301.696 79.9374 301.806 79.8844 301.891 79.8022C301.977 79.72 302.034 79.6129 302.056 79.4961C302.077 79.3793 302.061 79.2587 302.01 79.1516C301.959 79.0444 301.875 78.9561 301.771 78.8992C301.684 78.8511 299.585 77.7178 296.678 78.8774C296.538 78.9354 296.427 79.0466 296.369 79.1865C296.312 79.3264 296.312 79.4836 296.37 79.6234C296.428 79.7633 296.539 79.8743 296.679 79.9322C296.818 79.99 296.975 79.99 297.115 79.9319C299.537 78.9649 301.22 79.8794 301.233 79.8882C301.338 79.9478 301.46 79.9709 301.579 79.9538Z" fill="#30262A"/>
<path d="M280.83 59.7597C280.83 59.7597 277.363 47.2626 266.35 50.4613C255.338 53.6599 258.617 59.6503 259.867 63.5141C260.798 66.3846 266.066 70.3928 271.483 69.1413C276.9 67.8899 280.83 59.7597 280.83 59.7597Z" fill="#30262A"/>
<path d="M275.632 99.6713C275.562 99.6714 275.494 99.6516 275.435 99.6144C275.397 99.5888 275.364 99.556 275.339 99.5177C275.313 99.4795 275.295 99.4366 275.286 99.3915C275.278 99.3464 275.278 99.2999 275.287 99.2549C275.296 99.2098 275.313 99.1669 275.339 99.1287C277.05 96.777 279.377 94.9446 282.063 93.834C282.149 93.7992 282.246 93.8002 282.331 93.8367C282.417 93.8732 282.485 93.9423 282.52 94.0287C282.554 94.1152 282.553 94.212 282.517 94.2977C282.48 94.3835 282.411 94.4512 282.325 94.486C279.778 95.5554 277.566 97.2941 275.925 99.5181C275.892 99.5656 275.848 99.6043 275.797 99.631C275.746 99.6577 275.689 99.6715 275.632 99.6713Z" fill="#30262A"/>
<path d="M173.536 271.922C172.039 271.776 170.528 271.897 169.073 272.281C168.873 272.346 168.661 272.361 168.454 272.325C168.247 272.288 168.052 272.201 167.887 272.071C167.722 271.941 167.591 271.773 167.507 271.58C167.422 271.388 167.387 271.177 167.403 270.968V223.618C167.403 221.094 166.906 218.595 165.941 216.263C164.976 213.932 163.562 211.813 161.779 210.029C159.996 208.244 157.879 206.828 155.549 205.863C153.22 204.897 150.723 204.4 148.201 204.4H96.8934C96.4652 204.401 96.0445 204.513 95.6723 204.724C95.3 204.936 94.9887 205.241 94.7688 205.608C94.5488 205.976 94.4275 206.394 94.4168 206.823C94.4061 207.251 94.5062 207.675 94.7075 208.053C95.7595 209.962 96.2975 212.111 96.2687 214.291C96.2399 216.47 95.6452 218.605 94.5432 220.484C93.4411 222.364 91.8695 223.925 89.9827 225.013C88.0958 226.101 85.9586 226.68 83.781 226.691C81.6034 226.703 79.4601 226.148 77.5618 225.08C75.6634 224.012 74.0753 222.468 72.9531 220.6C71.831 218.732 71.2136 216.604 71.1614 214.425C71.1093 212.246 71.6243 210.091 72.6558 208.172C72.8607 207.777 72.9602 207.336 72.9448 206.892C72.9293 206.447 72.7994 206.014 72.5676 205.635C72.3358 205.255 72.0101 204.942 71.6219 204.726C71.2337 204.509 70.7962 204.397 70.3519 204.4H19.2012C14.1087 204.4 9.22483 206.424 5.62391 210.029C2.02299 213.633 0 218.521 0 223.618V352.742C0.00115901 357.838 2.02452 362.726 5.62519 366.33C9.22586 369.934 14.1091 371.959 19.2012 371.96H148.21C153.303 371.959 158.187 369.933 161.788 366.328C165.389 362.723 167.411 357.835 167.411 352.737V298.412C167.41 298.152 167.468 297.894 167.579 297.658C167.69 297.422 167.853 297.214 168.055 297.049C168.257 296.885 168.493 296.767 168.747 296.705C169 296.644 169.264 296.639 169.519 296.693C170.431 296.897 171.364 297 172.299 296.999C174.023 296.999 175.729 296.644 177.31 295.956C178.892 295.267 180.314 294.26 181.49 292.997C182.665 291.735 183.568 290.243 184.143 288.616C184.717 286.989 184.951 285.261 184.829 283.539C184.422 277.816 179.242 272.473 173.536 271.922Z" fill="#1A2578"/>
<path d="M146.4 371.711H121.437C119.767 365.515 118.215 360.019 116.938 355.678C115.308 350.148 114.127 346.489 113.716 345.732C112.073 342.669 118.385 333.275 123.614 330.417C124.519 329.895 125.5 329.519 126.522 329.302C129.744 328.667 131.96 330.5 134.054 333.1C135.602 335.029 138.798 336.6 141.521 340.853C142.387 342.218 143.109 343.668 143.677 345.181C146.328 352.191 148.566 359.35 150.379 366.622C150.527 367.227 150.536 367.857 150.406 368.465C150.275 369.073 150.008 369.644 149.625 370.134C149.242 370.624 148.753 371.021 148.194 371.294C147.635 371.567 147.022 371.71 146.4 371.711Z" fill="white"/>
<path d="M135.781 371.711H46.5075C46.5075 371.711 42.9183 358.96 43.6177 353C43.9282 350.305 44.2997 347.688 44.7413 345.181C45.0327 343.48 45.3592 341.834 45.7206 340.241C45.8061 339.86 45.9127 339.485 46.0398 339.116C46.2711 338.432 46.6235 337.794 47.0803 337.235C50.7133 332.96 58.9804 338.924 61.6385 333.275C61.6385 333.275 66.2333 322.882 78.4658 317.959C80.491 317.143 82.5906 316.524 84.7351 316.113C88.9025 315.331 93.165 315.194 97.3741 315.706L98.5851 315.846H98.62L99.8485 315.999C109.655 317.286 120.899 320.086 126.517 329.297C127.952 331.691 128.953 334.321 129.472 337.064C130.172 340.565 130.915 344.157 131.658 347.911C133.105 355.092 134.561 362.872 135.781 371.711Z" fill="#BF0830"/>
<path d="M32.1641 336.469L57.6214 354.099C57.6214 354.099 103.333 360.754 115.68 356.169C129.792 350.918 143.074 339.576 143.074 339.576C143.074 339.576 133.915 319.382 99.8141 315.916C95.8445 315.514 81.1725 316.104 77.2947 316.695C42.1231 322.038 32.1641 336.469 32.1641 336.469Z" fill="#BF0830"/>
<path d="M32.1635 336.469C30.5547 338.941 32.1329 346.131 40.6711 351.324C49.2093 356.518 55.7278 357.682 57.6208 354.099C59.0504 351.399 55.3605 342.109 47.2201 337.318C38.8349 332.378 33.3089 334.705 32.1635 336.469Z" fill="#30262A"/>
<path d="M54.0536 356.146C53.341 357.096 50.4425 363.047 46.5078 371.711H21.6582C20.8719 371.711 20.0982 371.513 19.4081 371.136C18.718 370.759 18.1336 370.214 17.7084 369.552C17.2833 368.89 17.0311 368.132 16.9749 367.347C16.9187 366.562 17.0604 365.776 17.3869 365.06C19.6457 360.139 22.0225 355.471 24.5174 351.058C27.9449 344.997 29.8117 342.118 31.7266 340.07C32.072 339.698 32.4217 339.357 32.7846 339.024C33.2509 338.597 33.773 338.235 34.3366 337.948C37.5368 336.285 42.3152 336.543 46.04 339.094C46.2193 339.217 46.3985 339.344 46.5734 339.479C49.8129 341.956 53.0962 347.526 54.1804 351.692C54.6788 353.639 54.7094 355.263 54.0536 356.146Z" fill="white"/>
<path d="M75.8083 316.984C77.5528 316.802 79.2179 316.161 80.6335 315.124C82.0491 314.088 83.1644 312.694 83.8656 311.085L88.2943 300.789L89.5796 297.8L97.1342 280.232L95.8226 298.439L95.0313 309.378L94.8083 312.494C94.7208 313.722 95.0917 314.939 95.8493 315.909C96.6069 316.879 97.6972 317.533 98.9091 317.745H98.9528C100.295 319.933 102.153 324.383 96.6052 326.151C90.0824 328.229 79.555 323.088 75.7471 317.001L75.8083 316.984Z" fill="white"/>
<path d="M88.2722 300.487C88.2722 300.588 88.2722 300.689 88.2722 300.789C88.7094 306.657 94.9787 309.401 94.9787 309.401L95.0136 309.366L95.8049 298.426C93.8857 297.722 91.1533 297 89.5575 297.788C88.7444 298.212 88.2154 299.035 88.2722 300.487Z" fill="#30262A"/>
<path d="M97.9607 304.246C107.401 304.246 115.055 294.797 115.055 283.141C115.055 271.486 107.401 262.037 97.9607 262.037C88.52 262.037 80.8667 271.486 80.8667 283.141C80.8667 294.797 88.52 304.246 97.9607 304.246Z" fill="white"/>
<path d="M107.172 296.798C103.202 296.789 99.2593 296.142 95.4944 294.882C95.4944 294.882 95.0092 300.64 101.331 301.008C104.986 301.253 107.172 296.798 107.172 296.798Z" fill="white"/>
<path d="M99.6132 283.348C99.6721 283.332 99.7266 283.304 99.7722 283.263C99.8178 283.223 99.8533 283.172 99.8755 283.116C99.913 283.019 99.911 282.912 99.8701 282.817C99.8292 282.722 99.7527 282.647 99.6569 282.608C98.8121 282.212 97.8597 282.107 96.949 282.31C96.0384 282.514 95.221 283.014 94.625 283.733C94.5539 283.807 94.5142 283.906 94.5142 284.008C94.5142 284.111 94.5539 284.21 94.625 284.284C94.7028 284.347 94.8001 284.382 94.9004 284.382C95.0007 284.382 95.0979 284.347 95.1758 284.284C96.4281 283.52 97.8967 283.189 99.3553 283.343C99.4383 283.374 99.5292 283.375 99.6132 283.348Z" fill="#080435"/>
<path d="M96.5394 287.623C96.5088 288.55 97.029 289.32 97.7022 289.342C98.3755 289.364 98.9439 288.629 98.9745 287.701C99.0051 286.774 98.4848 286.004 97.8115 285.982C97.1383 285.96 96.57 286.695 96.5394 287.623Z" fill="#080435"/>
<path d="M113.493 285.373C113.553 285.381 113.614 285.375 113.671 285.356C113.728 285.336 113.779 285.303 113.821 285.26C113.893 285.186 113.934 285.087 113.934 284.984C113.934 284.881 113.893 284.782 113.821 284.708C113.191 284.02 112.35 283.561 111.43 283.403C110.511 283.244 109.565 283.396 108.741 283.833C108.647 283.876 108.574 283.954 108.537 284.051C108.5 284.148 108.503 284.255 108.544 284.349C108.594 284.436 108.672 284.502 108.765 284.538C108.858 284.574 108.961 284.577 109.056 284.546C110.505 284.313 111.991 284.569 113.279 285.273C113.337 285.329 113.413 285.364 113.493 285.373Z" fill="#080435"/>
<path d="M109.021 288.156C108.64 289.001 108.828 289.907 109.458 290.187C110.087 290.467 110.874 290.003 111.255 289.154C111.635 288.305 111.447 287.404 110.817 287.124C110.188 286.844 109.401 287.307 109.021 288.156Z" fill="#080435"/>
<path d="M108.68 305.637C107.285 305.631 105.913 305.282 104.684 304.622C104.601 304.557 104.545 304.464 104.525 304.36C104.506 304.256 104.524 304.149 104.577 304.057C104.631 303.966 104.715 303.897 104.815 303.864C104.915 303.83 105.024 303.834 105.121 303.874C106.478 304.64 108.052 304.927 109.591 304.689C111.131 304.451 112.545 303.701 113.607 302.561C117.507 298.623 114.792 294.313 114.674 294.133C114.61 294.036 114.588 293.917 114.611 293.803C114.635 293.689 114.703 293.589 114.801 293.525C114.898 293.461 115.017 293.439 115.131 293.463C115.245 293.486 115.345 293.555 115.408 293.652C115.439 293.705 118.635 298.706 114.228 303.174C113.521 303.943 112.664 304.558 111.71 304.982C110.755 305.406 109.724 305.629 108.68 305.637Z" fill="#74BBFB"/>
<path d="M92.7441 268.207C93.3606 272.027 92.3813 274.994 104.111 277.834C104.111 277.834 106.043 279.112 106.153 277.033C106.262 274.955 103.32 271.782 104.898 269.371C104.898 269.371 113.327 286.835 116.134 283.137C118.94 279.44 122.621 267.477 116.134 260.178C109.646 252.879 89.2948 251.317 85.8847 257.259C80.8702 266.019 92.2195 264.939 92.7441 268.207Z" fill="#30262A"/>
<path d="M85.557 261.272C85.557 261.272 90.7246 262.558 90.4972 264.873C90.2699 267.188 93.9073 271.555 90.4972 273.016C87.0872 274.478 86.2565 275.353 86.2696 277.913C86.2696 279.698 83.1613 283.636 82.0421 287.216C81.5568 288.773 82.4792 292.073 82.4792 292.073C82.4792 292.073 69.4205 287.662 71.7551 272.745C73.2677 263.035 82.2869 259.955 85.557 261.272Z" fill="#30262A"/>
<path d="M81.1896 286.327C83.1263 288.174 85.8325 288.366 87.2359 286.765C88.6393 285.163 88.2064 282.341 86.2741 280.49C84.3417 278.639 81.6268 278.451 80.2234 280.052C78.8201 281.654 79.2529 284.476 81.1896 286.327Z" fill="white"/>
<path d="M82.9125 301.165C82.5493 301.166 82.1868 301.136 81.8283 301.078C78.803 300.592 76.2411 298.273 76.1186 295.906C75.8913 291.578 80.1495 288.139 80.3287 287.994C80.3738 287.959 80.4255 287.932 80.4809 287.916C80.5363 287.9 80.5942 287.895 80.6515 287.902C80.7087 287.908 80.7641 287.926 80.8145 287.954C80.8649 287.982 80.9093 288.019 80.9452 288.064C80.9811 288.11 81.0077 288.161 81.0236 288.217C81.0395 288.272 81.0444 288.33 81.0379 288.387C81.0314 288.445 81.0137 288.5 80.9858 288.551C80.9578 288.601 80.9203 288.646 80.8752 288.681C80.8315 288.716 76.7875 291.99 76.993 295.858C77.0936 297.805 79.3713 299.796 81.9682 300.233C84.8973 300.702 87.3194 299.065 88.6134 295.74C89.5578 293.311 89.584 291.211 88.6921 289.495C87.2363 286.699 83.8131 285.828 83.7781 285.82C83.7205 285.808 83.6659 285.784 83.6176 285.751C83.5692 285.717 83.5281 285.674 83.4967 285.624C83.4654 285.575 83.4444 285.519 83.435 285.461C83.4257 285.403 83.4281 285.343 83.4422 285.286C83.4564 285.229 83.4819 285.175 83.5173 285.128C83.5527 285.081 83.5971 285.042 83.6481 285.012C83.699 284.983 83.7554 284.964 83.8138 284.957C83.8723 284.95 83.9315 284.954 83.988 284.971C84.141 285.006 87.8352 285.947 89.4703 289.093C90.4802 291.04 90.4671 293.385 89.431 296.059C87.7391 300.387 84.8012 301.165 82.9125 301.165Z" fill="#74BBFB"/>
<path d="M75.7508 260.182C75.654 260.183 75.5597 260.152 75.4827 260.093C75.4057 260.034 75.3504 259.952 75.3254 259.858C75.3004 259.764 75.3071 259.665 75.3445 259.576C75.382 259.486 75.448 259.412 75.5322 259.364C76.6442 258.676 77.9256 258.312 79.2329 258.312C80.5402 258.312 81.8217 258.676 82.9338 259.364C82.9842 259.395 83.0277 259.437 83.0616 259.485C83.0956 259.534 83.1193 259.589 83.1313 259.647C83.1433 259.705 83.1434 259.765 83.1315 259.824C83.1196 259.882 83.096 259.937 83.0622 259.986C83.0283 260.034 82.9849 260.076 82.9346 260.107C82.8842 260.139 82.828 260.159 82.7694 260.168C82.7107 260.177 82.6509 260.174 82.5934 260.16C82.536 260.145 82.4822 260.118 82.4354 260.082C81.4628 259.484 80.3437 259.167 79.2024 259.167C78.061 259.167 76.9419 259.484 75.9694 260.082C75.9073 260.135 75.8316 260.17 75.7508 260.182Z" fill="#30262A"/>
<path d="M83.7301 258.576C83.6142 258.576 83.503 258.53 83.421 258.448C83.339 258.366 83.293 258.255 83.293 258.139C83.293 258.012 83.293 254.997 84.6701 253.855C84.7596 253.782 84.8741 253.748 84.9887 253.759C85.1033 253.771 85.2088 253.827 85.2822 253.916C85.319 253.96 85.3467 254.011 85.3638 254.066C85.3808 254.121 85.3869 254.179 85.3816 254.236C85.3764 254.294 85.3598 254.349 85.333 254.4C85.3061 254.451 85.2696 254.496 85.2253 254.533C84.351 255.259 84.163 257.377 84.1673 258.13C84.1673 258.246 84.1213 258.357 84.0393 258.439C83.9573 258.521 83.8461 258.568 83.7301 258.568V258.576Z" fill="#30262A"/>
<g filter="url(#filter0_d_1_90251)">
<path d="M574.527 347.054C574.527 349.578 574.03 352.077 573.064 354.409C572.099 356.741 570.685 358.86 568.901 360.645C567.118 362.429 565 363.845 562.67 364.81C560.34 365.776 557.843 366.273 555.321 366.272H426.316C421.225 366.272 416.341 364.248 412.741 360.645C409.14 357.041 407.116 352.154 407.115 347.058V293.622C407.117 293.181 407.221 292.747 407.418 292.353C407.615 291.959 407.9 291.616 408.251 291.351C408.602 291.085 409.01 290.904 409.442 290.822C409.875 290.74 410.32 290.759 410.744 290.878C412.587 291.377 414.52 291.448 416.394 291.087C418.269 290.726 420.037 289.941 421.564 288.794C423.09 287.646 424.335 286.164 425.203 284.462C426.072 282.761 426.541 280.883 426.575 278.972C426.609 277.061 426.208 275.168 425.401 273.436C424.594 271.704 423.403 270.179 421.919 268.977C420.435 267.775 418.696 266.927 416.835 266.499C414.975 266.071 413.041 266.073 411.181 266.505C410.697 266.62 410.193 266.624 409.707 266.516C409.222 266.408 408.766 266.192 408.376 265.884C407.985 265.575 407.669 265.183 407.452 264.735C407.234 264.287 407.121 263.796 407.12 263.298V217.934C407.12 212.837 409.143 207.949 412.743 204.345C416.344 200.741 421.228 198.716 426.321 198.716H477.471C477.916 198.714 478.353 198.826 478.741 199.042C479.13 199.259 479.455 199.572 479.687 199.951C479.919 200.331 480.049 200.763 480.064 201.208C480.08 201.652 479.98 202.093 479.775 202.488C478.71 204.47 478.196 206.702 478.287 208.951C478.378 211.2 479.07 213.383 480.291 215.273C481.512 217.163 483.217 218.69 485.229 219.695C487.241 220.701 489.485 221.147 491.728 220.989C493.83 220.839 495.861 220.161 497.633 219.019C499.406 217.877 500.862 216.308 501.869 214.454C502.876 212.601 503.4 210.524 503.395 208.414C503.389 206.305 502.853 204.231 501.836 202.383C501.631 202.004 501.529 201.579 501.538 201.149C501.547 200.718 501.668 200.298 501.888 199.928C502.108 199.558 502.421 199.252 502.795 199.04C503.169 198.827 503.592 198.716 504.022 198.716H555.325C557.847 198.716 560.344 199.213 562.673 200.179C565.003 201.145 567.12 202.56 568.903 204.345C570.686 206.13 572.1 208.248 573.065 210.58C574.03 212.912 574.527 215.411 574.527 217.934V347.054Z" fill="white"/>
</g>
<path d="M429.914 365.902H454.878C456.552 359.71 458.1 354.21 459.381 349.874C461.007 344.338 462.188 340.685 462.598 339.923C464.242 336.86 457.929 327.465 452.705 324.608C451.799 324.089 450.818 323.713 449.798 323.492C446.571 322.858 444.355 324.696 442.261 327.295C440.713 329.22 437.517 330.795 434.794 335.049C433.928 336.411 433.206 337.86 432.638 339.372C429.987 346.381 427.749 353.541 425.936 360.813C425.787 361.417 425.777 362.048 425.907 362.657C426.037 363.265 426.304 363.836 426.688 364.327C427.071 364.817 427.561 365.214 428.12 365.487C428.679 365.759 429.292 365.902 429.914 365.902Z" fill="#D6D6D6"/>
<path d="M440.542 365.902H529.816C529.816 365.902 533.409 353.151 532.71 347.191C532.395 344.495 532.024 341.879 531.582 339.371C531.291 337.671 530.964 336.025 530.603 334.436C530.519 334.055 530.413 333.679 530.284 333.311C530.054 332.626 529.702 331.988 529.243 331.429C525.614 327.154 517.343 333.119 514.685 327.465C514.685 327.465 510.09 317.077 497.858 312.15C495.833 311.337 493.735 310.72 491.593 310.308C487.423 309.528 483.16 309.391 478.949 309.901L477.738 310.041H477.703L476.47 310.198C466.664 311.48 455.42 314.281 449.802 323.492C448.363 325.886 447.361 328.518 446.842 331.263C446.143 334.764 445.4 338.352 444.656 342.106C443.209 349.283 441.753 357.063 440.542 365.902Z" fill="#BF0830"/>
<path d="M544.156 330.66L518.694 348.29C518.694 348.29 472.982 354.949 460.636 350.359C446.523 345.108 433.246 333.766 433.246 333.766C433.246 333.766 442.401 313.572 476.527 310.107C480.493 309.704 495.165 310.299 499.042 310.886C534.197 316.228 544.156 330.66 544.156 330.66Z" fill="#BF0830"/>
<path d="M544.156 330.659C545.765 333.136 544.191 340.321 535.653 345.537C527.114 350.753 520.592 351.895 518.699 348.311C517.273 345.611 520.963 336.322 529.099 331.53C537.48 326.568 543.006 328.896 544.156 330.659Z" fill="#30262A"/>
<path d="M522.261 350.337C522.973 351.291 525.872 357.238 529.807 365.902H554.648C555.434 365.902 556.208 365.704 556.898 365.327C557.588 364.95 558.172 364.405 558.597 363.743C559.023 363.081 559.275 362.323 559.331 361.538C559.387 360.753 559.246 359.967 558.919 359.251C556.657 354.332 554.282 349.665 551.793 345.248C548.365 339.192 546.494 336.309 544.579 334.261C544.234 333.889 543.884 333.548 543.526 333.215C543.057 332.789 542.533 332.427 541.969 332.139C538.769 330.476 533.991 330.734 530.266 333.289C530.087 333.408 529.907 333.535 529.732 333.67C526.493 336.151 523.21 341.717 522.125 345.883C521.636 347.852 521.605 349.453 522.261 350.337Z" fill="#D6D6D6"/>
<path d="M461.768 302.252L461.891 301.871C461.847 301.871 457.593 300.471 456.588 297.421C456.067 295.837 456.504 294.065 457.899 292.17C458.55 291.269 459.149 290.455 459.7 289.711C463.482 284.574 464.898 282.653 464.304 278.172L463.91 278.225C464.483 282.548 463.198 284.294 459.381 289.475C458.83 290.219 458.231 291.032 457.58 291.934C456.115 293.96 455.656 295.872 456.22 297.565C457.278 300.79 461.589 302.195 461.768 302.252Z" fill="#30262A"/>
<path d="M464.098 278.181C464.098 278.181 465.091 285.125 460.032 291.934C454.974 298.743 459.503 304.335 465.834 302.046C472.164 299.758 473.913 307.735 482.066 304.02C490.22 300.305 464.098 278.181 464.098 278.181Z" fill="#30262A"/>
<path d="M490.767 304.912L487.269 294.796L486.259 291.859L480.327 274.588L480.27 292.017L480.239 302.479V305.459C480.301 309.472 476.445 310.185 476.445 310.185C475.011 312.172 472.396 316.25 477.551 318.333C483.61 320.779 494.544 316.351 498.584 310.824C498.571 310.824 491.877 308.142 490.767 304.912Z" fill="#D6D6D6"/>
<path d="M487.321 294.511C487.321 294.603 487.299 294.699 487.282 294.796C486.451 300.353 480.287 302.51 480.287 302.51L480.252 302.48L480.282 292.017C482.162 291.488 484.812 290.993 486.276 291.86C487.046 292.31 487.483 293.155 487.321 294.511Z" fill="#A6A6A6"/>
<path d="M463.076 276.089C463.911 264.993 471.872 256.547 480.86 257.226C489.849 257.904 496.455 267.447 495.62 278.544C494.785 289.641 486.824 298.086 477.835 297.408C468.846 296.73 462.241 287.173 463.076 276.089Z" fill="#D6D6D6"/>
<path d="M493.215 281.397C491.239 283.016 488.646 283.003 487.426 281.367C486.207 279.73 486.819 277.083 488.795 275.459C490.771 273.836 493.363 273.849 494.583 275.49C495.803 277.131 495.191 279.774 493.215 281.397Z" fill="#D6D6D6"/>
<path d="M469.607 289.654C473.387 289.929 477.186 289.595 480.86 288.665C480.86 288.665 480.908 294.183 474.862 294.096C471.343 294.03 469.607 289.654 469.607 289.654Z" fill="#1A2578"/>
<path d="M469.607 289.654C469.607 289.654 470.866 290.871 474.005 291.094C477.144 291.317 480.86 288.665 480.86 288.665C480.86 288.665 474.023 289.991 469.607 289.654Z" fill="white"/>
<path d="M477.76 277.376C477.705 277.358 477.655 277.327 477.615 277.286C477.575 277.245 477.545 277.195 477.528 277.14C477.513 277.093 477.508 277.044 477.511 276.995C477.515 276.946 477.529 276.899 477.551 276.856C477.574 276.812 477.604 276.773 477.642 276.742C477.679 276.71 477.722 276.686 477.769 276.671C478.602 276.354 479.516 276.323 480.369 276.582C481.222 276.84 481.965 277.375 482.481 278.102C482.543 278.179 482.572 278.277 482.563 278.376C482.553 278.474 482.505 278.564 482.429 278.627C482.349 278.682 482.253 278.706 482.157 278.696C482.061 278.687 481.972 278.644 481.904 278.575C480.762 277.751 479.377 277.332 477.97 277.385C477.9 277.401 477.828 277.398 477.76 277.376Z" fill="#080435"/>
<path d="M480.379 281.669C480.344 282.544 479.789 283.253 479.151 283.222C478.513 283.191 478.019 282.456 478.054 281.568C478.088 280.68 478.644 279.988 479.286 280.015C479.929 280.041 480.419 280.785 480.379 281.669Z" fill="#080435"/>
<path d="M464.405 278.313C464.347 278.316 464.289 278.306 464.236 278.284C464.183 278.261 464.135 278.226 464.098 278.181C464.036 278.105 464.006 278.007 464.015 277.909C464.024 277.811 464.071 277.72 464.147 277.656C464.795 277.046 465.628 276.669 466.514 276.583C467.4 276.498 468.29 276.709 469.043 277.184C469.129 277.231 469.193 277.31 469.222 277.404C469.251 277.498 469.241 277.6 469.196 277.687C469.145 277.768 469.065 277.829 468.973 277.857C468.881 277.885 468.781 277.879 468.693 277.84C467.331 277.516 465.9 277.653 464.623 278.229C464.56 278.279 464.484 278.308 464.405 278.313Z" fill="#080435"/>
<path d="M468.461 281.283C468.763 282.115 468.518 282.968 467.911 283.187C467.303 283.406 466.573 282.907 466.271 282.075C465.969 281.244 466.214 280.386 466.822 280.168C467.43 279.949 468.16 280.465 468.461 281.283Z" fill="#080435"/>
<path d="M473.677 260.337C473.677 260.337 473.502 267.338 482.11 269.176C490.718 271.014 496.441 275.157 494.789 281.34C493.136 287.523 478.149 299.478 488.073 305.293C497.997 311.108 496.511 301.547 507.519 304.571C518.528 307.595 521.667 292.813 514.628 283.568C507.589 274.322 512.442 251.625 483.505 250.469C454.567 249.314 463.394 273.145 463.394 273.145C463.394 273.145 473.113 268.034 473.677 260.337Z" fill="#30262A"/>
<path d="M490.955 306.803C488.852 305.766 487.614 304.357 487.282 302.624C486.368 297.854 492.34 291.199 497.613 285.331C498.999 283.786 500.31 282.329 501.482 280.929C504.726 277.048 505.334 272.366 503.104 268.406C500.656 264.065 495.536 261.921 489.744 262.813C483.951 263.706 480.152 262.218 477.97 260.818C476.602 259.988 475.439 258.858 474.569 257.514L474.774 257.401C474.814 257.466 478.814 264.257 489.704 262.581C495.602 261.671 500.813 263.859 503.309 268.27C505.552 272.256 504.923 277.157 501.661 281.06C500.49 282.46 499.178 283.922 497.788 285.467C492.542 291.295 486.622 297.902 487.514 302.558C487.837 304.239 488.996 305.551 491.059 306.571L490.955 306.803Z" fill="white"/>
<path d="M462.839 291.12C460.465 290.035 458.515 287.182 457.637 283.463C456.203 277.411 458.017 270.944 461.68 269.023C462.332 268.669 463.057 268.476 463.797 268.459C464.538 268.441 465.272 268.6 465.939 268.922C468.313 270.007 470.262 272.86 471.141 276.571C472.575 282.609 470.761 289.09 467.097 291.011C466.318 291.432 465.436 291.622 464.553 291.558C463.96 291.513 463.38 291.365 462.839 291.12ZM470.433 276.768C469.607 273.267 467.81 270.598 465.624 269.605C465.057 269.333 464.434 269.199 463.805 269.212C463.176 269.225 462.56 269.385 462.004 269.679C458.611 271.429 456.968 277.555 458.332 283.292C459.158 286.792 460.955 289.462 463.141 290.459C463.708 290.728 464.33 290.861 464.957 290.848C465.584 290.835 466.2 290.676 466.756 290.385C470.149 288.608 471.797 282.509 470.433 276.768Z" fill="#1A2578"/>
<g opacity="0.3">
<path opacity="0.3" d="M490.246 274.173C491.12 280.01 488.567 286.014 484.563 287.58C480.558 289.147 476.575 285.69 475.701 279.857C474.827 274.024 477.38 268.042 481.384 266.45C485.389 264.857 489.372 268.34 490.246 274.173Z" fill="white"/>
</g>
<g opacity="0.3">
<path opacity="0.3" d="M471.25 277.083C472.125 282.946 469.912 289.064 466.31 290.748C462.708 292.433 459.07 289.046 458.196 283.187C457.321 277.328 459.534 271.206 463.136 269.522C466.738 267.837 470.376 271.224 471.25 277.083Z" fill="white"/>
</g>
<path d="M479.128 287.252C476.72 285.847 475.015 282.959 474.455 279.327C473.493 273.092 476.309 266.638 480.737 264.957C481.592 264.62 482.513 264.484 483.429 264.56C484.345 264.636 485.231 264.922 486.019 265.395C488.423 266.795 490.119 269.683 490.675 273.306C491.641 279.555 488.825 285.996 484.392 287.676C483.56 288.01 482.663 288.15 481.769 288.088C480.837 288.012 479.934 287.726 479.128 287.252ZM480.991 265.631C476.873 267.206 474.263 273.298 475.172 279.196C475.692 282.561 477.31 285.322 479.496 286.609C480.192 287.014 480.971 287.259 481.774 287.325C482.577 287.391 483.385 287.276 484.139 286.989C488.261 285.414 490.871 279.323 489.962 273.424C489.446 270.064 487.833 267.298 485.651 266.021C484.956 265.602 484.175 265.349 483.367 265.281C482.559 265.212 481.746 265.331 480.991 265.627V265.631Z" fill="#1A2578"/>
<path d="M470.324 279.174C470.48 279.184 470.634 279.139 470.761 279.047C470.84 278.99 472.698 277.735 475.679 278.553C475.852 278.595 476.035 278.57 476.19 278.482C476.346 278.394 476.461 278.251 476.514 278.08C476.539 277.995 476.546 277.905 476.535 277.817C476.524 277.728 476.495 277.643 476.451 277.566C476.406 277.489 476.347 277.421 476.276 277.368C476.205 277.314 476.124 277.275 476.038 277.253C472.444 276.216 470.083 277.87 469.978 277.936C469.906 277.988 469.845 278.053 469.798 278.129C469.751 278.204 469.719 278.289 469.705 278.376C469.691 278.464 469.694 278.554 469.715 278.641C469.735 278.727 469.773 278.809 469.825 278.881C469.88 278.965 469.954 279.035 470.041 279.085C470.127 279.136 470.224 279.167 470.324 279.174Z" fill="#1A2578"/>
<path d="M555.927 4.48491e-06H426.918C421.826 4.35281e-06 416.943 2.02416 413.342 5.62734C409.741 9.23051 407.718 14.1176 407.717 19.2139V64.5772C407.718 65.0752 407.832 65.5666 408.049 66.0146C408.267 66.4625 408.582 66.8556 408.973 67.1644C409.363 67.4731 409.818 67.6897 410.304 67.7978C410.79 67.906 411.294 67.903 411.778 67.789C413.64 67.3537 415.576 67.3493 417.439 67.7761C419.302 68.203 421.043 69.0499 422.53 70.2523C424.017 71.4546 425.21 72.9808 426.018 74.7144C426.827 76.4481 427.229 78.3435 427.195 80.2564C427.16 82.1692 426.69 84.049 425.82 85.7525C424.95 87.456 423.703 88.9383 422.174 90.0865C420.645 91.2346 418.875 92.0184 416.997 92.3781C415.12 92.7377 413.186 92.6638 411.341 92.1619C410.917 92.0424 410.471 92.0227 410.039 92.1043C409.606 92.1859 409.198 92.3666 408.846 92.6323C408.495 92.898 408.21 93.2415 408.013 93.6358C407.816 94.0301 407.713 94.4647 407.712 94.9055V148.338C407.712 150.861 408.209 153.36 409.174 155.692C410.139 158.024 411.553 160.142 413.336 161.927C415.119 163.712 417.236 165.127 419.566 166.093C421.895 167.059 424.392 167.556 426.914 167.556H476.368C476.751 167.559 477.129 167.638 477.48 167.79C477.831 167.942 478.148 168.163 478.412 168.441C478.676 168.718 478.882 169.046 479.016 169.404C479.151 169.762 479.212 170.144 479.197 170.527C479.184 171.053 479.201 171.579 479.249 172.102C479.567 175.312 481.105 178.276 483.545 180.383C485.985 182.489 489.14 183.576 492.359 183.419C495.577 183.263 498.612 181.874 500.837 179.54C503.061 177.207 504.304 174.107 504.309 170.881C504.309 170.689 504.309 170.496 504.309 170.308C504.286 169.956 504.336 169.604 504.455 169.272C504.574 168.94 504.759 168.637 504.999 168.379C505.24 168.121 505.53 167.915 505.852 167.774C506.175 167.632 506.523 167.558 506.875 167.556H555.931C561.024 167.556 565.909 165.531 569.51 161.927C573.112 158.323 575.136 153.435 575.137 148.338V19.2139C575.137 16.6896 574.64 14.19 573.674 11.858C572.709 9.52602 571.294 7.40733 569.51 5.62298C567.726 3.83864 565.608 2.42361 563.277 1.45879C560.947 0.493974 558.449 -0.00172016 555.927 4.48491e-06Z" fill="#F5F6FC"/>
<path d="M486.121 188.853C485.876 188.853 485.636 188.853 485.396 188.853C482.345 188.667 479.459 187.403 477.252 185.286C475.046 183.168 473.664 180.335 473.351 177.292C473.301 176.758 473.284 176.222 473.299 175.686C473.31 175.33 473.25 174.975 473.122 174.643C472.993 174.31 472.799 174.007 472.551 173.752C472.315 173.507 472.032 173.312 471.719 173.179C471.405 173.047 471.068 172.98 470.728 172.982H421.278C416.118 172.976 411.17 170.922 407.522 167.27C403.873 163.617 401.82 158.666 401.815 153.501V100.051C401.811 99.5743 401.92 99.1032 402.131 98.6755C402.342 98.2478 402.65 97.8753 403.03 97.5877C403.414 97.2919 403.862 97.0896 404.338 96.9969C404.813 96.9043 405.304 96.9238 405.771 97.0539C407.577 97.5455 409.471 97.6182 411.309 97.2664C413.147 96.9147 414.88 96.1478 416.377 95.0241C417.874 93.9004 419.095 92.4497 419.947 90.7822C420.8 89.1148 421.26 87.2747 421.295 85.4021C421.329 83.5295 420.936 81.6738 420.145 79.9762C419.355 78.2787 418.188 76.784 416.733 75.6062C415.278 74.4284 413.574 73.5984 411.75 73.1795C409.926 72.7605 408.031 72.7636 406.208 73.1886C405.686 73.3104 405.143 73.3127 404.62 73.1954C404.097 73.0781 403.607 72.8442 403.187 72.5111C402.767 72.178 402.427 71.7543 402.193 71.2716C401.96 70.7889 401.838 70.2595 401.836 69.723V24.3597C401.843 19.1956 403.896 14.2451 407.545 10.594C411.194 6.9428 416.14 4.88909 421.3 4.8833H550.309C555.468 4.88909 560.414 6.94294 564.062 10.5942C567.71 14.2455 569.762 19.196 569.768 24.3597V153.479C569.762 158.644 567.71 163.596 564.061 167.249C560.412 170.902 555.465 172.957 550.304 172.964H501.222C500.913 172.963 500.608 173.025 500.325 173.146C500.041 173.267 499.786 173.445 499.573 173.669C499.352 173.902 499.181 174.177 499.068 174.477C498.955 174.778 498.904 175.098 498.918 175.419C498.918 175.612 498.918 175.809 498.918 176.001C498.918 179.402 497.568 182.664 495.166 185.07C492.764 187.476 489.506 188.828 486.108 188.831L486.121 188.853ZM404.932 97.4609C404.358 97.463 403.8 97.6536 403.345 98.0034C403.03 98.2435 402.775 98.5534 402.601 98.9088C402.426 99.2642 402.337 99.6553 402.339 100.051V153.483C402.344 158.509 404.341 163.328 407.891 166.882C411.442 170.436 416.257 172.435 421.278 172.439H470.728C471.136 172.44 471.539 172.523 471.915 172.682C472.29 172.842 472.63 173.074 472.914 173.367C473.208 173.674 473.436 174.037 473.587 174.435C473.737 174.833 473.805 175.257 473.788 175.682C473.775 176.196 473.793 176.71 473.841 177.222C474.14 180.141 475.466 182.859 477.581 184.891C479.697 186.922 482.465 188.136 485.391 188.314C487.062 188.408 488.733 188.159 490.304 187.584C491.875 187.008 493.313 186.118 494.528 184.967C495.743 183.817 496.712 182.43 497.373 180.892C498.035 179.354 498.376 177.697 498.376 176.023C498.376 175.835 498.376 175.651 498.376 175.463C498.358 175.069 498.42 174.675 498.557 174.305C498.695 173.935 498.905 173.597 499.176 173.31C499.436 173.033 499.75 172.813 500.099 172.662C500.448 172.512 500.824 172.434 501.204 172.435H550.265C555.287 172.429 560.102 170.43 563.654 166.875C567.205 163.321 569.203 158.501 569.208 153.475V24.3597C569.201 19.3379 567.206 14.5236 563.66 10.9714C560.113 7.41923 555.304 5.41881 550.287 5.4084H421.278C416.257 5.41303 411.442 7.41163 407.891 10.9655C404.341 14.5194 402.344 19.3382 402.339 24.3641V69.7318C402.338 70.1908 402.442 70.6439 402.641 71.0571C402.841 71.4703 403.132 71.8327 403.491 72.1171C403.851 72.4015 404.271 72.6004 404.719 72.6989C405.167 72.7973 405.631 72.7927 406.077 72.6854C407.036 72.4651 408.018 72.3535 409.002 72.3529C410.827 72.3556 412.631 72.7484 414.292 73.5052C415.953 74.2619 417.434 75.365 418.635 76.7407C419.836 78.1165 420.73 79.7331 421.256 81.4824C421.783 83.2316 421.93 85.0733 421.688 86.8841C421.446 88.6948 420.82 90.433 419.853 91.9822C418.885 93.5314 417.598 94.856 416.078 95.8673C414.558 96.8786 412.84 97.5533 411.038 97.8462C409.236 98.1391 407.393 98.0435 405.631 97.5659C405.403 97.5009 405.168 97.4656 404.932 97.4609Z" fill="#30262A"/>
<path d="M477.691 103.91C477.691 103.91 475.331 93.3648 480.463 86.985C485.596 80.6052 502.126 72.7244 498.899 63.6754C495.673 54.6264 484.512 53.5412 480.039 57.9169C475.567 62.2927 478.067 67.0447 475.051 67.6355C472.034 68.2262 454.503 69.0576 455.775 58.9846C457.048 48.9117 468.288 34.8699 483.257 34.3973C498.226 33.9248 518.131 34.126 522.455 53.6506C526.779 73.1751 519.395 80.8327 508.81 85.8692C498.226 90.9057 503.149 102.348 499.306 103.919C495.463 105.49 478.146 107.319 477.691 103.91Z" fill="#BF0830"/>
<path d="M473.919 123.553C475.068 115.48 479.781 110.426 487.034 110.426C494.287 110.426 500.294 114.145 502.113 123.465C503.503 130.571 494.27 136.645 487.034 136.645C479.799 136.645 472.887 130.711 473.919 123.553Z" fill="#BF0830"/>
<path d="M481.377 106.772C478.614 106.772 476.223 106.501 475.016 105.801C474.806 105.704 474.622 105.559 474.479 105.379C474.335 105.198 474.236 104.986 474.19 104.759C473.798 102.755 473.618 100.715 473.652 98.6727C473.696 95.5221 474.312 91.072 476.983 87.7552C478.575 85.773 481.263 83.6507 484.105 81.4016C490.435 76.3958 497.61 70.7248 495.402 64.5419C494.72 62.5766 493.545 60.8197 491.99 59.4403C490.434 58.061 488.55 57.1054 486.518 56.6656C482.754 55.7904 478.907 56.6656 476.712 58.8053C474.369 61.1113 473.967 63.4655 473.652 65.3689C473.376 66.9879 473.162 68.2656 471.676 68.5588C469.101 69.062 458.6 69.5477 454.188 65.4127C452.632 63.9599 452.002 62.0696 452.282 59.7986C453.559 49.8175 464.668 35.6051 479.856 35.1281C487.428 34.8875 496.123 34.8393 503.464 37.2591C512.076 40.0902 517.204 45.7131 519.137 54.447C521.161 63.5661 520.754 70.6373 517.899 76.0501C515.565 80.4783 511.722 83.7864 505.44 86.7706C498.882 89.8862 498.318 95.5221 497.898 99.6353C497.64 102.191 497.43 104.212 495.931 104.825C493.806 105.713 486.855 106.772 481.377 106.772ZM483.585 56.1667C484.587 56.1666 485.586 56.2812 486.562 56.508C488.622 56.9529 490.535 57.9195 492.115 59.3154C493.696 60.7112 494.892 62.4897 495.59 64.4806C497.841 70.7948 490.61 76.5139 484.223 81.546C481.39 83.7864 478.71 85.9218 477.132 87.869C474.509 91.142 473.888 95.5484 473.844 98.6639C473.81 100.693 473.989 102.72 474.378 104.711C474.419 104.908 474.507 105.092 474.633 105.249C474.759 105.405 474.92 105.53 475.103 105.613C478.483 107.573 492.245 106.116 495.865 104.632C497.26 104.064 497.457 102.099 497.71 99.6047C498.147 95.4478 498.716 89.7505 505.365 86.5869C511.604 83.6157 515.421 80.3383 517.733 75.9494C520.566 70.576 520.964 63.553 518.957 54.4777C514.817 35.7933 496.604 34.7868 479.856 35.3163C464.768 35.7889 453.738 49.905 452.47 59.8204C452.298 60.8105 452.377 61.8278 452.7 62.7795C453.022 63.7312 453.577 64.5868 454.315 65.2682C458.687 69.3464 469.07 68.8607 471.628 68.3619C472.974 68.095 473.175 66.9354 473.446 65.3295C473.752 63.5136 474.177 61.0194 476.568 58.6696C478.229 57.0418 480.809 56.1667 483.585 56.1667Z" fill="#30262A"/>
<path d="M483.602 137.586C481.604 137.58 479.631 137.15 477.811 136.325C475.991 135.499 474.366 134.298 473.044 132.799C472.021 131.668 471.256 130.327 470.803 128.87C470.35 127.413 470.22 125.875 470.421 124.362H470.522H470.421C471.601 116.096 476.542 111.165 483.62 111.165C491.756 111.165 497.142 115.825 498.799 124.292C499.275 126.73 498.541 129.215 496.674 131.486C493.701 135.074 488.346 137.586 483.602 137.586ZM483.602 111.362C480.105 111.362 477.088 112.57 474.858 114.863C472.629 117.155 471.186 120.407 470.618 124.393C470.422 125.879 470.553 127.39 471 128.82C471.447 130.25 472.2 131.566 473.206 132.676C474.511 134.154 476.113 135.338 477.908 136.151C479.703 136.964 481.649 137.388 483.62 137.393C488.293 137.393 493.601 134.912 496.521 131.359C498.348 129.141 499.07 126.708 498.606 124.327C496.954 115.965 491.633 111.362 483.602 111.362Z" fill="#30262A"/>
<path d="M362.225 291.316C361.289 291.317 360.355 291.214 359.441 291.009C359.186 290.956 358.922 290.96 358.669 291.022C358.415 291.083 358.179 291.201 357.977 291.366C357.775 291.531 357.612 291.739 357.501 291.974C357.39 292.21 357.332 292.468 357.333 292.729V347.054C357.333 349.578 356.837 352.077 355.871 354.409C354.906 356.741 353.491 358.86 351.708 360.645C349.924 362.429 347.807 363.845 345.477 364.81C343.147 365.776 340.65 366.273 338.128 366.272H209.132C206.611 366.273 204.114 365.776 201.784 364.811C199.455 363.845 197.338 362.43 195.555 360.646C193.772 358.862 192.357 356.743 191.392 354.412C190.427 352.081 189.931 349.582 189.931 347.058V293.622C189.932 293.181 190.035 292.747 190.231 292.353C190.428 291.959 190.713 291.616 191.063 291.351C191.414 291.085 191.822 290.904 192.254 290.822C192.686 290.74 193.131 290.759 193.555 290.878C195.399 291.38 197.334 291.454 199.211 291.094C201.089 290.735 202.859 289.951 204.388 288.803C205.917 287.654 207.164 286.172 208.034 284.469C208.904 282.765 209.374 280.885 209.408 278.972C209.443 277.06 209.04 275.164 208.232 273.431C207.424 271.697 206.231 270.171 204.744 268.968C203.257 267.766 201.516 266.919 199.653 266.492C197.789 266.065 195.853 266.07 193.992 266.505C193.508 266.621 193.004 266.625 192.518 266.518C192.032 266.411 191.576 266.195 191.185 265.886C190.794 265.577 190.478 265.184 190.261 264.736C190.044 264.288 189.931 263.796 189.931 263.298V217.934C189.931 215.411 190.427 212.912 191.392 210.58C192.357 208.248 193.772 206.13 195.555 204.345C197.338 202.56 199.454 201.145 201.784 200.179C204.113 199.213 206.61 198.716 209.132 198.716H260.283C260.727 198.714 261.164 198.826 261.553 199.042C261.941 199.259 262.267 199.572 262.498 199.951C262.73 200.331 262.86 200.763 262.875 201.208C262.891 201.652 262.791 202.093 262.587 202.488C261.522 204.47 261.008 206.702 261.098 208.951C261.189 211.2 261.881 213.383 263.102 215.273C264.323 217.163 266.028 218.69 268.04 219.695C270.052 220.701 272.296 221.147 274.539 220.989C276.642 220.839 278.672 220.161 280.445 219.019C282.217 217.877 283.673 216.308 284.68 214.454C285.687 212.601 286.212 210.524 286.206 208.414C286.2 206.305 285.664 204.231 284.647 202.383C284.442 202.004 284.34 201.579 284.349 201.149C284.358 200.718 284.479 200.298 284.699 199.928C284.92 199.558 285.232 199.252 285.606 199.04C285.98 198.827 286.403 198.716 286.833 198.716H338.137C340.658 198.716 343.155 199.213 345.485 200.179C347.814 201.145 349.931 202.56 351.714 204.345C353.497 206.13 354.911 208.248 355.876 210.58C356.841 212.912 357.338 215.411 357.338 217.934V265.293C357.322 265.503 357.357 265.713 357.442 265.905C357.526 266.098 357.657 266.266 357.822 266.396C357.987 266.526 358.182 266.613 358.389 266.65C358.596 266.686 358.808 266.671 359.008 266.606C360.463 266.223 361.974 266.101 363.471 266.247C369.181 266.798 374.357 272.141 374.755 277.865C374.877 279.585 374.642 281.313 374.068 282.939C373.493 284.566 372.589 286.056 371.414 287.318C370.239 288.58 368.816 289.586 367.235 290.274C365.655 290.962 363.949 291.316 362.225 291.316Z" fill="#BF0830"/>
<path d="M335.107 365.994H223.34C224.035 359.666 224.919 353.619 226.033 348.084C226.777 344.386 227.62 340.916 228.582 337.748C228.696 337.359 228.818 336.969 228.945 336.593C229.33 335.385 229.732 334.229 230.152 333.123C230.152 333.123 234.235 316.933 260.755 311.446C261.354 311.319 261.957 311.201 262.573 311.091H262.687C263.513 310.942 264.357 310.811 265.223 310.68L265.8 310.601C266.237 310.535 266.696 310.474 267.159 310.417H267.277C269.026 310.203 270.845 310.032 272.755 309.914C273.8 309.848 274.867 309.796 275.964 309.761H276.012C277.047 309.726 278.108 309.706 279.195 309.7H279.462C281.793 309.7 284.026 309.774 286.159 309.923C286.75 309.967 287.331 310.015 287.908 310.067C288.625 310.137 289.329 310.212 290.024 310.299C292.572 310.606 295.098 311.072 297.588 311.695C310.087 314.854 318.573 321.689 324.488 331.714C326.928 335.955 328.899 340.449 330.368 345.117C332.418 351.326 333.922 358.319 335.107 365.994Z" fill="#BF0830"/>
<path d="M343.322 365.994H206.011C205.135 365.992 204.272 365.782 203.493 365.382C202.714 364.982 202.041 364.402 201.529 363.691C201.017 362.98 200.681 362.158 200.548 361.292C200.415 360.426 200.489 359.54 200.764 358.708C205.573 344.22 220.153 315.826 261.21 310.706C262.626 310.528 264.073 310.382 265.551 310.269C267.212 310.134 268.916 310.037 270.661 309.975C271.365 309.954 272.069 309.923 272.777 309.892L275.986 309.739H276.035C277.132 309.687 278.22 309.634 279.344 309.604C281.447 309.542 283.554 309.542 285.661 309.682L286.221 309.717C287.502 309.809 288.761 309.923 290.003 310.067C291.474 310.234 292.919 310.433 294.335 310.667C294.803 310.746 295.262 310.816 295.721 310.903C296.18 310.991 296.657 311.083 297.116 311.183C328.003 317.484 342.01 336.773 346.281 362.524C346.351 362.952 346.327 363.391 346.21 363.809C346.094 364.228 345.887 364.615 345.605 364.946C345.324 365.276 344.973 365.541 344.579 365.722C344.185 365.903 343.756 365.996 343.322 365.994Z" fill="#1A2578"/>
<path d="M286.544 317.554C279.252 320.097 270.552 316.465 265.524 310.269C265.568 310.269 272.519 307.381 273.709 303.556L276.493 294.56L276.546 294.389L277.372 291.711L278.439 288.259L284.721 267.986L285.548 288.149L285.858 295.715V295.82L286.037 300.261V300.699V301.031L286.16 304.094C286.264 306.72 287.991 309.345 289.95 310.063C289.985 310.054 291.192 315.922 286.544 317.554Z" fill="white"/>
<path d="M286.077 301.014C282.163 300.195 278.724 297.875 276.498 294.551L276.375 294.354C276.434 294.36 276.493 294.368 276.55 294.38C277.53 294.525 282.448 295.255 285.862 295.693V295.798L286.042 300.239V300.677L286.077 301.014Z" fill="#30262A"/>
<path d="M303.358 261.794C304.132 265.441 304.132 269.209 303.358 272.856C302.082 279.013 295.826 263.886 295.826 263.886L303.358 261.794Z" fill="#30262A"/>
<path d="M289.081 298.511C298.94 297.215 305.666 286.519 304.105 274.62C302.544 262.721 293.287 254.125 283.429 255.421C273.57 256.716 266.844 267.412 268.405 279.311C269.966 291.21 279.223 299.806 289.081 298.511Z" fill="white"/>
<path d="M267.951 273.105L276.664 272.2C277.613 272.108 278.529 271.804 279.344 271.309C280.159 270.814 280.853 270.142 281.373 269.342C283.156 266.546 285.307 265.111 293.435 265.404C303.73 265.789 310.528 259.646 311.639 254.255C312.776 248.754 307.507 245.022 302.336 247.647C297.164 250.273 299.385 243.836 294.414 243.153C285.124 241.876 283.384 249.048 275.772 248.811C265.8 248.505 247.932 256.092 256.405 273.665L267.951 273.105Z" fill="#30262A"/>
<path d="M287.2 276.068C287.247 276.037 287.287 275.995 287.315 275.947C287.344 275.898 287.361 275.844 287.366 275.788C287.37 275.74 287.365 275.692 287.351 275.646C287.336 275.6 287.313 275.558 287.282 275.521C287.251 275.485 287.213 275.455 287.171 275.433C287.128 275.411 287.082 275.398 287.034 275.394C286.166 275.267 285.281 275.434 284.519 275.869C283.757 276.303 283.162 276.98 282.828 277.792C282.786 277.879 282.779 277.979 282.811 278.071C282.842 278.163 282.908 278.238 282.994 278.282C283.083 278.315 283.18 278.317 283.269 278.286C283.358 278.256 283.434 278.196 283.484 278.115C284.397 277.082 285.627 276.382 286.981 276.124C287.058 276.127 287.134 276.107 287.2 276.068Z" fill="#080435"/>
<path d="M285.639 280.754C285.866 281.595 286.548 282.141 287.156 281.975C287.764 281.809 288.074 280.991 287.847 280.151C287.619 279.31 286.937 278.763 286.325 278.93C285.713 279.096 285.385 279.923 285.639 280.754Z" fill="#080435"/>
<path d="M300.7 274.982C300.746 274.974 300.789 274.952 300.824 274.921C300.859 274.889 300.884 274.848 300.897 274.803C300.929 274.716 300.932 274.622 300.907 274.533C300.882 274.444 300.83 274.366 300.757 274.309C300.49 274.08 300.178 273.909 299.841 273.807C299.505 273.705 299.151 273.673 298.801 273.714C298.452 273.755 298.115 273.868 297.811 274.046C297.508 274.223 297.244 274.462 297.037 274.746C296.983 274.821 296.954 274.91 296.954 275.002C296.954 275.094 296.983 275.184 297.037 275.258C297.058 275.29 297.086 275.317 297.118 275.338C297.151 275.359 297.187 275.372 297.225 275.377C297.263 275.383 297.302 275.38 297.339 275.369C297.376 275.358 297.41 275.34 297.439 275.315C297.9 275.042 298.414 274.87 298.946 274.808C299.479 274.746 300.018 274.797 300.53 274.956C300.582 274.984 300.642 274.994 300.7 274.982Z" fill="#080435"/>
<path d="M297.374 278.728C297.264 279.603 297.684 280.356 298.314 280.435C298.943 280.514 299.538 279.875 299.625 279.013C299.713 278.151 299.315 277.38 298.69 277.302C298.065 277.223 297.483 277.862 297.374 278.728Z" fill="#080435"/>
<path d="M256.405 273.678C256.405 273.678 262.425 286.679 270.959 287.633C270.959 287.633 264.06 277.726 278.605 271.687C278.605 271.687 265.249 269.587 256.405 273.678Z" fill="#30262A"/>
<path d="M268.441 280.855C270.264 282.014 272.585 281.633 273.621 279.979C274.657 278.325 274.023 276.081 272.196 274.921C270.369 273.761 268.051 274.138 267.011 275.77C265.97 277.402 266.613 279.691 268.441 280.855Z" fill="white"/>
<path d="M297.715 287.208C293.875 288.143 289.91 288.456 285.972 288.136C285.972 288.136 286.872 293.825 293.076 292.687C296.683 292.026 297.715 287.208 297.715 287.208Z" fill="white"/>
<path d="M301.229 246.964C298.383 246.964 298.125 244.483 298.125 244.461C298.118 244.407 298.122 244.352 298.136 244.299C298.151 244.247 298.175 244.197 298.209 244.155C298.243 244.112 298.286 244.076 298.334 244.05C298.382 244.024 298.434 244.007 298.489 244.002C298.543 243.997 298.598 244.003 298.65 244.019C298.702 244.035 298.751 244.062 298.792 244.098C298.834 244.133 298.868 244.177 298.892 244.226C298.916 244.275 298.931 244.328 298.934 244.383C298.956 244.571 299.196 246.216 301.36 246.133C301.468 246.13 301.573 246.169 301.652 246.243C301.73 246.317 301.777 246.419 301.78 246.527C301.784 246.635 301.744 246.74 301.67 246.818C301.596 246.897 301.494 246.943 301.387 246.947L301.229 246.964Z" fill="#BF0830"/>
<path d="M296.355 262.529L296.285 262.293C296.394 262.258 307.35 259.011 307.801 253.366C307.932 251.769 307.665 250.71 306.987 250.128C305.903 249.192 303.927 249.651 302.178 250.058C301.907 250.124 301.645 250.185 301.396 250.238L301.343 249.997L302.122 249.822C303.923 249.384 305.964 248.947 307.145 249.94C307.884 250.579 308.177 251.69 308.041 253.384C307.849 255.799 305.759 258.144 301.999 260.175C300.195 261.133 298.305 261.921 296.355 262.529Z" fill="white"/>
<path d="M274.78 251.082C273.682 251.08 272.585 251.004 271.497 250.854L271.527 250.609C277.114 251.366 281.145 250.071 283.528 248.859C284.988 248.148 286.308 247.179 287.423 245.997L287.611 246.155C287.563 246.194 283.388 251.082 274.78 251.082Z" fill="white"/>
<path d="M280.8 314.286C280.8 314.286 288.718 311.835 290.821 313.734C292.923 315.633 291.376 324.345 287.734 325.111C284.092 325.877 277.194 316.386 280.8 314.286Z" fill="white"/>
<path d="M285.448 312.229C285.448 312.229 275.113 308.575 273.097 304.917C271.082 301.259 260.379 309.73 260.567 312.229C260.755 314.727 280.027 328.747 281.286 326.984C282.545 325.22 287.975 314.627 285.448 312.229Z" fill="#1A2578"/>
<path d="M285.448 312.229C285.448 312.229 286.995 308.391 286.252 306.309C286.252 306.309 285.758 304.475 287.332 304.602C288.906 304.729 297.475 310.728 298.231 312.544C298.987 314.36 299.105 322.949 296.342 323.58C293.579 324.21 286.89 314.999 286.103 314.089C285.875 313.838 285.7 313.545 285.587 313.225C285.474 312.906 285.427 312.567 285.448 312.229Z" fill="#1A2578"/>
<path d="M284.062 323.619L289.942 321.764C289.942 321.764 290.082 322.118 290.339 322.796C292.027 327.255 298.817 345.489 304.911 365.998H284.639C285.666 346.434 286.177 328.34 284.062 323.619Z" fill="white"/>
<path d="M287.668 325.308C285.356 325.308 283.375 323.251 283.296 323.164L283.572 322.906C283.572 322.906 285.526 324.927 287.681 324.927H287.738C289.859 324.892 291.131 320.311 291.144 320.263L291.507 320.363C291.454 320.565 290.147 325.269 287.743 325.308H287.668Z" fill="#30262A"/>
<path opacity="0.3" fill-rule="evenodd" clip-rule="evenodd" d="M115.555 131.581C112.626 131.581 110.257 129.205 110.257 126.276C110.257 123.345 112.626 120.97 115.555 120.97C118.496 120.97 120.866 123.345 120.866 126.276C120.866 129.205 118.496 131.581 115.555 131.581ZM115.555 136.887C109.698 136.887 104.959 132.136 104.959 126.276C104.959 120.415 109.698 115.664 115.555 115.664C121.425 115.664 126.163 120.415 126.163 126.276C126.163 132.136 121.425 136.887 115.555 136.887Z" fill="#FB5472"/>
<defs>
<filter id="filter0_d_1_90251" x="395.115" y="190.716" width="191.411" height="191.556" filterUnits="userSpaceOnUse" color-interpolation-filters="sRGB">
<feFlood flood-opacity="0" result="BackgroundImageFix"/>
<feColorMatrix in="SourceAlpha" type="matrix" values="0 0 0 0 0 0 0 0 0 0 0 0 0 0 0 0 0 0 127 0" result="hardAlpha"/>
<feOffset dy="4"/>
<feGaussianBlur stdDeviation="6"/>
<feComposite in2="hardAlpha" operator="out"/>
<feColorMatrix type="matrix" values="0 0 0 0 0 0 0 0 0 0 0 0 0 0 0 0 0 0 0.06 0"/>
<feBlend mode="normal" in2="BackgroundImageFix" result="effect1_dropShadow_1_90251"/>
<feBlend mode="normal" in="SourceGraphic" in2="effect1_dropShadow_1_90251" result="shape"/>
</filter>
</defs>
</svg>
