<svg width="18" height="18" viewBox="0 0 18 18" fill="none" xmlns="http://www.w3.org/2000/svg">
<path fill-rule="evenodd" clip-rule="evenodd" d="M5.62472 0H12.0533C15.0115 0 17.4104 2.39893 17.4104 5.35714V11.7857C17.4104 14.7439 15.0115 17.1429 12.0533 17.1429H5.62472C2.66651 17.1429 0.267578 14.7439 0.267578 11.7857V5.35714C0.267578 2.39893 2.66651 0 5.62472 0ZM12.0531 15.5357C14.1209 15.5357 15.8031 13.8536 15.8031 11.7857V5.35718C15.8031 3.28932 14.1209 1.60718 12.0531 1.60718H5.62451C3.55665 1.60718 1.87451 3.28932 1.87451 5.35718V11.7857C1.87451 13.8536 3.55665 15.5357 5.62451 15.5357H12.0531Z" fill="white"/>
<path fill-rule="evenodd" clip-rule="evenodd" d="M4.55273 8.5716C4.55273 6.20482 6.47166 4.28589 8.83845 4.28589C11.2052 4.28589 13.1242 6.20482 13.1242 8.5716C13.1242 10.9384 11.2052 12.8573 8.83845 12.8573C6.47166 12.8573 4.55273 10.9384 4.55273 8.5716ZM6.15967 8.57164C6.15967 10.0481 7.36181 11.2502 8.83824 11.2502C10.3147 11.2502 11.5168 10.0481 11.5168 8.57164C11.5168 7.09414 10.3147 5.89307 8.83824 5.89307C7.36181 5.89307 6.15967 7.09414 6.15967 8.57164Z" fill="white"/>
<circle cx="13.4461" cy="3.96414" r="0.571071" fill="white"/>
</svg>
