<svg width="44" height="44" viewBox="0 0 44 44" fill="none" xmlns="http://www.w3.org/2000/svg">
<path d="M23.0255 19.1204V37.4275C23.0257 37.9513 22.9228 38.4701 22.7225 38.9541C22.5221 39.4381 22.2284 39.8779 21.8581 40.2484C21.4877 40.6189 21.0481 40.9128 20.5641 41.1133C20.0802 41.3138 19.5615 41.417 19.0377 41.417V41.417C18.5138 41.417 17.9951 41.3138 17.5112 41.1133C17.0273 40.9128 16.5876 40.6189 16.2173 40.2484C15.8469 39.8779 15.5532 39.4381 15.3529 38.9541C15.1526 38.4701 15.0496 37.9513 15.0498 37.4275V35.0057" stroke="#BF0830" stroke-width="1.5" stroke-linecap="round" stroke-linejoin="round"/>
<path d="M4 21.8312C4 21.8312 6.81086 4.99493 23.0255 4.99493C39.2402 4.99493 41 21.8312 41 21.8312C41 21.8312 35.1264 16.2514 28.6667 21.8312C28.6667 21.8312 21.6193 15.1745 16.1364 21.8312C16.1364 21.8312 9.67666 15.6637 4 21.8312Z" stroke="#1A2578" stroke-width="1.5" stroke-linecap="round" stroke-linejoin="round"/>
<path d="M23.0254 4.99494V2" stroke="#BF0830" stroke-width="1.5" stroke-linecap="round" stroke-linejoin="round"/>
</svg>
