<svg width="22" height="23" viewBox="0 0 22 23" fill="none" xmlns="http://www.w3.org/2000/svg">
<path d="M11 12.875C10.3201 12.875 9.65552 12.6734 9.09023 12.2957C8.52494 11.918 8.08434 11.3811 7.82417 10.753C7.56399 10.1249 7.49592 9.43369 7.62855 8.76688C7.76119 8.10007 8.08858 7.48757 8.56932 7.00682C9.05007 6.52608 9.66257 6.19869 10.3294 6.06605C10.9962 5.93342 11.6874 6.00149 12.3155 6.26167C12.9436 6.52184 13.4805 6.96244 13.8582 7.52773C14.2359 8.09302 14.4375 8.75763 14.4375 9.4375C14.4364 10.3488 14.0739 11.2226 13.4295 11.867C12.7851 12.5114 11.9113 12.8739 11 12.875ZM11 7.375C10.5921 7.375 10.1933 7.49597 9.85414 7.7226C9.51496 7.94923 9.25061 8.27134 9.0945 8.64822C8.93839 9.02509 8.89755 9.43979 8.97713 9.83988C9.05671 10.24 9.25315 10.6075 9.54159 10.8959C9.83004 11.1844 10.1975 11.3808 10.5976 11.4604C10.9977 11.54 11.4124 11.4991 11.7893 11.343C12.1662 11.1869 12.4883 10.9225 12.7149 10.5834C12.9415 10.2442 13.0625 9.84543 13.0625 9.4375C13.062 8.89066 12.8445 8.36637 12.4578 7.9797C12.0711 7.59302 11.5468 7.37555 11 7.375Z" fill="#8F90A6"/>
<path d="M11 21.125L5.20026 14.2851C5.11967 14.1824 5.03992 14.079 4.96101 13.975C3.97031 12.67 3.43511 11.076 3.43751 9.4375C3.43751 7.4318 4.23427 5.50825 5.65251 4.09001C7.07076 2.67176 8.99431 1.875 11 1.875C13.0057 1.875 14.9293 2.67176 16.3475 4.09001C17.7657 5.50825 18.5625 7.4318 18.5625 9.4375C18.5649 11.0752 18.03 12.6685 17.0397 13.9729L17.039 13.975C17.039 13.975 16.8328 14.2459 16.8018 14.2823L11 21.125ZM6.05826 13.1466C6.05963 13.1466 6.21913 13.3583 6.25557 13.4037L11 18.9993L15.7506 13.3961C15.7809 13.3583 15.9418 13.1452 15.9424 13.1445C16.7517 12.0783 17.1891 10.7761 17.1875 9.4375C17.1875 7.79647 16.5356 6.22266 15.3752 5.06228C14.2148 3.9019 12.641 3.25 11 3.25C9.35898 3.25 7.78517 3.9019 6.62478 5.06228C5.4644 6.22266 4.81251 7.79647 4.81251 9.4375C4.81107 10.7769 5.24892 12.0798 6.05895 13.1466H6.05826Z" fill="#8F90A6"/>
</svg>
