<svg width="44" height="44" viewBox="0 0 44 44" fill="none" xmlns="http://www.w3.org/2000/svg">
<path d="M2 35.1033L12.0614 27.3268C12.0614 27.3268 16.5642 24.19 20.7704 27.9444L29.9875 30.1335C30.516 30.2588 30.975 30.5851 31.2669 31.0432C31.5589 31.5013 31.6609 32.0551 31.5513 32.5872V32.5872C31.4399 33.129 31.1183 33.6045 30.6569 33.9096C30.1956 34.2147 29.6321 34.3245 29.0899 34.2149L19.7937 32.3377L29.1143 34.2271C29.3771 34.2813 29.6485 34.2796 29.9106 34.2219C30.1727 34.1643 30.4197 34.052 30.6355 33.8924L38.917 27.7892C39.2901 27.5071 39.7526 27.3694 40.2192 27.4016C40.6859 27.4337 41.1251 27.6336 41.456 27.9642V27.9642C41.6493 28.1576 41.7995 28.3898 41.8967 28.6454C41.9938 28.901 42.0359 29.1742 42.0199 29.4472C42.004 29.7202 41.9304 29.9868 41.8041 30.2293C41.6778 30.4719 41.5016 30.6849 41.2871 30.8545L30.9687 39.0022C30.2527 39.5681 29.3667 39.8757 28.4541 39.8754H11.7206L7.98753 43" stroke="#1A2578" stroke-width="1.5" stroke-linecap="round" stroke-linejoin="round"/>
<path d="M29.3195 5.92322C30.6247 5.92322 35.8805 7.03675 35.8805 12.5466C35.8805 12.5466 35.6249 16.2736 33.2366 17.9622C33.2366 17.9622 32.0592 18.63 32.0592 22.1653V25.3188H26.1706V22.0345C26.1706 22.0345 26.5935 19.4043 24.7056 17.7979C23.2087 16.5246 22.2823 14.7737 22.4131 12.0963C22.5364 9.48592 24.9247 5.92322 29.3195 5.92322Z" stroke="#BF0830" stroke-width="1.5" stroke-linecap="round" stroke-linejoin="round"/>
<path d="M26.1665 23.0523H32.0597" stroke="#BF0830" stroke-width="1.5" stroke-linecap="round" stroke-linejoin="round"/>
<path d="M32.1769 20.3992H26.1665" stroke="#BF0830" stroke-width="1.5" stroke-linecap="round" stroke-linejoin="round"/>
<path d="M29.7015 9.32623L27.8867 12.7018H30.4986L28.6184 15.8873" stroke="#BF0830" stroke-width="1.5" stroke-linecap="round" stroke-linejoin="round"/>
<path d="M35.1475 6.58654L36.6763 5.08966" stroke="#BF0830" stroke-width="1.5" stroke-linecap="round" stroke-linejoin="round"/>
<path d="M37.6636 12.7338H39.8617" stroke="#BF0830" stroke-width="1.5" stroke-linecap="round" stroke-linejoin="round"/>
<path d="M35.1475 18.8171L36.6763 20.2181" stroke="#BF0830" stroke-width="1.5" stroke-linecap="round" stroke-linejoin="round"/>
<path d="M23.0766 18.8171L21.4854 20.2181" stroke="#BF0830" stroke-width="1.5" stroke-linecap="round" stroke-linejoin="round"/>
<path d="M20.5604 12.7338H18.3638" stroke="#BF0830" stroke-width="1.5" stroke-linecap="round" stroke-linejoin="round"/>
<path d="M23.0766 6.71433L21.4854 5.08966" stroke="#BF0830" stroke-width="1.5" stroke-linecap="round" stroke-linejoin="round"/>
<path d="M29.1123 4.13427L29.1716 2" stroke="#BF0830" stroke-width="1.5" stroke-linecap="round" stroke-linejoin="round"/>
</svg>
