<svg width="17" height="17" viewBox="0 0 17 17" fill="none" xmlns="http://www.w3.org/2000/svg">
<g clip-path="url(#clip0_494_204)">
<path d="M4.01709 16.5715H0.780099V5.93569H4.10958V16.5715H4.01709ZM2.35236 4.45592C1.33501 4.45592 0.410156 3.62356 0.410156 2.51373C0.410156 1.49639 1.24253 0.571533 2.35236 0.571533C3.36969 0.571533 4.29454 1.4039 4.29454 2.51373C4.29454 3.62356 3.46218 4.45592 2.35236 4.45592ZM16.4102 16.5715H13.0807V11.3923C13.0807 10.19 13.0807 8.61777 11.4159 8.61777C9.65872 8.61777 9.47374 9.91257 9.47374 11.2999V16.5715H6.14426V5.93569H9.28877V7.41547C9.7512 6.58309 10.7685 5.75072 12.4333 5.75072C15.7628 5.75072 16.4102 7.97037 16.4102 10.8374V16.5715Z" fill="white"/>
</g>
<defs>
<clipPath id="clip0_494_204">
<rect width="16" height="16" fill="white" transform="translate(0.410156 0.571533)"/>
</clipPath>
</defs>
</svg>
