<svg width="196" height="38" viewBox="0 0 196 38" fill="none" xmlns="http://www.w3.org/2000/svg">
<path d="M103.459 21.5874C103.459 23.4515 103.174 25.1103 102.603 26.5666C102.032 28.0244 101.228 29.2478 100.193 30.2381C99.1574 31.2284 97.9166 31.9799 96.4748 32.491C95.033 33.0008 93.4252 33.2571 91.6528 33.2571C89.8804 33.2571 88.2726 32.9877 86.8323 32.4459C85.3905 31.9056 84.1512 31.1323 83.1142 30.1259C82.0788 29.1196 81.2734 27.8948 80.704 26.4545C80.1331 25.0127 79.8477 23.3903 79.8477 21.5874C79.8477 19.815 80.1331 18.2072 80.704 16.7668C81.2749 15.3251 82.0788 14.1017 83.1142 13.0939C84.1512 12.0876 85.3905 11.3143 86.8323 10.774C88.2741 10.2336 89.8804 9.96277 91.6528 9.96277C93.4252 9.96277 95.033 10.2409 96.4748 10.7958C97.9166 11.3521 99.1559 12.1327 100.193 13.1391C101.23 14.1454 102.032 15.3702 102.603 16.812C103.174 18.2523 103.459 19.8456 103.459 21.5874ZM87.6886 21.5874C87.6886 23.4194 88.0411 24.8248 88.7474 25.8006C89.4537 26.7778 90.4368 27.2642 91.6994 27.2642C92.9606 27.2642 93.9305 26.769 94.6063 25.7773C95.282 24.787 95.6199 23.3889 95.6199 21.5874C95.6199 19.7859 95.2747 18.3965 94.583 17.4193C93.8912 16.4435 92.9155 15.9557 91.6543 15.9557C90.3931 15.9557 89.4159 16.4435 88.7255 17.4193C88.0323 18.395 87.6886 19.7859 87.6886 21.5874Z" fill="#1A2578"/>
<path d="M107.784 32.536C107.304 32.1151 106.919 31.6199 106.635 31.0491C106.35 30.4782 106.207 29.833 106.207 29.1121C106.207 28.5121 106.35 27.9179 106.635 27.3325C106.921 26.7455 107.273 26.198 107.694 25.6868L115.445 16.5846H107.154C106.973 16.254 106.8 15.8346 106.635 15.3234C106.471 14.8137 106.388 14.2574 106.388 13.6559C106.388 12.6044 106.621 11.8456 107.087 11.3811C107.551 10.915 108.175 10.682 108.957 10.682H123.15C123.631 11.1029 124.014 11.5995 124.299 12.1689C124.585 12.7398 124.727 13.3865 124.727 14.1074C124.727 14.7088 124.585 15.3016 124.299 15.887C124.014 16.4725 123.66 17.0215 123.241 17.5327L115.67 26.6349H124.502C124.682 26.9655 124.854 27.3863 125.02 27.8961C125.185 28.4072 125.268 28.9636 125.268 29.5636C125.268 30.6151 125.035 31.3738 124.569 31.8384C124.103 32.3044 123.479 32.5374 122.699 32.5374H107.784V32.536Z" fill="#1A2578"/>
<path d="M128.512 4.55532C128.512 3.41354 128.895 2.45381 129.661 1.67175C130.427 0.891148 131.44 0.49939 132.702 0.49939C133.963 0.49939 134.978 0.891148 135.744 1.67175C136.51 2.45381 136.893 3.41354 136.893 4.55532C136.893 5.6971 136.51 6.65829 135.744 7.43889C134.978 8.22095 133.964 8.6098 132.702 8.6098C131.44 8.6098 130.427 8.22095 129.661 7.43889C128.895 6.65829 128.512 5.6971 128.512 4.55532ZM136.533 32.491C136.203 32.5507 135.715 32.6337 135.068 32.7386C134.423 32.8435 133.769 32.8959 133.108 32.8959C132.447 32.8959 131.854 32.8507 131.328 32.7604C130.803 32.6701 130.36 32.4896 129.999 32.2201C129.639 31.9493 129.361 31.5823 129.166 31.1162C128.969 30.6502 128.873 30.0429 128.873 29.2914V10.9531C129.203 10.8934 129.69 10.8104 130.337 10.7055C130.982 10.6006 131.636 10.5482 132.297 10.5482C132.957 10.5482 133.551 10.5934 134.076 10.6836C134.602 10.7739 135.045 10.9545 135.406 11.2254C135.767 11.4948 136.044 11.8633 136.239 12.3293C136.434 12.7954 136.532 13.4041 136.532 14.1541V32.491H136.533Z" fill="#1A2578"/>
<path d="M53.1731 9.9613C54.4038 9.9613 55.6125 10.1346 56.7995 10.4798C57.9864 10.8249 59.0146 11.3434 59.8855 12.0337C60.7869 11.4337 61.8006 10.9371 62.9263 10.5468C64.0535 10.1565 65.4123 9.9613 67.0055 9.9613C68.1473 9.9613 69.2658 10.1113 70.3624 10.4128C71.4591 10.7128 72.4348 11.1861 73.2911 11.8313C74.1475 12.4779 74.8305 13.3342 75.3417 14.4003C75.8514 15.4663 76.1077 16.7654 76.1077 18.2975V32.491C75.8077 32.5813 75.3344 32.6716 74.6892 32.7605C74.0426 32.8508 73.3742 32.8959 72.6838 32.8959C72.0227 32.8959 71.4299 32.8508 70.9042 32.7605C70.3784 32.6702 69.9357 32.491 69.5745 32.2202C69.2148 31.9493 68.9367 31.5823 68.7415 31.1162C68.5449 30.6517 68.4488 30.0429 68.4488 29.2914V18.5232C68.4488 17.6217 68.1925 16.9693 67.6827 16.5629C67.1716 16.1566 66.4798 15.9556 65.6104 15.9556C65.1895 15.9556 64.738 16.0532 64.2589 16.2484C63.7783 16.4435 63.4171 16.6474 63.1768 16.8571C63.2059 16.978 63.2219 17.0901 63.2219 17.195V17.4877V32.4925C62.8914 32.5828 62.4035 32.6731 61.7583 32.7619C61.1117 32.8522 60.4578 32.8974 59.7981 32.8974C59.1369 32.8974 58.5442 32.8522 58.0184 32.7619C57.4927 32.6716 57.0499 32.4925 56.6888 32.2216C56.3276 31.9507 56.0494 31.5837 55.8557 31.1177C55.6591 30.6531 55.563 30.0444 55.563 29.2929V18.5246C55.563 17.6232 55.2848 16.9707 54.73 16.5644C54.1737 16.1581 53.5052 15.9571 52.7246 15.9571C52.1843 15.9571 51.7183 16.0401 51.3279 16.2047C50.9376 16.3707 50.6071 16.528 50.3362 16.678V32.494C50.0362 32.5842 49.5629 32.6745 48.9177 32.7634C48.2711 32.8537 47.6026 32.8988 46.9123 32.8988C46.2511 32.8988 45.6569 32.8537 45.1312 32.7634C44.6054 32.6731 44.1627 32.494 43.8015 32.2231C43.4418 31.9522 43.1622 31.5852 42.9685 31.1192C42.7734 30.6546 42.6758 30.0458 42.6758 29.2944V15.6877C42.6758 14.8765 42.8491 14.2313 43.1942 13.7507C43.5394 13.2701 44.0127 12.8201 44.6127 12.3992C45.6336 11.6783 46.9036 11.0929 48.4196 10.6414C49.9357 10.187 51.5202 9.9613 53.1731 9.9613Z" fill="#1A2578"/>
<path d="M7.93618 34.6972C6.42594 33.7127 5.07882 32.501 3.94287 31.1073C4.1555 30.7359 4.2458 30.3063 4.2458 29.8315C4.2458 24.9746 4.2458 20.1177 4.2458 15.2622V14.9593C4.35066 15.035 4.40891 15.086 4.47445 15.1239C5.56234 15.7486 6.64877 16.3763 7.74249 16.9894C7.89831 17.0768 7.92745 17.1759 7.92745 17.3346C7.92454 22.9998 7.92598 28.6665 7.92161 34.3317C7.92161 34.4554 7.92598 34.5763 7.93618 34.6972ZM16.0204 37.4453C14.3995 37.3186 12.8426 36.9691 11.3775 36.4273C11.9703 36.0079 12.2892 35.4516 12.2907 34.7176C12.2936 29.7878 12.2921 24.8566 12.2921 19.9269V19.5774C12.6781 19.8104 13.0174 20.0259 13.3669 20.2225C14.1067 20.6405 14.848 21.057 15.5966 21.4561C15.9141 21.625 16.032 21.8347 16.0306 22.2163C16.016 27.2931 16.0189 32.37 16.0204 37.4453ZM17.3952 37.4992C17.3908 37.4992 17.3879 37.4992 17.3835 37.4992C18.4073 37.4992 19.4108 37.4089 20.3851 37.2385C20.3894 32.0029 20.388 26.7659 20.3851 21.5303C20.3851 21.0425 20.3909 20.5502 20.3239 20.0711C20.2846 19.7871 20.1287 19.5089 19.986 19.2497C19.753 18.8288 19.3394 18.6016 18.9389 18.3715C18.3738 18.0482 17.8073 17.7293 17.2423 17.406C16.6233 17.0506 16.0102 16.688 15.3898 16.3355C14.583 15.8783 13.7689 15.437 12.9664 14.9739C12.0795 14.4627 11.2057 13.9311 10.3217 13.4141C9.89061 13.1622 9.44788 12.9262 9.01243 12.6787C8.15464 12.1937 7.29831 11.7087 6.44342 11.2209C5.9104 10.9165 5.38174 10.6063 4.84727 10.3048C4.45696 10.0849 4.04044 9.90575 3.67199 9.65671C3.6516 9.64215 3.63122 9.62905 3.60938 9.61594C4.8298 8.02124 6.31818 6.64645 8.01046 5.5571C7.86483 6.01731 7.89687 6.50517 8.08765 7.0047C8.29154 7.53919 8.70805 7.90328 9.19592 8.18144C10.0042 8.64019 10.8212 9.08729 11.6295 9.54749C12.3839 9.97711 13.1324 10.4184 13.8854 10.8524C14.5407 11.231 15.1946 11.6082 15.8529 11.9825C16.4092 12.2985 16.9685 12.6088 17.5262 12.9219C17.969 13.1709 18.4132 13.417 18.8501 13.6733C19.3321 13.9559 19.8025 14.2573 20.2875 14.534C20.9239 14.8981 21.5691 15.2462 22.2084 15.6045C22.7094 15.8855 23.2075 16.171 23.707 16.4535C23.9385 16.5846 24.0784 16.7244 24.0769 17.0506C24.0609 22.6576 24.0667 28.266 24.0609 33.8729C24.0609 34.3229 24.1264 34.7365 24.3492 35.1385C24.4992 35.4079 24.6827 35.622 24.8939 35.7895C26.1653 35.1778 27.3493 34.4161 28.427 33.5263C28.4387 30.6019 28.4314 27.6776 28.4314 24.7532C28.4314 21.6964 28.4299 18.6395 28.4328 15.5812C28.4328 15.1879 28.3644 14.8195 28.1911 14.4583C27.9945 14.0476 27.7003 13.7374 27.3173 13.5131C26.7012 13.152 26.0721 12.8156 25.4531 12.4602C24.5502 11.9417 23.6546 11.4102 22.7516 10.8932C21.9448 10.4315 21.1278 9.98586 20.3195 9.52711C19.2841 8.9402 18.2515 8.34746 17.219 7.75472C16.466 7.32219 15.716 6.88528 14.9645 6.44837C14.4067 6.12361 13.8519 5.79447 13.2926 5.47116C12.9329 5.26291 12.5688 5.05903 12.2047 4.8566C11.8931 4.68475 11.561 4.54347 11.2698 4.34249C11.1154 4.23618 10.9523 4.15754 10.7848 4.1022C12.6446 3.33616 14.666 2.88323 16.7835 2.81042C16.8927 2.89925 17.0122 2.98226 17.1447 3.05799C18.1481 3.63616 19.1442 4.22599 20.1491 4.8027C20.8453 5.20174 21.5531 5.5833 22.2521 5.97943C22.9162 6.35518 23.573 6.74256 24.2356 7.11975C24.7993 7.44016 25.3672 7.74889 25.9308 8.06638C26.375 8.31687 26.8163 8.57028 27.2561 8.82805C27.6479 9.05815 28.0309 9.30428 28.427 9.52855C28.9091 9.80089 29.4071 10.0456 29.8892 10.3194C30.5533 10.6966 31.2057 11.0912 31.8669 11.4728C32.0358 11.5718 32.1174 11.6796 32.1174 11.9024C32.1072 17.5589 32.1058 23.2153 32.1189 28.8718C32.1189 29.0014 32.1276 29.1354 32.1451 29.2679C33.7893 26.6159 34.7403 23.4877 34.7417 20.1381C34.7417 20.1424 34.7417 20.1454 34.7417 20.1497C34.7432 29.7325 26.975 37.4992 17.3952 37.4992Z" fill="#D60936"/>
<path d="M3.92923 31.132C1.47382 28.1363 0 24.3032 0 20.1278C0 16.1637 1.32819 12.5097 3.56369 9.58533C3.57971 9.59552 3.59573 9.60572 3.61175 9.61591C1.37625 12.5359 0.0466032 16.1884 0.0466032 20.1512C0.0466032 24.3061 1.50732 28.1203 3.94379 31.1073C3.93942 31.116 3.93505 31.1233 3.92923 31.132ZM11.3683 36.4331C10.1551 35.986 9.00752 35.4093 7.93856 34.7176C7.93856 34.7103 7.9371 34.703 7.9371 34.6972C9.00752 35.3948 10.1609 35.9773 11.377 36.4273C11.3755 36.4288 11.3712 36.4317 11.3683 36.4331ZM17.3713 37.4992C16.9169 37.4992 16.4655 37.4817 16.0198 37.4482V37.4468C16.4699 37.4817 16.9242 37.5006 17.383 37.5006C17.3801 37.4992 17.3757 37.4992 17.3713 37.4992Z" fill="#E3E3E3"/>
<path d="M17.3837 37.4993C16.925 37.4993 16.4706 37.4804 16.0206 37.4455C16.0191 32.3701 16.0162 27.2933 16.0323 22.2164C16.0337 21.8349 15.9157 21.6266 15.5983 21.4562C14.8482 21.0557 14.1084 20.6392 13.3686 20.2227C13.0191 20.0246 12.6797 19.8091 12.2938 19.5775V19.927C12.2938 24.8568 12.2953 29.7865 12.2924 34.7177C12.2924 35.4517 11.9734 36.008 11.3807 36.426C10.1632 35.976 9.0112 35.3935 7.93933 34.6959C7.92913 34.575 7.92476 34.4541 7.92476 34.3303C7.92913 28.6651 7.92767 22.9985 7.93059 17.3333C7.93059 17.1745 7.90146 17.0755 7.74563 16.9881C6.65191 16.375 5.56548 15.7473 4.47758 15.1225C4.41205 15.0847 4.3538 15.0337 4.24894 14.958V15.2609C4.24894 20.1178 4.24894 24.9733 4.24894 29.8302C4.24894 30.305 4.15864 30.7346 3.94602 31.106C1.50955 28.119 0.0488281 24.3048 0.0488281 20.1499C0.0488281 16.1871 1.37702 12.5361 3.61251 9.61462C3.6329 9.62773 3.65329 9.64229 3.67514 9.6554C4.04505 9.90444 4.46011 10.085 4.85041 10.3035C5.38489 10.605 5.91354 10.9152 6.44657 11.2195C7.29999 11.7089 8.15632 12.1938 9.01265 12.6788C9.4481 12.9249 9.88938 13.1608 10.3205 13.4142C11.2045 13.9313 12.0783 14.4628 12.9652 14.974C13.7676 15.4371 14.5832 15.8784 15.3885 16.3357C16.009 16.6881 16.6221 17.0508 17.241 17.4061C17.8061 17.7309 18.3726 18.0484 18.9377 18.3717C19.3396 18.6018 19.7518 18.829 19.9848 19.2498C20.1275 19.5091 20.2833 19.7858 20.3227 20.0712C20.3897 20.5518 20.3838 21.0441 20.3838 21.5305C20.3867 26.7661 20.3882 32.0031 20.3838 37.2387C19.411 37.4091 18.4076 37.4979 17.3837 37.4993Z" fill="#BF0830"/>
<path d="M8.01367 5.55572C8.02241 5.52659 8.0326 5.49892 8.0428 5.46979C8.88457 4.9324 9.77585 4.46637 10.7079 4.07898C10.7356 4.08626 10.7618 4.095 10.7895 4.10374C9.81663 4.50569 8.88748 4.99357 8.01367 5.55572Z" fill="#E3E3E3"/>
<path d="M24.8962 35.7897C24.6836 35.6237 24.5001 35.4096 24.3515 35.1387C24.1287 34.7367 24.0632 34.3217 24.0632 33.8731C24.069 28.2647 24.0617 22.6578 24.0792 17.0508C24.0807 16.7246 23.9408 16.5848 23.7093 16.4537C23.2098 16.1698 22.7117 15.8843 22.2107 15.6032C21.5714 15.245 20.9247 14.8969 20.2898 14.5328C19.8048 14.2547 19.3344 13.9532 18.8524 13.6721C18.414 13.4158 17.9698 13.1697 17.5285 12.9206C16.9708 12.6075 16.4115 12.2973 15.8552 11.9813C15.1984 11.607 14.543 11.2298 13.8877 10.8512C13.1362 10.4172 12.3876 9.97589 11.6318 9.54627C10.8235 9.08606 10.0065 8.64042 9.19822 8.18021C8.71034 7.9035 8.29383 7.53796 8.08994 7.00348C7.89916 6.50395 7.86712 6.01462 8.01275 5.55587C8.88656 4.99226 9.81571 4.50584 10.7886 4.10535C10.956 4.16214 11.1177 4.24079 11.2735 4.3471C11.5648 4.54808 11.8968 4.68789 12.2085 4.86119C12.5726 5.06362 12.9352 5.26751 13.2964 5.47577C13.8542 5.79908 14.4105 6.12822 14.9683 6.45298C15.7198 6.88989 16.4698 7.32679 17.2227 7.75933C18.2553 8.35206 19.2878 8.94334 20.3233 9.5317C21.1315 9.99045 21.9486 10.4361 22.7554 10.8978C23.6583 11.4148 24.554 11.9463 25.4569 12.4648C26.0759 12.8201 26.705 13.1566 27.321 13.5177C27.704 13.742 27.9982 14.0522 28.1948 14.4629C28.3667 14.8226 28.4366 15.1911 28.4366 15.5843C28.4337 18.6412 28.4351 21.6981 28.4351 24.7564C28.4351 27.6807 28.4439 30.6051 28.4308 33.5294C27.3516 34.4163 26.1676 35.178 24.8962 35.7897Z" fill="#BF0830"/>
<path d="M34.7431 20.1397C34.7358 10.5642 26.972 2.80331 17.3951 2.80331C17.1912 2.80331 16.9887 2.80622 16.7863 2.8135C16.7674 2.79894 16.7499 2.78292 16.7324 2.7669C16.945 2.75962 17.1577 2.75525 17.3718 2.75525C26.9662 2.75525 34.7431 10.5322 34.7431 20.1266C34.7431 20.131 34.7431 20.1353 34.7431 20.1397Z" fill="#E3E3E3"/>
<path d="M32.1448 29.2693C32.1273 29.1368 32.1186 29.0028 32.1186 28.8732C32.1069 23.2168 32.1084 17.5603 32.1171 11.9038C32.1171 11.681 32.037 11.5733 31.8666 11.4757C31.2054 11.0941 30.553 10.698 29.8889 10.3222C29.4068 10.0484 28.9102 9.80378 28.4267 9.53144C28.0306 9.30862 27.6476 9.06104 27.2558 8.83239C26.816 8.57462 26.3747 8.32122 25.9305 8.07072C25.3669 7.75324 24.7975 7.44304 24.2353 7.1241C23.5727 6.7469 22.9144 6.35951 22.2518 5.98378C21.5527 5.58765 20.8464 5.20608 20.1488 4.80705C19.1439 4.23033 18.1478 3.64051 17.1444 3.06234C17.0133 2.98661 16.8924 2.9036 16.7832 2.81476C16.9856 2.80748 17.1881 2.80457 17.392 2.80457C26.9689 2.80457 34.7342 10.5655 34.74 20.141C34.74 23.4891 33.7904 26.6173 32.1448 29.2693Z" fill="#BF0830"/>
<path d="M14.3231 13.8016C15.0018 13.8016 15.6688 13.8978 16.3242 14.0871C16.9781 14.2779 17.546 14.5633 18.0266 14.9449C18.5233 14.6143 19.084 14.3405 19.7044 14.125C20.3262 13.9094 21.0748 13.8016 21.9544 13.8016C22.5836 13.8016 23.2011 13.8847 23.8054 14.0507C24.4098 14.2167 24.9487 14.4774 25.4205 14.8342C25.8924 15.191 26.2696 15.6629 26.5507 16.2512C26.8317 16.8396 26.973 17.5561 26.973 18.4008V26.2301C26.807 26.2796 26.5463 26.3292 26.1895 26.3787C25.8327 26.4282 25.4642 26.4529 25.0841 26.4529C24.7186 26.4529 24.3923 26.4282 24.1025 26.3787C23.8127 26.3292 23.5681 26.2301 23.3685 26.0801C23.1705 25.9301 23.0161 25.7277 22.9083 25.4714C22.8006 25.2151 22.7467 24.8786 22.7467 24.465V18.5246C22.7467 18.028 22.6054 17.6668 22.3243 17.4425C22.0418 17.2197 21.6617 17.1076 21.1811 17.1076C20.9481 17.1076 20.7005 17.1614 20.4354 17.2692C20.1704 17.377 19.9709 17.4891 19.8383 17.6042C19.8544 17.6712 19.8631 17.7323 19.8631 17.7906V17.9522V26.2287C19.6811 26.2782 19.4116 26.3277 19.0548 26.3772C18.698 26.4267 18.3383 26.4515 17.9742 26.4515C17.6101 26.4515 17.2824 26.4267 16.9926 26.3772C16.7028 26.3277 16.4582 26.2287 16.2601 26.0787C16.0606 25.9287 15.9077 25.7262 15.7999 25.4699C15.6921 25.2136 15.6382 24.8772 15.6382 24.4636V18.5231C15.6382 18.0265 15.4853 17.6653 15.178 17.4411C14.8707 17.2182 14.5023 17.1061 14.0727 17.1061C13.7741 17.1061 13.5178 17.1512 13.3022 17.243C13.0867 17.3347 12.9047 17.4207 12.7547 17.5037V26.2272C12.5886 26.2767 12.328 26.3262 11.9726 26.3758C11.6158 26.4253 11.2473 26.45 10.8672 26.45C10.5017 26.45 10.1755 26.4253 9.88565 26.3758C9.59584 26.3262 9.35117 26.2272 9.15311 26.0772C8.95505 25.9272 8.80067 25.7248 8.6929 25.4685C8.58513 25.2121 8.53125 24.8757 8.53125 24.4621V16.9561C8.53125 16.509 8.62591 16.1522 8.81669 15.8871C9.00602 15.6221 9.26816 15.373 9.59875 15.1415C10.1624 14.7439 10.8629 14.4206 11.6988 14.1716C12.5377 13.9269 13.4115 13.8016 14.3231 13.8016Z" fill="white"/>
</svg>
