<svg width="44" height="44" viewBox="0 0 44 44" fill="none" xmlns="http://www.w3.org/2000/svg">
<path d="M7.25721 40.3564C10.1607 40.3564 12.5144 38.0027 12.5144 35.0992C12.5144 32.1957 10.1607 29.842 7.25721 29.842C4.35373 29.842 2 32.1957 2 35.0992C2 38.0027 4.35373 40.3564 7.25721 40.3564Z" stroke="#1A2578" stroke-width="1.5" stroke-linecap="round" stroke-linejoin="round"/>
<path d="M36.9802 40.8313C39.7525 40.8313 41.9999 38.5839 41.9999 35.8116C41.9999 33.0393 39.7525 30.7919 36.9802 30.7919C34.2079 30.7919 31.9604 33.0393 31.9604 35.8116C31.9604 38.5839 34.2079 40.8313 36.9802 40.8313Z" stroke="#1A2578" stroke-width="1.5" stroke-linecap="round" stroke-linejoin="round"/>
<path d="M35.0042 11.1083C36.9904 11.1083 38.6006 9.4981 38.6006 7.51184C38.6006 5.52558 36.9904 3.91541 35.0042 3.91541C33.0179 3.91541 31.4077 5.52558 31.4077 7.51184C31.4077 9.4981 33.0179 11.1083 35.0042 11.1083Z" stroke="#1A2578" stroke-width="1.5" stroke-linecap="round" stroke-linejoin="round"/>
<path d="M7.92911 10.238C9.84979 10.238 11.4068 8.68103 11.4068 6.76035C11.4068 4.83967 9.84979 3.28265 7.92911 3.28265C6.00843 3.28265 4.45142 4.83967 4.45142 6.76035C4.45142 8.68103 6.00843 10.238 7.92911 10.238Z" stroke="#1A2578" stroke-width="1.5" stroke-linecap="round" stroke-linejoin="round"/>
<path d="M21.921 30.3968C27.3785 30.3968 31.8027 25.9726 31.8027 20.5151C31.8027 15.0576 27.3785 10.6334 21.921 10.6334C16.4635 10.6334 12.0393 15.0576 12.0393 20.5151C12.0393 25.9726 16.4635 30.3968 21.921 30.3968Z" stroke="#BF0830" stroke-width="1.5" stroke-linecap="round" stroke-linejoin="round"/>
<path d="M21.6838 26.6815C24.8712 26.6815 27.455 24.0977 27.455 20.9103C27.455 17.723 24.8712 15.1391 21.6838 15.1391C18.4965 15.1391 15.9126 17.723 15.9126 20.9103C15.9126 24.0977 18.4965 26.6815 21.6838 26.6815Z" stroke="#BF0830" stroke-width="1.5" stroke-linecap="round" stroke-linejoin="round"/>
<path d="M10.1021 9.47516L17.643 16.7917" stroke="#1A2578" stroke-width="1.5" stroke-linecap="round" stroke-linejoin="round"/>
<path d="M32.3835 9.97449L25.9666 17.0437" stroke="#1A2578" stroke-width="1.5" stroke-linecap="round" stroke-linejoin="round"/>
<path d="M33.2765 32.4218L25.9666 24.7767" stroke="#1A2578" stroke-width="1.5" stroke-linecap="round" stroke-linejoin="round"/>
<path d="M11.21 31.6362L17.6432 25.0289" stroke="#1A2578" stroke-width="1.5" stroke-linecap="round" stroke-linejoin="round"/>
</svg>
