<svg width="317" height="134" viewBox="0 0 317 134" fill="none" xmlns="http://www.w3.org/2000/svg">
<path d="M267.5 159C303.675 159 333 129.227 333 92.5C333 55.7731 303.675 26 267.5 26C231.325 26 202 55.7731 202 92.5C202 129.227 231.325 159 267.5 159Z" fill="url(#paint0_linear_405_14251)"/>
<path d="M155.5 133C191.675 133 221 103.227 221 66.5C221 29.7731 191.675 0 155.5 0C119.325 0 90 29.7731 90 66.5C90 103.227 119.325 133 155.5 133Z" fill="url(#paint1_linear_405_14251)"/>
<path d="M57.5 166C93.6747 166 123 136.227 123 99.5C123 62.7731 93.6747 33 57.5 33C21.3254 33 -8 62.7731 -8 99.5C-8 136.227 21.3254 166 57.5 166Z" fill="url(#paint2_linear_405_14251)"/>
<path d="M49.9968 51.136C49.9968 51.136 50.6862 47.7772 54.3714 47.1029C58.0567 46.4286 60.6581 49.3299 65.1487 48.2788C69.6394 47.2276 74.4161 49.3299 74.3203 54.5806C74.2245 59.8313 76.899 62.0331 80.3385 64.6131C83.778 67.193 80.244 70.2847 79.4789 73.7394C78.7139 77.194 85.0875 75.9097 84.3514 80.4722C82.2529 93.4741 46.6883 89.8481 41.0734 86.0935C37.881 83.9597 35.78 80.7583 38.0234 77.3188C40.2668 73.8793 41.1365 78.8312 39.8307 69.4428C39.3178 65.7537 43.7731 63.0149 44.5596 60.4325C45.346 57.85 44.2017 51.6881 49.9968 51.136Z" fill="#120283"/>
<path d="M79.434 152.292C78.3492 152.703 77.2569 153.09 76.1571 153.452C61.6415 158.261 46.492 159.163 46.492 159.163L44.0368 157.886L39.1605 155.35L19.7295 145.244V122.266C19.7295 122.266 19.8643 104.566 37.8787 97.5803C39.3152 97.0263 40.7852 96.5632 42.2799 96.1939C43.9689 95.7735 45.6813 95.4536 47.4082 95.236L73.2065 95.1226C73.2065 95.1226 74.845 95.3204 77.333 96.0224C80.0238 96.7785 82.6287 97.8125 85.1056 99.1078C92.8909 103.193 101.731 111.306 102.313 127.144C102.783 139.884 91.7868 147.625 79.434 152.292Z" fill="#E8ECF8"/>
<path d="M44.0417 157.886L39.1654 155.35L19.7344 145.244V122.266C19.7344 122.266 19.8692 104.566 37.8836 97.5803C39.3201 97.0263 40.7901 96.5632 42.2848 96.1939C42.2848 96.1939 43.2716 141.35 44.0417 157.886Z" fill="#120283"/>
<path d="M79.4332 152.292C78.3493 152.703 77.257 153.09 76.1562 153.452C76.581 133.02 77.3347 96.0199 77.3347 96.0199C85.1741 98.2243 101.516 105.412 102.315 127.142C102.784 139.884 91.786 147.625 79.4332 152.292Z" fill="#120283"/>
<path d="M73.212 95.12C70.3547 97.4983 67.5857 98.9426 64.978 99.7304H64.9604C56.3623 102.309 49.5097 97.6886 46.8428 95.4527C47.0356 95.3796 47.2285 95.3053 47.4188 95.2284C47.9196 95.028 48.4027 94.786 48.8631 94.5049C55.659 90.3369 54.4226 78.8878 54.4226 78.8878H66.4892C66.3535 80.5011 66.37 82.1236 66.5384 83.7339C66.9354 87.7191 68.4075 93.0354 73.212 95.12Z" fill="#E8ECF8"/>
<path d="M85.1077 99.1054C82.6757 101.058 80.0884 102.81 77.3716 104.342C60.6177 113.691 48.4616 107.299 42.3476 102.185C39.4223 99.7369 37.8809 97.5804 37.8809 97.5804C39.3169 97.0263 40.7865 96.5633 42.2808 96.1939C43.0748 95.9948 43.897 95.8149 44.7473 95.6545C45.3598 95.5385 45.9875 95.4348 46.6303 95.3432C46.8887 95.3041 47.1483 95.27 47.4104 95.2347L73.2087 95.1238C73.2087 95.1238 73.6057 95.1705 74.3077 95.3041C74.7513 95.3885 75.316 95.5057 75.9852 95.6696C76.3995 95.7696 76.8498 95.8877 77.3363 96.0238C80.0268 96.7783 82.6313 97.811 85.1077 99.1054Z" fill="#E8ECF8"/>
<path d="M77.3712 104.342C60.6173 113.69 48.4612 107.299 42.3472 102.184C43.3857 100.896 44.5314 98.794 44.7418 95.6518C45.3544 95.5359 45.982 95.4321 46.6248 95.3405C46.2051 97.3698 45.701 102.792 51.147 106.289C57.9529 110.66 70.1343 108.295 72.3563 104.283C74.0842 101.158 74.2934 96.9954 74.3023 95.3015C74.7459 95.3859 75.3105 95.5031 75.9798 95.667C75.6937 97.3937 75.3131 101.414 77.3712 104.342Z" fill="#120283"/>
<path d="M66.5321 83.7377C65.8263 84.9464 64.8142 85.7997 63.3811 85.9194C57.7586 86.387 54.5963 80.8629 54.6631 80.3537L54.9543 78.8917H66.4842C66.3481 80.505 66.3641 82.1275 66.5321 83.7377Z" fill="#120283"/>
<path d="M74.1007 68.3309C74.1007 66.7567 72.9878 65.4787 71.6153 65.4787C70.2428 65.4787 69.1299 66.7567 69.1299 68.3309C69.1299 69.905 70.2428 71.8863 71.6153 71.8863C72.9878 71.8863 74.1007 69.9063 74.1007 68.3309Z" fill="#E8ECF8"/>
<path d="M70.9628 69.3091L70.7876 69.2915C70.7876 69.2726 71.0006 67.4122 72.7273 67.3669V67.5433C71.1581 67.5836 70.964 69.2915 70.9628 69.3091Z" fill="#120283"/>
<path d="M72.6652 69.0444C72.3715 68.7406 72.0716 68.5969 71.7729 68.612C71.3191 68.6385 71.0166 69.0331 71.0091 69.0369L70.8691 68.9297C70.8843 68.9108 71.2271 68.4684 71.7602 68.4369C72.1194 68.4167 72.461 68.5793 72.7925 68.9222L72.6652 69.0444Z" fill="#120283"/>
<path d="M46.4922 68.3309C46.4922 66.7567 47.6051 65.4787 48.9776 65.4787C50.3501 65.4787 51.463 66.7567 51.463 68.3309C51.463 69.905 50.3501 71.8863 48.9776 71.8863C47.6051 71.8863 46.4922 69.9063 46.4922 68.3309Z" fill="#E8ECF8"/>
<path d="M49.909 69.3091L50.0842 69.2915C50.0842 69.2725 49.8712 67.4122 48.1445 67.3668V67.5433C49.7137 67.5836 49.9078 69.2914 49.909 69.3091Z" fill="#120283"/>
<path d="M48.2051 69.0444C48.4988 68.7406 48.8 68.5969 49.0987 68.612C49.5512 68.6385 49.8549 69.0331 49.8625 69.0369L50.0011 68.9297C49.9873 68.9108 49.6444 68.4684 49.1113 68.4369C48.7509 68.4167 48.4106 68.5793 48.0791 68.9222L48.2051 69.0444Z" fill="#120283"/>
<path d="M67.4053 79.2822C65.5639 81.3971 63.2322 82.7595 60.4354 82.7142C57.6424 82.7595 55.3083 81.3971 53.4669 79.2822C53.457 79.2683 53.446 79.2552 53.4341 79.2431C50.1357 75.0739 49.4639 69.0015 50.3575 61.7708C51.0003 56.5706 55.9032 54.554 58.6268 53.8306C59.812 53.5155 61.0589 53.5155 62.2441 53.8306C64.9677 54.5553 69.8719 56.5718 70.5147 61.7708C71.4108 69.0242 70.7327 75.1155 67.4053 79.2822Z" fill="#E8ECF8"/>
<path d="M64.199 69.033C64.5289 69.033 64.7964 68.7655 64.7964 68.4355C64.7964 68.1056 64.5289 67.8381 64.199 67.8381C63.869 67.8381 63.6016 68.1056 63.6016 68.4355C63.6016 68.7655 63.869 69.033 64.199 69.033Z" fill="#120283"/>
<path d="M56.2937 69.033C56.6236 69.033 56.8911 68.7655 56.8911 68.4355C56.8911 68.1056 56.6236 67.8381 56.2937 67.8381C55.9638 67.8381 55.6963 68.1056 55.6963 68.4355C55.6963 68.7655 55.9638 69.033 56.2937 69.033Z" fill="#120283"/>
<path d="M68.0308 63.2683C68.0308 63.2683 66.4692 63.3086 64.4174 63.3187C62.3656 63.3288 61.8375 63.3086 62.0228 62.7818C62.208 62.2549 64.2636 62.2663 65.5517 62.4478C66.4146 62.5951 67.2504 62.8717 68.0308 63.2683Z" fill="#120283"/>
<path d="M52.3237 63.2683C52.3237 63.2683 53.8853 63.3086 55.9359 63.3187C57.9865 63.3288 58.5159 63.3086 58.3306 62.7818C58.1453 62.2549 56.0897 62.2663 54.8016 62.4478C53.9391 62.5951 53.1037 62.8717 52.3237 63.2683Z" fill="#120283"/>
<path d="M60.0344 72.6338C59.8201 72.6338 59.6071 72.5997 59.4899 72.4901C59.4499 72.4526 59.4202 72.4054 59.4036 72.3531C59.3871 72.3008 59.3842 72.2451 59.3954 72.1914C59.4823 71.6419 59.8025 69.4614 59.805 69.44L59.979 69.4652C59.979 69.4866 59.6563 71.6683 59.5693 72.2179C59.5624 72.2432 59.5625 72.27 59.5696 72.2953C59.5767 72.3206 59.5905 72.3435 59.6097 72.3615C59.7723 72.514 60.3419 72.4561 60.6634 72.383L60.7024 72.5544C60.483 72.6032 60.2592 72.6298 60.0344 72.6338Z" fill="#120283"/>
<path d="M61.1841 74.0125C60.9255 74.0154 60.6674 73.9874 60.4153 73.9293C60.4049 73.9266 60.3951 73.9218 60.3865 73.9153C60.3779 73.9088 60.3707 73.9006 60.3652 73.8913C60.3598 73.882 60.3562 73.8717 60.3548 73.8611C60.3533 73.8504 60.3539 73.8395 60.3567 73.8291C60.3594 73.8187 60.3642 73.8089 60.3707 73.8003C60.3772 73.7917 60.3853 73.7845 60.3946 73.7791C60.404 73.7736 60.4142 73.77 60.4249 73.7686C60.4356 73.7671 60.4465 73.7678 60.4569 73.7705C61.1314 73.9115 61.8324 73.8519 62.4735 73.5991C62.4834 73.5949 62.4941 73.5927 62.5048 73.5926C62.5156 73.5925 62.5263 73.5945 62.5363 73.5985C62.5464 73.6026 62.5555 73.6085 62.5632 73.6161C62.5709 73.6237 62.577 73.6327 62.5812 73.6426C62.5854 73.6525 62.5877 73.6632 62.5878 73.674C62.5879 73.6848 62.5858 73.6955 62.5818 73.7055C62.5778 73.7155 62.5718 73.7246 62.5642 73.7323C62.5567 73.74 62.5477 73.7461 62.5377 73.7503C62.1082 73.9258 61.6482 74.0149 61.1841 74.0125Z" fill="#120283"/>
<path d="M70.6219 59.1998L70.3018 75.263L71.2269 65.1272C71.2269 65.1272 74.0941 61.3083 70.6219 59.1998Z" fill="#120283"/>
<path d="M50.4129 59.9144L50.5692 75.263L49.6453 65.1272C49.6453 65.1272 46.943 62.0229 50.4129 59.9144Z" fill="#120283"/>
<path d="M101.86 132.227C100.291 139.207 94.9397 144.405 88.1413 148.267C87.3599 148.71 86.5617 149.137 85.7466 149.546C83.6908 150.568 81.5841 151.485 79.4347 152.292C78.6457 136.671 77.6311 105.358 77.335 96.0199C85.177 98.2243 101.513 105.415 102.31 127.139C102.38 128.848 102.229 130.558 101.86 132.227Z" fill="#BF0830"/>
<path d="M42.2809 96.1912L39.1666 155.35L34.3545 152.848L31.6385 151.435L19.7344 145.246V122.264C19.7344 122.264 19.8907 101.788 42.2809 96.1912Z" fill="#BF0830"/>
<path d="M50.4542 62.8232C50.4542 62.8232 50.8184 59.574 52.3233 57.8057C52.3233 57.8057 56.7774 55.0733 68.0298 57.8057C68.0298 57.8057 70.1951 59.0963 70.5215 62.8232C70.5215 62.8232 72.0201 58.8997 69.8346 54.0587C67.6492 49.2177 55.4591 49.3564 52.8917 51.872C50.3244 54.3877 46.7676 59.7215 50.4542 62.8232Z" fill="#120283"/>
<path d="M88.1415 148.267C87.3601 148.71 86.5619 149.137 85.7469 149.546L82.2544 103.382C82.3703 104.452 85.4658 132.679 88.1415 148.267Z" fill="#EF9143"/>
<path d="M31.6387 151.435C34.4228 136.904 37.9719 104.528 38.098 103.383L34.3547 152.848L31.6387 151.435Z" fill="#EF9143"/>
<path d="M44.7031 109.116C44.7031 109.116 58.7473 119.899 75.3714 109.116C75.3714 109.116 60.8975 123.766 44.7031 109.116Z" fill="#EDEDED"/>
<path d="M48.8589 140.754C48.8589 140.754 65.0532 135.309 74.2248 120.118C74.2198 120.118 65.1969 141.327 48.8589 140.754Z" fill="#EDEDED"/>
<path d="M52.3232 57.8059C52.3232 57.8059 57.6722 55.2714 57.9596 58.7109C58.2469 62.1503 60.6429 63.8783 63.5997 62.3356C66.5565 60.7929 67.8471 61.5794 67.203 64.2261C66.559 66.8728 69.4276 66.9006 72.7927 64.2261C76.1579 61.5517 69.6935 56.2015 69.1289 55.9154C68.5642 55.6293 67.0001 52.1886 62.5876 52.8339C58.1751 53.4791 52.3232 57.8059 52.3232 57.8059Z" fill="#120283"/>
<path d="M154.125 35.0225V65.2561C151.83 68.072 148.279 71.6126 145.246 71.1057C140.305 70.2773 139.034 63.8052 137.141 54.0519C135.249 44.2986 141.107 34.4667 154.125 35.0225Z" fill="#120283"/>
<path d="M154.125 35.0225V65.2561C156.421 68.072 159.973 71.6126 163.004 71.1057C167.945 70.2773 169.216 63.8052 171.109 54.0519C173.002 44.2986 167.151 34.4667 154.125 35.0225Z" fill="#120283"/>
<path d="M201.445 145.517C201.445 145.6 201.445 145.682 201.445 145.763C201.315 145.978 201.184 146.187 201.045 146.399C200.971 146.512 200.897 146.624 200.824 146.739C198.545 150.138 195.421 153.08 191.772 155.619C191.468 155.831 191.158 156.043 190.845 156.247C190.562 156.437 190.275 156.622 189.984 156.806C189.461 157.14 188.93 157.464 188.391 157.778C178.002 163.873 164.621 167.302 154.169 169.19C144.523 170.93 137.369 171.352 137.369 171.352L123.565 164.175L119.849 162.241L114.578 159.509L109.86 157.057L109.415 156.827L107.743 155.957L105 154.53V126.758C105 126.758 105 126.559 105.021 126.195C105.034 125.977 105.052 125.7 105.081 125.369C105.081 125.32 105.089 125.271 105.095 125.221C105.173 124.361 105.317 123.177 105.581 121.766C105.923 119.943 106.389 118.145 106.976 116.385C107.063 116.124 107.158 115.857 107.253 115.589C108.342 112.504 109.838 109.578 111.699 106.887C111.88 106.63 112.062 106.374 112.253 106.117C114.708 102.786 117.768 99.9461 121.273 97.7454C121.665 97.4964 122.072 97.2519 122.487 97.0148C124.033 96.1284 125.641 95.3547 127.299 94.6998C128.401 94.2631 129.559 93.8635 130.773 93.5009C131.958 93.1511 133.197 92.8404 134.488 92.5686C134.706 92.5242 134.924 92.4797 135.146 92.4382C136.21 92.2308 137.314 92.0534 138.457 91.9061L169.632 91.7743L169.747 91.8098C170.087 91.9136 171.151 92.2545 172.692 92.8369L172.771 92.868L172.87 92.9065C172.908 92.9199 172.956 92.9377 173.008 92.9614C173.365 93.1007 173.749 93.2578 174.146 93.406C175.248 93.858 176.502 94.4063 177.851 95.0584C179.037 95.6364 180.304 96.293 181.595 97.0326C182.009 97.2697 182.425 97.5167 182.842 97.7736C186.388 99.9255 190.059 102.691 193.031 106.137C193.251 106.386 193.466 106.641 193.673 106.898C195.81 109.476 197.421 112.446 198.416 115.642C198.502 115.908 198.586 116.178 198.669 116.45C199.268 118.48 199.742 120.545 200.089 122.633C200.196 123.242 200.292 123.86 200.385 124.483C200.433 124.813 200.48 125.145 200.523 125.479C200.559 125.752 200.594 126.025 200.628 126.3C200.727 127.079 200.814 127.866 200.889 128.661C201.113 130.919 201.261 133.208 201.355 135.457C201.366 135.736 201.377 136.012 201.389 136.289C201.501 139.527 201.501 142.673 201.445 145.517Z" fill="#120283"/>
<path d="M114.913 131.952C114.716 131.766 114.455 131.662 114.184 131.662C113.913 131.662 113.652 131.766 113.455 131.952C112.77 132.603 111.848 133.583 111.848 134.153C111.848 134.724 112.8 135.736 113.487 136.387C113.676 136.564 113.925 136.662 114.184 136.662C114.443 136.662 114.692 136.564 114.88 136.387C115.568 135.736 116.521 134.734 116.521 134.153C116.521 133.572 115.598 132.603 114.913 131.952Z" fill="#B036CE"/>
<path d="M130.11 131.952C130.023 131.861 129.917 131.788 129.801 131.738C129.684 131.688 129.558 131.662 129.431 131.662C129.305 131.662 129.179 131.688 129.062 131.738C128.946 131.788 128.84 131.861 128.753 131.952C128.115 132.603 127.257 133.582 127.257 134.153C127.257 134.724 128.147 135.736 128.784 136.387C128.868 136.474 128.968 136.543 129.079 136.591C129.191 136.638 129.311 136.662 129.431 136.662C129.552 136.662 129.672 136.638 129.783 136.591C129.895 136.543 129.995 136.474 130.079 136.387C130.719 135.736 131.606 134.734 131.606 134.153C131.606 133.572 130.748 132.603 130.11 131.952Z" fill="#B036CE"/>
<path d="M145.584 131.952C145.388 131.766 145.127 131.662 144.856 131.662C144.585 131.662 144.324 131.766 144.128 131.952C143.441 132.603 142.52 133.582 142.52 134.153C142.52 134.724 143.471 135.736 144.16 136.387C144.349 136.563 144.597 136.662 144.856 136.662C145.114 136.662 145.363 136.563 145.552 136.387C146.241 135.736 147.192 134.734 147.192 134.153C147.192 133.572 146.271 132.603 145.584 131.952Z" fill="#B036CE"/>
<path d="M160.781 131.952C160.693 131.861 160.588 131.788 160.471 131.738C160.355 131.688 160.229 131.663 160.103 131.663C159.976 131.663 159.85 131.688 159.734 131.738C159.617 131.788 159.512 131.861 159.425 131.952C158.786 132.603 157.928 133.583 157.928 134.153C157.928 134.724 158.817 135.736 159.454 136.387C159.538 136.474 159.639 136.543 159.75 136.591C159.861 136.638 159.981 136.663 160.102 136.663C160.223 136.663 160.343 136.638 160.454 136.591C160.565 136.543 160.666 136.474 160.75 136.387C161.391 135.736 162.276 134.734 162.276 134.153C162.276 133.572 161.418 132.603 160.781 131.952Z" fill="#B036CE"/>
<path d="M176.254 131.952C176.058 131.766 175.797 131.662 175.526 131.662C175.255 131.662 174.994 131.766 174.797 131.952C174.111 132.603 173.189 133.582 173.189 134.153C173.189 134.724 174.141 135.736 174.83 136.387C175.019 136.563 175.267 136.662 175.526 136.662C175.784 136.662 176.033 136.563 176.222 136.387C176.911 135.736 177.862 134.734 177.862 134.153C177.862 133.572 176.94 132.603 176.254 131.952Z" fill="#B036CE"/>
<path d="M191.452 131.952C191.364 131.861 191.259 131.788 191.142 131.738C191.026 131.688 190.9 131.663 190.774 131.663C190.647 131.663 190.521 131.688 190.405 131.738C190.288 131.788 190.183 131.861 190.095 131.952C189.458 132.603 188.6 133.583 188.6 134.153C188.6 134.724 189.489 135.736 190.127 136.387C190.21 136.474 190.311 136.543 190.422 136.591C190.534 136.638 190.653 136.663 190.774 136.663C190.895 136.663 191.015 136.638 191.126 136.591C191.238 136.543 191.338 136.474 191.422 136.387C192.062 135.736 192.948 134.734 192.948 134.153C192.948 133.572 192.089 132.603 191.452 131.952Z" fill="#B036CE"/>
<path d="M108.638 123.764C108.638 124.344 107.749 125.347 107.113 125.998C107.03 126.086 106.93 126.156 106.818 126.204C106.707 126.253 106.587 126.278 106.465 126.278C106.344 126.278 106.224 126.253 106.113 126.204C106.001 126.156 105.901 126.086 105.818 125.998C105.593 125.769 105.341 125.5 105.106 125.221C105.185 124.361 105.329 123.177 105.593 121.766L105.787 121.565C105.874 121.473 105.98 121.4 106.096 121.351C106.213 121.301 106.338 121.275 106.465 121.275C106.591 121.275 106.717 121.301 106.833 121.351C106.95 121.4 107.055 121.473 107.143 121.565C107.78 122.214 108.638 123.195 108.638 123.764Z" fill="#B036CE"/>
<path d="M122.619 121.563C122.422 121.377 122.161 121.273 121.889 121.273C121.618 121.273 121.357 121.377 121.16 121.563C120.476 122.214 119.552 123.193 119.552 123.766C119.552 124.338 120.505 125.348 121.193 125.997C121.381 126.175 121.63 126.274 121.889 126.274C122.148 126.274 122.398 126.175 122.586 125.997C123.274 125.348 124.225 124.345 124.225 123.766C124.225 123.186 123.303 122.214 122.619 121.563Z" fill="#B036CE"/>
<path d="M137.814 121.563C137.726 121.472 137.621 121.399 137.504 121.349C137.388 121.299 137.263 121.273 137.136 121.273C137.009 121.273 136.884 121.299 136.767 121.349C136.651 121.399 136.545 121.472 136.458 121.563C135.82 122.214 134.962 123.193 134.962 123.766C134.962 124.338 135.852 125.348 136.489 125.997C136.572 126.086 136.672 126.156 136.784 126.204C136.895 126.252 137.015 126.277 137.137 126.277C137.258 126.277 137.378 126.252 137.489 126.204C137.601 126.156 137.701 126.086 137.784 125.997C138.424 125.348 139.311 124.345 139.311 123.766C139.311 123.186 138.453 122.214 137.814 121.563Z" fill="#B036CE"/>
<path d="M153.289 121.563C153.092 121.377 152.832 121.273 152.56 121.273C152.289 121.273 152.028 121.377 151.831 121.563C151.146 122.214 150.225 123.193 150.225 123.766C150.225 124.338 151.176 125.348 151.864 125.997C152.052 126.175 152.301 126.274 152.56 126.274C152.819 126.274 153.068 126.175 153.257 125.997C153.945 125.348 154.896 124.345 154.896 123.766C154.896 123.186 153.974 122.214 153.289 121.563Z" fill="#B036CE"/>
<path d="M168.486 121.563C168.399 121.472 168.293 121.399 168.176 121.349C168.06 121.299 167.934 121.273 167.807 121.273C167.681 121.273 167.555 121.299 167.438 121.349C167.322 121.399 167.216 121.472 167.129 121.563C166.491 122.214 165.633 123.194 165.633 123.766C165.633 124.338 166.523 125.348 167.16 125.998C167.243 126.086 167.343 126.156 167.455 126.204C167.566 126.253 167.686 126.277 167.807 126.277C167.929 126.277 168.049 126.253 168.16 126.204C168.272 126.156 168.372 126.086 168.455 125.998C169.095 125.348 169.982 124.345 169.982 123.766C169.982 123.186 169.118 122.214 168.486 121.563Z" fill="#B036CE"/>
<path d="M183.959 121.563C183.763 121.377 183.502 121.273 183.231 121.273C182.96 121.273 182.699 121.377 182.503 121.563C181.816 122.214 180.895 123.194 180.895 123.766C180.895 124.338 181.846 125.348 182.535 125.998C182.723 126.175 182.972 126.274 183.231 126.274C183.49 126.274 183.739 126.175 183.927 125.998C184.616 125.348 185.567 124.345 185.567 123.766C185.567 123.186 184.646 122.214 183.959 121.563Z" fill="#B036CE"/>
<path d="M200.389 124.477C200.024 125.027 199.602 125.537 199.13 125.997C199.047 126.085 198.946 126.155 198.835 126.202C198.723 126.25 198.603 126.274 198.482 126.274C198.361 126.274 198.241 126.25 198.13 126.202C198.018 126.155 197.917 126.085 197.834 125.997C197.193 125.347 196.307 124.343 196.307 123.764C196.307 123.185 197.165 122.214 197.804 121.563C197.892 121.472 197.997 121.399 198.113 121.349C198.23 121.299 198.355 121.273 198.482 121.273C198.609 121.273 198.734 121.299 198.851 121.349C198.967 121.399 199.072 121.472 199.16 121.563C199.493 121.898 199.806 122.254 200.095 122.627C200.199 123.241 200.295 123.854 200.389 124.477Z" fill="#B036CE"/>
<path d="M114.913 112.358C114.716 112.172 114.455 112.068 114.184 112.068C113.913 112.068 113.652 112.172 113.455 112.358C112.77 113.009 111.848 113.988 111.848 114.56C111.848 115.132 112.8 116.142 113.487 116.792C113.676 116.97 113.925 117.069 114.184 117.069C114.443 117.069 114.692 116.97 114.88 116.792C115.568 116.142 116.521 115.14 116.521 114.56C116.521 113.981 115.598 113.015 114.913 112.358Z" fill="#B036CE"/>
<path d="M130.11 112.358C130.023 112.267 129.917 112.194 129.801 112.144C129.684 112.094 129.558 112.068 129.431 112.068C129.305 112.068 129.179 112.094 129.062 112.144C128.946 112.194 128.84 112.267 128.753 112.358C128.115 113.009 127.257 113.989 127.257 114.561C127.257 115.133 128.147 116.142 128.784 116.793C128.867 116.881 128.967 116.951 129.079 117C129.19 117.048 129.31 117.072 129.431 117.072C129.553 117.072 129.673 117.048 129.784 117C129.896 116.951 129.996 116.881 130.079 116.793C130.719 116.142 131.606 115.14 131.606 114.561C131.606 113.981 130.748 113.015 130.11 112.358Z" fill="#B036CE"/>
<path d="M145.584 112.358C145.388 112.172 145.127 112.068 144.856 112.068C144.585 112.068 144.324 112.172 144.128 112.358C143.441 113.009 142.52 113.989 142.52 114.561C142.52 115.133 143.471 116.142 144.16 116.793C144.348 116.97 144.597 117.069 144.856 117.069C145.115 117.069 145.364 116.97 145.552 116.793C146.241 116.142 147.192 115.14 147.192 114.561C147.192 113.981 146.271 113.015 145.584 112.358Z" fill="#B036CE"/>
<path d="M160.781 112.358C160.693 112.267 160.588 112.194 160.471 112.144C160.355 112.094 160.229 112.068 160.103 112.068C159.976 112.068 159.85 112.094 159.734 112.144C159.617 112.194 159.512 112.267 159.425 112.358C158.786 113.009 157.928 113.989 157.928 114.561C157.928 115.133 158.817 116.142 159.454 116.793C159.537 116.881 159.638 116.951 159.749 116.999C159.86 117.048 159.981 117.072 160.102 117.072C160.223 117.072 160.343 117.048 160.455 116.999C160.566 116.951 160.666 116.881 160.75 116.793C161.391 116.142 162.276 115.14 162.276 114.561C162.276 113.981 161.418 113.015 160.781 112.358Z" fill="#B036CE"/>
<path d="M176.254 112.358C176.058 112.172 175.797 112.068 175.526 112.068C175.255 112.068 174.994 112.172 174.797 112.358C174.111 113.009 173.189 113.989 173.189 114.561C173.189 115.133 174.141 116.142 174.83 116.793C175.018 116.97 175.267 117.069 175.526 117.069C175.785 117.069 176.034 116.97 176.222 116.793C176.911 116.142 177.862 115.14 177.862 114.561C177.862 113.981 176.94 113.015 176.254 112.358Z" fill="#B036CE"/>
<path d="M191.452 112.358C191.364 112.267 191.259 112.194 191.142 112.144C191.026 112.094 190.9 112.068 190.774 112.068C190.647 112.068 190.521 112.094 190.405 112.144C190.288 112.194 190.183 112.267 190.095 112.358C189.458 113.009 188.6 113.989 188.6 114.561C188.6 115.133 189.489 116.142 190.127 116.793C190.21 116.881 190.31 116.951 190.421 116.999C190.533 117.048 190.653 117.072 190.774 117.072C190.896 117.072 191.016 117.048 191.127 116.999C191.238 116.951 191.339 116.881 191.422 116.793C192.062 116.142 192.948 115.14 192.948 114.561C192.948 113.981 192.089 113.015 191.452 112.358Z" fill="#B036CE"/>
<path d="M122.619 101.971C122.422 101.784 122.161 101.679 121.889 101.679C121.618 101.679 121.357 101.784 121.16 101.971C120.476 102.62 119.552 103.601 119.552 104.171C119.552 104.742 120.505 105.754 121.193 106.403C121.381 106.581 121.63 106.68 121.889 106.68C122.148 106.68 122.398 106.581 122.586 106.403C123.274 105.754 124.225 104.751 124.225 104.171C124.225 103.592 123.303 102.62 122.619 101.971Z" fill="#B036CE"/>
<path d="M137.814 101.971C137.726 101.879 137.621 101.805 137.505 101.755C137.388 101.705 137.263 101.68 137.136 101.68C137.009 101.68 136.883 101.705 136.767 101.755C136.65 101.805 136.545 101.879 136.458 101.971C135.82 102.62 134.962 103.601 134.962 104.172C134.962 104.742 135.852 105.754 136.489 106.404C136.572 106.492 136.672 106.562 136.784 106.61C136.895 106.659 137.015 106.683 137.137 106.683C137.258 106.683 137.378 106.659 137.489 106.61C137.601 106.562 137.701 106.492 137.784 106.404C138.424 105.754 139.311 104.751 139.311 104.172C139.311 103.592 138.453 102.62 137.814 101.971Z" fill="#B036CE"/>
<path d="M153.289 101.971C153.093 101.784 152.832 101.679 152.56 101.679C152.289 101.679 152.028 101.784 151.831 101.971C151.146 102.62 150.225 103.601 150.225 104.171C150.225 104.742 151.176 105.754 151.864 106.403C152.052 106.581 152.301 106.68 152.56 106.68C152.819 106.68 153.068 106.581 153.257 106.403C153.945 105.754 154.896 104.751 154.896 104.171C154.896 103.592 153.974 102.62 153.289 101.971Z" fill="#B036CE"/>
<path d="M168.486 101.971C168.399 101.879 168.293 101.805 168.177 101.755C168.06 101.705 167.934 101.68 167.807 101.68C167.68 101.68 167.555 101.705 167.438 101.755C167.321 101.805 167.216 101.879 167.129 101.971C166.491 102.62 165.633 103.601 165.633 104.172C165.633 104.742 166.523 105.754 167.16 106.404C167.243 106.492 167.343 106.562 167.455 106.61C167.566 106.659 167.686 106.683 167.807 106.683C167.929 106.683 168.049 106.659 168.16 106.61C168.272 106.562 168.372 106.492 168.455 106.404C169.095 105.754 169.982 104.751 169.982 104.172C169.982 103.592 169.118 102.62 168.486 101.971Z" fill="#B036CE"/>
<path d="M183.959 101.971C183.763 101.784 183.502 101.68 183.231 101.68C182.96 101.68 182.699 101.784 182.503 101.971C181.816 102.62 180.895 103.601 180.895 104.172C180.895 104.742 181.846 105.754 182.535 106.404C182.723 106.581 182.972 106.68 183.231 106.68C183.49 106.68 183.739 106.581 183.927 106.404C184.616 105.754 185.567 104.751 185.567 104.172C185.567 103.592 184.646 102.62 183.959 101.971Z" fill="#B036CE"/>
<path d="M131.606 94.9666C131.606 95.5475 130.716 96.5493 130.081 97.1985C129.997 97.2859 129.896 97.3556 129.785 97.4031C129.673 97.4507 129.553 97.4752 129.432 97.4752C129.311 97.4752 129.191 97.4507 129.08 97.4031C128.968 97.3556 128.868 97.2859 128.784 97.1985C128.142 96.5493 127.257 95.5475 127.257 94.9666C127.259 94.875 127.276 94.7844 127.308 94.6983C128.41 94.2616 129.568 93.8619 130.782 93.4993C131.225 94.0239 131.606 94.5872 131.606 94.9666Z" fill="#B036CE"/>
<path d="M177.861 95.0643C177.766 95.6572 176.88 96.5849 176.231 97.1984C176.043 97.376 175.794 97.475 175.535 97.475C175.276 97.475 175.027 97.376 174.839 97.1984C174.15 96.5493 173.2 95.5475 173.2 94.9666C173.2 94.5664 173.657 93.9618 174.164 93.4119C175.257 93.8639 176.511 94.4123 177.861 95.0643Z" fill="#B036CE"/>
<path d="M169.641 91.7727C169.429 92.0083 154.333 108.7 135.155 92.4366C136.219 92.2291 137.323 92.0518 138.466 91.9046L169.641 91.7727Z" fill="#120283"/>
<path d="M169.642 91.7714C166.189 94.6451 162.843 96.3909 159.692 97.3424H159.67C149.275 100.455 140.996 94.8733 137.77 92.1745C138.004 92.0841 138.238 91.9952 138.466 91.9003C139.072 91.6592 139.656 91.3667 140.212 91.0259C142.607 89.5587 144.176 87.5283 145.198 85.3942C147.681 80.1908 146.932 74.3382 146.932 74.3382H161.516C161.351 76.2876 161.371 78.2481 161.576 80.1938C161.753 81.9455 162.103 83.6232 162.761 85.1675C163.889 87.8677 165.952 90.1679 169.642 91.7714Z" fill="#E8ECF8"/>
<path d="M161.571 80.1904C160.717 81.6517 159.496 82.6832 157.761 82.8285C150.966 83.3931 147.143 76.7166 147.223 76.1001L147.576 74.3335H161.507C161.344 76.2835 161.365 78.2445 161.571 80.1904Z" fill="#120283"/>
<path d="M170.722 61.5702C170.722 59.6673 169.376 58.123 167.718 58.123C166.06 58.123 164.714 59.6673 164.714 61.5702C164.714 63.4732 166.058 65.8682 167.718 65.8682C169.378 65.8682 170.722 63.4747 170.722 61.5702Z" fill="#E8ECF8"/>
<path d="M166.93 62.7517L166.72 62.731C166.72 62.7073 166.976 60.4605 169.063 60.4056V60.6176C167.167 60.668 166.933 62.731 166.93 62.7517Z" fill="#120283"/>
<path d="M168.99 62.433C168.634 62.0656 168.271 61.8922 167.91 61.9115C167.363 61.9426 166.991 62.4182 166.988 62.4226L166.819 62.2938C166.837 62.2715 167.25 61.7367 167.895 61.7011C168.329 61.6759 168.741 61.873 169.143 62.2863L168.99 62.433Z" fill="#120283"/>
<path d="M137.36 61.5702C137.36 59.6673 138.704 58.123 140.364 58.123C142.024 58.123 143.366 59.6673 143.366 61.5702C143.366 63.4732 142.022 65.8682 140.364 65.8682C138.705 65.8682 137.36 63.4747 137.36 61.5702Z" fill="#E8ECF8"/>
<path d="M141.484 62.7517L141.695 62.731C141.695 62.7073 141.438 60.4605 139.353 60.4056V60.6176C141.248 60.668 141.482 62.731 141.484 62.7517Z" fill="#120283"/>
<path d="M139.425 62.433C139.78 62.0656 140.143 61.8922 140.505 61.9115C141.052 61.9426 141.422 62.4182 141.427 62.4226L141.596 62.2938C141.578 62.2715 141.165 61.7367 140.518 61.7011C140.084 61.6759 139.672 61.873 139.272 62.2863L139.425 62.433Z" fill="#120283"/>
<path d="M162.63 74.8064C160.407 77.363 157.591 79.0095 154.206 78.9561C150.83 79.011 148.01 77.3644 145.784 74.8064C145.772 74.7893 145.759 74.7734 145.744 74.759C141.757 69.7201 140.946 62.381 142.025 53.6429C142.802 47.3561 148.73 44.9197 152.02 44.0438C153.452 43.6629 154.96 43.6629 156.392 44.0438C159.684 44.9197 165.61 47.3561 166.388 53.6429C167.472 62.4077 166.652 69.7675 162.63 74.8064Z" fill="#E8ECF8"/>
<path d="M158.755 62.4196C159.154 62.4196 159.478 62.0958 159.478 61.6964C159.478 61.297 159.154 60.9732 158.755 60.9732C158.355 60.9732 158.031 61.297 158.031 61.6964C158.031 62.0958 158.355 62.4196 158.755 62.4196Z" fill="#120283"/>
<path d="M149.202 62.4196C149.601 62.4196 149.925 62.0958 149.925 61.6964C149.925 61.297 149.601 60.9732 149.202 60.9732C148.802 60.9732 148.478 61.297 148.478 61.6964C148.478 62.0958 148.802 62.4196 149.202 62.4196Z" fill="#120283"/>
<path d="M162.615 55.6869C162.615 55.6869 160.879 55.7581 158.603 55.7759C156.327 55.7937 155.737 55.7581 155.935 54.8347C156.134 53.9112 158.425 53.9275 159.849 54.2418C161.274 54.556 162.615 55.6869 162.615 55.6869Z" fill="#120283"/>
<path d="M145.171 55.6869C145.171 55.6869 146.905 55.7581 149.183 55.7759C151.461 55.7937 152.05 55.7581 151.851 54.8347C151.652 53.9112 149.363 53.9275 147.937 54.2418C146.511 54.556 145.171 55.6869 145.171 55.6869Z" fill="#120283"/>
<path d="M153.721 66.7754C153.462 66.7754 153.206 66.7339 153.063 66.602C153.015 66.5564 152.979 66.4993 152.959 66.436C152.94 66.3727 152.936 66.3054 152.949 66.2403C153.055 65.5764 153.441 62.9413 153.446 62.9147L153.655 62.9458C153.655 62.9725 153.265 65.6135 153.16 66.273C153.151 66.3035 153.151 66.3357 153.16 66.3662C153.168 66.3968 153.184 66.4245 153.207 66.4464C153.406 66.6301 154.096 66.5605 154.482 66.4716L154.529 66.6791C154.264 66.7381 153.993 66.7704 153.721 66.7754Z" fill="#120283"/>
<path d="M154.446 68.3241C154.188 68.3274 153.93 68.304 153.677 68.2545C153.661 68.2511 153.646 68.2444 153.633 68.235C153.62 68.2255 153.609 68.2135 153.6 68.1996C153.592 68.1857 153.587 68.1703 153.585 68.1542C153.582 68.1382 153.584 68.1219 153.588 68.1063C153.592 68.0906 153.598 68.0757 153.608 68.0627C153.617 68.0496 153.629 68.0386 153.643 68.0303C153.657 68.022 153.672 68.0166 153.688 68.0144C153.704 68.0121 153.721 68.0131 153.736 68.0173C153.844 68.0425 156.404 68.5983 157.738 66.1766C157.745 66.1629 157.755 66.1508 157.768 66.141C157.78 66.1312 157.794 66.1238 157.809 66.1194C157.824 66.115 157.84 66.1136 157.855 66.1153C157.871 66.117 157.886 66.1217 157.899 66.1292C157.913 66.1367 157.925 66.1468 157.935 66.159C157.945 66.1712 157.952 66.1851 157.957 66.2001C157.961 66.2151 157.962 66.2309 157.961 66.2464C157.959 66.2619 157.954 66.277 157.947 66.2907C156.982 68.0366 155.392 68.3241 154.446 68.3241Z" fill="#120283"/>
<path d="M156.076 68.8251C156.045 68.8261 156.016 68.8156 155.993 68.7956C155.971 68.7757 155.956 68.7478 155.954 68.7177C155.951 68.6877 155.96 68.6577 155.978 68.6338C155.997 68.61 156.024 68.5941 156.053 68.5894C156.231 68.5557 156.402 68.492 156.559 68.4012C156.572 68.3931 156.587 68.3878 156.603 68.3856C156.618 68.3833 156.634 68.3841 156.649 68.388C156.664 68.3919 156.678 68.3987 156.691 68.4081C156.703 68.4174 156.714 68.4292 156.722 68.4427C156.738 68.4699 156.742 68.5022 156.734 68.5327C156.727 68.5632 156.707 68.5894 156.68 68.6058C156.5 68.7101 156.304 68.7832 156.099 68.8222L156.076 68.8251Z" fill="#120283"/>
<path d="M165.6 49.84L166.394 61.6963L167.249 57.6948C167.249 57.6948 169.794 52.3891 165.6 49.84Z" fill="#120283"/>
<path d="M142.813 48.4542L141.694 61.6932L141.163 57.6917C141.163 57.6917 138.619 52.389 142.813 48.4542Z" fill="#120283"/>
<path d="M169.642 91.7712C166.189 94.6449 162.843 96.3907 159.692 97.3422H159.67C149.275 100.455 140.996 94.8731 137.77 92.1743C138.004 92.0838 138.238 91.9949 138.466 91.9001C139.072 91.6589 139.656 91.3664 140.212 91.0257C142.607 89.5584 144.176 87.528 145.198 85.3938C148.365 86.5202 155.256 88.2098 162.755 85.1671C163.889 87.8674 165.952 90.1676 169.642 91.7712Z" fill="#E8ECF8"/>
<path d="M169.139 58.5352C162.227 62.8494 158.793 54.089 158.752 49.8415C158.71 45.5939 154.206 45.7955 154.206 45.7955C151.851 45.3212 148.586 47.4806 149.2 51.6925C149.813 55.9045 147.237 57.5911 144.036 58.6019C140.835 59.6126 138.896 57.6756 138.896 57.6756L139.089 56.6708C141.016 56.819 145.293 56.5907 146.843 52.1179C146.738 52.2394 144.204 57.4221 139.184 56.1802L141.693 43.1826L154.258 40.0703H157.948C157.948 40.0703 164.766 42.7661 166.716 47.2316C168.666 51.697 167.715 56.7063 167.715 56.7063C164.634 57.437 162.222 52.8752 162.153 52.7537C164.259 58.1009 169.067 57.0635 169.067 57.0635L169.139 58.5352Z" fill="#120283"/>
<path d="M248.418 47.7628C248.418 47.7628 257.433 43.3918 262.253 53.8698C267.074 64.3479 266 72.9847 272.01 77.3188C278.02 81.6529 275.288 88.2121 271.873 92.6008C268.459 96.9896 258.964 101.628 250.734 97.1917C242.505 92.7552 236.769 99.003 230.623 92.6008C224.476 86.1987 224.548 80.1709 228.268 75.946C231.987 71.7212 233.705 41.8374 248.418 47.7628Z" fill="#120283"/>
<path d="M293.952 128.402C293.952 128.415 293.952 128.428 293.952 128.441C293.908 129.143 293.86 129.835 293.815 130.519C293.666 132.715 293.51 134.822 293.348 136.838C291.736 156.952 289.66 168 289.66 168H209.163C209.163 168 206.166 150.676 205.403 136.029C205.13 130.782 205.143 125.88 205.684 122.233C206.975 113.566 211.951 108.008 217.46 104.46L217.497 104.435C218.2 103.983 218.913 103.565 219.628 103.177C219.949 103.004 220.267 102.836 220.584 102.673C221.979 101.969 223.414 101.346 224.881 100.809C225.732 100.496 226.56 100.221 227.355 99.9794C227.546 99.9221 227.734 99.8661 227.92 99.8128C229.354 99.403 230.652 99.0957 231.745 98.8744C232.881 98.6375 234.029 98.4588 235.184 98.339L262.683 98.2215H262.705C264.204 98.4639 265.69 98.783 267.156 99.1776H267.163C268.137 99.4331 269.231 99.7486 270.405 100.134L270.548 100.18C271.308 100.43 272.1 100.709 272.915 101.018C274.059 101.451 275.247 101.945 276.449 102.509C277.114 102.819 277.783 103.152 278.455 103.508C278.785 103.681 279.114 103.861 279.443 104.046C287.294 108.465 294.754 115.955 293.952 128.402Z" fill="#BF0830"/>
<path d="M262.696 98.2269C259.65 100.762 256.698 102.301 253.92 103.144H253.901C244.735 105.894 237.432 100.968 234.588 98.5861C234.794 98.5083 234.998 98.429 235.203 98.3471C235.737 98.1337 236.252 97.8756 236.742 97.5754C243.981 93.132 242.667 80.9289 242.667 80.9289H255.53C255.386 82.6487 255.403 84.3782 255.582 86.0948C256.015 90.3455 257.579 96.0059 262.696 98.2269Z" fill="#E8ECF8"/>
<path d="M255.576 86.0949C254.824 87.383 253.744 88.2927 252.217 88.417C246.224 88.9142 242.853 83.027 242.929 82.4833L243.24 80.9248H255.534C255.386 82.6457 255.4 84.3767 255.576 86.0949Z" fill="#120283"/>
<path d="M263.646 69.6734C263.646 67.9933 262.46 66.6329 260.998 66.6329C259.535 66.6329 258.348 67.9988 258.348 69.6734C258.348 71.3481 259.533 73.4625 260.998 73.4625C262.462 73.4625 263.646 71.359 263.646 69.6734Z" fill="#E8ECF8"/>
<path d="M260.303 70.7144L260.118 70.6953C260.118 70.6761 260.344 68.6942 262.184 68.6464V68.8335C260.511 68.8772 260.305 70.6966 260.303 70.7144Z" fill="#120283"/>
<path d="M262.119 70.433C261.807 70.1093 261.487 69.9563 261.163 69.9727C260.681 70 260.353 70.4207 260.351 70.4248L260.202 70.3114C260.318 70.1657 260.461 70.0442 260.624 69.954C260.787 69.8638 260.966 69.8065 261.151 69.7856C261.533 69.7651 261.897 69.9372 262.251 70.3033L262.119 70.433Z" fill="#120283"/>
<path d="M234.225 69.6734C234.225 67.9933 235.41 66.6329 236.873 66.6329C238.336 66.6329 239.523 67.9988 239.523 69.6734C239.523 71.3481 238.336 73.4625 236.873 73.4625C235.41 73.4625 234.225 71.359 234.225 69.6734Z" fill="#E8ECF8"/>
<path d="M237.861 70.7144L238.048 70.6953C238.048 70.6761 237.821 68.6942 235.981 68.6464V68.8335C237.653 68.8772 237.859 70.6966 237.861 70.7144Z" fill="#120283"/>
<path d="M236.046 70.433C236.358 70.1093 236.679 69.9563 237.002 69.9727C237.485 70 237.812 70.4207 237.821 70.4248L237.97 70.3114C237.954 70.291 237.589 69.8197 237.014 69.7856C236.632 69.7651 236.268 69.9372 235.915 70.3033L236.046 70.433Z" fill="#120283"/>
<path d="M256.509 81.3455C254.547 83.6006 252.063 85.0526 249.081 85.0034C246.104 85.0526 243.618 83.6006 241.653 81.3455C241.642 81.3306 241.631 81.3165 241.618 81.3031C238.102 76.8597 237.383 70.3866 238.34 62.6814C239.296 54.9502 249.083 53.8206 249.083 53.8206C249.083 53.8206 258.871 54.9502 259.826 62.6814C260.781 70.4125 260.057 76.9021 256.509 81.3455Z" fill="#E8ECF8"/>
<path d="M252.527 71.1527C252.961 71.1527 253.312 70.8011 253.312 70.3673C253.312 69.9335 252.961 69.5819 252.527 69.5819C252.093 69.5819 251.741 69.9335 251.741 70.3673C251.741 70.8011 252.093 71.1527 252.527 71.1527Z" fill="#120283"/>
<path d="M245.02 71.1527C245.454 71.1527 245.805 70.8011 245.805 70.3673C245.805 69.9335 245.454 69.5819 245.02 69.5819C244.586 69.5819 244.234 69.9335 244.234 70.3673C244.234 70.8011 244.586 71.1527 245.02 71.1527Z" fill="#120283"/>
<path d="M257.177 64.2713C257.177 64.2713 255.513 64.315 253.326 64.3259C251.139 64.3368 250.577 64.315 250.772 63.7536C250.967 63.1922 253.16 63.2072 254.528 63.3984C255.45 63.5542 256.343 63.8485 257.177 64.2713Z" fill="#120283"/>
<path d="M240.435 64.2713C240.435 64.2713 242.1 64.315 244.287 64.3259C246.473 64.3368 247.036 64.315 246.841 63.7536C246.646 63.1922 244.452 63.2072 243.085 63.3984C242.162 63.5541 241.269 63.8483 240.435 64.2713Z" fill="#120283"/>
<path d="M248.654 74.6783C248.426 74.6783 248.199 74.6414 248.073 74.524C248.03 74.4841 247.999 74.4338 247.981 74.378C247.964 74.3222 247.961 74.2628 247.973 74.2057C248.066 73.6211 248.406 71.2963 248.411 71.273L248.595 71.3004C248.595 71.3236 248.251 73.6484 248.158 74.2358C248.151 74.2625 248.151 74.2907 248.158 74.3174C248.166 74.344 248.18 74.3682 248.2 74.3874C248.375 74.5499 248.982 74.4884 249.324 74.4106L249.367 74.5923C249.133 74.6451 248.894 74.6739 248.654 74.6783Z" fill="#120283"/>
<path d="M249.25 75.3379C249.25 75.3379 251.237 75.816 252.125 74.8598C252.125 74.8598 251.737 76.943 249.25 75.3379Z" fill="#E8ECF8"/>
<path d="M259.129 59.3282L260.112 73.2033L260.58 66.2576C260.58 66.2576 262.828 61.5752 259.129 59.3282Z" fill="#120283"/>
<path d="M239.034 59.3282L238.244 72.8195L237.579 66.263C237.579 66.263 235.334 61.5752 239.034 59.3282Z" fill="#120283"/>
<path d="M238.047 66.2656C238.047 66.2656 242.734 64.0801 245.466 59.3281C248.198 54.576 248.286 54.0296 250.734 59.6982C253.182 65.3668 257.114 71.7184 262.696 66.6331C262.696 66.6331 261.515 58.4102 259.808 55.6059C258.101 52.8017 250.781 49.9318 249.249 49.9318C247.718 49.9318 237.709 52.5271 237.011 55.259C236.313 57.9908 238.047 66.2656 238.047 66.2656Z" fill="#120283"/>
<path d="M266.395 98.9933C262.464 102.334 256.33 106.608 249.705 107.675C242.251 108.876 235.784 102.945 232.257 98.7856C234.075 98.4414 235.202 98.3458 235.202 98.3458L262.701 98.2283H262.722C262.911 98.2679 264.299 98.4756 266.395 98.9933Z" fill="#E8ECF8"/>
<path d="M293.952 128.402C293.952 128.415 293.952 128.428 293.952 128.441C288.121 106.902 267.609 99.347 267.18 99.194C268.154 99.4495 269.248 99.765 270.421 100.15L270.564 100.197C271.324 100.447 272.116 100.725 272.932 101.034C274.075 101.467 275.263 101.961 276.465 102.526C277.13 102.835 277.799 103.168 278.472 103.524C278.801 103.697 279.13 103.878 279.459 104.062C287.294 108.465 294.754 115.955 293.952 128.402Z" fill="#120283"/>
<defs>
<linearGradient id="paint0_linear_405_14251" x1="327.585" y1="28.9142" x2="150.305" y2="102.649" gradientUnits="userSpaceOnUse">
<stop stop-color="#E3E7F6"/>
<stop offset="1" stop-color="#E3E7F6" stop-opacity="0"/>
</linearGradient>
<linearGradient id="paint1_linear_405_14251" x1="215.585" y1="2.91415" x2="38.3045" y2="76.6486" gradientUnits="userSpaceOnUse">
<stop stop-color="#E3E7F6"/>
<stop offset="1" stop-color="#E3E7F6" stop-opacity="0"/>
</linearGradient>
<linearGradient id="paint2_linear_405_14251" x1="117.585" y1="35.9142" x2="-59.6955" y2="109.649" gradientUnits="userSpaceOnUse">
<stop stop-color="#E3E7F6"/>
<stop offset="1" stop-color="#E3E7F6" stop-opacity="0"/>
</linearGradient>
</defs>
</svg>
