<svg width="24" height="24" viewBox="0 0 24 24" fill="none" xmlns="http://www.w3.org/2000/svg">
<path fill-rule="evenodd" clip-rule="evenodd" d="M12.7053 19.2947C12.3158 19.6842 11.6842 19.6842 11.2947 19.2947V19.2947C10.9054 18.9054 10.9051 18.2743 11.2941 17.8847L16.17 13L5 13C4.44771 13 4 12.5523 4 12V12C4 11.4477 4.44771 11 5 11L16.17 11L11.2941 6.11531C10.9051 5.72568 10.9054 5.0946 11.2947 4.70531V4.70531C11.6842 4.31578 12.3158 4.31578 12.7053 4.70531L20 12L12.7053 19.2947Z" fill="#C2D1D9"/>
<mask id="mask0_1_258199" style="mask-type:alpha" maskUnits="userSpaceOnUse" x="4" y="4" width="16" height="16">
<path fill-rule="evenodd" clip-rule="evenodd" d="M12.7053 19.2947C12.3158 19.6842 11.6842 19.6842 11.2947 19.2947V19.2947C10.9054 18.9054 10.9051 18.2743 11.2941 17.8847L16.17 13L5 13C4.44771 13 4 12.5523 4 12V12C4 11.4477 4.44771 11 5 11L16.17 11L11.2941 6.11531C10.9051 5.72568 10.9054 5.0946 11.2947 4.70531V4.70531C11.6842 4.31578 12.3158 4.31578 12.7053 4.70531L20 12L12.7053 19.2947Z" fill="white"/>
</mask>
<g mask="url(#mask0_1_258199)">
<rect x="24" y="24" width="24" height="24" transform="rotate(180 24 24)" fill="#424B5A"/>
</g>
</svg>
