<svg width="18" height="15" viewBox="0 0 18 15" fill="none" xmlns="http://www.w3.org/2000/svg">
<path d="M17.2678 2.37425C16.6444 2.64768 15.9802 2.82892 15.2878 2.91692C16.0001 2.49158 16.5439 1.8232 16.7995 1.01758C16.1353 1.41358 15.402 1.6933 14.6204 1.84939C13.9898 1.17787 13.0909 0.761963 12.1103 0.761963C10.2079 0.761963 8.67624 2.30615 8.67624 4.1992C8.67624 4.47158 8.69929 4.73349 8.75586 4.98282C5.899 4.84349 3.3711 3.47425 1.67291 1.38844C1.37643 1.90282 1.20253 2.49158 1.20253 3.12539C1.20253 4.31549 1.81538 5.37044 2.72891 5.9812C2.17681 5.97073 1.63519 5.81044 1.17634 5.55796C1.17634 5.56844 1.17634 5.58206 1.17634 5.59568C1.17634 7.26558 2.36748 8.65263 3.92948 8.97215C3.64976 9.04863 3.34491 9.0853 3.02853 9.0853C2.80853 9.0853 2.58643 9.07272 2.37795 9.02663C2.82319 10.3875 4.08662 11.388 5.58891 11.4204C4.41976 12.335 2.93529 12.8861 1.32824 12.8861C1.04643 12.8861 0.776145 12.8735 0.505859 12.8389C2.02805 13.8205 3.83205 14.381 5.77748 14.381C12.1009 14.381 15.558 9.14292 15.558 4.60253C15.558 4.45063 15.5528 4.30396 15.5455 4.15834C16.2275 3.67434 16.8005 3.06987 17.2678 2.37425Z" fill="white"/>
</svg>
