<svg width="10" height="10" viewBox="0 0 10 10" fill="none" xmlns="http://www.w3.org/2000/svg">
<g clip-path="url(#clip0_1_155)">
<path d="M6.10138 5.00048L9.84024 1.26146C9.94309 1.15853 9.99984 1.02122 10 0.874793C10 0.728289 9.94325 0.590809 9.84024 0.488045L9.5126 0.160484C9.40959 0.0573128 9.27228 0.000808716 9.12569 0.000808716C8.97935 0.000808716 8.84203 0.0573128 8.73902 0.160484L5.00016 3.89927L1.26114 0.160484C1.15829 0.0573128 1.02089 0.000808716 0.87439 0.000808716C0.728049 0.000808716 0.59065 0.0573128 0.487805 0.160484L0.16 0.488045C-0.0533333 0.701378 -0.0533333 1.04837 0.16 1.26146L3.89894 5.00048L0.16 8.73935C0.0570732 8.84244 0.000406504 8.97976 0.000406504 9.12618C0.000406504 9.2726 0.0570732 9.40992 0.16 9.51293L0.487724 9.84049C0.590569 9.94358 0.728049 10.0002 0.874309 10.0002C1.02081 10.0002 1.15821 9.94358 1.26106 9.84049L5.00008 6.10162L8.73894 9.84049C8.84195 9.94358 8.97927 10.0002 9.12561 10.0002H9.12577C9.27219 10.0002 9.40951 9.94358 9.51252 9.84049L9.84016 9.51293C9.94301 9.41 9.99976 9.2726 9.99976 9.12618C9.99976 8.97976 9.94301 8.84244 9.84016 8.73943L6.10138 5.00048Z" fill="white"/>
</g>
<defs>
<clipPath id="clip0_1_155">
<rect width="10" height="10" fill="white"/>
</clipPath>
</defs>
</svg>
