<svg width="197" height="78" viewBox="0 0 197 78" fill="none" xmlns="http://www.w3.org/2000/svg">
<path d="M10.8545 33.9932H13.0957C15.1904 33.9932 16.7578 33.583 17.7979 32.7627C18.8379 31.9277 19.3579 30.7192 19.3579 29.1372C19.3579 27.5405 18.9185 26.3613 18.0396 25.5996C17.1753 24.8379 15.813 24.457 13.9526 24.457H10.8545V33.9932ZM26.2354 28.8955C26.2354 32.3525 25.1514 34.9966 22.9834 36.8276C20.8301 38.6587 17.7612 39.5742 13.7769 39.5742H10.8545V51H4.04297V18.876H14.3042C18.2007 18.876 21.1597 19.7183 23.1812 21.4028C25.2173 23.0728 26.2354 25.5703 26.2354 28.8955ZM37.1118 38.6733C37.1118 41.105 37.5073 42.9434 38.2983 44.1885C39.104 45.4336 40.4077 46.0562 42.2095 46.0562C43.9966 46.0562 45.2783 45.4409 46.0547 44.2104C46.8457 42.9653 47.2412 41.1196 47.2412 38.6733C47.2412 36.2417 46.8457 34.418 46.0547 33.2021C45.2637 31.9863 43.9673 31.3784 42.1655 31.3784C40.3784 31.3784 39.0894 31.9863 38.2983 33.2021C37.5073 34.4033 37.1118 36.2271 37.1118 38.6733ZM54.0967 38.6733C54.0967 42.6724 53.042 45.7998 50.9326 48.0557C48.8232 50.3115 45.8862 51.4395 42.1216 51.4395C39.7632 51.4395 37.6831 50.9268 35.8813 49.9014C34.0796 48.8613 32.6953 47.3745 31.7285 45.4409C30.7617 43.5073 30.2783 41.2515 30.2783 38.6733C30.2783 34.6597 31.3257 31.5396 33.4204 29.313C35.5151 27.0864 38.4595 25.9731 42.2534 25.9731C44.6118 25.9731 46.6919 26.4858 48.4937 27.5112C50.2954 28.5366 51.6797 30.0088 52.6465 31.9277C53.6133 33.8467 54.0967 36.0952 54.0967 38.6733ZM73.3447 25.9731C74.2529 25.9731 75.0073 26.0391 75.6079 26.1709L75.1025 32.4551C74.5605 32.3086 73.9014 32.2354 73.125 32.2354C70.9863 32.2354 69.3164 32.7847 68.1152 33.8833C66.9287 34.9819 66.3354 36.52 66.3354 38.4976V51H59.6338V26.4346H64.7095L65.6982 30.5654H66.0278C66.7896 29.1885 67.8149 28.0825 69.104 27.2476C70.4077 26.3979 71.8213 25.9731 73.3447 25.9731ZM90.4175 46.1001C91.5894 46.1001 92.9956 45.8438 94.6362 45.3311V50.3188C92.9663 51.0659 90.9155 51.4395 88.4839 51.4395C85.8032 51.4395 83.8477 50.7656 82.6172 49.418C81.4014 48.0557 80.7935 46.0195 80.7935 43.3096V31.4663H77.5854V28.6318L81.2769 26.3906L83.2104 21.2051H87.4951V26.4346H94.3726V31.4663H87.4951V43.3096C87.4951 44.2617 87.7588 44.9648 88.2861 45.4189C88.8281 45.873 89.5386 46.1001 90.4175 46.1001ZM113.203 31.4663H107.402V51H100.701V31.4663H97.0093V28.2363L100.701 26.4346V24.6328C100.701 21.835 101.389 19.7915 102.766 18.5024C104.143 17.2134 106.348 16.5688 109.38 16.5688C111.694 16.5688 113.752 16.9131 115.554 17.6016L113.84 22.5234C112.493 22.0986 111.248 21.8862 110.105 21.8862C109.153 21.8862 108.464 22.1719 108.04 22.7432C107.615 23.2998 107.402 24.0176 107.402 24.8965V26.4346H113.203V31.4663ZM122.41 38.6733C122.41 41.105 122.805 42.9434 123.596 44.1885C124.402 45.4336 125.706 46.0562 127.507 46.0562C129.294 46.0562 130.576 45.4409 131.353 44.2104C132.144 42.9653 132.539 41.1196 132.539 38.6733C132.539 36.2417 132.144 34.418 131.353 33.2021C130.562 31.9863 129.265 31.3784 127.463 31.3784C125.676 31.3784 124.387 31.9863 123.596 33.2021C122.805 34.4033 122.41 36.2271 122.41 38.6733ZM139.395 38.6733C139.395 42.6724 138.34 45.7998 136.23 48.0557C134.121 50.3115 131.184 51.4395 127.419 51.4395C125.061 51.4395 122.981 50.9268 121.179 49.9014C119.377 48.8613 117.993 47.3745 117.026 45.4409C116.06 43.5073 115.576 41.2515 115.576 38.6733C115.576 34.6597 116.624 31.5396 118.718 29.313C120.813 27.0864 123.757 25.9731 127.551 25.9731C129.91 25.9731 131.99 26.4858 133.792 27.5112C135.593 28.5366 136.978 30.0088 137.944 31.9277C138.911 33.8467 139.395 36.0952 139.395 38.6733ZM151.633 51H144.932V16.8105H151.633V51ZM158.401 20.0845C158.401 17.9019 159.617 16.8105 162.048 16.8105C164.48 16.8105 165.696 17.9019 165.696 20.0845C165.696 21.1245 165.388 21.9375 164.773 22.5234C164.172 23.0947 163.264 23.3804 162.048 23.3804C159.617 23.3804 158.401 22.2817 158.401 20.0845ZM165.388 51H158.687V26.4346H165.388V51ZM177.781 38.6733C177.781 41.105 178.176 42.9434 178.967 44.1885C179.773 45.4336 181.077 46.0562 182.878 46.0562C184.666 46.0562 185.947 45.4409 186.724 44.2104C187.515 42.9653 187.91 41.1196 187.91 38.6733C187.91 36.2417 187.515 34.418 186.724 33.2021C185.933 31.9863 184.636 31.3784 182.834 31.3784C181.047 31.3784 179.758 31.9863 178.967 33.2021C178.176 34.4033 177.781 36.2271 177.781 38.6733ZM194.766 38.6733C194.766 42.6724 193.711 45.7998 191.602 48.0557C189.492 50.3115 186.555 51.4395 182.791 51.4395C180.432 51.4395 178.352 50.9268 176.55 49.9014C174.749 48.8613 173.364 47.3745 172.397 45.4409C171.431 43.5073 170.947 41.2515 170.947 38.6733C170.947 34.6597 171.995 31.5396 174.089 29.313C176.184 27.0864 179.128 25.9731 182.922 25.9731C185.281 25.9731 187.361 26.4858 189.163 27.5112C190.964 28.5366 192.349 30.0088 193.315 31.9277C194.282 33.8467 194.766 36.0952 194.766 38.6733Z" fill="white"/>
<path d="M12.5391 72H11.2266L8.92188 64.3516C8.8125 64.013 8.6901 63.5859 8.55469 63.0703C8.41927 62.5547 8.34896 62.2448 8.34375 62.1406C8.22917 62.8281 8.04688 63.5807 7.79688 64.3984L5.5625 72H4.25L1.21094 60.5781H2.61719L4.42188 67.6328C4.67188 68.6224 4.85417 69.5182 4.96875 70.3203C5.10938 69.3672 5.31771 68.4349 5.59375 67.5234L7.64062 60.5781H9.04688L11.1953 67.5859C11.4453 68.3932 11.6562 69.3047 11.8281 70.3203C11.9271 69.5807 12.1146 68.6797 12.3906 67.6172L14.1875 60.5781H15.5938L12.5391 72ZM20.8047 72.1562C19.5391 72.1562 18.5391 71.7708 17.8047 71C17.0755 70.2292 16.7109 69.1589 16.7109 67.7891C16.7109 66.4089 17.0495 65.3125 17.7266 64.5C18.4089 63.6875 19.3229 63.2812 20.4688 63.2812C21.5417 63.2812 22.3906 63.6354 23.0156 64.3438C23.6406 65.0469 23.9531 65.9766 23.9531 67.1328V67.9531H18.0547C18.0807 68.9583 18.3333 69.7214 18.8125 70.2422C19.2969 70.763 19.9766 71.0234 20.8516 71.0234C21.7734 71.0234 22.6849 70.8307 23.5859 70.4453V71.6016C23.1276 71.7995 22.6927 71.9401 22.2812 72.0234C21.875 72.112 21.3828 72.1562 20.8047 72.1562ZM20.4531 64.3672C19.7656 64.3672 19.2161 64.5911 18.8047 65.0391C18.3984 65.487 18.1589 66.1068 18.0859 66.8984H22.5625C22.5625 66.0807 22.3802 65.4557 22.0156 65.0234C21.651 64.5859 21.1302 64.3672 20.4531 64.3672ZM30.1562 63.2969C31.2812 63.2969 32.1536 63.6823 32.7734 64.4531C33.3984 65.2188 33.7109 66.3047 33.7109 67.7109C33.7109 69.1172 33.3958 70.2109 32.7656 70.9922C32.1406 71.7682 31.2708 72.1562 30.1562 72.1562C29.599 72.1562 29.0885 72.0547 28.625 71.8516C28.1667 71.6432 27.7812 71.3255 27.4688 70.8984H27.375L27.1016 72H26.1719V59.8438H27.4688V62.7969C27.4688 63.4583 27.4479 64.0521 27.4062 64.5781H27.4688C28.0729 63.724 28.9688 63.2969 30.1562 63.2969ZM29.9688 64.3828C29.0833 64.3828 28.4453 64.638 28.0547 65.1484C27.6641 65.6536 27.4688 66.5078 27.4688 67.7109C27.4688 68.9141 27.6693 69.776 28.0703 70.2969C28.4714 70.8125 29.1146 71.0703 30 71.0703C30.7969 71.0703 31.3906 70.7812 31.7812 70.2031C32.1719 69.6198 32.3672 68.7839 32.3672 67.6953C32.3672 66.5807 32.1719 65.75 31.7812 65.2031C31.3906 64.6562 30.7865 64.3828 29.9688 64.3828ZM45.9688 70.8516H45.8984C45.2995 71.7214 44.4036 72.1562 43.2109 72.1562C42.0911 72.1562 41.2188 71.7734 40.5938 71.0078C39.974 70.2422 39.6641 69.1536 39.6641 67.7422C39.6641 66.3307 39.9766 65.2344 40.6016 64.4531C41.2266 63.6719 42.0964 63.2812 43.2109 63.2812C44.3724 63.2812 45.263 63.7031 45.8828 64.5469H45.9844L45.9297 63.9297L45.8984 63.3281V59.8438H47.1953V72H46.1406L45.9688 70.8516ZM43.375 71.0703C44.2604 71.0703 44.901 70.8307 45.2969 70.3516C45.6979 69.8672 45.8984 69.0885 45.8984 68.0156V67.7422C45.8984 66.5286 45.6953 65.6641 45.2891 65.1484C44.888 64.6276 44.2448 64.3672 43.3594 64.3672C42.599 64.3672 42.0156 64.6641 41.6094 65.2578C41.2083 65.8464 41.0078 66.6797 41.0078 67.7578C41.0078 68.8516 41.2083 69.6771 41.6094 70.2344C42.0104 70.7917 42.599 71.0703 43.375 71.0703ZM53.5703 72.1562C52.3047 72.1562 51.3047 71.7708 50.5703 71C49.8411 70.2292 49.4766 69.1589 49.4766 67.7891C49.4766 66.4089 49.8151 65.3125 50.4922 64.5C51.1745 63.6875 52.0885 63.2812 53.2344 63.2812C54.3073 63.2812 55.1562 63.6354 55.7812 64.3438C56.4062 65.0469 56.7188 65.9766 56.7188 67.1328V67.9531H50.8203C50.8464 68.9583 51.099 69.7214 51.5781 70.2422C52.0625 70.763 52.7422 71.0234 53.6172 71.0234C54.5391 71.0234 55.4505 70.8307 56.3516 70.4453V71.6016C55.8932 71.7995 55.4583 71.9401 55.0469 72.0234C54.6406 72.112 54.1484 72.1562 53.5703 72.1562ZM53.2188 64.3672C52.5312 64.3672 51.9818 64.5911 51.5703 65.0391C51.1641 65.487 50.9245 66.1068 50.8516 66.8984H55.3281C55.3281 66.0807 55.1458 65.4557 54.7812 65.0234C54.4167 64.5859 53.8958 64.3672 53.2188 64.3672ZM60.8125 72L57.5625 63.4375H58.9531L60.7969 68.5156C61.2135 69.7031 61.4583 70.474 61.5312 70.8281H61.5938C61.651 70.5521 61.8307 69.9818 62.1328 69.1172C62.4401 68.2474 63.125 66.3542 64.1875 63.4375H65.5781L62.3281 72H60.8125ZM74.3438 67.7109C74.3438 69.1068 73.9922 70.1979 73.2891 70.9844C72.5859 71.7656 71.6146 72.1562 70.375 72.1562C69.6094 72.1562 68.9297 71.9766 68.3359 71.6172C67.7422 71.2578 67.2839 70.7422 66.9609 70.0703C66.638 69.3984 66.4766 68.612 66.4766 67.7109C66.4766 66.3151 66.8255 65.2292 67.5234 64.4531C68.2214 63.6719 69.1901 63.2812 70.4297 63.2812C71.6276 63.2812 72.5781 63.6797 73.2812 64.4766C73.9896 65.2734 74.3438 66.3516 74.3438 67.7109ZM67.8203 67.7109C67.8203 68.8047 68.0391 69.638 68.4766 70.2109C68.9141 70.7839 69.5573 71.0703 70.4062 71.0703C71.2552 71.0703 71.8984 70.7865 72.3359 70.2188C72.7786 69.6458 73 68.8099 73 67.7109C73 66.6224 72.7786 65.7969 72.3359 65.2344C71.8984 64.6667 71.25 64.3828 70.3906 64.3828C69.5417 64.3828 68.901 64.6615 68.4688 65.2188C68.0365 65.776 67.8203 66.6068 67.8203 67.7109ZM77.9219 72H76.625V59.8438H77.9219V72ZM84.2891 72.1562C83.0234 72.1562 82.0234 71.7708 81.2891 71C80.5599 70.2292 80.1953 69.1589 80.1953 67.7891C80.1953 66.4089 80.5339 65.3125 81.2109 64.5C81.8932 63.6875 82.8073 63.2812 83.9531 63.2812C85.026 63.2812 85.875 63.6354 86.5 64.3438C87.125 65.0469 87.4375 65.9766 87.4375 67.1328V67.9531H81.5391C81.5651 68.9583 81.8177 69.7214 82.2969 70.2422C82.7812 70.763 83.4609 71.0234 84.3359 71.0234C85.2578 71.0234 86.1693 70.8307 87.0703 70.4453V71.6016C86.612 71.7995 86.1771 71.9401 85.7656 72.0234C85.3594 72.112 84.8672 72.1562 84.2891 72.1562ZM83.9375 64.3672C83.25 64.3672 82.7005 64.5911 82.2891 65.0391C81.8828 65.487 81.6432 66.1068 81.5703 66.8984H86.0469C86.0469 66.0807 85.8646 65.4557 85.5 65.0234C85.1354 64.5859 84.6146 64.3672 83.9375 64.3672ZM93.6406 72.1562C93.0833 72.1562 92.5729 72.0547 92.1094 71.8516C91.651 71.6432 91.2656 71.3255 90.9531 70.8984H90.8594C90.9219 71.3984 90.9531 71.8724 90.9531 72.3203V75.8438H89.6562V63.4375H90.7109L90.8906 64.6094H90.9531C91.2865 64.1406 91.6745 63.8021 92.1172 63.5938C92.5599 63.3854 93.0677 63.2812 93.6406 63.2812C94.776 63.2812 95.651 63.6693 96.2656 64.4453C96.8854 65.2214 97.1953 66.3099 97.1953 67.7109C97.1953 69.1172 96.8802 70.2109 96.25 70.9922C95.625 71.7682 94.7552 72.1562 93.6406 72.1562ZM93.4531 64.3828C92.5781 64.3828 91.9453 64.625 91.5547 65.1094C91.1641 65.5938 90.9635 66.3646 90.9531 67.4219V67.7109C90.9531 68.9141 91.1536 69.776 91.5547 70.2969C91.9557 70.8125 92.599 71.0703 93.4844 71.0703C94.224 71.0703 94.8021 70.7708 95.2188 70.1719C95.6406 69.5729 95.8516 68.7474 95.8516 67.6953C95.8516 66.6276 95.6406 65.8099 95.2188 65.2422C94.8021 64.6693 94.2135 64.3828 93.4531 64.3828ZM103.086 72.1562C101.82 72.1562 100.82 71.7708 100.086 71C99.3568 70.2292 98.9922 69.1589 98.9922 67.7891C98.9922 66.4089 99.3307 65.3125 100.008 64.5C100.69 63.6875 101.604 63.2812 102.75 63.2812C103.823 63.2812 104.672 63.6354 105.297 64.3438C105.922 65.0469 106.234 65.9766 106.234 67.1328V67.9531H100.336C100.362 68.9583 100.615 69.7214 101.094 70.2422C101.578 70.763 102.258 71.0234 103.133 71.0234C104.055 71.0234 104.966 70.8307 105.867 70.4453V71.6016C105.409 71.7995 104.974 71.9401 104.562 72.0234C104.156 72.112 103.664 72.1562 103.086 72.1562ZM102.734 64.3672C102.047 64.3672 101.497 64.5911 101.086 65.0391C100.68 65.487 100.44 66.1068 100.367 66.8984H104.844C104.844 66.0807 104.661 65.4557 104.297 65.0234C103.932 64.5859 103.411 64.3672 102.734 64.3672ZM112.359 63.2812C112.74 63.2812 113.081 63.3125 113.383 63.375L113.203 64.5781C112.849 64.5 112.536 64.4609 112.266 64.4609C111.573 64.4609 110.979 64.7422 110.484 65.3047C109.995 65.8672 109.75 66.5677 109.75 67.4062V72H108.453V63.4375H109.523L109.672 65.0234H109.734C110.052 64.4661 110.435 64.0365 110.883 63.7344C111.331 63.4323 111.823 63.2812 112.359 63.2812Z" fill="white"/>
</svg>
